<svg width="379" height="425" viewBox="0 0 379 425" fill="none" xmlns="http://www.w3.org/2000/svg">
<path d="M163.462 373.579C163.462 373.579 156.223 354.807 137.053 338.68C137.053 338.68 190.495 316.23 241.256 338.108C241.256 338.108 221.596 356.243 215.128 373.579C215.128 373.579 212.281 370.231 189.154 370.034C189.154 370.034 169.76 369.049 163.462 373.579Z" fill="#010930"/>
<path d="M148.302 344.227C148.302 344.227 196.845 330.566 235.923 344.103C236.813 343.235 241.256 338.108 241.256 338.108C190.495 316.23 137.053 338.68 137.053 338.68C147.364 347.355 154.22 356.791 158.357 363.664C156.083 356.789 149.976 350.267 148.302 344.227Z" fill="#02125E"/>
<path d="M234.675 335.524C231.874 340.094 228.184 344.232 223.713 348.025C216.469 354.17 208.879 359.693 198.767 362.283C187.259 365.23 175.796 364.405 163.976 364.284C162.211 364.266 160.467 364.278 158.731 364.29C162.019 369.848 163.462 373.579 163.462 373.579C169.76 369.049 189.154 370.034 189.154 370.034C212.28 370.231 215.128 373.579 215.128 373.579C221.595 356.243 241.255 338.108 241.255 338.108C239.064 337.164 236.87 336.308 234.675 335.524Z" fill="#040925"/>
<path d="M236.667 342.647C236.667 342.647 344.929 236.26 361.215 203.163C361.215 203.163 392.832 155.092 371.754 114.114C371.754 114.114 366.964 62.8918 329.599 50.283C329.599 50.283 304.688 24.2774 267.324 17.1851C267.324 17.1851 248.162 2.21272 215.587 6.15279C215.587 6.15279 189.719 -7.77655 165.767 6.28117C165.767 6.28117 134.15 -3.30312 105.408 17.9737C105.408 17.9737 63.2527 21.9138 43.1329 52.6473C43.1329 52.6473 0.977464 69.1955 4.80985 122.783C4.80985 122.783 -27.765 166.125 76.6656 275.663L140.857 342.647C140.857 342.647 190.677 323.734 236.667 342.647Z" fill="#FFFDF7"/>
<path d="M236.667 342.647C236.667 342.647 344.929 236.26 361.215 203.163C361.215 203.163 392.832 155.092 371.754 114.114C371.754 114.114 366.964 62.8918 329.599 50.283C329.599 50.283 304.688 24.2774 267.324 17.1851C267.324 17.1851 248.162 2.21272 215.587 6.15279C215.587 6.15279 189.719 -7.77655 165.767 6.28117C165.767 6.28117 134.15 -3.30312 105.408 17.9737C105.408 17.9737 63.2527 21.9138 43.1329 52.6473C43.1329 52.6473 0.977464 69.1955 4.80985 122.783C4.80985 122.783 -27.765 166.125 76.6656 275.663L140.857 342.647C140.857 342.647 190.677 323.734 236.667 342.647Z" fill="#FFFDF7"/>
<path d="M236.667 342.647C236.667 342.647 344.929 236.26 361.215 203.163C361.215 203.163 392.832 155.092 371.754 114.114C371.754 114.114 366.964 62.8918 329.599 50.283C329.599 50.283 304.688 24.2774 267.324 17.1851C267.324 17.1851 248.162 2.21272 215.587 6.15279C215.587 6.15279 189.719 -7.77655 165.767 6.28117C165.767 6.28117 134.15 -3.30312 105.408 17.9737C105.408 17.9737 63.2527 21.9138 43.1329 52.6473C43.1329 52.6473 0.977464 69.1955 4.80985 122.783C4.80985 122.783 -27.765 166.125 76.6656 275.663L140.857 342.647C140.857 342.647 190.677 323.734 236.667 342.647Z" fill="#FFFDF7"/>
<path d="M236.667 342.647C236.667 342.647 344.929 236.26 361.215 203.163C361.215 203.163 392.832 155.092 371.754 114.114C371.754 114.114 366.964 62.8918 329.599 50.283C329.599 50.283 304.688 24.2774 267.324 17.1851C267.324 17.1851 248.162 2.21272 215.587 6.15279C215.587 6.15279 189.719 -7.77655 165.767 6.28117C165.767 6.28117 134.15 -3.30312 105.408 17.9737C105.408 17.9737 63.2527 21.9138 43.1329 52.6473C43.1329 52.6473 0.977464 69.1955 4.80985 122.783C4.80985 122.783 -27.765 166.125 76.6656 275.663L140.857 342.647C140.857 342.647 190.677 323.734 236.667 342.647Z" fill="#FFFDF7"/>
<path d="M366.198 141.704C336.856 207.442 298.023 256.238 279.464 250.694C260.903 245.149 269.643 187.364 298.985 121.626C310.502 95.8235 323.481 72.6339 336.123 54.3129C334.067 53.2739 331.898 52.3574 329.604 51.5878C329.604 51.5878 304.693 25.7219 267.328 18.6677C267.328 18.6677 264.08 16.1485 257.999 13.456C260.18 35.2362 259.791 62.4082 256.309 91.6869C248.023 161.341 235.113 216.129 210.96 214.082C189.562 212.269 192.322 80.5942 189.499 49.2369C184.54 79.1096 176.11 212.181 149.977 213.837C130.278 215.085 118.543 157.73 115.698 87.7864C114.532 59.1217 116.146 32.6123 119.816 11.2637C115.039 13.27 110.184 15.9353 105.408 19.452C105.408 19.452 63.2518 23.371 43.1316 53.9395C43.1316 53.9395 40.0093 55.1614 35.5451 58.0075C48.4994 75.2202 61.9059 96.5607 74.1745 120.245C107.552 184.682 119.862 242.031 101.669 248.338C83.4761 254.644 41.6701 207.521 8.29296 143.085C6.05607 138.766 3.91751 134.481 1.87274 130.24C-2.89687 145.927 -4.72967 190.844 76.6651 275.758L140.858 342.382C140.858 342.382 190.679 323.571 236.67 342.382C236.67 342.382 344.934 236.567 361.221 203.647C361.221 203.647 389.594 160.73 374.652 121.557C372.06 128.154 369.241 134.885 366.198 141.704" fill="#F5F4EF"/>
<path d="M187.208 84.7188C187.053 80.8863 186.849 77.0976 186.604 73.3541C186.058 77.1532 185.55 81.0013 185.089 84.8983C181.731 113.279 181.25 139.691 183.173 161.174C186.785 139.794 188.365 113.322 187.208 84.7188" fill="#981269"/>
<path d="M103.728 18.1842C95.7073 19.2918 60.8646 25.5658 43.1325 52.6523C43.1325 52.6523 42.4352 52.9268 41.2345 53.5144C43.3646 88.7414 64.7049 166.82 154.996 338.561C157.543 337.963 160.38 337.363 163.462 336.808C109.35 119.724 101.838 44.2736 103.728 18.1842" fill="#D03200"/>
<path d="M371.755 114.118C371.755 114.118 371.685 113.378 371.5 112.065C366.728 147.382 343.802 234.819 235.233 342.08C235.711 342.268 236.189 342.455 236.667 342.651C236.667 342.651 344.929 236.265 361.215 203.167C361.215 203.167 392.832 155.096 371.755 114.118Z" fill="#CE5C23"/>
<path d="M76.665 275.663L140.856 342.647C140.856 342.647 144.212 341.375 149.976 339.82C49.7827 222.775 14.8678 158.733 3.49147 125.116C-1.41062 135.407 -13.9603 180.605 76.665 275.663" fill="#90A3E8"/>
<path d="M330.332 50.5492C330.087 50.4617 329.846 50.3697 329.598 50.2859C329.598 50.2859 304.687 24.2803 267.323 17.1881C267.323 17.1881 266.939 16.8913 266.213 16.4039C267.424 44.9934 259.918 123.02 206.181 335.041C211.699 335.648 217.337 336.638 222.996 338.108C325.028 160.638 333.679 81.3243 330.332 50.5492Z" fill="#FAC303"/>
<path d="M214.255 5.5043C208.695 2.92704 186.518 -5.89603 165.767 6.28327C165.767 6.28327 165.048 6.06587 163.737 5.76986C158.923 34.0975 156.642 114.574 171.979 335.498C177.537 334.793 183.616 334.309 190.036 334.25C212.412 114.614 214.623 33.0834 214.255 5.5043" fill="#187202"/>
<path d="M215.129 377.42V373.578C215.129 371.457 203.53 369.737 189.221 369.737C174.912 369.737 163.313 371.457 163.313 373.578V377.42H215.129" fill="#D03200"/>
<path d="M189.221 372.102C174.912 372.102 163.313 373.822 163.313 375.944V377.42H215.129V375.944C215.129 373.822 203.53 372.102 189.221 372.102Z" fill="#FF5D0D"/>
<path d="M215.129 377.417C215.129 379.539 203.53 381.259 189.221 381.259C174.912 381.259 163.313 379.539 163.313 377.417C163.313 375.295 174.912 373.575 189.221 373.575C203.53 373.575 215.129 375.295 215.129 377.417Z" fill="#010930"/>
<path d="M213.761 376.185C210.299 377.703 200.624 378.796 189.221 378.796C177.818 378.796 168.143 377.703 164.68 376.185C163.798 376.572 163.313 376.986 163.313 377.417C163.313 379.539 174.912 381.259 189.221 381.259C203.53 381.259 215.129 379.539 215.129 377.417C215.129 376.986 214.643 376.572 213.761 376.185Z" fill="#DD4901"/>
<path d="M232.608 354.272C232.284 354.272 232.008 354.191 231.801 354.107L231.604 354.096C231.368 354.041 231.041 353.9 230.825 353.536C230.245 352.563 230.843 350.239 231.641 348.048C229.261 351.214 227.078 352.958 225.128 353.245C224.064 353.402 223.083 353.137 222.214 352.456C220.317 350.968 220.156 347.795 220.478 344.97C218.986 347.758 216.761 350.635 213.885 351.692C212.137 352.336 210.324 352.247 208.497 351.431C205.4 350.047 204.123 345.365 204.094 341.456C202.653 344.87 200.402 348.75 197.069 348.792H197.007C192.995 348.792 190.86 343.817 189.823 340.079C189.412 342.629 188.349 345.391 186.242 346.974C184.818 348.041 183.093 348.441 181.113 348.161C175.806 347.408 173.418 342.072 172.134 339.205C172.087 339.1 172.039 338.992 171.991 338.886C172.014 339.2 172.041 339.537 172.068 339.859C172.371 343.563 172.522 346.46 171.498 347.236C170.668 347.867 169.713 348.014 168.733 347.661C167.252 347.128 165.897 345.503 164.874 343.75C165.051 345.277 164.941 346.681 164.041 347.452C163.49 347.924 162.711 348.104 161.726 347.988C159.418 347.714 157.325 345.577 155.866 343.677C156.546 346.091 156.747 348.535 155.819 349.601C155.514 349.952 155.095 350.136 154.609 350.136C153.594 350.136 152.549 348.687 151.648 346.908C151.743 348.717 151.48 350.616 150.376 352.01C149.16 353.546 146.976 354.418 144.936 354.173C143.292 353.978 142.062 353.075 141.561 351.695C141.066 350.33 141.187 348.911 141.305 347.54C141.408 346.351 141.504 345.229 141.232 344.144C141.179 343.931 141.345 343.722 141.604 343.679C141.865 343.635 142.117 343.772 142.17 343.985C142.469 345.176 142.363 346.406 142.261 347.595C142.144 348.957 142.033 350.242 142.479 351.469C142.874 352.558 143.796 353.242 145.073 353.393C146.721 353.589 148.572 352.844 149.573 351.58C151.54 349.096 150.469 344.58 149.855 342.588C149.725 342.218 149.609 341.878 149.513 341.582C149.444 341.376 149.589 341.163 149.838 341.101C150.087 341.042 150.351 341.154 150.431 341.358C150.457 341.424 150.616 341.833 150.811 342.468C152.177 346.295 153.841 349.348 154.609 349.348C154.726 349.348 154.881 349.325 155.041 349.142C155.782 348.29 155.654 345.238 154.155 341.606C153.643 340.365 153.6 340.263 154.038 340.111C154.467 339.962 154.614 340.197 154.973 340.767C157.509 344.799 159.827 346.966 161.862 347.207C162.535 347.289 163.02 347.189 163.35 346.906C164.503 345.919 163.814 342.876 163.359 340.863C163.148 339.93 162.982 339.193 162.982 338.711C162.982 338.494 163.196 338.318 163.461 338.318C163.726 338.318 163.94 338.494 163.94 338.711C163.94 338.782 163.945 338.862 163.954 338.952C164.162 340.873 166.627 346.043 169.118 346.94C169.745 347.166 170.296 347.077 170.848 346.657C171.616 346.074 171.276 341.913 171.112 339.912C170.906 337.401 170.874 337.014 171.488 336.947C172.116 336.881 172.364 337.438 173.033 338.933C174.25 341.65 176.514 346.709 181.277 347.384C182.949 347.621 184.402 347.287 185.596 346.392C188.582 344.15 189.282 339.056 189.022 336.372C189.001 336.159 189.192 335.97 189.45 335.949C189.711 335.93 189.942 336.079 189.974 336.291C190.159 337.493 191.926 348.005 197.007 348.005L197.054 348.004C200.874 347.955 203.362 340.942 204.423 337.947C204.523 337.665 204.611 337.415 204.689 337.206C204.766 336.999 205.033 336.881 205.286 336.944C205.539 337.007 205.682 337.227 205.606 337.435C204.343 340.86 205.076 349.004 208.955 350.738C210.527 351.441 212.013 351.518 213.494 350.973C217.944 349.337 220.737 342.66 221.444 340.208L221.448 340.196C221.508 339.983 221.765 339.854 222.024 339.903C222.281 339.953 222.441 340.165 222.38 340.376C221.178 344.563 220.586 350.09 222.876 351.885C223.519 352.39 224.199 352.581 224.96 352.469C226.594 352.228 229.417 350.47 233.588 343.46L233.674 343.318C233.786 343.127 234.06 343.045 234.299 343.132C234.534 343.218 234.644 343.443 234.547 343.64C233.05 346.677 230.951 351.955 231.686 353.19L231.687 353.191C231.783 353.198 231.894 353.229 232.021 353.299C232.281 353.444 232.571 353.557 232.928 353.421C233.577 353.172 235.195 351.774 236.187 344.185C236.215 343.968 236.445 343.808 236.714 343.835C236.977 343.859 237.168 344.052 237.14 344.269C236.361 350.225 235.116 353.452 233.333 354.135C233.074 354.234 232.829 354.272 232.608 354.272" fill="#FFFFFE"/>
<path d="M236.665 344.226C236.418 344.226 236.166 344.186 235.923 344.103C185.644 326.742 142.137 343.889 141.703 344.063C140.756 344.448 139.605 344.127 139.138 343.345C138.671 342.564 139.061 341.62 140.01 341.236C140.458 341.053 185.462 323.264 237.407 341.196C238.383 341.533 238.842 342.457 238.433 343.259C238.124 343.863 237.414 344.226 236.665 344.226" fill="#DD4901"/>
<path d="M140.009 341.234L139.911 341.284C140.444 341.515 141.112 341.547 141.702 341.325C142.136 341.163 185.643 325.205 235.923 341.361C236.165 341.439 236.417 341.476 236.664 341.476C236.994 341.476 237.311 341.4 237.596 341.278L237.406 341.194C185.462 323.262 140.457 341.051 140.009 341.234" fill="#FF5D0D"/>
<path d="M191.179 415.153C191.509 412.13 191.84 409.107 192.17 406.084C192.235 405.49 192.301 404.893 192.484 404.316C192.484 404.286 196.42 404.13 196.779 404.113C197.157 404.095 197.239 404.068 197.384 404.359C197.51 404.613 197.611 404.875 197.692 405.141C197.856 405.676 197.942 406.225 198.01 406.773C198.398 409.906 198.223 413.067 197.997 416.21C197.957 416.759 197.899 417.345 197.486 417.776C197.215 418.059 196.74 418.251 196.334 418.116C195.894 417.97 195.734 417.532 195.658 417.147C195.403 415.853 195.477 414.532 195.436 413.221C195.384 411.544 195.144 409.876 194.903 408.21C194.436 410.694 194.042 413.188 193.721 415.688C193.632 416.386 193.526 417.13 192.983 417.672C192.699 417.954 192.223 418.17 191.814 418.024C191.541 417.927 191.376 417.695 191.275 417.465C191.001 416.84 191.069 416.154 191.142 415.492C191.154 415.379 191.166 415.266 191.179 415.153" fill="#262628"/>
<path d="M196.146 417.988C196.143 417.99 196.141 417.994 196.138 417.999C196.112 418.044 196.158 418.11 196.167 418.156C196.182 418.23 196.183 418.308 196.176 418.383C196.173 418.408 196.168 418.439 196.208 418.445C196.541 418.502 196.894 418.487 197.216 418.402C197.284 418.383 197.28 418.309 197.278 418.265C197.276 418.205 197.272 418.148 197.277 418.088C197.281 418.05 197.285 417.984 197.227 417.967C197.198 417.959 197.109 417.983 197.075 417.986C196.972 417.994 196.868 417.993 196.765 417.99C196.64 417.987 196.516 417.979 196.392 417.977C196.328 417.976 196.264 417.977 196.2 417.98C196.174 417.981 196.158 417.979 196.146 417.988" fill="#565A5B"/>
<path d="M197.224 418.367C197.24 418.372 197.255 418.379 197.269 418.388C197.302 418.411 197.32 418.444 197.337 418.476C197.398 418.591 197.439 418.699 197.526 418.805C197.655 418.964 197.817 419.153 198.012 419.261C198.086 419.302 198.169 419.332 198.239 419.377C198.309 419.423 198.367 419.489 198.363 419.563C198.362 419.585 198.354 419.608 198.336 419.625C198.318 419.641 198.293 419.65 198.269 419.658C198.048 419.731 197.802 419.777 197.573 419.724C197.398 419.683 197.234 419.593 197.081 419.515C196.824 419.384 196.598 419.206 196.33 419.093C196.261 419.064 196.188 419.041 196.131 418.998C196.031 418.923 196.001 418.8 196.02 418.69C196.035 418.607 196.074 418.483 196.139 418.416C196.188 418.366 196.292 418.391 196.356 418.401C196.444 418.415 196.528 418.409 196.619 418.405C196.749 418.4 196.881 418.394 197.009 418.374C197.079 418.362 197.159 418.348 197.224 418.367" fill="#F8A018"/>
<path d="M191.893 417.902C191.779 417.89 191.669 417.867 191.557 417.849C191.535 417.845 191.511 417.846 191.495 417.858C191.453 417.887 191.463 417.936 191.46 417.976C191.447 418.135 191.379 418.288 191.375 418.447C191.375 418.455 191.375 418.463 191.381 418.47C191.387 418.476 191.397 418.478 191.406 418.48C191.585 418.519 191.767 418.551 191.95 418.575C192.083 418.592 192.217 418.606 192.351 418.598C192.395 418.595 192.442 418.589 192.47 418.562C192.496 418.537 192.498 418.502 192.5 418.469C192.507 418.356 192.549 418.247 192.6 418.142C192.621 418.098 192.731 417.944 192.638 417.91C192.582 417.891 192.509 417.917 192.452 417.92C192.365 417.926 192.275 417.924 192.188 417.922C192.09 417.919 191.991 417.913 191.893 417.902Z" fill="#565A5B"/>
<path d="M191.417 418.379C191.4 418.382 191.384 418.388 191.369 418.397C191.334 418.417 191.313 418.449 191.293 418.48C191.221 418.59 191.169 418.695 191.073 418.795C190.928 418.945 190.749 419.123 190.543 419.218C190.466 419.254 190.38 419.278 190.306 419.319C190.232 419.359 190.168 419.422 190.164 419.496C190.164 419.518 190.169 419.541 190.186 419.559C190.201 419.577 190.226 419.587 190.249 419.597C190.462 419.683 190.703 419.746 190.937 419.708C191.115 419.679 191.287 419.6 191.448 419.532C191.716 419.419 191.958 419.256 192.237 419.161C192.308 419.137 192.383 419.118 192.444 419.079C192.551 419.011 192.593 418.89 192.585 418.779C192.578 418.695 192.551 418.57 192.493 418.499C192.449 418.446 192.343 418.463 192.278 418.469C192.188 418.477 192.106 418.466 192.016 418.456C191.886 418.442 191.756 418.428 191.63 418.399C191.56 418.383 191.483 418.364 191.417 418.379" fill="#F8A018"/>
<path d="M192.203 405.935C192.195 405.903 192.183 405.871 192.154 405.85C192.121 405.826 192.075 405.821 192.032 405.816C191.932 405.806 191.832 405.796 191.732 405.786C191.701 405.782 191.668 405.779 191.638 405.788C191.572 405.807 191.548 405.873 191.534 405.93C191.473 406.173 191.413 406.417 191.352 406.66C191.325 406.768 191.29 406.876 191.303 406.987C191.317 407.1 191.368 407.208 191.431 407.309C191.563 407.519 191.751 407.706 191.979 407.851C191.999 407.864 192.027 407.877 192.049 407.867C192.077 407.854 192.069 407.819 192.057 407.795C191.989 407.668 191.888 407.556 191.82 407.43C191.706 407.217 191.689 406.979 191.674 406.747C191.673 406.731 191.673 406.713 191.684 406.699C191.694 406.685 191.721 406.678 191.735 406.69C191.742 406.696 191.744 406.705 191.745 406.713C191.783 406.935 191.757 407.177 191.904 407.366C191.923 407.391 191.956 407.417 191.99 407.406C192.004 407.401 192.014 407.39 192.021 407.379C192.048 407.338 192.05 407.289 192.054 407.242C192.085 406.809 192.29 406.38 192.207 405.952C192.206 405.947 192.205 405.941 192.203 405.935" fill="#7C4117"/>
<path d="M191.083 400.946C191.016 400.81 190.97 400.664 190.962 400.503C190.944 400.129 191.052 399.756 191.211 399.405C191.057 399.012 191.039 398.593 191.271 398.203C191.448 397.906 191.802 397.626 192.186 397.517C192.441 397.446 192.767 397.521 192.904 397.72C193.015 397.883 192.876 398.011 192.826 398.165C192.768 398.346 192.919 398.517 192.919 398.703C193.039 399.146 193.095 399.583 193.036 400.026C193.116 400.577 193.03 401.111 192.724 401.688C192.941 402.347 192.992 403.044 192.695 403.689C192.742 403.785 192.792 403.88 192.814 403.979C192.884 404.297 192.882 404.627 192.799 404.943C192.707 405.291 192.494 405.52 192.29 405.82C192.29 405.82 191.618 405.823 191.618 405.823C191.612 405.823 191.442 405.621 191.416 405.594C191.325 405.501 191.255 405.411 191.202 405.299C191.068 405.019 190.856 404.764 190.773 404.469C190.634 403.971 190.761 403.468 190.931 402.986C190.823 402.794 190.743 402.588 190.714 402.35C190.654 401.855 190.787 401.372 191.083 400.946" fill="#030C43"/>
<path d="M191.976 405.515C191.736 405.519 191.493 405.5 191.272 405.441C191.264 405.44 191.256 405.438 191.249 405.438C191.219 405.44 191.216 405.469 191.223 405.49C191.243 405.558 191.26 405.63 191.264 405.699C191.268 405.764 191.252 405.851 191.297 405.911C191.37 406.008 191.587 406.015 191.724 406.024C191.918 406.037 192.116 406.025 192.303 405.988C192.353 405.978 192.397 405.962 192.414 405.925C192.423 405.907 192.425 405.887 192.427 405.867C192.436 405.796 192.454 405.725 192.484 405.656C192.501 405.614 192.535 405.575 192.544 405.53C192.561 405.447 192.467 405.48 192.387 405.488C192.253 405.503 192.115 405.512 191.976 405.515" fill="#03279F"/>
<path d="M192.193 403.202C191.739 402.566 191.684 401.693 192.202 401.086C192.204 401.08 192.205 401.074 192.207 401.068C191.666 400.61 191.721 399.597 191.924 399.082C191.924 399.08 191.926 399.078 191.927 399.076C191.731 398.801 191.624 398.518 191.634 398.154C191.65 397.569 192.171 397.39 192.718 397.144C192.799 397.108 193.489 396.797 193.505 396.831C193.622 397.089 193.746 397.321 194.008 397.506C194.256 397.68 194.572 397.771 194.898 397.751C195.381 397.72 195.763 397.412 196.013 397.094C196.152 396.918 196.226 396.752 196.26 396.583C196.267 396.55 196.764 396.611 196.816 396.617C197.163 396.656 197.476 396.766 197.792 396.886C198.005 396.968 198.252 397.042 198.372 397.218C198.5 397.409 198.511 397.642 198.493 397.854C198.462 398.232 198.161 398.464 197.935 398.751C198.094 399.184 198.157 399.637 198.029 400.084C197.962 400.314 197.839 400.52 197.686 400.712C197.945 400.94 198.101 401.233 198.124 401.561C198.152 401.961 197.975 402.31 197.719 402.628C197.743 402.599 197.988 403.119 197.997 403.144C198.082 403.4 198.212 403.761 198.068 404.015C198.012 404.294 197.64 404.473 197.351 404.583C196.738 404.818 196.061 404.973 195.415 405.138C194.509 405.37 193.398 405.624 192.463 405.351C191.745 405.14 191.601 404.493 191.768 403.943C191.849 403.673 192.003 403.428 192.193 403.202" fill="#03279F"/>
<path d="M193.648 393.075C193.655 393.114 193.653 393.157 193.628 393.191C193.6 393.201 193.574 393.213 193.553 393.228C193.436 393.309 193.342 393.388 193.284 393.504C193.242 393.588 193.225 393.667 193.225 393.747C193.131 393.635 193.014 393.502 193.013 393.361C193.011 393.204 193.092 393.042 193.22 392.919C193.248 392.892 193.277 392.867 193.309 392.844C193.348 392.816 193.455 392.734 193.511 392.767C193.555 392.792 193.582 392.877 193.6 392.916C193.622 392.967 193.639 393.021 193.648 393.075" fill="#1B1C1F"/>
<path d="M193.711 396.66C193.921 396.336 194.024 395.976 194.049 395.619C194.051 395.591 194.048 395.407 194.049 395.219C194.111 395.24 194.183 395.253 194.265 395.254C194.625 395.258 194.995 395.088 195.322 394.987C195.423 394.956 195.523 394.923 195.62 394.887C195.615 394.996 195.613 395.104 195.618 395.212C195.627 395.438 195.661 395.668 195.739 395.887C195.892 396.318 196.308 396.761 196.889 396.931C196.806 396.907 196.416 397.513 196.366 397.575C196.152 397.847 195.725 398.05 195.312 398.129C195.04 398.182 194.75 398.17 194.478 398.118C193.835 397.993 193.29 397.628 193.064 397.171C193.336 397.035 193.563 396.883 193.711 396.66" fill="#9C4824"/>
<path d="M193.111 394.078C193.089 394.013 193.06 393.946 193.064 393.877C193.069 393.801 193.131 393.729 193.17 393.662C193.246 393.529 193.322 393.395 193.416 393.27C193.484 393.178 193.558 393.091 193.616 392.999C194.042 392.729 194.646 392.503 195.182 392.664C195.768 392.84 196.097 393.306 196.07 393.789C196.3 393.817 196.498 393.962 196.559 394.153C196.682 394.542 196.276 394.837 195.933 395.032C195.908 395.046 195.881 395.058 195.853 395.066C195.826 395.114 195.813 395.167 195.798 395.22C195.73 395.455 195.396 395.599 195.153 395.693C195.142 395.697 195.133 395.7 195.122 395.705C194.847 395.81 194.55 395.899 194.25 395.935C193.839 395.985 193.579 395.828 193.431 395.52C193.343 395.337 193.271 395.147 193.207 394.956C193.205 394.951 193.203 394.95 193.203 394.949C193.168 394.85 193.137 394.75 193.127 394.648C193.116 394.542 193.164 394.469 193.179 394.368C193.188 394.297 193.183 394.224 193.148 394.157C193.133 394.131 193.12 394.106 193.111 394.078" fill="#7C4117"/>
<path d="M193.447 392.449C193.471 392.427 193.5 392.407 193.535 392.401C193.587 392.393 193.638 392.416 193.676 392.445C193.715 392.474 193.745 392.51 193.786 392.537C193.887 392.602 193.99 392.582 194.099 392.552C194.244 392.511 194.392 392.471 194.542 392.445C194.814 392.396 195.097 392.395 195.373 392.414C195.672 392.434 196.089 392.504 196.279 392.718C196.314 392.757 196.343 392.8 196.358 392.847C196.372 392.89 196.354 392.946 196.374 392.987C196.396 393.032 196.493 393.049 196.549 393.085C196.698 393.179 196.798 393.321 196.847 393.47C196.912 393.667 196.895 393.877 196.863 394.08C196.798 394.491 196.556 394.923 196.193 395.213C196.07 395.31 195.932 395.395 195.784 395.463C195.751 395.478 195.717 395.493 195.683 395.506C195.662 395.514 195.603 395.556 195.581 395.534C195.576 395.529 195.575 395.523 195.573 395.516C195.562 395.45 195.614 395.404 195.659 395.355C195.715 395.296 195.771 395.235 195.792 395.16C195.822 395.059 195.838 394.975 195.952 394.916C196.078 394.851 196.168 394.762 196.247 394.657C196.301 394.585 196.351 394.505 196.377 394.421C196.401 394.344 196.408 394.241 196.377 394.164C196.33 394.051 196.179 394.004 196.045 394.029C195.85 394.065 195.7 394.22 195.678 394.381C195.675 394.403 195.669 394.43 195.643 394.433C195.633 394.434 195.623 394.43 195.615 394.426C195.477 394.367 195.432 394.186 195.421 394.072C195.416 394.008 195.426 393.94 195.464 393.883C195.502 393.825 195.568 393.776 195.593 393.712C195.632 393.613 195.58 393.499 195.487 393.429C195.396 393.356 195.271 393.321 195.146 393.301C194.864 393.255 194.575 393.317 194.294 393.36C194.253 393.366 194.21 393.373 194.167 393.379C193.935 393.409 193.674 393.419 193.499 393.277C193.369 393.171 193.311 393.019 193.299 392.872C193.289 392.737 193.335 392.551 193.447 392.449" fill="#1B1C1F"/>
<path d="M197.004 403.315C197.007 403.436 197.007 403.564 196.933 403.669C196.791 403.867 196.46 403.89 196.18 403.89C195.828 403.89 195.453 403.885 195.157 403.728C194.62 403.444 194.583 402.814 194.677 402.295C194.847 401.368 195.246 400.468 195.294 399.532C195.323 398.96 195.221 398.378 195.375 397.819C195.471 397.471 195.96 396.642 196.539 396.703C197.058 396.758 196.858 398.196 196.872 398.605C196.925 400.174 196.97 401.744 197.004 403.315" fill="#FE1010"/>
<path d="M194.452 399.925C194.433 400.217 194.369 400.541 194.089 400.722C193.879 400.857 193.596 400.88 193.329 400.886C193.149 400.889 192.953 400.883 192.816 400.788C192.669 400.686 192.633 400.514 192.615 400.357C192.507 399.44 192.643 398.513 192.897 397.617C192.956 397.405 193.061 397.161 193.315 397.101C193.572 397.041 193.83 397.216 193.946 397.415C194.393 398.178 194.504 399.087 194.452 399.925" fill="#FE1010"/>
<path d="M193.922 396.032C193.931 396.028 193.94 396.024 193.95 396.023C193.98 396.018 194.008 396.034 194.033 396.049C194.117 396.1 194.327 396.073 194.43 396.07C194.575 396.066 194.719 396.055 194.862 396.037C195.143 396 195.418 395.931 195.671 395.825C195.688 395.818 195.705 395.811 195.724 395.811C195.754 395.811 195.778 395.829 195.799 395.847C196.019 396.032 196.268 396.361 196.092 396.622C196.006 396.75 195.836 396.811 195.677 396.86C195.334 396.964 194.975 397.037 194.611 397.068C194.42 397.085 194.224 397.089 194.036 397.052C193.846 397.014 193.643 396.926 193.545 396.777C193.424 396.591 193.547 396.375 193.684 396.22C193.723 396.156 193.832 396.101 193.894 396.052C193.903 396.045 193.912 396.038 193.922 396.032" fill="#FE1010"/>
<path d="M192.776 397.089C192.766 397.052 192.769 397.014 192.797 396.977C192.829 396.936 192.884 396.914 192.937 396.893C193.105 396.828 193.179 396.777 193.265 396.642C193.302 396.582 193.328 396.45 193.435 396.446C193.487 396.443 193.531 396.486 193.577 396.5C194.193 396.689 194.903 396.623 195.525 396.489C195.731 396.444 195.992 396.379 196.11 396.227C196.129 396.203 196.146 396.175 196.179 396.164C196.252 396.139 196.315 396.206 196.345 396.251C196.377 396.3 196.404 396.327 196.462 396.362C196.592 396.438 196.737 396.499 196.889 396.54C196.952 396.556 197.021 396.573 197.057 396.619C197.107 396.683 197.063 396.769 197.007 396.83C196.937 396.907 196.831 396.962 196.749 397.029C196.537 397.2 196.385 397.42 196.134 397.557C195.824 397.725 195.441 397.808 195.078 397.867C194.687 397.931 194.278 397.891 193.906 397.782C193.681 397.716 193.466 397.625 193.27 397.512C193.104 397.415 192.826 397.263 192.776 397.089" fill="#770808"/>
<path d="M196.448 405.001C196.534 405.133 196.738 405.317 196.776 405.351C196.93 405.485 197.102 405.6 197.291 405.693C197.3 405.662 197.308 405.632 197.315 405.604C197.327 405.551 197.336 405.506 197.341 405.478C197.343 405.472 197.343 405.466 197.345 405.463C197.348 405.453 197.35 405.442 197.354 405.432C197.381 405.336 197.42 405.242 197.483 405.16C197.495 405.142 197.508 405.129 197.522 405.116C197.538 405.102 197.556 405.091 197.578 405.08C197.599 405.069 197.662 405.052 197.663 405.027C197.663 405.014 197.656 405.002 197.647 404.992C197.519 404.818 197.393 404.64 197.202 404.506C197.18 404.49 197.157 404.475 197.13 404.469C196.982 404.437 196.896 404.503 196.831 404.597C196.787 404.661 196.753 404.736 196.713 404.801C196.686 404.848 196.656 404.889 196.62 404.917C196.611 404.924 196.602 404.93 196.591 404.936C196.549 404.964 196.499 404.983 196.448 405.001" fill="#7C4117"/>
<path d="M196.428 404.963C196.433 404.975 196.44 404.987 196.449 405C196.535 405.132 196.739 405.316 196.777 405.35C196.93 405.484 197.102 405.599 197.292 405.692C197.321 405.708 197.351 405.723 197.381 405.736C197.392 405.742 197.405 405.748 197.416 405.752C197.437 405.761 197.457 405.773 197.478 405.781C197.514 405.798 197.616 405.865 197.636 405.805C197.65 405.759 197.664 405.709 197.664 405.661C197.664 405.617 197.638 405.599 197.591 405.577C197.543 405.552 197.498 405.527 197.455 405.499C197.423 405.478 197.39 405.458 197.36 405.436C197.358 405.434 197.357 405.433 197.355 405.431C197.262 405.365 197.177 405.291 197.09 405.215C196.956 405.098 196.823 404.973 196.732 404.83C196.726 404.82 196.719 404.81 196.714 404.8C196.705 404.783 196.696 404.767 196.687 404.75C196.596 404.782 196.51 404.82 196.428 404.867C196.399 404.883 196.402 404.919 196.428 404.963" fill="#BDC4C2"/>
<path d="M197.259 403.745C197.288 403.677 197.326 403.611 197.362 403.549C197.444 403.404 197.547 403.266 197.68 403.149C197.797 403.045 197.926 402.982 198.068 402.909C198.132 402.601 198.298 402.345 198.548 402.099C198.669 401.98 198.801 401.868 198.948 401.771C199.506 401.405 198.671 401.198 198.385 401.005C197.853 400.646 197.548 400.062 197.661 399.497C197.218 398.897 197.284 397.876 197.883 397.422C198.296 397.109 198.677 397.19 198.986 397.431C199.294 397.619 199.51 397.89 199.648 398.192C199.759 398.363 199.836 398.55 199.884 398.745C200.135 398.899 200.368 399.072 200.527 399.299C200.732 399.591 200.759 399.955 200.742 400.285C200.741 400.309 200.739 400.334 200.746 400.358C200.772 400.448 200.922 400.518 200.997 400.583C201.104 400.677 201.204 400.776 201.289 400.885C201.453 401.096 201.558 401.336 201.567 401.588C201.581 401.943 201.36 402.255 201.024 402.428C200.904 403.007 200.393 403.419 199.735 403.558C199.706 403.816 199.614 404.068 199.424 404.279C199.155 404.577 198.737 404.716 198.324 404.835C198.241 404.859 198.165 404.863 198.098 404.851C197.966 404.882 197.818 404.86 197.693 404.749C197.556 404.628 197.435 404.494 197.344 404.346C197.28 404.242 197.213 404.137 197.203 404.018C197.195 403.926 197.221 403.834 197.259 403.745" fill="#030C43"/>
<path d="M197.804 404.505C197.574 404.346 197.365 404.165 197.215 403.96C197.21 403.954 197.205 403.947 197.197 403.942C197.167 403.923 197.135 403.949 197.121 403.973C197.072 404.05 197.016 404.129 196.951 404.197C196.89 404.261 196.788 404.332 196.77 404.418C196.742 404.559 196.939 404.712 197.058 404.813C197.228 404.957 197.426 405.078 197.639 405.17C197.696 405.194 197.753 405.209 197.806 405.187C197.833 405.175 197.854 405.157 197.876 405.14C197.955 405.079 198.044 405.025 198.139 404.98C198.198 404.953 198.269 404.938 198.321 404.903C198.421 404.836 198.3 404.803 198.216 404.757C198.076 404.68 197.937 404.596 197.804 404.505" fill="#03279F"/>
<path d="M183.832 399.103C183.839 399.089 183.846 399.075 183.854 399.061C184.087 398.649 184.57 398.336 185.003 398.074C185.819 397.582 186.208 396.918 186.58 396.171C186.893 395.541 187.291 394.89 188.14 394.673C188.157 394.668 188.175 394.664 188.193 394.66C188.657 394.552 189.211 394.586 189.629 394.792C190.009 394.98 190.13 395.283 190.142 395.632C190.159 396.087 190.196 396.543 190.325 396.987C190.428 397.343 190.583 397.695 190.829 398.001C191.092 398.329 191.449 398.529 191.858 398.719C192.148 398.854 192.435 399.013 192.576 399.271C192.733 399.558 192.727 399.891 192.649 400.193C192.512 400.728 192.018 401.272 191.526 401.627C189.977 402.743 187.359 402.752 185.676 401.842C185.629 401.816 185.583 401.79 185.537 401.763C184.936 401.411 184.353 400.905 184.01 400.364C183.779 399.999 183.635 399.502 183.832 399.103" fill="#320600"/>
<path d="M181.522 405.978C181.542 406.174 181.796 406.443 182.022 406.231C182.072 406.183 182.108 406.128 182.161 406.083C182.338 405.928 182.623 405.942 182.842 405.851C183.033 405.769 183.197 405.65 183.347 405.525C183.372 405.505 183.394 405.483 183.419 405.463C183.502 405.392 183.581 405.319 183.661 405.248C184.43 404.575 185.418 404.065 186.042 403.297C186.524 402.705 186.751 402 186.961 401.309C187.116 400.801 187.264 400.294 187.356 399.776C187.387 399.609 187.411 399.437 187.368 399.271C187.328 399.125 187.229 398.981 187.074 398.903C187.055 398.894 187.037 398.885 187.014 398.877C186.571 398.718 186.243 399.166 186.098 399.434C185.89 399.819 185.814 400.241 185.743 400.653C185.651 401.193 185.557 401.732 185.465 402.272C185.44 402.41 185.414 402.553 185.322 402.671C185.237 402.776 185.107 402.85 184.987 402.929C184.242 403.417 183.816 404.151 183.244 404.777C183.154 404.877 183.056 404.974 182.945 405.058C182.849 405.133 182.742 405.197 182.622 405.241C182.422 405.316 182.2 405.333 182.001 405.404C181.708 405.508 181.493 405.702 181.522 405.978" fill="#FA5A4C"/>
<path d="M182.947 405.056C183.076 405.207 183.206 405.374 183.349 405.523C183.373 405.503 183.396 405.481 183.42 405.461C183.503 405.39 183.582 405.317 183.663 405.246C184.432 404.573 185.419 404.063 186.044 403.296C186.525 402.703 186.753 401.998 186.963 401.307C187.117 400.799 187.266 400.292 187.358 399.774C187.388 399.607 187.412 399.435 187.369 399.27C187.33 399.123 187.23 398.979 187.076 398.901C187.057 398.892 187.038 398.883 187.016 398.875C186.572 398.716 186.245 399.165 186.1 399.432C185.891 399.817 185.816 400.239 185.745 400.651C185.652 401.191 185.558 401.73 185.466 402.27C185.442 402.408 185.415 402.552 185.323 402.669C185.239 402.774 185.109 402.849 184.989 402.928C184.244 403.415 183.817 404.149 183.246 404.776C183.155 404.875 183.057 404.972 182.947 405.056" fill="#DBDCDE"/>
<path d="M189.603 398.131C189.585 398.113 189.566 398.095 189.543 398.081C189.459 398.034 189.346 398.062 189.245 398.078C189.141 398.094 189.034 398.095 188.928 398.095C188.74 398.095 188.551 398.095 188.363 398.095C188.178 398.095 188 398.111 187.824 398.059C187.792 398.05 187.76 398.04 187.727 398.042C187.677 398.045 187.606 398.08 187.563 398.103C187.492 398.141 187.428 398.198 187.368 398.247C187.334 398.275 187.299 398.306 187.291 398.345C187.28 398.392 187.311 398.438 187.343 398.477C187.405 398.555 187.48 398.625 187.561 398.689C187.642 398.753 187.731 398.81 187.829 398.854C187.946 398.907 188.075 398.94 188.205 398.964C188.418 399.003 188.639 399.017 188.857 399.004C189.03 398.994 189.207 398.964 189.35 398.883C189.438 398.832 189.509 398.764 189.577 398.696C189.664 398.611 189.779 398.506 189.808 398.394C189.831 398.3 189.669 398.198 189.603 398.131" fill="#EF3434"/>
<path d="M187.104 420.127C187.113 420.142 187.127 420.156 187.142 420.17H187.679C187.721 420.155 187.762 420.135 187.783 420.102C187.811 420.056 187.792 419.999 187.773 419.949C187.698 419.757 187.63 419.564 187.598 419.364C187.589 419.307 187.583 419.248 187.582 419.191C187.574 419.058 187.578 418.925 187.583 418.794H187.175C187.177 418.922 187.175 419.049 187.168 419.177C187.158 419.434 187.134 419.691 187.093 419.946C187.083 420.006 187.074 420.07 187.104 420.127" fill="#E56E98"/>
<path d="M189.214 420.119C189.231 420.142 189.256 420.158 189.284 420.17H189.856C189.871 420.156 189.884 420.139 189.893 420.121C189.921 420.065 189.908 420 189.895 419.94C189.842 419.692 189.807 419.442 189.784 419.191C189.771 419.06 189.762 418.928 189.758 418.797H189.35C189.361 418.931 189.372 419.066 189.372 419.201C189.372 419.259 189.369 419.318 189.363 419.377C189.34 419.576 189.282 419.773 189.216 419.966C189.199 420.017 189.182 420.073 189.214 420.119" fill="#E56E98"/>
<path d="M187.8 398.243C188.097 397.864 187.959 397.404 187.896 396.982C187.911 396.983 187.925 396.984 187.934 396.984L188.968 396.989C188.99 396.989 189.191 396.974 189.202 396.99C189.265 397.081 189.244 397.192 189.24 397.307C189.234 397.489 189.214 397.666 189.24 397.835C189.266 398.007 189.378 398.151 189.491 398.292C189.619 398.453 189.748 398.61 189.89 398.762C189.973 399.115 189.577 399.577 189.316 399.817C189.01 400.1 188.56 400.246 188.111 400.188C187.611 400.124 187.291 399.819 187.146 399.412C187.086 399.244 187.052 399.069 187.035 398.894C187.027 398.817 187.011 398.739 187.007 398.661C187.323 398.597 187.619 398.475 187.8 398.243" fill="#C5351D"/>
<path d="M190.041 395.545C189.968 395.399 189.848 395.252 189.723 395.133C189.473 394.892 189.071 394.825 188.706 394.903C188.352 394.979 188.039 395.18 187.842 395.432C187.747 395.554 187.695 395.702 187.669 395.844C187.66 395.895 187.653 395.95 187.653 396.003C187.652 396.048 187.676 396.116 187.651 396.158C187.654 396.153 187.571 396.132 187.563 396.131C187.528 396.126 187.493 396.127 187.459 396.137C187.398 396.154 187.354 396.193 187.328 396.241C187.291 396.313 187.277 396.404 187.293 396.481C187.332 396.665 187.476 396.837 187.652 396.952C187.755 397.019 187.873 397.071 187.996 397.108C187.998 397.111 188 397.113 188.002 397.116C188.189 397.324 188.456 397.476 188.744 397.575C188.967 397.653 189.303 397.758 189.541 397.674C189.741 397.603 189.856 397.38 189.947 397.229C190.052 397.054 190.132 396.868 190.178 396.677C190.27 396.297 190.222 395.903 190.041 395.545Z" fill="#FA5A4C"/>
<path d="M186.723 412.203C186.755 410.885 186.226 409.621 185.928 408.341C185.781 407.711 185.664 407.042 185.752 406.399C185.893 405.39 186.462 404.481 186.72 403.498C186.782 403.259 186.896 402.813 187.28 402.805C187.86 402.792 188.44 402.78 189.021 402.768C189.31 402.762 189.655 402.687 189.855 402.899C189.857 402.902 189.86 402.906 189.862 402.909C190.105 403.176 190.136 403.556 190.248 403.869C190.488 404.541 190.814 405.183 190.969 405.876C191.17 406.774 191.176 407.704 190.96 408.6C190.671 409.8 190.186 410.962 190.216 412.203C190.229 412.741 190.338 413.275 190.394 413.811C190.581 415.585 190.204 417.362 189.829 419.118C189.66 419.122 189.491 419.126 189.322 419.13C189.196 414.959 188.911 410.792 188.47 406.634C188.029 410.792 187.743 414.959 187.617 419.13C187.448 419.126 187.279 419.122 187.111 419.118C186.735 417.362 186.358 415.585 186.545 413.811C186.602 413.275 186.71 412.741 186.723 412.203" fill="#1C1D1A"/>
<path d="M183.248 405.145C183.185 405.072 183.129 404.996 183.063 404.926C183.061 404.924 183.059 404.921 183.055 404.921C183.051 404.921 183.048 404.923 183.045 404.925C183.017 404.948 182.995 404.975 182.968 404.999C182.908 405.05 182.825 405.08 182.757 405.124C182.738 405.136 182.719 405.153 182.722 405.172C182.724 405.18 182.729 405.187 182.734 405.194C182.87 405.372 183.036 405.535 183.225 405.677C183.229 405.681 183.235 405.685 183.241 405.685C183.248 405.685 183.254 405.682 183.26 405.678C183.349 405.618 183.429 405.55 183.5 405.475C183.552 405.419 183.451 405.36 183.409 405.318C183.353 405.262 183.298 405.204 183.248 405.145" fill="#D6DAD7"/>
<path d="M187.211 395.345C187.329 395.069 187.623 394.866 187.944 394.741C188.333 394.589 188.79 394.534 189.199 394.646C189.375 394.694 189.539 394.771 189.687 394.863C189.755 394.905 189.821 394.951 189.869 395.009C189.947 395.105 189.97 395.272 189.918 395.39C189.918 395.391 189.918 395.392 189.917 395.394C189.853 395.584 189.635 395.77 189.476 395.914C189.151 396.21 188.538 396.46 188.048 396.418C187.941 396.408 187.84 396.376 187.76 396.326C187.753 396.324 187.748 396.321 187.743 396.316C187.674 396.27 187.623 396.209 187.597 396.135C187.593 396.133 187.591 396.131 187.587 396.13C187.5 396.105 187.403 396.151 187.354 396.214C187.305 396.278 187.293 396.356 187.282 396.43C187.248 396.249 187.193 396.071 187.164 395.889C187.136 395.707 187.136 395.518 187.211 395.345Z" fill="#320600"/>
<path d="M185.491 405.707C185.692 404.855 186.101 404.046 186.36 403.204C186.768 401.873 186.793 400.48 186.681 399.11C186.67 398.984 186.661 398.85 186.734 398.739C186.807 398.628 186.998 398.56 187.12 398.636C187.187 398.678 187.215 398.75 187.239 398.816C187.342 399.095 187.457 399.377 187.665 399.612C187.874 399.848 188.192 400.034 188.546 400.048C188.882 400.061 189.209 399.914 189.425 399.702C189.642 399.49 189.76 399.219 189.819 398.947C189.849 398.81 189.949 398.603 190.168 398.715C190.331 398.799 190.274 399.028 190.25 399.157C190.029 400.306 190.209 401.482 190.493 402.622C190.776 403.762 191.164 404.886 191.364 406.037C191.402 406.255 191.416 406.512 191.214 406.656C191.008 406.804 190.693 406.749 190.429 406.687C189.753 406.526 189.076 406.365 188.399 406.204C187.67 406.03 186.858 405.862 186.182 406.144C186.003 406.219 185.797 406.324 185.62 406.247C185.434 406.165 185.437 405.947 185.475 405.776C185.48 405.753 185.485 405.729 185.491 405.707" fill="#DBDCDE"/>
<path d="M188.364 400.7C188.4 400.926 188.457 401.146 188.531 401.37C188.568 401.483 188.56 401.577 188.413 401.617C188.169 401.685 187.935 401.776 187.716 401.888C187.62 401.937 187.512 401.993 187.402 401.972C187.325 401.958 187.265 401.908 187.229 401.851C187.193 401.794 187.179 401.729 187.166 401.666C187.087 401.259 187.081 400.844 187.125 400.433C187.169 400.026 187.24 399.616 187.322 399.212C187.331 399.171 187.34 399.129 187.349 399.087C187.348 399.087 188.225 399.173 188.281 399.274C188.31 399.325 188.297 399.401 188.3 399.456C188.315 399.773 188.309 400.098 188.332 400.417C188.339 400.513 188.35 400.606 188.364 400.7" fill="#770808"/>
<path d="M186.857 398.35C186.866 398.342 186.876 398.333 186.887 398.324C187.063 398.179 187.277 398.098 187.519 398.055C187.576 398.044 187.729 397.992 187.774 398.035C187.79 398.05 187.792 398.071 187.793 398.091C187.798 398.167 187.802 398.239 187.867 398.301C187.93 398.36 188.014 398.409 188.097 398.445C188.315 398.54 188.597 398.576 188.838 398.532C189.001 398.502 189.186 398.426 189.29 398.317C189.394 398.209 189.465 397.944 189.678 398.111C189.844 398.241 190.005 398.376 190.131 398.533C190.16 398.568 190.187 398.607 190.19 398.65C190.197 398.739 190.109 398.839 190.05 398.91C189.804 399.205 189.393 399.386 188.97 399.448C188.301 399.546 187.445 399.395 187.004 398.933C186.927 398.852 186.863 398.755 186.813 398.661C186.749 398.542 186.762 398.442 186.857 398.35" fill="#FE1010"/>
<path d="M190.718 404.906C190.765 404.828 190.81 404.749 190.851 404.669C190.712 404.617 190.562 404.603 190.399 404.646C190.271 404.678 190.153 404.733 190.043 404.792C189.921 404.858 189.805 404.929 189.694 405.005C189.648 405.037 189.603 405.071 189.584 405.118C189.569 405.155 189.576 405.203 189.616 405.223C189.648 405.239 189.688 405.234 189.725 405.226C189.806 405.206 189.873 405.137 189.956 405.135C189.97 405.134 189.985 405.138 189.992 405.147C190.001 405.158 189.997 405.172 189.99 405.183C189.968 405.219 189.926 405.242 189.886 405.264C189.781 405.321 189.674 405.377 189.56 405.422C189.464 405.461 189.366 405.503 189.256 405.483C189.199 405.472 189.145 405.453 189.089 405.439C189.077 405.436 189.064 405.433 189.051 405.435C188.99 405.446 189.01 405.502 189.04 405.528C189.06 405.546 189.087 405.558 189.114 405.568C189.269 405.628 189.442 405.645 189.612 405.661C189.681 405.668 189.75 405.674 189.819 405.679C189.86 405.682 189.911 405.683 189.95 405.671C189.995 405.657 190.039 405.624 190.078 405.602C190.181 405.542 190.276 405.474 190.375 405.411C190.408 405.39 190.439 405.367 190.471 405.346L190.47 405.35C190.472 405.349 190.475 405.348 190.477 405.346C190.478 405.344 190.48 405.341 190.481 405.339C190.518 405.313 190.557 405.288 190.593 405.262C190.664 405.21 190.724 405.151 190.789 405.095C190.804 405.082 190.819 405.068 190.826 405.051C190.841 405.015 190.813 404.977 190.781 404.949C190.763 404.932 190.74 404.921 190.718 404.906Z" fill="#FA5A4C"/>
<path d="M192.785 402.364C192.159 401.498 191.533 400.632 190.907 399.766C190.721 399.506 190.523 399.241 190.271 399.028C190.266 399.076 190.256 399.122 190.249 399.159C190.13 399.778 190.128 400.404 190.196 401.031C190.441 401.329 190.741 401.603 191.023 401.86C191.082 401.912 191.68 402.438 191.68 402.46C191.223 402.952 191.281 403.62 190.905 404.138C190.856 404.208 190.798 404.276 190.728 404.339C190.715 404.351 190.704 404.364 190.691 404.379C190.64 404.437 190.583 404.508 190.518 404.551C190.499 404.563 190.48 404.573 190.459 404.579C190.458 404.579 190.457 404.58 190.456 404.58C190.52 404.691 190.668 404.788 190.766 404.862C190.817 404.901 190.863 404.944 190.908 404.987C190.945 404.973 190.983 404.963 191.014 404.95C191.048 404.936 191.082 404.921 191.114 404.904C191.134 404.893 191.155 404.882 191.174 404.869C191.21 404.85 191.245 404.828 191.279 404.806C191.441 404.702 191.586 404.583 191.728 404.463C192.037 404.205 192.296 403.906 192.486 403.578C192.656 403.289 193.011 402.676 192.785 402.364" fill="#E56E98"/>
<path d="M191.023 401.856C191.082 401.909 191.68 402.435 191.68 402.456C191.223 402.948 191.281 403.616 190.905 404.134C190.856 404.204 190.798 404.272 190.728 404.335C190.715 404.348 190.704 404.36 190.691 404.376C190.64 404.433 190.583 404.504 190.518 404.547C190.659 404.67 190.773 404.807 190.873 404.956C190.881 404.966 190.888 404.977 190.897 404.987C190.937 404.971 190.98 404.96 191.014 404.946C191.048 404.933 191.082 404.917 191.114 404.9C191.134 404.889 191.155 404.878 191.174 404.866C191.21 404.846 191.245 404.824 191.279 404.803C191.441 404.699 191.586 404.58 191.728 404.459C192.037 404.201 192.296 403.902 192.486 403.574C192.656 403.285 193.011 402.673 192.785 402.36C192.159 401.494 191.533 400.628 190.907 399.762C190.721 399.502 190.523 399.238 190.271 399.024C190.266 399.072 190.256 399.119 190.249 399.156C190.13 399.774 190.128 400.401 190.196 401.027C190.441 401.326 190.741 401.599 191.023 401.856" fill="#DBDCDE"/>
<path d="M190.464 404.48C190.492 404.456 190.521 404.432 190.549 404.407C190.565 404.394 190.58 404.381 190.6 404.373C190.698 404.331 190.797 404.477 190.843 404.529C190.926 404.621 191.022 404.705 191.115 404.79C191.135 404.809 191.155 404.827 191.167 404.85C191.179 404.872 191.182 404.9 191.168 404.921C191.147 404.954 191.095 404.963 191.057 404.984C191.003 405.012 190.972 405.065 190.917 405.092C190.906 405.097 190.894 405.101 190.881 405.101C190.864 405.101 190.849 405.092 190.835 405.083C190.656 404.969 190.508 404.825 190.382 404.671C190.361 404.646 190.34 404.616 190.351 404.587C190.357 404.571 190.372 404.558 190.386 404.545C190.412 404.524 190.438 404.502 190.464 404.48" fill="#E8ECE9"/>
<path d="M189.214 420.119C189.231 420.142 189.256 420.158 189.284 420.17H189.856C189.871 420.156 189.884 420.139 189.893 420.121C189.921 420.065 189.908 420 189.895 419.94C189.842 419.692 189.807 419.442 189.784 419.191C189.76 419.194 189.735 419.196 189.709 419.196C189.6 419.197 189.491 419.199 189.382 419.201H189.372C189.372 419.259 189.369 419.318 189.363 419.377C189.34 419.576 189.282 419.773 189.216 419.966C189.199 420.017 189.182 420.073 189.214 420.119" fill="#F8A018"/>
<path d="M187.104 420.127C187.113 420.142 187.127 420.156 187.142 420.17H187.679C187.721 420.155 187.762 420.135 187.783 420.102C187.811 420.056 187.792 419.999 187.773 419.949C187.698 419.757 187.63 419.564 187.598 419.364C187.589 419.307 187.583 419.248 187.582 419.191C187.574 419.19 187.567 419.188 187.559 419.188C187.473 419.185 187.388 419.184 187.301 419.18C187.292 419.18 187.23 419.179 187.168 419.177C187.158 419.434 187.134 419.691 187.093 419.946C187.083 420.006 187.074 420.07 187.104 420.127" fill="#F8A018"/>
<path d="M181.701 407.957C181.172 407.957 180.743 407.604 180.743 407.17V395.735C180.743 395.489 180.75 395.233 180.757 394.972C180.794 393.693 180.831 392.37 180.053 391.444C179.676 390.995 179.125 390.676 178.612 390.611C178.262 390.565 177.943 390.636 177.642 390.828C176.674 391.441 176.595 392.817 176.526 394.033C176.508 394.352 176.49 394.658 176.459 394.941C176.111 398.105 175.723 401.368 175.308 404.642C175.252 405.074 174.781 405.383 174.255 405.343C173.729 405.298 173.347 404.911 173.402 404.478C173.817 401.212 174.203 397.956 174.55 394.798C174.58 394.537 174.595 394.254 174.612 393.958C174.697 392.479 174.801 390.638 176.474 389.578C177.194 389.123 178.035 388.942 178.908 389.053C179.953 389.188 180.944 389.733 181.63 390.549C182.761 391.895 182.715 393.549 182.673 395.008C182.666 395.257 182.659 395.501 182.659 395.736V407.17C182.659 407.604 182.23 407.957 181.701 407.957" fill="#010930"/>
<path d="M174.36 404.48C174.775 401.214 175.162 397.958 175.509 394.8C175.538 394.539 175.554 394.256 175.571 393.961C175.655 392.481 175.76 390.64 177.432 389.581C177.892 389.291 178.402 389.124 178.937 389.062L178.908 389.055C178.035 388.944 177.194 389.125 176.474 389.581C174.801 390.64 174.697 392.481 174.612 393.961C174.595 394.256 174.58 394.539 174.55 394.8C174.203 397.958 173.817 401.214 173.402 404.48C173.347 404.913 173.729 405.3 174.255 405.345C174.462 405.362 174.652 405.311 174.82 405.232C174.514 405.078 174.321 404.794 174.36 404.48" fill="#02125E"/>
<path d="M181.703 407.17V395.735C181.703 395.489 181.709 395.233 181.717 394.972C181.753 393.693 181.79 392.37 181.013 391.444C180.636 390.995 180.084 390.676 179.571 390.611C179.337 390.581 179.117 390.607 178.907 390.682C179.328 390.81 179.749 391.08 180.054 391.444C180.832 392.37 180.795 393.693 180.758 394.972C180.751 395.233 180.744 395.489 180.744 395.735V407.17C180.744 407.604 181.173 407.957 181.702 407.957C181.881 407.957 182.038 407.906 182.182 407.837C181.9 407.699 181.703 407.458 181.703 407.17" fill="#040925"/>
<path d="M205.293 405.596C204.764 405.596 204.334 405.242 204.334 404.808V393.374C204.334 393.127 204.342 392.872 204.349 392.61C204.385 391.331 204.423 390.008 203.645 389.082C203.268 388.634 202.717 388.315 202.204 388.249C201.854 388.204 201.535 388.274 201.234 388.466C200.265 389.079 200.187 390.456 200.118 391.671C200.099 391.99 200.082 392.296 200.051 392.579C199.702 395.743 199.315 399.006 198.899 402.28C198.844 402.712 198.372 403.021 197.846 402.982C197.32 402.937 196.939 402.549 196.993 402.116C197.408 398.85 197.795 395.594 198.142 392.436C198.171 392.175 198.187 391.891 198.204 391.597C198.288 390.117 198.393 388.275 200.066 387.217C200.785 386.76 201.626 386.58 202.5 386.692C203.544 386.826 204.536 387.371 205.221 388.186C206.352 389.533 206.306 391.187 206.265 392.646C206.258 392.896 206.251 393.139 206.251 393.374V404.808C206.251 405.242 205.822 405.596 205.293 405.596" fill="#010930"/>
<path d="M197.952 402.115C198.367 398.848 198.754 395.592 199.101 392.435C199.13 392.174 199.146 391.89 199.163 391.596C199.247 390.116 199.351 388.274 201.024 387.216C201.483 386.925 201.994 386.759 202.528 386.697L202.5 386.691C201.626 386.579 200.785 386.759 200.066 387.216C198.393 388.274 198.288 390.116 198.204 391.596C198.187 391.89 198.171 392.174 198.142 392.435C197.795 395.592 197.408 398.848 196.993 402.115C196.939 402.548 197.32 402.935 197.846 402.981C198.054 402.995 198.244 402.945 198.412 402.866C198.105 402.713 197.912 402.427 197.952 402.115" fill="#02125E"/>
<path d="M205.293 404.808V393.374C205.293 393.127 205.3 392.872 205.308 392.61C205.344 391.331 205.381 390.008 204.603 389.082C204.227 388.634 203.674 388.315 203.162 388.249C202.928 388.219 202.708 388.245 202.497 388.321C202.919 388.448 203.339 388.719 203.645 389.082C204.423 390.008 204.385 391.331 204.349 392.61C204.341 392.872 204.334 393.127 204.334 393.374V404.808C204.334 405.242 204.764 405.596 205.292 405.596C205.471 405.596 205.629 405.545 205.772 405.475C205.49 405.338 205.293 405.096 205.293 404.808Z" fill="#040925"/>
<path d="M173.355 403.328L198.425 401.095L206.409 404.642L207.367 423.16L181.02 424.999L173.355 421.846V403.328Z" fill="#D43F49"/>
<path d="M198.425 401.092L173.355 403.325V421.712L198.926 419.703L198.425 401.092" fill="#FF5D0D"/>
<path d="M198.926 419.706L173.355 421.715V421.846L181.02 424.999L207.367 423.16L198.926 419.706" fill="#040925"/>
<path d="M207.368 423.16L206.41 404.642L198.426 401.096L198.926 419.706L207.368 423.16Z" fill="#DD4901"/>
<path d="M198.425 402.195L173.355 404.503V405.589L198.425 403.145V402.195Z" fill="#FFFFFE"/>
<path d="M198.744 404.194L173.355 406.502V407.587L198.744 405.143V404.194Z" fill="#FFFFFE"/>
<path d="M198.744 406.19L173.355 408.498V409.584L198.744 407.139V406.19" fill="#FFFFFE"/>
<path d="M198.744 408.068L173.355 410.492V411.576L198.744 409.017V408.068" fill="#FFFFFE"/>
<path d="M198.744 410.184L173.355 412.492V413.577L198.744 411.133V410.184" fill="#FFFFFE"/>
<path d="M198.744 412.107L173.355 414.484V415.57L198.744 413.057V412.107Z" fill="#FFFFFE"/>
<path d="M198.744 414.169L173.355 416.477V417.563L198.744 415.118V414.169" fill="#FFFFFE"/>
<path d="M198.926 416.169L173.355 418.476V419.562L198.926 417.118V416.169" fill="#FFFFFE"/>
<path d="M198.926 418.163L173.355 420.471V421.556L198.926 419.113V418.163Z" fill="#FFFFFE"/>
<path d="M206.497 406.335V405.432L198.426 402.199V403.149L206.497 406.335" fill="#DBDCDE"/>
<path d="M206.638 408.398V407.495L198.567 404.263V405.212L206.638 408.398Z" fill="#DBDCDE"/>
<path d="M206.82 410.467V409.564L198.427 406.235L198.607 407.255L206.82 410.467" fill="#DBDCDE"/>
<path d="M206.931 412.227V411.323L198.613 408.091V408.943L206.931 412.227Z" fill="#DBDCDE"/>
<path d="M206.931 414.428V413.525L198.615 410.195V411.146L206.931 414.428" fill="#DBDCDE"/>
<path d="M207.178 416.361V415.458L198.743 412.106L198.615 412.981L207.178 416.361" fill="#DBDCDE"/>
<path d="M207.178 418.381V417.478L198.744 414.171V415.12L207.178 418.381" fill="#DBDCDE"/>
<path d="M207.178 420.453V419.55L198.744 416.156V417.105L207.178 420.453" fill="#DBDCDE"/>
<path d="M207.366 422.515V421.612L198.744 418.144V419.094L207.366 422.515" fill="#DBDCDE"/>
<path d="M173.406 403.715L198.327 401.497L206.18 404.984C206.413 405.088 206.704 405.016 206.83 404.825C206.956 404.633 206.869 404.394 206.636 404.291L198.652 400.744C198.566 400.707 198.47 400.691 198.373 400.7L173.303 402.932C173.039 402.956 172.849 403.15 172.878 403.367C172.906 403.583 173.143 403.739 173.406 403.715" fill="#12152A"/>
<path d="M198.93 419.707L198.911 419.116L198.913 419.164L198.93 419.707Z" fill="#B02C36"/>
<path d="M198.914 419.118L198.883 418.17H198.883L198.885 418.206L198.914 419.118Z" fill="#C33C49"/>
<path d="M207.367 423.16L198.926 419.706L198.911 419.163L207.332 422.505L207.367 423.16Z" fill="#AA3B04"/>
<path d="M198.889 418.205L198.888 418.169H198.887L198.854 417.132H198.855L198.855 417.148L198.889 418.205" fill="#B02C36"/>
<path d="M207.283 421.58L198.885 418.202L198.856 417.145L207.178 420.45V419.606L207.283 421.58ZM207.175 419.545L200.267 416.765C200.678 416.605 201.066 416.399 201.427 416.158L204.269 417.257L207.112 418.356L207.175 419.545ZM207.063 417.433L202.225 415.536C202.511 415.28 202.775 415.005 203.017 414.719L207.002 416.292L207.063 417.433ZM206.953 415.369L203.555 414.018C203.727 413.771 203.882 413.522 204.022 413.276L206.903 414.414L206.953 415.369ZM206.854 413.49L204.411 412.512C204.576 412.152 204.721 411.782 204.848 411.403L206.784 412.167L206.854 413.49ZM206.735 411.246L205.088 410.606C205.154 410.36 205.214 410.112 205.268 409.862L206.691 410.418L206.735 411.246ZM206.642 409.494L205.429 409.013C205.486 408.671 205.533 408.326 205.574 407.979L206.583 408.378L206.642 409.494ZM206.534 407.455L205.659 407.104C205.688 406.746 205.711 406.387 205.728 406.029L206.474 406.324L206.534 407.455ZM206.425 405.4L205.762 405.135C205.765 405.024 205.768 404.915 205.771 404.806L205.867 404.848L206.181 404.987C206.194 404.993 206.207 404.998 206.22 405.003L206.408 405.085L206.425 405.4Z" fill="#AA3B04"/>
<path d="M206.474 406.326L205.728 406.031C205.743 405.732 205.754 405.434 205.762 405.138L206.425 405.402L206.474 406.326" fill="#9FA0A3"/>
<path d="M206.583 408.376L205.573 407.977C205.607 407.687 205.635 407.394 205.659 407.102L206.534 407.453L206.583 408.376" fill="#9FA0A3"/>
<path d="M206.691 410.417L205.268 409.86C205.329 409.58 205.382 409.297 205.429 409.012L206.642 409.493L206.691 410.417" fill="#9FA0A3"/>
<path d="M206.785 412.167L204.849 411.403C204.938 411.141 205.018 410.875 205.09 410.606L206.736 411.246L206.785 412.167" fill="#9FA0A3"/>
<path d="M206.904 414.413L204.022 413.275C204.024 413.271 204.026 413.268 204.028 413.266C204.167 413.019 204.294 412.768 204.412 412.51L206.855 413.489L206.904 414.413Z" fill="#9FA0A3"/>
<path d="M207.003 416.296L203.018 414.723C203.212 414.494 203.391 414.259 203.556 414.022L206.954 415.373L207.003 416.296Z" fill="#9FA0A3"/>
<path d="M207.112 418.355L201.427 416.157C201.709 415.969 201.975 415.759 202.225 415.535L207.063 417.432L207.112 418.355" fill="#9FA0A3"/>
<path d="M207.178 420.453L198.857 417.149L198.856 417.133C199.284 417.062 199.705 416.969 200.112 416.826C200.164 416.808 200.216 416.788 200.267 416.768L207.175 419.548L207.178 419.61V420.453Z" fill="#9FA0A3"/>
<path d="M207.331 422.503L198.909 419.161L198.908 419.113L198.884 418.202L207.282 421.579L207.331 422.503" fill="#9FA0A3"/>
<path d="M206.209 405.006C206.196 405.001 206.183 404.996 206.171 404.99L205.868 404.851L206.209 405.006" fill="#0B0F1B"/>
<path d="M173.355 421.712V421.554L198.91 419.112L198.926 419.703L173.355 421.712V421.712ZM173.355 420.469V419.559L190.085 417.96C191.601 417.95 193.116 417.878 194.592 417.766C195.356 417.708 196.118 417.637 196.879 417.554C197.265 417.512 197.651 417.454 198.024 417.356C198.122 417.33 198.341 417.228 198.535 417.152L198.857 417.121V417.128C198.856 417.128 198.855 417.128 198.855 417.128L198.883 418.165L173.355 420.469V420.469ZM173.355 418.473V417.563L180.351 416.89C181.368 417.203 182.392 417.414 183.433 417.564L173.355 418.473ZM173.355 416.477V415.567L176.401 415.266C176.948 415.553 177.516 415.814 178.073 416.048L173.355 416.477V416.477ZM173.355 414.481V413.571L173.87 413.522C174.163 413.808 174.5 414.082 174.866 414.341L173.355 414.481Z" fill="#D03200"/>
<path d="M173.355 421.846V421.715L198.926 419.706L173.355 421.846" fill="#500E16"/>
<path d="M173.355 413.577V412.947C173.505 413.146 173.678 413.34 173.87 413.528L173.355 413.577Z" fill="#DBDCDE"/>
<path d="M173.355 415.57V414.484L174.866 414.343C175.339 414.676 175.86 414.984 176.401 415.268L173.355 415.57Z" fill="#DBDCDE"/>
<path d="M173.355 417.563V416.477L178.073 416.048C178.633 416.283 179.181 416.491 179.688 416.67C179.909 416.748 180.13 416.821 180.351 416.889L173.355 417.563" fill="#DBDCDE"/>
<path d="M173.355 419.562V418.476L183.433 417.567C184.62 417.738 185.83 417.828 187.077 417.895C187.951 417.942 188.834 417.964 189.718 417.964C189.84 417.964 189.962 417.964 190.085 417.963L173.355 419.562ZM198.535 417.155C198.657 417.107 198.769 417.07 198.834 417.07C198.842 417.07 198.849 417.071 198.855 417.072L198.857 417.124L198.535 417.155" fill="#DBDCDE"/>
<path d="M173.355 421.556V420.471L198.883 418.167L198.91 419.114L173.355 421.556" fill="#DBDCDE"/>
<path d="M198.925 419.707L198.909 419.116H198.909L198.925 419.707ZM198.883 418.169L198.854 417.133C198.854 417.133 198.855 417.133 198.856 417.132L198.883 418.169H198.883Z" fill="#921E27"/>
<path d="M198.914 419.118L198.883 418.17H198.884L198.915 419.118H198.914" fill="#A22935"/>
<path d="M178.203 389.486C178.052 389.486 177.908 389.427 177.816 389.324L166.319 376.376C166.163 376.201 166.209 375.955 166.423 375.826C166.637 375.697 166.936 375.736 167.092 375.912L177.903 388.086L179.645 378.622C179.684 378.406 179.929 378.257 180.191 378.291C180.452 378.323 180.632 378.524 180.592 378.74L178.676 389.15C178.647 389.309 178.505 389.437 178.317 389.475L178.203 389.486Z" fill="#12152A"/>
<path d="M178.921 388.445C178.921 389.568 178.565 390.479 178.127 390.479C177.689 390.479 177.334 389.568 177.334 388.445C177.334 387.321 177.689 386.41 178.127 386.41C178.565 386.41 178.921 387.321 178.921 388.445Z" fill="#12152A"/>
<path d="M184.107 387.509L178.078 388.047C177.815 388.07 177.623 388.264 177.65 388.48C177.675 388.683 177.884 388.833 178.126 388.833L178.176 388.832L184.107 388.306C184.099 388.039 184.107 387.809 184.107 387.509" fill="#D03200"/>
<path d="M184.18 383.098V389.302C184.18 391.601 186.498 392.942 189.333 392.942C192.167 392.942 194.486 391.601 194.486 389.302V383.098C194.486 383.098 189.61 385.121 184.18 383.098Z" fill="#010930"/>
<path d="M188.656 391.323C191.496 391.323 193.819 389.982 193.819 387.682V383.327C194.241 383.198 194.486 383.098 194.486 383.098V389.302C194.486 391.601 192.162 392.942 189.323 392.942C186.616 392.942 184.383 391.722 184.18 389.616C185.072 390.714 186.746 391.323 188.656 391.323" fill="#040925"/>
<path d="M194.486 382.826V383.51C194.486 383.887 192.179 384.193 189.333 384.193C186.487 384.193 184.18 383.887 184.18 383.51V382.826H194.486Z" fill="#D03200"/>
<path d="M189.333 383.919C186.487 383.919 184.18 383.565 184.18 383.129V382.825H194.486V383.129C194.486 383.565 192.179 383.919 189.333 383.919Z" fill="#FF5D0D"/>
<path d="M194.486 382.825C194.486 382.373 192.179 382.006 189.333 382.006C186.487 382.006 184.18 382.373 184.18 382.825C184.18 383.279 186.487 383.646 189.333 383.646C192.179 383.646 194.486 383.279 194.486 382.825Z" fill="#12152A"/>
<path d="M194.214 383.1C193.525 382.773 191.601 382.537 189.333 382.537C187.065 382.537 185.14 382.773 184.452 383.1C184.277 383.017 184.18 382.928 184.18 382.834C184.18 382.377 186.487 382.006 189.333 382.006C192.179 382.006 194.486 382.377 194.486 382.834C194.486 382.928 194.389 383.017 194.214 383.1Z" fill="#DD4901"/>
<path d="M193.13 387.571C192.887 387.571 192.679 387.421 192.654 387.217C192.627 387.001 192.818 386.808 193.082 386.785L201.874 386.045C202.128 386.025 202.373 386.179 202.4 386.396C202.427 386.612 202.235 386.806 201.972 386.828L193.179 387.569L193.13 387.571" fill="#D03200"/>
<path d="M202.403 386.801L202.284 386.789C202.084 386.747 201.94 386.603 201.925 386.435L200.927 374.773C200.909 374.555 201.107 374.367 201.371 374.352C201.637 374.331 201.864 374.5 201.883 374.717L202.779 385.195L209.05 377.161C209.193 376.978 209.489 376.924 209.712 377.043C209.935 377.161 210 377.404 209.857 377.587L202.806 386.62C202.716 386.735 202.563 386.801 202.403 386.801Z" fill="#12152A"/>
<path d="M203.197 386.076C203.197 387.2 202.842 388.111 202.404 388.111C201.965 388.111 201.611 387.2 201.611 386.076C201.611 384.953 201.965 384.042 202.404 384.042C202.842 384.042 203.197 384.953 203.197 386.076Z" fill="#12152A"/>
</svg>
