<svg width="755" height="101" viewBox="0 0 755 101" fill="none" xmlns="http://www.w3.org/2000/svg">
<path d="M127.104 82.864C122.048 82.864 117.344 82.288 112.992 81.136C108.64 79.92 105.088 78.224 102.336 76.048C101.376 75.344 100.672 74.608 100.224 73.84C99.84 73.008 99.648 71.984 99.648 70.768C99.648 69.168 100.128 67.76 101.088 66.544C102.112 65.328 103.264 64.72 104.544 64.72C105.248 64.72 105.92 64.848 106.56 65.104C107.264 65.296 108.096 65.68 109.056 66.256C111.808 67.984 114.592 69.264 117.408 70.096C120.224 70.864 123.328 71.248 126.72 71.248C130.944 71.248 134.176 70.544 136.416 69.136C138.656 67.728 139.776 65.712 139.776 63.088C139.776 61.104 138.72 59.504 136.608 58.288C134.56 57.072 130.88 55.92 125.568 54.832C119.616 53.616 114.848 52.144 111.264 50.416C107.744 48.688 105.152 46.544 103.488 43.984C101.888 41.424 101.088 38.32 101.088 34.672C101.088 30.64 102.24 27.024 104.544 23.824C106.912 20.56 110.144 18.032 114.24 16.24C118.4 14.384 123.072 13.456 128.256 13.456C137.344 13.456 144.832 15.728 150.72 20.272C151.68 21.04 152.352 21.84 152.736 22.672C153.184 23.44 153.408 24.4 153.408 25.552C153.408 27.152 152.896 28.56 151.872 29.776C150.912 30.992 149.792 31.6 148.512 31.6C147.808 31.6 147.136 31.504 146.496 31.312C145.92 31.12 145.088 30.704 144 30.064C141.376 28.4 138.944 27.152 136.704 26.32C134.528 25.488 131.744 25.072 128.352 25.072C124.448 25.072 121.376 25.84 119.136 27.376C116.896 28.848 115.776 30.896 115.776 33.52C115.776 35.056 116.192 36.336 117.024 37.36C117.92 38.32 119.36 39.184 121.344 39.952C123.392 40.72 126.272 41.52 129.984 42.352C138.688 44.272 144.928 46.736 148.704 49.744C152.544 52.752 154.464 56.88 154.464 62.128C154.464 66.224 153.312 69.84 151.008 72.976C148.768 76.112 145.568 78.544 141.408 80.272C137.312 82 132.544 82.864 127.104 82.864ZM200.003 67.984C201.283 67.984 202.307 68.496 203.075 69.52C203.907 70.544 204.323 71.856 204.323 73.456C204.323 74.544 204.003 75.568 203.363 76.528C202.723 77.424 201.827 78.192 200.675 78.832C198.499 79.984 195.971 80.944 193.091 81.712C190.211 82.416 187.555 82.768 185.123 82.768C180.003 82.768 175.523 81.776 171.683 79.792C167.907 77.808 164.995 74.992 162.947 71.344C160.899 67.632 159.875 63.28 159.875 58.288C159.875 53.488 160.867 49.232 162.851 45.52C164.835 41.808 167.587 38.928 171.107 36.88C174.627 34.768 178.627 33.712 183.107 33.712C187.395 33.712 191.139 34.672 194.339 36.592C197.603 38.448 200.131 41.136 201.923 44.656C203.715 48.112 204.611 52.176 204.611 56.848C204.611 58.256 204.259 59.344 203.555 60.112C202.915 60.816 201.987 61.168 200.771 61.168H173.891C174.339 64.944 175.491 67.696 177.347 69.424C179.203 71.088 181.859 71.92 185.315 71.92C187.171 71.92 188.835 71.696 190.307 71.248C191.779 70.8 193.411 70.192 195.203 69.424C196.099 69.04 196.963 68.72 197.795 68.464C198.627 68.144 199.363 67.984 200.003 67.984ZM183.491 43.696C180.739 43.696 178.531 44.592 176.867 46.384C175.203 48.112 174.211 50.64 173.891 53.968H192.419C192.227 50.576 191.363 48.016 189.827 46.288C188.355 44.56 186.243 43.696 183.491 43.696ZM249.271 67.984C250.551 67.984 251.575 68.496 252.343 69.52C253.175 70.544 253.591 71.856 253.591 73.456C253.591 74.544 253.271 75.568 252.631 76.528C251.991 77.424 251.095 78.192 249.943 78.832C247.767 79.984 245.239 80.944 242.359 81.712C239.479 82.416 236.823 82.768 234.391 82.768C229.271 82.768 224.791 81.776 220.951 79.792C217.175 77.808 214.263 74.992 212.215 71.344C210.167 67.632 209.143 63.28 209.143 58.288C209.143 53.488 210.135 49.232 212.119 45.52C214.103 41.808 216.855 38.928 220.375 36.88C223.895 34.768 227.895 33.712 232.375 33.712C236.663 33.712 240.407 34.672 243.607 36.592C246.871 38.448 249.399 41.136 251.191 44.656C252.983 48.112 253.879 52.176 253.879 56.848C253.879 58.256 253.527 59.344 252.823 60.112C252.183 60.816 251.255 61.168 250.039 61.168H223.159C223.607 64.944 224.759 67.696 226.615 69.424C228.471 71.088 231.127 71.92 234.583 71.92C236.439 71.92 238.103 71.696 239.575 71.248C241.047 70.8 242.679 70.192 244.471 69.424C245.367 69.04 246.231 68.72 247.063 68.464C247.895 68.144 248.631 67.984 249.271 67.984ZM232.759 43.696C230.007 43.696 227.799 44.592 226.135 46.384C224.471 48.112 223.479 50.64 223.159 53.968H241.687C241.495 50.576 240.631 48.016 239.095 46.288C237.623 44.56 235.511 43.696 232.759 43.696ZM319.466 89.68C320.362 91.088 320.81 92.464 320.81 93.808C320.81 95.536 320.074 96.976 318.602 98.128C317.194 99.28 315.53 99.856 313.61 99.856C312.266 99.856 310.986 99.536 309.77 98.896C308.618 98.256 307.69 97.328 306.986 96.112L301.226 86.512C300.458 85.232 299.434 84.304 298.154 83.728C296.874 83.152 295.146 82.864 292.97 82.864C286.25 82.864 280.394 81.456 275.402 78.64C270.474 75.76 266.666 71.728 263.978 66.544C261.29 61.296 259.946 55.152 259.946 48.112C259.946 41.072 261.29 34.96 263.978 29.776C266.666 24.528 270.474 20.496 275.402 17.68C280.394 14.864 286.25 13.456 292.97 13.456C299.69 13.456 305.514 14.864 310.442 17.68C315.434 20.496 319.274 24.528 321.962 29.776C324.65 34.96 325.994 41.072 325.994 48.112C325.994 55.472 324.522 61.84 321.578 67.216C318.698 72.528 314.57 76.496 309.194 79.12C312.33 80.08 314.858 82.128 316.778 85.264L319.466 89.68ZM292.97 71.248C298.602 71.248 303.018 69.264 306.218 65.296C309.482 61.328 311.114 55.6 311.114 48.112C311.114 40.624 309.514 34.928 306.314 31.024C303.114 27.056 298.666 25.072 292.97 25.072C287.274 25.072 282.826 27.056 279.626 31.024C276.49 34.928 274.922 40.624 274.922 48.112C274.922 55.6 276.522 61.328 279.722 65.296C282.922 69.264 287.338 71.248 292.97 71.248ZM357.013 82.768C352.021 82.768 347.637 81.776 343.861 79.792C340.085 77.744 337.173 74.896 335.125 71.248C333.077 67.536 332.053 63.184 332.053 58.192C332.053 53.2 333.077 48.88 335.125 45.232C337.173 41.52 340.085 38.672 343.861 36.688C347.637 34.704 352.021 33.712 357.013 33.712C362.005 33.712 366.389 34.704 370.165 36.688C373.941 38.672 376.853 41.52 378.901 45.232C380.949 48.88 381.973 53.2 381.973 58.192C381.973 63.184 380.949 67.536 378.901 71.248C376.853 74.896 373.941 77.744 370.165 79.792C366.389 81.776 362.005 82.768 357.013 82.768ZM357.013 71.728C364.053 71.728 367.573 67.216 367.573 58.192C367.573 53.648 366.645 50.256 364.789 48.016C362.997 45.776 360.405 44.656 357.013 44.656C349.973 44.656 346.453 49.168 346.453 58.192C346.453 67.216 349.973 71.728 357.013 71.728ZM411.53 82.768C406.538 82.768 402.154 81.776 398.378 79.792C394.602 77.744 391.69 74.896 389.642 71.248C387.594 67.536 386.57 63.184 386.57 58.192C386.57 53.2 387.594 48.88 389.642 45.232C391.69 41.52 394.602 38.672 398.378 36.688C402.154 34.704 406.538 33.712 411.53 33.712C416.522 33.712 420.906 34.704 424.682 36.688C428.458 38.672 431.37 41.52 433.418 45.232C435.466 48.88 436.49 53.2 436.49 58.192C436.49 63.184 435.466 67.536 433.418 71.248C431.37 74.896 428.458 77.744 424.682 79.792C420.906 81.776 416.522 82.768 411.53 82.768ZM411.53 71.728C418.57 71.728 422.09 67.216 422.09 58.192C422.09 53.648 421.162 50.256 419.306 48.016C417.514 45.776 414.922 44.656 411.53 44.656C404.49 44.656 400.97 49.168 400.97 58.192C400.97 67.216 404.49 71.728 411.53 71.728ZM450.688 82.576C448.576 82.576 446.816 82 445.408 80.848C444.064 79.696 443.392 78 443.392 75.76V20.656C443.392 18.416 444.064 16.72 445.408 15.568C446.816 14.416 448.576 13.84 450.688 13.84C452.736 13.84 454.432 14.416 455.776 15.568C457.184 16.72 457.888 18.416 457.888 20.656V75.76C457.888 78 457.184 79.696 455.776 80.848C454.432 82 452.736 82.576 450.688 82.576ZM475.705 82.576C473.401 82.576 471.577 81.904 470.233 80.56C468.889 79.216 468.217 77.392 468.217 75.088V21.328C468.217 19.088 468.825 17.36 470.041 16.144C471.257 14.928 472.985 14.32 475.225 14.32H499.321C506.681 14.32 512.409 16.176 516.505 19.888C520.601 23.6 522.649 28.784 522.649 35.44C522.649 42.096 520.601 47.28 516.505 50.992C512.409 54.704 506.681 56.56 499.321 56.56H483.193V75.088C483.193 77.392 482.521 79.216 481.177 80.56C479.833 81.904 478.009 82.576 475.705 82.576ZM497.401 45.232C504.889 45.232 508.634 42 508.634 35.536C508.634 29.008 504.889 25.744 497.401 25.744H483.193V45.232H497.401ZM536.567 82.576C534.455 82.576 532.695 82 531.287 80.848C529.943 79.696 529.271 78 529.271 75.76V20.656C529.271 18.416 529.943 16.72 531.287 15.568C532.695 14.416 534.455 13.84 536.567 13.84C538.615 13.84 540.311 14.416 541.655 15.568C543.063 16.72 543.767 18.416 543.767 20.656V75.76C543.767 78 543.063 79.696 541.655 80.848C540.311 82 538.615 82.576 536.567 82.576ZM574.16 33.712C581.072 33.712 586.192 35.408 589.52 38.8C592.848 42.128 594.512 47.248 594.512 54.16V75.856C594.512 77.968 593.904 79.632 592.688 80.848C591.472 82 589.776 82.576 587.6 82.576C585.552 82.576 583.888 81.968 582.608 80.752C581.392 79.472 580.784 77.84 580.784 75.856V75.184C579.824 77.552 578.224 79.408 575.984 80.752C573.744 82.096 571.12 82.768 568.112 82.768C564.912 82.768 562 82.128 559.376 80.848C556.816 79.568 554.768 77.776 553.232 75.472C551.76 73.168 551.024 70.608 551.024 67.792C551.024 64.336 551.888 61.616 553.616 59.632C555.408 57.648 558.256 56.208 562.16 55.312C566.064 54.416 571.408 53.968 578.192 53.968H580.688V52.24C580.688 49.552 580.08 47.6 578.864 46.384C577.712 45.168 575.76 44.56 573.008 44.56C570.256 44.56 566.288 45.52 561.104 47.44C559.632 48.144 558.384 48.496 557.36 48.496C555.952 48.496 554.832 48.016 554 47.056C553.168 46.032 552.752 44.72 552.752 43.12C552.752 41.84 553.04 40.784 553.616 39.952C554.192 39.12 555.12 38.352 556.4 37.648C558.64 36.432 561.36 35.472 564.56 34.768C567.824 34.064 571.024 33.712 574.16 33.712ZM571.28 72.784C574.096 72.784 576.368 71.856 578.096 70C579.824 68.08 580.688 65.616 580.688 62.608V60.976H579.056C573.872 60.976 570.224 61.392 568.112 62.224C566.064 63.056 565.04 64.56 565.04 66.736C565.04 68.528 565.616 70 566.768 71.152C567.984 72.24 569.488 72.784 571.28 72.784ZM625.222 82.768C620.358 82.768 616.102 81.776 612.454 79.792C608.806 77.808 605.99 74.992 604.006 71.344C602.086 67.696 601.126 63.408 601.126 58.48C601.126 53.552 602.15 49.232 604.198 45.52C606.31 41.744 609.254 38.832 613.03 36.784C616.806 34.736 621.158 33.712 626.086 33.712C628.646 33.712 631.206 34.064 633.766 34.768C636.39 35.472 638.726 36.464 640.774 37.744C642.758 38.96 643.75 40.752 643.75 43.12C643.75 44.784 643.366 46.16 642.598 47.248C641.83 48.272 640.806 48.784 639.526 48.784C638.694 48.784 637.894 48.656 637.126 48.4C636.422 48.08 635.462 47.632 634.246 47.056C632.902 46.352 631.686 45.808 630.598 45.424C629.574 45.04 628.39 44.848 627.046 44.848C623.462 44.848 620.71 46 618.79 48.304C616.934 50.544 616.006 53.84 616.006 58.192C616.006 62.544 616.934 65.872 618.79 68.176C620.71 70.48 623.462 71.632 627.046 71.632C628.39 71.632 629.574 71.472 630.598 71.152C631.622 70.768 632.87 70.192 634.342 69.424C635.558 68.848 636.518 68.432 637.222 68.176C637.926 67.856 638.694 67.696 639.526 67.696C640.742 67.696 641.734 68.24 642.502 69.328C643.334 70.416 643.75 71.792 643.75 73.456C643.75 75.824 642.758 77.584 640.774 78.736C638.726 80.016 636.358 81.008 633.67 81.712C630.982 82.416 628.166 82.768 625.222 82.768ZM686.772 67.984C688.052 67.984 689.076 68.496 689.844 69.52C690.676 70.544 691.092 71.856 691.092 73.456C691.092 74.544 690.772 75.568 690.132 76.528C689.492 77.424 688.596 78.192 687.444 78.832C685.268 79.984 682.74 80.944 679.86 81.712C676.98 82.416 674.324 82.768 671.892 82.768C666.772 82.768 662.292 81.776 658.452 79.792C654.676 77.808 651.764 74.992 649.716 71.344C647.668 67.632 646.644 63.28 646.644 58.288C646.644 53.488 647.636 49.232 649.62 45.52C651.604 41.808 654.356 38.928 657.876 36.88C661.396 34.768 665.396 33.712 669.876 33.712C674.164 33.712 677.908 34.672 681.108 36.592C684.372 38.448 686.9 41.136 688.692 44.656C690.484 48.112 691.38 52.176 691.38 56.848C691.38 58.256 691.028 59.344 690.324 60.112C689.684 60.816 688.756 61.168 687.54 61.168H660.66C661.108 64.944 662.26 67.696 664.116 69.424C665.972 71.088 668.628 71.92 672.084 71.92C673.94 71.92 675.604 71.696 677.076 71.248C678.548 70.8 680.18 70.192 681.972 69.424C682.868 69.04 683.732 68.72 684.564 68.464C685.396 68.144 686.132 67.984 686.772 67.984ZM670.26 43.696C667.508 43.696 665.3 44.592 663.636 46.384C661.972 48.112 660.98 50.64 660.66 53.968H679.188C678.996 50.576 678.132 48.016 676.596 46.288C675.124 44.56 673.012 43.696 670.26 43.696ZM716.072 82.768C712.168 82.768 708.776 82.448 705.896 81.808C703.016 81.168 700.488 80.144 698.312 78.736C697.352 78.16 696.616 77.392 696.104 76.432C695.592 75.472 695.336 74.384 695.336 73.168C695.336 71.696 695.752 70.48 696.584 69.52C697.416 68.496 698.44 67.984 699.656 67.984C700.488 67.984 701.32 68.144 702.152 68.464C702.984 68.72 703.848 69.04 704.744 69.424C706.536 70.256 708.296 70.928 710.024 71.44C711.752 71.888 713.896 72.112 716.456 72.112C718.696 72.112 720.424 71.76 721.64 71.056C722.92 70.352 723.56 69.392 723.56 68.176C723.56 67.28 723.272 66.576 722.696 66.064C722.184 65.488 721.192 64.976 719.72 64.528C718.248 64.08 715.912 63.536 712.712 62.896C707.016 61.808 702.92 60.176 700.424 58C697.928 55.824 696.68 52.784 696.68 48.88C696.68 46 697.544 43.408 699.272 41.104C701.064 38.8 703.496 37.008 706.568 35.728C709.64 34.384 713.096 33.712 716.936 33.712C719.688 33.712 722.376 34.064 725 34.768C727.624 35.472 729.96 36.464 732.008 37.744C733.992 38.96 734.984 40.752 734.984 43.12C734.984 44.656 734.568 45.936 733.736 46.96C732.904 47.984 731.88 48.496 730.664 48.496C729.192 48.496 727.432 47.92 725.384 46.768C723.784 45.936 722.312 45.328 720.968 44.944C719.688 44.496 718.152 44.272 716.36 44.272C714.376 44.272 712.808 44.656 711.656 45.424C710.504 46.128 709.928 47.12 709.928 48.4C709.928 49.744 710.6 50.768 711.944 51.472C713.288 52.176 715.88 52.88 719.72 53.584C724.008 54.416 727.368 55.44 729.8 56.656C732.232 57.808 733.992 59.28 735.08 61.072C736.168 62.864 736.712 65.136 736.712 67.888C736.712 72.432 734.824 76.048 731.048 78.736C727.336 81.424 722.344 82.768 716.072 82.768Z" fill="black"/>
<path d="M34.9353 84.99C34.9353 84.99 33.3881 80.9705 29.291 77.5175C29.291 77.5175 40.7128 72.7104 51.5613 77.395C51.5613 77.395 47.3596 81.2779 45.9774 84.99C45.9774 84.99 45.3688 84.273 40.4261 84.2309C40.4261 84.2309 36.2812 84.0199 34.9353 84.99Z" fill="#010930"/>
<path d="M31.6953 78.7051C31.6953 78.7051 42.0699 75.7803 50.4217 78.6788C50.6117 78.4929 51.5613 77.3951 51.5613 77.3951C40.7128 72.7105 29.291 77.5176 29.291 77.5176C31.4949 79.375 32.96 81.3954 33.8443 82.8669C33.3583 81.3951 32.053 79.9985 31.6953 78.7051Z" fill="#02125E"/>
<path d="M50.1546 76.8416C49.556 77.8202 48.7674 78.7061 47.8119 79.5183C46.2636 80.8341 44.6416 82.0167 42.4804 82.5712C40.021 83.2022 37.5709 83.0255 35.0449 82.9998C34.6676 82.9958 34.2949 82.9985 33.9238 83.0011C34.6267 84.1911 34.9349 84.99 34.9349 84.99C36.2809 84.0199 40.4258 84.2309 40.4258 84.2309C45.3685 84.273 45.9771 84.99 45.9771 84.99C47.3593 81.2779 51.561 77.395 51.561 77.395C51.0928 77.1928 50.6238 77.0096 50.1546 76.8416Z" fill="#040925"/>
<path d="M50.5806 78.3667C50.5806 78.3667 73.7183 55.5875 77.1991 48.5008C77.1991 48.5008 83.9563 38.2079 79.4515 29.4338C79.4515 29.4338 78.4278 18.4662 70.4421 15.7664C70.4421 15.7664 65.1181 10.1981 57.1326 8.67956C57.1326 8.67956 53.0374 5.47369 46.0755 6.31733C46.0755 6.31733 40.547 3.33481 35.4278 6.34482C35.4278 6.34482 28.6707 4.29266 22.5279 8.84841C22.5279 8.84841 13.5184 9.69205 9.21844 16.2726C9.21844 16.2726 0.208975 19.8159 1.02803 31.2899C1.02803 31.2899 -5.93386 40.5701 16.3851 64.0242L30.104 78.3667C30.104 78.3667 40.7517 74.317 50.5806 78.3667Z" fill="#FFFDF7"/>
<path d="M50.5806 78.3667C50.5806 78.3667 73.7183 55.5875 77.1991 48.5008C77.1991 48.5008 83.9563 38.2079 79.4515 29.4338C79.4515 29.4338 78.4278 18.4662 70.4421 15.7664C70.4421 15.7664 65.1181 10.1981 57.1326 8.67956C57.1326 8.67956 53.0374 5.47369 46.0755 6.31733C46.0755 6.31733 40.547 3.33481 35.4278 6.34482C35.4278 6.34482 28.6707 4.29266 22.5279 8.84841C22.5279 8.84841 13.5184 9.69205 9.21844 16.2726C9.21844 16.2726 0.208975 19.8159 1.02803 31.2899C1.02803 31.2899 -5.93386 40.5701 16.3851 64.0242L30.104 78.3667C30.104 78.3667 40.7517 74.317 50.5806 78.3667Z" fill="#FFFDF7"/>
<path d="M50.5806 78.3667C50.5806 78.3667 73.7183 55.5875 77.1991 48.5008C77.1991 48.5008 83.9563 38.2079 79.4515 29.4338C79.4515 29.4338 78.4278 18.4662 70.4421 15.7664C70.4421 15.7664 65.1181 10.1981 57.1326 8.67956C57.1326 8.67956 53.0374 5.47369 46.0755 6.31733C46.0755 6.31733 40.547 3.33481 35.4278 6.34482C35.4278 6.34482 28.6707 4.29266 22.5279 8.84841C22.5279 8.84841 13.5184 9.69205 9.21844 16.2726C9.21844 16.2726 0.208975 19.8159 1.02803 31.2899C1.02803 31.2899 -5.93386 40.5701 16.3851 64.0242L30.104 78.3667C30.104 78.3667 40.7517 74.317 50.5806 78.3667Z" fill="#FFFDF7"/>
<path d="M50.5806 78.3667C50.5806 78.3667 73.7183 55.5875 77.1991 48.5008C77.1991 48.5008 83.9563 38.2079 79.4515 29.4338C79.4515 29.4338 78.4278 18.4662 70.4421 15.7664C70.4421 15.7664 65.1181 10.1981 57.1326 8.67956C57.1326 8.67956 53.0374 5.47369 46.0755 6.31733C46.0755 6.31733 40.547 3.33481 35.4278 6.34482C35.4278 6.34482 28.6707 4.29266 22.5279 8.84841C22.5279 8.84841 13.5184 9.69205 9.21844 16.2726C9.21844 16.2726 0.208975 19.8159 1.02803 31.2899C1.02803 31.2899 -5.93386 40.5701 16.3851 64.0242L30.104 78.3667C30.104 78.3667 40.7517 74.317 50.5806 78.3667Z" fill="#FFFDF7"/>
<path d="M78.2639 35.3415C71.993 49.4171 63.6935 59.8653 59.7271 58.6782C55.7603 57.491 57.6282 45.1181 63.8992 31.0425C66.3606 25.5177 69.1344 20.5524 71.8362 16.6295C71.3969 16.4071 70.9333 16.2108 70.4431 16.0461C70.4431 16.0461 65.119 10.5077 57.1334 8.99726C57.1334 8.99726 56.4392 8.45787 55.1395 7.88135C55.6057 12.5449 55.5226 18.3629 54.7785 24.632C53.0075 39.5462 50.2484 51.2772 45.0863 50.8389C40.5132 50.4507 41.1032 22.2568 40.4998 15.5427C39.4399 21.939 37.6383 50.4319 32.0532 50.7865C27.843 51.0536 25.3351 38.773 24.727 23.7968C24.4777 17.6592 24.8228 11.9831 25.6072 7.41194C24.5862 7.84153 23.5485 8.41221 22.5278 9.16521C22.5278 9.16521 13.5182 10.0043 9.2181 16.5496C9.2181 16.5496 8.55079 16.8112 7.5967 17.4206C10.3653 21.1062 13.2306 25.6755 15.8526 30.7469C22.9861 44.5438 25.6169 56.8233 21.7287 58.1737C17.8405 59.5241 8.90576 49.4342 1.77237 35.6371C1.29431 34.7125 0.837251 33.7951 0.400243 32.8869C-0.61912 36.2457 -1.01083 45.8632 16.3849 64.0448L30.1041 78.3103C30.1041 78.3103 40.752 74.2824 50.5811 78.3103C50.5811 78.3103 73.7194 55.6533 77.2002 48.6047C77.2002 48.6047 83.2642 39.4154 80.0708 31.0276C79.5167 32.4402 78.9143 33.8815 78.2639 35.3415" fill="#F5F4EF"/>
<path d="M40.01 23.1399C39.9769 22.3193 39.9333 21.508 39.881 20.7065C39.7641 21.5199 39.6556 22.3439 39.5571 23.1783C38.8395 29.2552 38.7367 34.9103 39.1477 39.5103C39.9196 34.9324 40.2574 29.2643 40.01 23.1399" fill="#981269"/>
<path d="M22.1687 8.89346C20.4546 9.13062 13.008 10.474 9.21826 16.2737C9.21826 16.2737 9.06923 16.3325 8.81262 16.4583C9.26787 24.001 13.8287 40.7189 33.1257 77.4917C33.6702 77.3638 34.2765 77.2353 34.9351 77.1163C23.3704 30.6349 21.7649 14.4797 22.1687 8.89346" fill="#D03200"/>
<path d="M79.4515 29.435C79.4515 29.435 79.4367 29.2765 79.3972 28.9953C78.3772 36.5573 73.4775 55.2791 50.274 78.2456C50.3762 78.286 50.4784 78.3258 50.5805 78.3679C50.5805 78.3679 73.7183 55.5887 77.1991 48.502C77.1991 48.502 83.9562 38.2091 79.4515 29.435Z" fill="#CE5C23"/>
<path d="M16.3849 64.0242L30.1038 78.3667C30.1038 78.3667 30.821 78.0943 32.0528 77.7615C10.6396 52.7001 3.17754 38.9874 0.746198 31.7895C-0.301479 33.993 -2.98361 43.6707 16.3849 64.0242" fill="#90A3E8"/>
<path d="M70.5986 15.8235C70.5461 15.8048 70.4947 15.7851 70.4417 15.7672C70.4417 15.7672 65.1177 10.1989 57.1322 8.68033C57.1322 8.68033 57.0501 8.61678 56.8951 8.51242C57.1538 14.6339 55.5496 31.3408 44.0649 76.7383C45.2442 76.8683 46.4492 77.0802 47.6588 77.395C69.4649 39.3956 71.3139 22.413 70.5986 15.8235Z" fill="#FAC303"/>
<path d="M45.7907 6.17861C44.6024 5.62677 39.8628 3.7376 35.4277 6.3454C35.4277 6.3454 35.2741 6.29885 34.9939 6.23547C33.9651 12.3009 33.4776 29.5324 36.7553 76.8362C37.9432 76.6851 39.2425 76.5815 40.6145 76.5688C45.3967 29.541 45.8693 12.0838 45.7907 6.17861" fill="#187202"/>
<path d="M45.9774 85.8123V84.9896C45.9774 84.5354 43.4985 84.1672 40.4404 84.1672C37.3823 84.1672 34.9033 84.5354 34.9033 84.9896V85.8123H45.9774" fill="#D03200"/>
<path d="M40.4404 84.6736C37.3823 84.6736 34.9033 85.0418 34.9033 85.4963V85.8123H45.9774V85.4963C45.9774 85.0418 43.4985 84.6736 40.4404 84.6736Z" fill="#FF5D0D"/>
<path d="M45.9774 85.8116C45.9774 86.2659 43.4985 86.6343 40.4404 86.6343C37.3823 86.6343 34.9033 86.2659 34.9033 85.8116C34.9033 85.3573 37.3823 84.9889 40.4404 84.9889C43.4985 84.9889 45.9774 85.3573 45.9774 85.8116Z" fill="#010930"/>
<path d="M45.6851 85.5479C44.9453 85.8729 42.8775 86.1069 40.4404 86.1069C38.0034 86.1069 35.9355 85.8729 35.1956 85.5479C35.007 85.6307 34.9033 85.7193 34.9033 85.8116C34.9033 86.2659 37.3823 86.6343 40.4404 86.6343C43.4985 86.6343 45.9774 86.2659 45.9774 85.8116C45.9774 85.7193 45.8737 85.6307 45.6851 85.5479Z" fill="#DD4901"/>
<path d="M49.7131 80.8562C49.6437 80.8562 49.5847 80.8389 49.5406 80.8208L49.4983 80.8186C49.448 80.8066 49.3781 80.7765 49.332 80.6986C49.208 80.4902 49.3358 79.9925 49.5062 79.5235C48.9977 80.2014 48.5312 80.5747 48.1145 80.6362C47.887 80.6699 47.6773 80.6132 47.4917 80.4673C47.0863 80.1487 47.0518 79.4693 47.1206 78.8644C46.8018 79.4614 46.3262 80.0774 45.7115 80.3037C45.3379 80.4416 44.9505 80.4225 44.56 80.2478C43.8982 79.9514 43.6252 78.9489 43.6191 78.1121C43.3111 78.843 42.83 79.6737 42.1176 79.6828H42.1045C41.2469 79.6828 40.7907 78.6176 40.569 77.8171C40.4811 78.3632 40.2541 78.9546 39.8036 79.2935C39.4993 79.522 39.1308 79.6077 38.7076 79.5476C37.5734 79.3864 37.0628 78.2439 36.7885 77.63C36.7784 77.6076 36.7681 77.5844 36.7579 77.5617C36.7628 77.629 36.7686 77.7012 36.7743 77.7701C36.8392 78.5632 36.8713 79.1834 36.6526 79.3495C36.4752 79.4847 36.271 79.5162 36.0617 79.4407C35.7451 79.3265 35.4556 78.9785 35.237 78.6031C35.2746 78.9302 35.2512 79.2309 35.0588 79.3959C34.9411 79.4969 34.7747 79.5354 34.564 79.5106C34.0709 79.452 33.6236 78.9945 33.3117 78.5875C33.457 79.1044 33.5001 79.6278 33.3017 79.8559C33.2364 79.9311 33.1469 79.9706 33.043 79.9706C32.8262 79.9706 32.6028 79.6604 32.4102 79.2793C32.4305 79.6667 32.3744 80.0732 32.1384 80.3717C31.8784 80.7007 31.4118 80.8875 30.9758 80.8349C30.6244 80.7931 30.3615 80.5998 30.2545 80.3044C30.1486 80.0121 30.1746 79.7082 30.1998 79.4147C30.2216 79.1602 30.2423 78.9198 30.1841 78.6876C30.1727 78.6419 30.2082 78.5972 30.2636 78.588C30.3195 78.5786 30.3733 78.6079 30.3847 78.6536C30.4484 78.9086 30.4258 79.1719 30.404 79.4266C30.379 79.7181 30.3554 79.9933 30.4506 80.2561C30.535 80.4891 30.7321 80.6356 31.005 80.668C31.3573 80.7099 31.7528 80.5504 31.9668 80.2797C32.3872 79.7479 32.1583 78.7809 32.0269 78.3545C31.9992 78.2751 31.9745 78.2023 31.9539 78.1389C31.9392 78.0948 31.9702 78.0492 32.0235 78.036C32.0766 78.0233 32.133 78.0475 32.15 78.091C32.1556 78.1051 32.1896 78.1928 32.2314 78.3286C32.5234 79.1481 32.8789 79.8019 33.043 79.8019C33.068 79.8019 33.1012 79.7968 33.1353 79.7578C33.2938 79.5753 33.2664 78.9219 32.946 78.1442C32.8366 77.8784 32.8275 77.8567 32.921 77.824C33.0127 77.792 33.0441 77.8424 33.1209 77.9645C33.6628 78.8279 34.1583 79.2919 34.5932 79.3435C34.7371 79.361 34.8406 79.3395 34.9112 79.279C35.1575 79.0677 35.0104 78.4161 34.9132 77.985C34.8681 77.7852 34.8325 77.6275 34.8325 77.5244C34.8325 77.4778 34.8783 77.44 34.9349 77.44C34.9915 77.44 35.0373 77.4778 35.0373 77.5244C35.0373 77.5395 35.0383 77.5566 35.0403 77.5758C35.0848 77.9871 35.6116 79.0943 36.1439 79.2861C36.2779 79.3346 36.3958 79.3155 36.5137 79.2256C36.6778 79.1008 36.6051 78.2098 36.57 77.7814C36.5261 77.2438 36.5193 77.1609 36.6504 77.1466C36.7846 77.1323 36.8376 77.2516 36.9805 77.5717C37.2407 78.1536 37.7246 79.2367 38.7425 79.3813C39.0999 79.432 39.4103 79.3606 39.6655 79.1689C40.3037 78.6889 40.4533 77.5981 40.3978 77.0234C40.3934 76.9778 40.434 76.9374 40.4894 76.9328C40.545 76.9288 40.5945 76.9606 40.6013 77.006C40.6409 77.2635 41.0183 79.5143 42.1045 79.5143L42.1144 79.5141C42.9309 79.5036 43.4625 78.0019 43.6894 77.3606C43.7107 77.3004 43.7296 77.2469 43.7461 77.2021C43.7625 77.1577 43.8196 77.1323 43.8738 77.1458C43.9279 77.1593 43.9585 77.2065 43.9421 77.2511C43.6722 77.9844 43.8289 79.7282 44.6578 80.0994C44.9938 80.25 45.3114 80.2666 45.6279 80.1498C46.5789 79.7994 47.1759 78.3698 47.327 77.8448L47.3278 77.8422C47.3407 77.7966 47.3957 77.769 47.451 77.7795C47.5059 77.7901 47.54 77.8355 47.5271 77.8808C47.2702 78.7774 47.1437 79.9606 47.6332 80.345C47.7706 80.4532 47.9157 80.494 48.0784 80.47C48.4277 80.4186 49.0311 80.0421 49.9224 78.5412L49.9407 78.5107C49.9648 78.4698 50.0234 78.4524 50.0743 78.4708C50.1246 78.4894 50.1482 78.5375 50.1273 78.5796C49.8075 79.2299 49.3588 80.3601 49.5159 80.6244L49.5161 80.6248C49.5367 80.6262 49.5604 80.6329 49.5876 80.6478C49.6431 80.6788 49.7052 80.7031 49.7813 80.6738C49.9201 80.6206 50.2659 80.3214 50.478 78.6963C50.4839 78.65 50.5331 78.6157 50.5905 78.6214C50.6468 78.6265 50.6875 78.6679 50.6815 78.7143C50.5152 79.9897 50.249 80.6805 49.8679 80.8268C49.8125 80.8481 49.7603 80.8562 49.7131 80.8562" fill="#FFFFFE"/>
<path d="M50.5801 78.7048C50.5273 78.7048 50.4735 78.6963 50.4216 78.6785C39.6759 74.9613 30.3775 78.6326 30.2848 78.6699C30.0824 78.7523 29.8364 78.6835 29.7367 78.5161C29.6368 78.349 29.7202 78.1468 29.923 78.0645C30.0187 78.0254 39.6371 74.2164 50.7387 78.0561C50.9473 78.1282 51.0454 78.326 50.9579 78.4977C50.892 78.627 50.7401 78.7048 50.5801 78.7048" fill="#DD4901"/>
<path d="M29.9227 78.064L29.9017 78.0748C30.0157 78.1242 30.1584 78.1311 30.2845 78.0836C30.3772 78.0488 39.6756 74.632 50.4213 78.0913C50.4732 78.108 50.527 78.116 50.5798 78.116C50.6503 78.116 50.718 78.0996 50.7789 78.0736L50.7384 78.0556C39.6368 74.2159 30.0185 78.0249 29.9227 78.064" fill="#FF5D0D"/>
<path d="M40.859 93.8918C40.9296 93.2446 41.0003 92.5973 41.0709 91.95C41.0848 91.8229 41.0989 91.695 41.1379 91.5714C41.1379 91.5651 41.9791 91.5316 42.056 91.5279C42.1367 91.5241 42.1541 91.5184 42.1851 91.5807C42.2122 91.635 42.2337 91.6911 42.2511 91.748C42.2861 91.8626 42.3045 91.9802 42.319 92.0976C42.4019 92.7684 42.3646 93.4451 42.3162 94.1182C42.3078 94.2356 42.2954 94.3611 42.207 94.4535C42.1491 94.514 42.0476 94.5551 41.9608 94.5262C41.8669 94.4949 41.8327 94.4012 41.8164 94.3188C41.7618 94.0416 41.7776 93.7589 41.7689 93.4781C41.7577 93.1191 41.7064 92.7619 41.6551 92.4052C41.5551 92.9371 41.4709 93.471 41.4024 94.0063C41.3833 94.1558 41.3607 94.3151 41.2446 94.4311C41.184 94.4916 41.0823 94.5378 40.9949 94.5066C40.9365 94.4858 40.9011 94.4362 40.8795 94.3869C40.8209 94.2531 40.8356 94.1061 40.8511 93.9644C40.8537 93.9402 40.8563 93.916 40.859 93.8918" fill="#262628"/>
<path d="M41.9205 94.4989C41.9199 94.4994 41.9193 94.5001 41.9187 94.5011C41.9131 94.511 41.9229 94.5249 41.9249 94.5348C41.9282 94.5508 41.9283 94.5673 41.9268 94.5833C41.9263 94.5888 41.9252 94.5954 41.9336 94.5968C42.0048 94.6089 42.0802 94.6057 42.1491 94.5874C42.1637 94.5835 42.1628 94.5677 42.1624 94.5582C42.1619 94.5454 42.161 94.5331 42.1622 94.5203C42.163 94.5121 42.1639 94.498 42.1515 94.4944C42.1452 94.4926 42.1262 94.4978 42.119 94.4984C42.0969 94.5001 42.0748 94.5 42.0527 94.4993C42.0261 94.4986 41.9996 94.497 41.973 94.4966C41.9593 94.4963 41.9457 94.4965 41.9321 94.4971C41.9263 94.4974 41.923 94.4968 41.9205 94.4989" fill="#565A5B"/>
<path d="M42.1508 94.58C42.1542 94.5811 42.1575 94.5825 42.1605 94.5845C42.1675 94.5894 42.1714 94.5965 42.175 94.6034C42.1881 94.628 42.197 94.6511 42.2154 94.6738C42.243 94.7079 42.2776 94.7483 42.3194 94.7714C42.3352 94.7801 42.3529 94.7866 42.3679 94.7963C42.3828 94.8061 42.3952 94.8204 42.3943 94.8361C42.394 94.8409 42.3924 94.8458 42.3886 94.8494C42.3848 94.8528 42.3794 94.8547 42.3743 94.8564C42.327 94.872 42.2744 94.882 42.2254 94.8705C42.1881 94.8618 42.153 94.8425 42.1203 94.8258C42.0654 94.7979 42.0172 94.7597 41.9598 94.7355C41.9452 94.7294 41.9295 94.7243 41.9174 94.7151C41.896 94.699 41.8895 94.6728 41.8936 94.6491C41.8967 94.6314 41.9051 94.6049 41.9191 94.5905C41.9295 94.5798 41.9517 94.5851 41.9653 94.5872C41.9843 94.5902 42.0022 94.589 42.0216 94.5882C42.0495 94.587 42.0775 94.5859 42.105 94.5814C42.12 94.579 42.137 94.576 42.1508 94.58" fill="#F8A018"/>
<path d="M41.0116 94.4807C40.9872 94.4781 40.9637 94.4732 40.9397 94.4693C40.9351 94.4685 40.9299 94.4687 40.9264 94.4712C40.9176 94.4775 40.9196 94.488 40.9189 94.4965C40.9163 94.5306 40.9016 94.5632 40.9008 94.5973C40.9007 94.599 40.9008 94.6009 40.902 94.6022C40.9033 94.6036 40.9055 94.604 40.9075 94.6045C40.9458 94.6129 40.9846 94.6196 41.0237 94.6247C41.0521 94.6285 41.0808 94.6313 41.1095 94.6296C41.1187 94.6291 41.1288 94.6277 41.1348 94.622C41.1404 94.6167 41.1408 94.6091 41.1412 94.6022C41.1427 94.578 41.1517 94.5544 41.1625 94.5321C41.1671 94.5227 41.1907 94.4896 41.1708 94.4825C41.1588 94.4783 41.1432 94.4838 41.1309 94.4846C41.1124 94.4857 41.0931 94.4853 41.0746 94.4849C41.0535 94.4844 41.0325 94.483 41.0116 94.4807Z" fill="#565A5B"/>
<path d="M40.9097 94.5821C40.9061 94.5828 40.9028 94.5841 40.8996 94.5859C40.8921 94.5902 40.8876 94.5971 40.8832 94.6037C40.8678 94.6274 40.8568 94.6498 40.8362 94.6713C40.8053 94.7034 40.7669 94.7414 40.7231 94.7617C40.7065 94.7694 40.6882 94.7746 40.6724 94.7834C40.6565 94.7921 40.6428 94.8055 40.6421 94.8212C40.6419 94.826 40.6431 94.831 40.6466 94.8349C40.65 94.8386 40.6552 94.8408 40.6602 94.8429C40.7057 94.8615 40.7573 94.8749 40.8072 94.8667C40.8452 94.8604 40.8821 94.8435 40.9163 94.8291C40.9737 94.8049 41.0255 94.7699 41.085 94.7496C41.1002 94.7444 41.1163 94.7404 41.1293 94.7321C41.1521 94.7175 41.1612 94.6917 41.1594 94.6679C41.158 94.6499 41.1522 94.623 41.1397 94.6078C41.1303 94.5964 41.1076 94.6002 41.0939 94.6014C41.0746 94.6031 41.057 94.6007 41.0377 94.5987C41.01 94.5957 40.9822 94.5927 40.9552 94.5865C40.9405 94.5831 40.9238 94.5789 40.9097 94.5821" fill="#F8A018"/>
<path d="M41.0776 91.9182C41.076 91.9113 41.0733 91.9045 41.067 91.8999C41.0601 91.8948 41.0502 91.8937 41.041 91.8927C41.0196 91.8905 40.9983 91.8883 40.9769 91.8861C40.9702 91.8854 40.9632 91.8848 40.9568 91.8867C40.9426 91.8908 40.9376 91.9049 40.9347 91.917C40.9216 91.9691 40.9087 92.0213 40.8958 92.0734C40.89 92.0966 40.8824 92.1195 40.8853 92.1433C40.8882 92.1676 40.899 92.1908 40.9125 92.2122C40.9407 92.2573 40.981 92.2973 41.0297 92.3283C41.0341 92.3311 41.0399 92.3339 41.0447 92.3317C41.0507 92.329 41.049 92.3216 41.0463 92.3164C41.0318 92.2893 41.0103 92.2652 40.9957 92.2381C40.9713 92.1927 40.9678 92.1417 40.9646 92.0921C40.9644 92.0885 40.9642 92.0847 40.9666 92.0816C40.9689 92.0786 40.9747 92.0772 40.9776 92.0798C40.979 92.0811 40.9794 92.0829 40.9797 92.0846C40.9878 92.1322 40.9822 92.184 41.0136 92.2245C41.0177 92.2298 41.0248 92.2355 41.032 92.2331C41.035 92.2321 41.0371 92.2297 41.0387 92.2273C41.0445 92.2185 41.0449 92.208 41.0456 92.1979C41.0523 92.1052 41.0963 92.0135 41.0784 91.9218C41.0781 91.9206 41.0779 91.9194 41.0776 91.9182" fill="#7C4117"/>
<path d="M40.8382 90.8503C40.8237 90.8211 40.8141 90.7899 40.8124 90.7555C40.8085 90.6754 40.8315 90.5956 40.8655 90.5204C40.8325 90.4362 40.8287 90.3464 40.8783 90.2629C40.9161 90.1993 40.9919 90.1394 41.074 90.1162C41.1284 90.1008 41.1981 90.1169 41.2274 90.1596C41.2512 90.1944 41.2213 90.2218 41.2108 90.2548C41.1982 90.2936 41.2306 90.3302 41.2306 90.37C41.2562 90.465 41.2681 90.5585 41.2555 90.6534C41.2726 90.7713 41.2544 90.8856 41.1889 91.0091C41.2352 91.1502 41.2462 91.2995 41.1826 91.4377C41.1927 91.4581 41.2033 91.4785 41.208 91.4997C41.2231 91.5677 41.2227 91.6384 41.2049 91.7061C41.1853 91.7806 41.1398 91.8297 41.0962 91.894C41.0962 91.894 40.9525 91.8945 40.9525 91.8945C40.9511 91.8945 40.915 91.8512 40.9094 91.8455C40.8898 91.8256 40.875 91.8063 40.8635 91.7823C40.8349 91.7224 40.7897 91.6677 40.772 91.6045C40.7421 91.4981 40.7694 91.3902 40.8056 91.2871C40.7826 91.2459 40.7655 91.2019 40.7592 91.151C40.7464 91.045 40.775 90.9415 40.8382 90.8503" fill="#030C43"/>
<path d="M41.0293 91.8283C40.9778 91.8291 40.9259 91.8251 40.8786 91.8126C40.877 91.8122 40.8754 91.8118 40.8737 91.8119C40.8673 91.8122 40.8668 91.8186 40.8681 91.8229C40.8724 91.8376 40.8761 91.8529 40.877 91.8678C40.878 91.8817 40.8744 91.9003 40.884 91.9131C40.8997 91.934 40.946 91.9354 40.9752 91.9374C41.0167 91.9402 41.059 91.9376 41.0991 91.9295C41.1098 91.9274 41.1192 91.9241 41.1229 91.9162C41.1247 91.9122 41.1251 91.9079 41.1256 91.9037C41.1274 91.8885 41.1314 91.8733 41.1376 91.8586C41.1414 91.8496 41.1486 91.8412 41.1505 91.8316C41.1542 91.8138 41.1341 91.8208 41.1169 91.8226C41.0884 91.8257 41.0589 91.8278 41.0293 91.8283" fill="#03279F"/>
<path d="M41.0755 91.3328C40.9786 91.1968 40.9668 91.0098 41.0776 90.8797C41.078 90.8784 41.0783 90.8772 41.0787 90.8759C40.963 90.7779 40.9748 90.561 41.018 90.4508C41.0182 90.4503 41.0186 90.45 41.0188 90.4495C40.9768 90.3905 40.9541 90.33 40.9562 90.252C40.9596 90.1268 41.0709 90.0885 41.1877 90.0359C41.2052 90.028 41.3526 89.9614 41.3559 89.9688C41.381 90.0241 41.4075 90.0737 41.4636 90.1133C41.5165 90.1506 41.5841 90.17 41.6538 90.1656C41.757 90.1592 41.8385 90.0933 41.8921 90.0251C41.9217 89.9874 41.9375 89.9519 41.9448 89.9157C41.9464 89.9085 42.0525 89.9217 42.0636 89.923C42.1378 89.9312 42.2047 89.9548 42.2722 89.9806C42.3179 89.998 42.3706 90.0139 42.3961 90.0517C42.4236 90.0925 42.4258 90.1424 42.4221 90.1879C42.4155 90.2686 42.3511 90.3185 42.3028 90.3799C42.3367 90.4726 42.3503 90.5697 42.3229 90.6652C42.3086 90.7145 42.2823 90.7586 42.2496 90.7998C42.3049 90.8485 42.3383 90.9114 42.3433 90.9816C42.3493 91.0671 42.3113 91.1419 42.2567 91.21C42.2617 91.2038 42.3142 91.3151 42.316 91.3205C42.3341 91.3754 42.3621 91.4526 42.3312 91.507C42.3193 91.5668 42.2397 91.6051 42.1781 91.6287C42.047 91.6789 41.9024 91.7122 41.7642 91.7475C41.5705 91.797 41.3332 91.8515 41.1333 91.793C40.9798 91.748 40.949 91.6094 40.9847 91.4915C41.0022 91.4337 41.035 91.3813 41.0755 91.3328" fill="#03279F"/>
<path d="M41.3864 89.1644C41.3879 89.1728 41.3875 89.1819 41.3822 89.1893C41.3762 89.1915 41.3705 89.194 41.366 89.1972C41.3412 89.2146 41.3209 89.2315 41.3085 89.2563C41.2995 89.2742 41.2959 89.2912 41.296 89.3083C41.2759 89.2844 41.2509 89.256 41.2506 89.2257C41.2503 89.192 41.2675 89.1575 41.2948 89.1309C41.3008 89.1252 41.3072 89.1198 41.314 89.1149C41.3223 89.109 41.3451 89.0915 41.3571 89.0984C41.3664 89.1038 41.3723 89.122 41.376 89.1304C41.3809 89.1414 41.3844 89.1528 41.3864 89.1644" fill="#1B1C1F"/>
<path d="M41.4 89.9322C41.4449 89.8628 41.4669 89.7859 41.4722 89.7094C41.4726 89.7033 41.472 89.664 41.4723 89.6238C41.4855 89.6282 41.5008 89.6309 41.5183 89.6311C41.5952 89.632 41.6744 89.5957 41.7441 89.5741C41.7658 89.5675 41.7872 89.5604 41.8079 89.5527C41.8069 89.5759 41.8065 89.599 41.8074 89.6222C41.8094 89.6706 41.8166 89.7198 41.8333 89.7668C41.8661 89.859 41.955 89.9539 42.0791 89.9903C42.0615 89.9852 41.978 90.115 41.9675 90.1283C41.9215 90.1864 41.8304 90.2298 41.742 90.2469C41.684 90.2581 41.622 90.2557 41.5639 90.2444C41.4265 90.2177 41.3099 90.1395 41.2616 90.0417C41.3197 90.0125 41.3683 89.9801 41.4 89.9322" fill="#9C4824"/>
<path d="M41.2716 89.3797C41.267 89.3658 41.2607 89.3514 41.2617 89.3366C41.2628 89.3203 41.2761 89.3049 41.2843 89.2906C41.3006 89.2621 41.3168 89.2335 41.3368 89.2066C41.3514 89.1869 41.3672 89.1684 41.3796 89.1486C41.4706 89.0908 41.5998 89.0424 41.7144 89.0768C41.8396 89.1146 41.9099 89.2143 41.9041 89.3178C41.9532 89.3238 41.9955 89.3548 42.0086 89.3958C42.035 89.4789 41.9482 89.5422 41.8749 89.5839C41.8695 89.587 41.8638 89.5894 41.8577 89.5912C41.8519 89.6015 41.8492 89.6128 41.846 89.6241C41.8314 89.6744 41.7601 89.7053 41.7081 89.7254C41.7057 89.7264 41.7038 89.727 41.7014 89.728C41.6427 89.7504 41.5793 89.7696 41.5151 89.7773C41.4272 89.788 41.3717 89.7543 41.3402 89.6884C41.3213 89.6491 41.3059 89.6085 41.2921 89.5676C41.2917 89.5667 41.2914 89.5663 41.2914 89.566C41.2838 89.5449 41.2772 89.5235 41.2752 89.5017C41.2728 89.479 41.2831 89.4634 41.2863 89.4417C41.2882 89.4264 41.287 89.4108 41.2795 89.3966C41.2764 89.391 41.2736 89.3855 41.2716 89.3797" fill="#7C4117"/>
<path d="M41.3438 89.0304C41.3489 89.0257 41.3552 89.0215 41.3627 89.0202C41.3737 89.0184 41.3846 89.0233 41.3928 89.0296C41.401 89.0358 41.4076 89.0435 41.4163 89.0492C41.4378 89.0632 41.4597 89.059 41.483 89.0524C41.5142 89.0437 41.5457 89.0353 41.5779 89.0295C41.6358 89.0191 41.6965 89.0189 41.7554 89.0229C41.8192 89.0273 41.9084 89.0423 41.9491 89.088C41.9565 89.0964 41.9627 89.1057 41.966 89.1157C41.969 89.125 41.9651 89.1369 41.9694 89.1457C41.974 89.1552 41.9949 89.159 42.0068 89.1666C42.0386 89.1868 42.06 89.2173 42.0704 89.249C42.0843 89.2914 42.0808 89.3362 42.0738 89.3797C42.0599 89.4677 42.0083 89.5602 41.9306 89.6222C41.9045 89.6431 41.875 89.6612 41.8432 89.6759C41.8361 89.6791 41.829 89.6822 41.8217 89.685C41.8172 89.6869 41.8045 89.6957 41.7999 89.6911C41.7989 89.69 41.7985 89.6886 41.7982 89.6873C41.7958 89.6731 41.8068 89.6632 41.8166 89.6528C41.8285 89.6401 41.8405 89.627 41.8451 89.6111C41.8513 89.5893 41.8548 89.5713 41.8791 89.5587C41.9061 89.5447 41.9253 89.5257 41.9421 89.5033C41.9536 89.4878 41.9644 89.4706 41.97 89.4528C41.9751 89.4363 41.9767 89.4142 41.97 89.3978C41.96 89.3735 41.9277 89.3635 41.8991 89.3688C41.8573 89.3766 41.8254 89.4098 41.8207 89.4442C41.8201 89.4488 41.8186 89.4546 41.8131 89.4552C41.8109 89.4554 41.8089 89.4547 41.807 89.4539C41.7777 89.4412 41.768 89.4025 41.7658 89.3779C41.7645 89.3642 41.7668 89.3498 41.7749 89.3376C41.7831 89.325 41.7971 89.3145 41.8025 89.3009C41.8108 89.2798 41.7997 89.2554 41.7798 89.2402C41.7603 89.2247 41.7337 89.2171 41.707 89.2129C41.6465 89.2031 41.5848 89.2163 41.5248 89.2255C41.5161 89.2269 41.507 89.2283 41.4976 89.2295C41.448 89.236 41.3922 89.2382 41.3549 89.2078C41.3272 89.1851 41.3147 89.1525 41.3122 89.121C41.3099 89.0921 41.3198 89.0524 41.3438 89.0304" fill="#1B1C1F"/>
<path d="M42.1038 91.3572C42.1044 91.3832 42.1045 91.4107 42.0885 91.4331C42.0582 91.4756 41.9874 91.4805 41.9276 91.4805C41.8523 91.4804 41.7722 91.4793 41.7089 91.4457C41.5942 91.385 41.5862 91.2501 41.6065 91.1389C41.6426 90.9404 41.7279 90.7478 41.7381 90.5472C41.7444 90.4247 41.7226 90.3001 41.7555 90.1806C41.776 90.1059 41.8806 89.9285 42.0042 89.9416C42.1152 89.9534 42.0725 90.2613 42.0755 90.3487C42.0869 90.6849 42.0964 91.021 42.1038 91.3572" fill="#FE1010"/>
<path d="M41.5584 90.6312C41.5544 90.6938 41.5407 90.7632 41.4809 90.8019C41.436 90.8309 41.3754 90.8358 41.3185 90.837C41.28 90.8378 41.2381 90.8365 41.2087 90.8161C41.1773 90.7942 41.1698 90.7574 41.1658 90.7237C41.1428 90.5275 41.1717 90.329 41.226 90.1371C41.2388 90.0917 41.2611 90.0394 41.3154 90.0267C41.3704 90.0138 41.4255 90.0513 41.4503 90.0938C41.5458 90.2572 41.5696 90.4519 41.5584 90.6312" fill="#FE1010"/>
<path d="M41.4452 89.7977C41.447 89.7967 41.449 89.796 41.4512 89.7957C41.4576 89.7948 41.4636 89.7982 41.4688 89.8014C41.4868 89.8123 41.5318 89.8064 41.5537 89.8058C41.5846 89.805 41.6155 89.8027 41.6461 89.7987C41.7061 89.7908 41.7648 89.7762 41.8191 89.7534C41.8226 89.7519 41.8263 89.7504 41.8303 89.7504C41.8367 89.7504 41.8419 89.7543 41.8464 89.758C41.8932 89.7976 41.9465 89.8682 41.9089 89.9241C41.8905 89.9514 41.8542 89.9645 41.8203 89.9749C41.7469 89.9973 41.6702 90.0129 41.5924 90.0196C41.5515 90.0231 41.5096 90.0241 41.4696 90.0161C41.4288 90.008 41.3854 89.989 41.3646 89.9572C41.3387 89.9175 41.365 89.8712 41.3942 89.838C41.4026 89.8243 41.4259 89.8125 41.4391 89.802C41.441 89.8005 41.443 89.799 41.4452 89.7977" fill="#FE1010"/>
<path d="M41.2003 90.0239C41.198 90.016 41.1988 90.0078 41.2048 89.9999C41.2114 89.9912 41.2233 89.9864 41.2347 89.982C41.2705 89.968 41.2864 89.9571 41.3047 89.9281C41.3127 89.9154 41.3181 89.8871 41.341 89.8861C41.3521 89.8856 41.3615 89.8949 41.3713 89.8979C41.503 89.9383 41.6548 89.924 41.7877 89.8954C41.8318 89.8859 41.8876 89.8719 41.9128 89.8395C41.9167 89.8343 41.9205 89.8283 41.9275 89.8258C41.9431 89.8205 41.9565 89.8348 41.9629 89.8445C41.9699 89.855 41.9755 89.8608 41.988 89.8682C42.0158 89.8846 42.0468 89.8975 42.0793 89.9063C42.0927 89.9099 42.1075 89.9135 42.1151 89.9232C42.1259 89.937 42.1165 89.9555 42.1045 89.9685C42.0895 89.985 42.067 89.9966 42.0492 90.0111C42.0041 90.0478 41.9715 90.0947 41.9178 90.1241C41.8517 90.1601 41.7697 90.1779 41.6921 90.1906C41.6086 90.2041 41.5212 90.1956 41.4418 90.1723C41.3935 90.1582 41.3477 90.1387 41.3058 90.1144C41.2702 90.0937 41.2109 90.0613 41.2003 90.0239" fill="#770808"/>
<path d="M41.985 91.7178C42.0033 91.7462 42.0469 91.7856 42.055 91.7928C42.0879 91.8216 42.1246 91.8461 42.1651 91.866C42.1671 91.8593 42.1686 91.8531 42.1701 91.8471C42.1728 91.8357 42.1747 91.826 42.1758 91.82C42.1762 91.8187 42.1762 91.8174 42.1766 91.8168C42.1774 91.8146 42.1778 91.8124 42.1785 91.8102C42.1842 91.7897 42.1927 91.7695 42.2061 91.7519C42.2087 91.7481 42.2114 91.7453 42.2145 91.7424C42.2179 91.7396 42.2218 91.7371 42.2263 91.7349C42.2309 91.7323 42.2443 91.7289 42.2447 91.7235C42.2447 91.7207 42.2432 91.7181 42.2413 91.7159C42.2137 91.6788 42.187 91.6406 42.146 91.6119C42.1414 91.6085 42.1365 91.6053 42.1307 91.604C42.099 91.5971 42.0806 91.6113 42.0668 91.6315C42.0573 91.645 42.05 91.6611 42.0416 91.675C42.0359 91.6851 42.0294 91.6939 42.0217 91.6999C42.0198 91.7014 42.0179 91.7027 42.0156 91.704C42.0064 91.71 41.9957 91.7141 41.985 91.7178" fill="#7C4117"/>
<path d="M41.9806 91.7102C41.9818 91.7127 41.9833 91.7152 41.9852 91.7181C42.0035 91.7465 42.0471 91.7858 42.0552 91.7931C42.0881 91.8218 42.1248 91.8464 42.1654 91.8662C42.1715 91.8697 42.178 91.8728 42.1845 91.8757C42.1868 91.8769 42.1894 91.8782 42.1918 91.8791C42.1964 91.881 42.2006 91.8836 42.2052 91.8855C42.2128 91.8889 42.2346 91.9034 42.2388 91.8905C42.2419 91.8807 42.2449 91.87 42.2449 91.8596C42.2449 91.8502 42.2392 91.8464 42.2293 91.8416C42.2189 91.8363 42.2093 91.8309 42.2002 91.8249C42.1933 91.8205 42.1864 91.8161 42.1799 91.8114C42.1795 91.8111 42.1792 91.8107 42.1788 91.8104C42.1589 91.7963 42.1409 91.7805 42.1222 91.7641C42.0935 91.7392 42.0652 91.7124 42.0457 91.6818C42.0445 91.6796 42.043 91.6774 42.0418 91.6752C42.0399 91.6718 42.038 91.6683 42.0361 91.6645C42.0166 91.6714 41.9982 91.6796 41.9806 91.6897C41.9745 91.6932 41.9752 91.7008 41.9806 91.7102" fill="#BDC4C2"/>
<path d="M42.1583 91.449C42.1646 91.4344 42.1725 91.4202 42.1802 91.4068C42.1979 91.3759 42.2199 91.3464 42.2482 91.3212C42.2732 91.2989 42.3009 91.2856 42.3312 91.27C42.3448 91.204 42.3804 91.1492 42.4339 91.0964C42.4597 91.0709 42.4878 91.047 42.5193 91.0263C42.6386 90.9479 42.4602 90.9035 42.399 90.8622C42.2853 90.7854 42.22 90.6603 42.2441 90.5394C42.1495 90.4109 42.1636 90.1922 42.2917 90.095C42.38 90.028 42.4613 90.0452 42.5274 90.097C42.5932 90.1372 42.6394 90.1953 42.6688 90.2598C42.6926 90.2966 42.709 90.3365 42.7192 90.3783C42.773 90.4112 42.8228 90.4484 42.8568 90.497C42.9005 90.5594 42.9063 90.6374 42.9028 90.7079C42.9025 90.7132 42.9022 90.7186 42.9036 90.7237C42.9091 90.743 42.9411 90.7578 42.9572 90.7719C42.9801 90.7919 43.0014 90.8133 43.0195 90.8365C43.0546 90.8816 43.077 90.933 43.0791 90.9869C43.0819 91.0631 43.0347 91.1298 42.963 91.1669C42.9373 91.2909 42.8281 91.3792 42.6875 91.4089C42.6814 91.4641 42.6616 91.518 42.621 91.5632C42.5636 91.6269 42.4742 91.6568 42.3859 91.6823C42.3682 91.6874 42.352 91.6882 42.3377 91.6857C42.3094 91.6924 42.2777 91.6876 42.2511 91.664C42.2218 91.6379 42.196 91.6093 42.1765 91.5775C42.1628 91.5554 42.1484 91.5327 42.1463 91.5074C42.1446 91.4877 42.1501 91.468 42.1583 91.449" fill="#030C43"/>
<path d="M42.275 91.6119C42.2258 91.5779 42.1811 91.5391 42.1491 91.4953C42.148 91.4939 42.1469 91.4924 42.1452 91.4913C42.1389 91.4874 42.1321 91.493 42.129 91.4979C42.1184 91.5146 42.1066 91.5314 42.0926 91.5461C42.0796 91.5598 42.0578 91.5748 42.0541 91.5934C42.048 91.6236 42.0902 91.6563 42.1156 91.6779C42.1518 91.7086 42.1942 91.7347 42.2398 91.7543C42.252 91.7595 42.2641 91.7627 42.2754 91.7579C42.2812 91.7554 42.2857 91.7516 42.2904 91.7479C42.3073 91.7348 42.3262 91.7233 42.3466 91.7137C42.3592 91.7078 42.3743 91.7047 42.3856 91.6971C42.4069 91.6828 42.381 91.6758 42.363 91.6659C42.3332 91.6495 42.3033 91.6315 42.275 91.6119" fill="#03279F"/>
<path d="M39.2886 90.4553C39.2901 90.4522 39.2917 90.4492 39.2934 90.4463C39.3431 90.3582 39.4463 90.291 39.539 90.235C39.7133 90.1296 39.7965 89.9875 39.8759 89.8275C39.9429 89.6926 40.028 89.5533 40.2093 89.5067C40.213 89.5057 40.2169 89.5048 40.2207 89.504C40.3198 89.4808 40.4382 89.4882 40.5275 89.5323C40.6088 89.5725 40.6347 89.6373 40.6373 89.7121C40.6408 89.8095 40.6489 89.9072 40.6763 90.0022C40.6983 90.0784 40.7315 90.1538 40.7841 90.2194C40.8403 90.2895 40.9166 90.3324 41.0039 90.3731C41.066 90.4021 41.1272 90.436 41.1575 90.4913C41.1909 90.5527 41.1896 90.624 41.1731 90.6887C41.1439 90.8032 41.0382 90.9198 40.933 90.9958C40.6019 91.2346 40.0424 91.2366 39.6828 91.0417C39.6728 91.0363 39.6629 91.0307 39.6531 91.025C39.5245 90.9496 39.4 90.8412 39.3268 90.7254C39.2773 90.6472 39.2465 90.5408 39.2886 90.4553" fill="#320600"/>
<path d="M38.7948 91.9262C38.7993 91.9683 38.8535 92.0258 38.9017 91.9805C38.9126 91.9702 38.9202 91.9583 38.9315 91.9487C38.9693 91.9156 39.0303 91.9186 39.077 91.899C39.1179 91.8815 39.1529 91.856 39.1851 91.8291C39.1903 91.8249 39.1951 91.8202 39.2003 91.8159C39.218 91.8007 39.2349 91.7851 39.2522 91.7699C39.4165 91.6258 39.6275 91.5165 39.7609 91.3523C39.8639 91.2254 39.9125 91.0744 39.9575 90.9264C39.9904 90.8178 40.0222 90.7092 40.0419 90.5982C40.0483 90.5624 40.0535 90.5257 40.0443 90.4902C40.0358 90.4588 40.0146 90.428 39.9816 90.4114C39.9776 90.4095 39.9735 90.4074 39.9687 90.4058C39.8739 90.3717 39.8039 90.4677 39.773 90.525C39.7284 90.6075 39.7123 90.6979 39.6971 90.786C39.6774 90.9016 39.6573 91.0171 39.6376 91.1327C39.6323 91.1622 39.6267 91.193 39.607 91.2181C39.5889 91.2407 39.5612 91.2565 39.5355 91.2735C39.3764 91.3778 39.2851 91.5351 39.163 91.6692C39.1437 91.6904 39.1228 91.7112 39.0991 91.7292C39.0786 91.7454 39.0557 91.759 39.03 91.7685C38.9873 91.7844 38.9399 91.7881 38.8973 91.8033C38.8346 91.8255 38.7889 91.8672 38.7948 91.9262" fill="#FA5A4C"/>
<path d="M39.0994 91.7296C39.1271 91.762 39.1548 91.7978 39.1854 91.8296C39.1906 91.8253 39.1954 91.8207 39.2006 91.8163C39.2183 91.8011 39.2352 91.7855 39.2525 91.7703C39.4168 91.6263 39.6278 91.517 39.7613 91.3527C39.8642 91.2259 39.9128 91.0749 39.9578 90.9269C39.9907 90.8182 40.0225 90.7096 40.0422 90.5987C40.0486 90.5629 40.0538 90.5262 40.0446 90.4907C40.0361 90.4593 40.0149 90.4284 39.9819 90.4119C39.9779 90.4099 39.9738 90.4079 39.969 90.4062C39.8742 90.3722 39.8043 90.4682 39.7733 90.5255C39.7287 90.6079 39.7126 90.6983 39.6974 90.7864C39.6777 90.902 39.6576 91.0176 39.6379 91.1332C39.6327 91.1626 39.627 91.1934 39.6073 91.2186C39.5893 91.2411 39.5615 91.257 39.5358 91.2739C39.3767 91.3782 39.2854 91.5355 39.1633 91.6696C39.144 91.6909 39.1231 91.7117 39.0994 91.7296" fill="#DBDCDE"/>
<path d="M40.5219 90.2475C40.518 90.2436 40.5141 90.2397 40.509 90.2368C40.4911 90.2265 40.467 90.2327 40.4455 90.236C40.4232 90.2396 40.4004 90.2396 40.3777 90.2396C40.3374 90.2396 40.2972 90.2397 40.2569 90.2397C40.2174 90.2397 40.1793 90.243 40.1417 90.2321C40.135 90.2301 40.1281 90.2279 40.1209 90.2283C40.1103 90.229 40.0952 90.2366 40.0861 90.2415C40.0708 90.2496 40.0572 90.2617 40.0443 90.2722C40.037 90.2782 40.0296 90.2849 40.0278 90.2932C40.0256 90.3033 40.032 90.3131 40.0389 90.3216C40.0523 90.3381 40.0682 90.3533 40.0856 90.367C40.1029 90.3806 40.1218 90.3928 40.1427 90.4022C40.1678 90.4135 40.1953 90.4206 40.2231 90.4257C40.2688 90.4341 40.3159 90.4371 40.3626 90.4343C40.3996 90.4321 40.4374 90.4258 40.4678 90.4084C40.4867 90.3976 40.5018 90.3829 40.5165 90.3684C40.5349 90.3501 40.5597 90.3277 40.5657 90.3037C40.5708 90.2836 40.5361 90.2617 40.5219 90.2475" fill="#EF3434"/>
<path d="M39.9879 94.9566C39.9899 94.9599 39.9927 94.9629 39.9959 94.9658H40.1109C40.1197 94.9625 40.1286 94.9582 40.133 94.9513C40.139 94.9413 40.135 94.9291 40.131 94.9185C40.1149 94.8774 40.1004 94.836 40.0936 94.7933C40.0916 94.781 40.0904 94.7685 40.09 94.7562C40.0884 94.7277 40.0892 94.6993 40.0904 94.6711H40.0032C40.0036 94.6986 40.0032 94.7257 40.0016 94.7533C39.9995 94.8082 39.9943 94.8632 39.9855 94.9178C39.9835 94.9308 39.9815 94.9443 39.9879 94.9566" fill="#E56E98"/>
<path d="M40.4389 94.9549C40.4425 94.9599 40.4478 94.9632 40.4538 94.9658H40.576C40.5792 94.9629 40.582 94.9592 40.584 94.9552C40.59 94.9433 40.5872 94.9294 40.5844 94.9165C40.5731 94.8635 40.5655 94.8099 40.5607 94.7562C40.5579 94.7281 40.5559 94.6999 40.5551 94.6718H40.4678C40.4703 94.7006 40.4727 94.7294 40.4727 94.7582C40.4727 94.7708 40.4719 94.7834 40.4707 94.796C40.4658 94.8387 40.4534 94.8807 40.4393 94.9221C40.4357 94.933 40.4321 94.945 40.4389 94.9549" fill="#E56E98"/>
<path d="M40.1368 90.2711C40.2001 90.1898 40.1707 90.0913 40.1573 90.001C40.1605 90.0013 40.1634 90.0015 40.1653 90.0015L40.3864 90.0026C40.3911 90.0026 40.4339 89.9994 40.4364 90.0029C40.4498 90.0223 40.4453 90.0459 40.4444 90.0706C40.4431 90.1096 40.439 90.1475 40.4444 90.1836C40.45 90.2205 40.4739 90.2513 40.4981 90.2817C40.5256 90.3161 40.553 90.3495 40.5835 90.3823C40.6011 90.4577 40.5165 90.5567 40.4608 90.6082C40.3954 90.6686 40.2992 90.6999 40.2031 90.6875C40.0963 90.6738 40.0279 90.6085 39.9969 90.5213C39.9842 90.4853 39.9769 90.448 39.9733 90.4105C39.9716 90.394 39.9682 90.3772 39.9673 90.3605C40.0348 90.3468 40.0981 90.3208 40.1368 90.2711" fill="#C5351D"/>
<path d="M40.6157 89.693C40.6 89.6618 40.5744 89.6304 40.5478 89.6048C40.4942 89.5533 40.4084 89.5389 40.3304 89.5557C40.2546 89.572 40.1878 89.6149 40.1457 89.6689C40.1254 89.695 40.1143 89.7266 40.1087 89.7571C40.1067 89.768 40.1053 89.7798 40.1052 89.7912C40.1051 89.8008 40.1101 89.8154 40.105 89.8244C40.1056 89.8233 40.0878 89.8188 40.0861 89.8185C40.0786 89.8174 40.0711 89.8178 40.0639 89.8198C40.0507 89.8234 40.0413 89.8318 40.0359 89.8422C40.0279 89.8575 40.0249 89.8771 40.0284 89.8934C40.0366 89.9328 40.0675 89.9697 40.1051 89.9942C40.1271 90.0087 40.1522 90.0198 40.1785 90.0278C40.179 90.0283 40.1794 90.0289 40.1799 90.0295C40.2198 90.0739 40.277 90.1065 40.3384 90.1278C40.386 90.1444 40.4579 90.1669 40.5088 90.1489C40.5516 90.1337 40.5761 90.086 40.5956 90.0536C40.6181 90.0161 40.635 89.9764 40.6449 89.9354C40.6645 89.8541 40.6544 89.7696 40.6157 89.693Z" fill="#FA5A4C"/>
<path d="M39.9064 93.2599C39.9133 92.9777 39.8002 92.7072 39.7365 92.4331C39.7051 92.2981 39.68 92.1549 39.699 92.0173C39.7289 91.8012 39.8507 91.6065 39.9057 91.396C39.919 91.345 39.9434 91.2493 40.0254 91.2476C40.1494 91.245 40.2734 91.2423 40.3974 91.2397C40.4592 91.2384 40.5331 91.2225 40.5757 91.2679C40.5763 91.2685 40.5767 91.2693 40.5773 91.2699C40.6292 91.3272 40.6358 91.4085 40.6597 91.4755C40.7111 91.6195 40.7808 91.7569 40.8139 91.9053C40.8567 92.0976 40.858 92.2966 40.8119 92.4886C40.7501 92.7455 40.6464 92.9943 40.653 93.2599C40.6558 93.3751 40.6789 93.4894 40.691 93.6044C40.731 93.9841 40.6505 94.3646 40.5702 94.7407C40.5341 94.7415 40.4979 94.7423 40.4618 94.7432C40.435 93.8502 40.3739 92.9579 40.2797 92.0675C40.1854 92.9579 40.1244 93.8502 40.0975 94.7432C40.0614 94.7423 40.0253 94.7415 39.9892 94.7407C39.9089 94.3646 39.8284 93.9841 39.8684 93.6044C39.8805 93.4894 39.9036 93.3751 39.9064 93.2599" fill="#1C1D1A"/>
<path d="M39.1637 91.749C39.1505 91.7335 39.1384 91.7173 39.1244 91.7023C39.1239 91.7018 39.1234 91.7012 39.1227 91.7011C39.1218 91.7011 39.121 91.7016 39.1205 91.7021C39.1145 91.7069 39.1098 91.7128 39.104 91.7178C39.0911 91.7288 39.0735 91.7352 39.0589 91.7446C39.0549 91.7471 39.0507 91.7507 39.0515 91.7549C39.0518 91.7566 39.0529 91.7581 39.054 91.7595C39.0831 91.7977 39.1184 91.8327 39.1588 91.8631C39.1598 91.8639 39.161 91.8647 39.1624 91.8647C39.1639 91.8648 39.1652 91.864 39.1663 91.8632C39.1853 91.8503 39.2026 91.8357 39.2177 91.8197C39.2289 91.8079 39.2071 91.7951 39.1982 91.7861C39.1863 91.7741 39.1746 91.7618 39.1637 91.749" fill="#D6DAD7"/>
<path d="M40.0106 89.6506C40.0358 89.5916 40.0987 89.5481 40.1673 89.5212C40.2504 89.4887 40.3482 89.4771 40.4355 89.5009C40.4733 89.5112 40.5082 89.5278 40.5399 89.5475C40.5544 89.5565 40.5686 89.5663 40.5787 89.5787C40.5955 89.5993 40.6003 89.6349 40.5892 89.6603C40.5892 89.6605 40.5892 89.6608 40.589 89.6611C40.5754 89.7019 40.5287 89.7415 40.4947 89.7725C40.4254 89.8358 40.2943 89.8895 40.1896 89.8803C40.1666 89.8783 40.1452 89.8714 40.128 89.8608C40.1266 89.8603 40.1255 89.8596 40.1245 89.8586C40.1097 89.8487 40.0987 89.8356 40.0932 89.8197C40.0924 89.8195 40.0918 89.819 40.091 89.8187C40.0725 89.8135 40.0517 89.8231 40.0412 89.8368C40.0307 89.8504 40.0283 89.867 40.026 89.8831C40.0186 89.8442 40.0068 89.8061 40.0008 89.7671C39.9948 89.7281 39.9948 89.6877 40.0106 89.6506Z" fill="#320600"/>
<path d="M39.6431 91.8693C39.6861 91.687 39.7736 91.5136 39.8287 91.3334C39.916 91.0483 39.9213 90.7502 39.8973 90.4568C39.8951 90.4298 39.8931 90.4011 39.9088 90.3774C39.9245 90.3536 39.9651 90.339 39.9913 90.3554C40.0057 90.3644 40.0116 90.3796 40.0168 90.3939C40.0386 90.4536 40.0632 90.5139 40.1078 90.5644C40.1524 90.6148 40.2204 90.6547 40.296 90.6576C40.3679 90.6603 40.4376 90.6289 40.484 90.5835C40.5303 90.5381 40.5554 90.4802 40.5681 90.4219C40.5746 90.3926 40.5959 90.3481 40.6426 90.3722C40.6775 90.3901 40.6654 90.4392 40.6601 90.4668C40.613 90.7128 40.6514 90.9648 40.7121 91.2088C40.7727 91.4529 40.8555 91.6935 40.8983 91.9401C40.9063 91.9867 40.9094 92.0417 40.8663 92.0726C40.8221 92.1042 40.7548 92.0925 40.6986 92.0792C40.5539 92.0447 40.4093 92.0102 40.2646 91.9757C40.1089 91.9386 39.9353 91.9026 39.7907 91.9629C39.7525 91.9789 39.7086 92.0015 39.6708 91.985C39.6309 91.9675 39.6315 91.9208 39.6397 91.8841C39.6408 91.8791 39.6419 91.8742 39.6431 91.8693" fill="#DBDCDE"/>
<path d="M40.2574 90.7972C40.265 90.8456 40.2773 90.8927 40.293 90.9406C40.301 90.9649 40.2992 90.985 40.2679 90.9937C40.2158 91.0081 40.1657 91.0276 40.119 91.0515C40.0984 91.0621 40.0754 91.0741 40.0517 91.0696C40.0354 91.0665 40.0224 91.0559 40.0148 91.0437C40.0071 91.0315 40.004 91.0177 40.0014 91.0041C39.9844 90.9169 39.9831 90.828 39.9925 90.7401C40.0019 90.6529 40.0172 90.5651 40.0347 90.4787C40.0365 90.4698 40.0385 90.4608 40.0404 90.4519C40.0403 90.452 40.2277 90.4703 40.2397 90.4919C40.2458 90.503 40.2431 90.5192 40.2437 90.5309C40.2468 90.5987 40.2457 90.6683 40.2505 90.7367C40.2519 90.7571 40.2543 90.7772 40.2574 90.7972" fill="#770808"/>
<path d="M39.9353 90.2942C39.9373 90.2924 39.9393 90.2905 39.9416 90.2886C39.9794 90.2575 40.0251 90.2401 40.0769 90.2309C40.089 90.2288 40.1216 90.2176 40.1313 90.2266C40.1347 90.2299 40.1352 90.2345 40.1354 90.2388C40.1363 90.255 40.1373 90.2705 40.1511 90.2837C40.1645 90.2964 40.1825 90.3068 40.2004 90.3146C40.247 90.3349 40.3071 90.3426 40.3587 90.3331C40.3935 90.3268 40.433 90.3105 40.4554 90.2871C40.4775 90.2639 40.4926 90.2073 40.5382 90.2431C40.5736 90.2709 40.6081 90.2998 40.635 90.3333C40.6411 90.3409 40.647 90.3492 40.6477 90.3583C40.6491 90.3775 40.6304 90.3989 40.6178 90.414C40.565 90.4772 40.4773 90.516 40.3869 90.5293C40.2438 90.5503 40.061 90.5178 39.9666 90.419C39.9502 90.4018 39.9367 90.3809 39.9259 90.3608C39.9123 90.3354 39.9151 90.314 39.9353 90.2942" fill="#FE1010"/>
<path d="M40.7603 91.6977C40.7702 91.6809 40.78 91.6641 40.7886 91.6468C40.7589 91.6357 40.727 91.6328 40.6921 91.6419C40.6647 91.6488 40.6395 91.6605 40.616 91.6733C40.5899 91.6873 40.5652 91.7025 40.5415 91.7188C40.5317 91.7258 40.522 91.733 40.5179 91.7431C40.5146 91.751 40.5162 91.7613 40.5248 91.7655C40.5317 91.769 40.5402 91.7679 40.5482 91.766C40.5654 91.7618 40.5797 91.747 40.5974 91.7465C40.6004 91.7464 40.6037 91.7472 40.6052 91.7492C40.607 91.7515 40.6061 91.7545 40.6047 91.7569C40.6 91.7645 40.5911 91.7696 40.5826 91.7742C40.5601 91.7866 40.5371 91.7984 40.5129 91.8081C40.4922 91.8165 40.4714 91.8253 40.4478 91.8211C40.4357 91.8188 40.4241 91.8147 40.4122 91.8117C40.4095 91.8111 40.4067 91.8105 40.404 91.8109C40.391 91.8132 40.3952 91.8253 40.4016 91.8309C40.406 91.8346 40.4117 91.8372 40.4174 91.8394C40.4505 91.8521 40.4876 91.8558 40.5239 91.8593C40.5386 91.8607 40.5533 91.8621 40.5681 91.8631C40.5769 91.8637 40.5877 91.864 40.5961 91.8614C40.6057 91.8584 40.6151 91.8514 40.6235 91.8466C40.6454 91.8337 40.6657 91.8193 40.687 91.8058C40.694 91.8013 40.7006 91.7964 40.7074 91.7917L40.7072 91.7927C40.7077 91.7924 40.7083 91.7921 40.7088 91.7919C40.7091 91.7913 40.7094 91.7908 40.7096 91.7902C40.7176 91.7847 40.7259 91.7795 40.7337 91.7737C40.7487 91.7626 40.7615 91.7501 40.7755 91.738C40.7787 91.7353 40.782 91.7323 40.7834 91.7287C40.7866 91.721 40.7806 91.7128 40.7739 91.7067C40.7699 91.7032 40.7649 91.7007 40.7603 91.6977Z" fill="#FA5A4C"/>
<path d="M41.2023 91.1535C41.0685 90.9681 40.9346 90.7827 40.8008 90.5972C40.761 90.5415 40.7188 90.4849 40.6649 90.4392C40.6638 90.4495 40.6618 90.4594 40.6602 90.4674C40.6348 90.5998 40.6344 90.7339 40.6489 90.8681C40.7012 90.932 40.7654 90.9906 40.8257 91.0456C40.8382 91.0568 40.966 91.1694 40.966 91.1741C40.8683 91.2794 40.8808 91.4224 40.8004 91.5334C40.79 91.5483 40.7775 91.5629 40.7626 91.5764C40.7598 91.5791 40.7574 91.5817 40.7546 91.585C40.7437 91.5973 40.7317 91.6126 40.7176 91.6218C40.7136 91.6244 40.7096 91.6264 40.7051 91.6278C40.7049 91.6279 40.7047 91.628 40.7044 91.6281C40.7182 91.6518 40.7497 91.6725 40.7707 91.6885C40.7816 91.6968 40.7915 91.7059 40.8011 91.7151C40.8089 91.7122 40.8171 91.71 40.8237 91.7072C40.831 91.7043 40.8382 91.7009 40.845 91.6973C40.8494 91.695 40.8539 91.6927 40.8579 91.69C40.8655 91.6857 40.8732 91.6811 40.8804 91.6764C40.915 91.6543 40.9459 91.6288 40.9764 91.603C41.0424 91.5477 41.0978 91.4837 41.1384 91.4135C41.1746 91.3516 41.2505 91.2204 41.2023 91.1535" fill="#E56E98"/>
<path d="M40.8257 91.0448C40.8382 91.0561 40.966 91.1687 40.966 91.1733C40.8683 91.2786 40.8808 91.4217 40.8004 91.5326C40.79 91.5476 40.7775 91.5621 40.7626 91.5757C40.7598 91.5783 40.7574 91.581 40.7546 91.5843C40.7437 91.5966 40.7317 91.6118 40.7176 91.621C40.7478 91.6472 40.7722 91.6767 40.7936 91.7085C40.7952 91.7108 40.7968 91.7131 40.7988 91.7151C40.8073 91.7118 40.8165 91.7095 40.8237 91.7065C40.831 91.7035 40.8382 91.7002 40.845 91.6966C40.8494 91.6942 40.8539 91.6919 40.8579 91.6893C40.8655 91.685 40.8732 91.6803 40.8804 91.6757C40.915 91.6535 40.9459 91.628 40.9764 91.6022C41.0424 91.5469 41.0978 91.4829 41.1384 91.4127C41.1746 91.3508 41.2505 91.2197 41.2023 91.1528C41.0685 90.9673 40.9346 90.7819 40.8008 90.5964C40.761 90.5408 40.7188 90.4842 40.6649 90.4384C40.6638 90.4487 40.6617 90.4586 40.6602 90.4666C40.6348 90.5991 40.6344 90.7332 40.6489 90.8673C40.7012 90.9313 40.7654 90.9898 40.8257 91.0448" fill="#DBDCDE"/>
<path d="M40.7058 91.6063C40.712 91.6011 40.718 91.5959 40.7242 91.5907C40.7274 91.5879 40.7308 91.5851 40.735 91.5833C40.756 91.5745 40.777 91.6057 40.7869 91.6167C40.8046 91.6364 40.8251 91.6544 40.845 91.6727C40.8493 91.6766 40.8536 91.6806 40.8562 91.6855C40.8588 91.6903 40.8595 91.6961 40.8565 91.7007C40.8518 91.7078 40.8409 91.7098 40.8326 91.7141C40.821 91.7202 40.8145 91.7315 40.8027 91.7373C40.8003 91.7384 40.7977 91.7393 40.795 91.7393C40.7913 91.7392 40.7881 91.7373 40.7852 91.7354C40.747 91.711 40.7154 91.6802 40.6884 91.6472C40.684 91.6418 40.6795 91.6354 40.6818 91.6291C40.683 91.6257 40.6862 91.6229 40.6893 91.6203C40.6948 91.6156 40.7003 91.6109 40.7058 91.6063" fill="#E8ECE9"/>
<path d="M40.4389 94.9549C40.4425 94.9599 40.4478 94.9632 40.4538 94.9658H40.576C40.5792 94.9629 40.582 94.9592 40.584 94.9552C40.59 94.9433 40.5872 94.9294 40.5844 94.9165C40.5731 94.8635 40.5655 94.8099 40.5607 94.7562C40.5555 94.7569 40.5502 94.7572 40.5446 94.7572C40.5213 94.7575 40.498 94.7579 40.4747 94.7582H40.4727C40.4727 94.7708 40.4719 94.7834 40.4707 94.796C40.4658 94.8387 40.4534 94.8807 40.4393 94.9221C40.4357 94.933 40.4321 94.945 40.4389 94.9549" fill="#F8A018"/>
<path d="M39.9879 94.9566C39.9899 94.9599 39.9927 94.9629 39.9959 94.9658H40.1109C40.1197 94.9625 40.1286 94.9582 40.133 94.9513C40.139 94.9413 40.135 94.9291 40.131 94.9185C40.1149 94.8774 40.1004 94.836 40.0936 94.7933C40.0916 94.781 40.0904 94.7685 40.09 94.7562C40.0884 94.7559 40.0868 94.7556 40.0851 94.7556C40.0667 94.7549 40.0486 94.7546 40.0301 94.7539C40.0281 94.7539 40.0148 94.7536 40.0016 94.7533C39.9995 94.8082 39.9943 94.8632 39.9855 94.9178C39.9835 94.9308 39.9815 94.9443 39.9879 94.9566" fill="#F8A018"/>
<path d="M38.833 92.3508C38.7199 92.3508 38.6283 92.2754 38.6283 92.1823V89.734C38.6283 89.6813 38.6298 89.6264 38.6314 89.5705C38.6391 89.2967 38.6471 89.0135 38.4808 88.8152C38.4003 88.7191 38.2824 88.6508 38.1728 88.6368C38.0981 88.627 38.0299 88.6422 37.9656 88.6832C37.7587 88.8146 37.7419 89.1092 37.7271 89.3694C37.7231 89.4377 37.7193 89.5033 37.7127 89.5639C37.6383 90.2413 37.5555 90.9401 37.4666 91.6411C37.4548 91.7336 37.3541 91.7996 37.2417 91.7912C37.1292 91.7815 37.0476 91.6986 37.0594 91.6059C37.148 90.9066 37.2306 90.2094 37.3048 89.5334C37.3111 89.4774 37.3144 89.4168 37.318 89.3535C37.3361 89.0368 37.3584 88.6425 37.7159 88.4157C37.8698 88.3182 38.0495 88.2794 38.2362 88.3032C38.4594 88.332 38.6714 88.4488 38.8178 88.6235C39.0597 88.9116 39.0497 89.2659 39.0408 89.5783C39.0393 89.6315 39.0378 89.6838 39.0378 89.7341V92.1823C39.0378 92.2754 38.9462 92.3508 38.833 92.3508" fill="#010930"/>
<path d="M37.2642 91.606C37.3528 90.9067 37.4355 90.2096 37.5097 89.5335C37.516 89.4776 37.5193 89.4169 37.523 89.3537C37.5409 89.0369 37.5633 88.6427 37.9208 88.4158C38.0189 88.3537 38.128 88.3181 38.2422 88.3048L38.2362 88.3034C38.0495 88.2795 37.8698 88.3183 37.7159 88.4158C37.3584 88.6427 37.3361 89.0369 37.318 89.3537C37.3144 89.4169 37.3111 89.4776 37.3048 89.5335C37.2306 90.2096 37.148 90.9067 37.0594 91.606C37.0476 91.6988 37.1292 91.7816 37.2417 91.7913C37.286 91.7949 37.3266 91.7839 37.3625 91.7671C37.2971 91.7342 37.2557 91.6732 37.2642 91.606" fill="#02125E"/>
<path d="M38.8335 92.1823V89.734C38.8335 89.6813 38.835 89.6264 38.8366 89.5705C38.8443 89.2967 38.8522 89.0135 38.686 88.8152C38.6056 88.7191 38.4875 88.6508 38.378 88.6368C38.328 88.6303 38.281 88.636 38.236 88.6521C38.326 88.6794 38.4159 88.7372 38.4811 88.8152C38.6474 89.0135 38.6394 89.2967 38.6317 89.5705C38.6301 89.6264 38.6286 89.6813 38.6286 89.734V92.1823C38.6286 92.2754 38.7202 92.3508 38.8333 92.3508C38.8716 92.3508 38.9052 92.34 38.9359 92.3251C38.8758 92.2957 38.8335 92.2441 38.8335 92.1823" fill="#040925"/>
<path d="M43.8753 91.8455C43.7623 91.8455 43.6705 91.7698 43.6705 91.6767V89.2286C43.6705 89.1757 43.6721 89.1211 43.6737 89.065C43.6813 88.7911 43.6894 88.5077 43.5231 88.3097C43.4426 88.2137 43.3247 88.1453 43.2152 88.1311C43.1404 88.1216 43.0722 88.1367 43.0079 88.1777C42.8009 88.309 42.7842 88.6039 42.7693 88.8639C42.7654 88.9322 42.7617 88.9978 42.7551 89.0583C42.6805 89.7358 42.5978 90.4346 42.5088 91.1356C42.497 91.228 42.3963 91.2941 42.2839 91.2858C42.1714 91.2761 42.0899 91.1932 42.1016 91.1004C42.1902 90.4011 42.2729 89.7039 42.3471 89.0278C42.3534 88.9719 42.3568 88.9111 42.3603 88.8482C42.3783 88.5313 42.4007 88.1368 42.7582 87.9103C42.912 87.8125 43.0917 87.7739 43.2784 87.7979C43.5017 87.8265 43.7136 87.9432 43.8599 88.1178C44.1018 88.4062 44.0919 88.7603 44.0831 89.0728C44.0816 89.1261 44.0801 89.1782 44.0801 89.2286V91.6767C44.0801 91.7698 43.9883 91.8455 43.8753 91.8455" fill="#010930"/>
<path d="M42.3065 91.0999C42.3951 90.4006 42.4778 89.7034 42.552 89.0273C42.5583 88.9714 42.5616 88.9106 42.5652 88.8477C42.5833 88.5308 42.6055 88.1363 42.963 87.9098C43.0611 87.8476 43.1703 87.812 43.2845 87.7986L43.2784 87.7974C43.0917 87.7734 42.912 87.812 42.7582 87.9098C42.4007 88.1363 42.3783 88.5308 42.3603 88.8477C42.3568 88.9106 42.3534 88.9714 42.3471 89.0273C42.2729 89.7034 42.1902 90.4006 42.1016 91.0999C42.0899 91.1927 42.1714 91.2757 42.2839 91.2853C42.3282 91.2885 42.3689 91.2777 42.4047 91.2609C42.3392 91.228 42.2979 91.1668 42.3065 91.0999" fill="#02125E"/>
<path d="M43.8751 91.6767V89.2286C43.8751 89.1757 43.8767 89.1211 43.8782 89.065C43.8859 88.7911 43.894 88.5077 43.7277 88.3097C43.6472 88.2137 43.5292 88.1453 43.4198 88.1311C43.3696 88.1248 43.3227 88.1303 43.2776 88.1467C43.3677 88.1739 43.4576 88.2318 43.5228 88.3097C43.6891 88.5077 43.681 88.7911 43.6734 89.065C43.6718 89.1211 43.6702 89.1757 43.6702 89.2286V91.6767C43.6702 91.7698 43.762 91.8455 43.875 91.8455C43.9131 91.8455 43.947 91.8347 43.9774 91.8196C43.9173 91.7902 43.8751 91.7384 43.8751 91.6767Z" fill="#040925"/>
<path d="M37.0494 91.3599L42.4075 90.8819L44.1138 91.6412L44.3185 95.6064L38.6876 96L37.0494 95.325V91.3599Z" fill="#D43F49"/>
<path d="M42.4075 90.8809L37.0494 91.3589V95.2959L42.5145 94.8658L42.4075 90.8809" fill="#FF5D0D"/>
<path d="M42.5145 94.8668L37.0494 95.2969V95.325L38.6876 96L44.3185 95.6064L42.5145 94.8668" fill="#040925"/>
<path d="M44.3185 95.6062L44.1138 91.641L42.4075 90.8817L42.5145 94.8666L44.3185 95.6062Z" fill="#DD4901"/>
<path d="M42.4075 91.1173L37.0494 91.6114V91.844L42.4075 91.3206V91.1173Z" fill="#FFFFFE"/>
<path d="M42.4757 91.5454L37.0494 92.0396V92.272L42.4757 91.7486V91.5454Z" fill="#FFFFFE"/>
<path d="M42.4756 91.9726L37.0494 92.4668V92.6992L42.4756 92.1758V91.9726" fill="#FFFFFE"/>
<path d="M42.4756 92.3748L37.0494 92.8938V93.126L42.4756 92.578V92.3748" fill="#FFFFFE"/>
<path d="M42.4757 92.8279L37.0494 93.3221V93.5544L42.4757 93.0311V92.8279" fill="#FFFFFE"/>
<path d="M42.4757 93.2398L37.0494 93.7488V93.9812L42.4757 93.4432V93.2398Z" fill="#FFFFFE"/>
<path d="M42.4757 93.6811L37.0494 94.1752V94.4077L42.4757 93.8843V93.6811" fill="#FFFFFE"/>
<path d="M42.5145 94.1089L37.0494 94.6029V94.8354L42.5145 94.3121V94.1089" fill="#FFFFFE"/>
<path d="M42.5145 94.5362L37.0494 95.0303V95.2627L42.5145 94.7395V94.5362Z" fill="#FFFFFE"/>
<path d="M44.1325 92.0037V91.8104L42.4075 91.1181V91.3214L44.1325 92.0037" fill="#DBDCDE"/>
<path d="M44.1628 92.4456V92.2521L42.4379 91.56V91.7632L44.1628 92.4456Z" fill="#DBDCDE"/>
<path d="M44.2017 92.8882V92.6949L42.408 91.9819L42.4464 92.2005L44.2017 92.8882" fill="#DBDCDE"/>
<path d="M44.2255 93.2654V93.0719L42.4476 92.3797V92.5622L44.2255 93.2654Z" fill="#DBDCDE"/>
<path d="M44.2252 93.7368V93.5434L42.4481 92.8303V93.0339L44.2252 93.7368" fill="#DBDCDE"/>
<path d="M44.278 94.1506V93.9572L42.4754 93.2395L42.4481 93.4267L44.278 94.1506" fill="#DBDCDE"/>
<path d="M44.2782 94.583V94.3897L42.4756 93.6817V93.8848L44.2782 94.583" fill="#DBDCDE"/>
<path d="M44.2782 95.0269V94.8334L42.4756 94.1067V94.3098L44.2782 95.0269" fill="#DBDCDE"/>
<path d="M44.3184 95.4683V95.2749L42.4756 94.5323V94.7356L44.3184 95.4683" fill="#DBDCDE"/>
<path d="M37.0603 91.443L42.3866 90.9679L44.065 91.7147C44.1147 91.7369 44.1769 91.7215 44.2037 91.6805C44.2306 91.6395 44.212 91.5884 44.1623 91.5663L42.4559 90.8068C42.4375 90.7988 42.4171 90.7954 42.3963 90.7973L37.0383 91.2753C36.9821 91.2804 36.9414 91.322 36.9475 91.3684C36.9535 91.4146 37.0041 91.4481 37.0603 91.443" fill="#12152A"/>
<path d="M42.5153 94.8667L42.5112 94.7402L42.5116 94.7504L42.5153 94.8667Z" fill="#B02C36"/>
<path d="M42.5121 94.7405L42.5054 94.5376H42.5055L42.5057 94.5453L42.5121 94.7405Z" fill="#C33C49"/>
<path d="M44.3184 95.6062L42.5143 94.8666L42.5112 94.7503L44.311 95.466L44.3184 95.6062Z" fill="#AA3B04"/>
<path d="M42.5066 94.5454L42.5063 94.5378H42.5062L42.499 94.3157H42.4991L42.4992 94.3191L42.5066 94.5454" fill="#B02C36"/>
<path d="M44.3004 95.2681L42.5056 94.5449L42.4995 94.3185L44.2781 95.026V94.8454L44.3004 95.2681ZM44.2773 94.8322L42.801 94.237C42.889 94.2028 42.9717 94.1587 43.0489 94.107L43.6564 94.3424L44.2639 94.5778L44.2773 94.8322ZM44.2534 94.3801L43.2195 93.9739C43.2806 93.9192 43.3371 93.8602 43.3889 93.799L44.2405 94.1358L44.2534 94.3801ZM44.23 93.9382L43.5038 93.6489C43.5404 93.5961 43.5737 93.5427 43.6035 93.4901L44.2192 93.7336L44.23 93.9382ZM44.2088 93.5358L43.6867 93.3263C43.7219 93.2493 43.7528 93.17 43.78 93.089L44.1938 93.2526L44.2088 93.5358ZM44.1833 93.0553L43.8315 92.9184C43.8456 92.8657 43.8583 92.8126 43.8699 92.759L44.1739 92.8781L44.1833 93.0553ZM44.1635 92.6803L43.9043 92.5773C43.9164 92.504 43.9266 92.4301 43.9351 92.3559L44.1509 92.4413L44.1635 92.6803ZM44.1404 92.2436L43.9534 92.1685C43.9597 92.0918 43.9645 92.0149 43.9682 91.9383L44.1275 92.0014L44.1404 92.2436ZM44.1171 91.8036L43.9755 91.7469C43.9761 91.7232 43.9767 91.6997 43.9772 91.6764L43.998 91.6854L44.0649 91.7151C44.0677 91.7164 44.0705 91.7175 44.0733 91.7186L44.1135 91.7362L44.1171 91.8036Z" fill="#AA3B04"/>
<path d="M44.1276 92.002L43.9683 91.9389C43.9713 91.8749 43.9738 91.811 43.9756 91.7475L44.1171 91.8042L44.1276 92.002" fill="#9FA0A3"/>
<path d="M44.1508 92.4407L43.9351 92.3553C43.9422 92.2931 43.9482 92.2305 43.9534 92.1679L44.1403 92.243L44.1508 92.4407" fill="#9FA0A3"/>
<path d="M44.1741 92.8774L43.87 92.7583C43.8829 92.6982 43.8943 92.6377 43.9044 92.5767L44.1637 92.6796L44.1741 92.8774" fill="#9FA0A3"/>
<path d="M44.1942 93.2524L43.7804 93.0888C43.7993 93.0328 43.8164 92.9757 43.8318 92.9182L44.1837 93.0551L44.1942 93.2524" fill="#9FA0A3"/>
<path d="M44.2194 93.7329L43.6036 93.4894C43.604 93.4886 43.6044 93.4879 43.6048 93.4873C43.6344 93.4346 43.6618 93.3807 43.6869 93.3256L44.209 93.5351L44.2194 93.7329Z" fill="#9FA0A3"/>
<path d="M44.2406 94.1367L43.3889 93.7999C43.4303 93.7508 43.4686 93.7006 43.5038 93.6498L44.2301 93.9391L44.2406 94.1367Z" fill="#9FA0A3"/>
<path d="M44.2641 94.5771L43.0491 94.1064C43.1093 94.0661 43.1663 94.0213 43.2197 93.9733L44.2536 94.3795L44.2641 94.5771" fill="#9FA0A3"/>
<path d="M44.2781 95.0269L42.4996 94.3194L42.4995 94.316C42.591 94.3007 42.681 94.2808 42.7678 94.2502C42.7789 94.2463 42.7901 94.2421 42.8011 94.2378L44.2774 94.8331L44.2781 94.8462V95.0269Z" fill="#9FA0A3"/>
<path d="M44.3108 95.4653L42.511 94.7497L42.5107 94.7395L42.5055 94.5443L44.3003 95.2675L44.3108 95.4653" fill="#9FA0A3"/>
<path d="M44.0702 91.719C44.0676 91.7179 44.0648 91.7167 44.0622 91.7154L43.9983 91.6849L44.0702 91.719" fill="#0B0F1B"/>
<path d="M37.0494 95.2959V95.2622L42.511 94.7393L42.5145 94.8658L37.0494 95.2959V95.2959ZM37.0494 95.0298V94.8349L40.6249 94.4926C40.949 94.4904 41.2728 94.475 41.5881 94.451C41.7515 94.4386 41.9144 94.4234 42.0769 94.4057C42.1595 94.3967 42.242 94.3843 42.3216 94.3633C42.3427 94.3578 42.3895 94.3358 42.4308 94.3196L42.4996 94.313V94.3144C42.4995 94.3145 42.4993 94.3145 42.4992 94.3145L42.5054 94.5365L37.0494 95.0298V95.0298ZM37.0494 94.6024V94.4077L38.5447 94.2634C38.762 94.3304 38.9808 94.3757 39.2033 94.4078L37.0494 94.6024ZM37.0494 94.1751V93.9802L37.7004 93.9157C37.8174 93.9772 37.9388 94.0331 38.0578 94.0833L37.0494 94.1751V94.1751ZM37.0494 93.7478V93.5529L37.1595 93.5423C37.2221 93.6037 37.2941 93.6622 37.3725 93.7176L37.0494 93.7478Z" fill="#D03200"/>
<path d="M37.0494 95.3245V95.2963L42.5145 94.8662L37.0494 95.3245" fill="#500E16"/>
<path d="M37.0494 93.5544V93.4194C37.0816 93.4622 37.1185 93.5036 37.1595 93.5438L37.0494 93.5544Z" fill="#DBDCDE"/>
<path d="M37.0494 93.9812V93.7488L37.3725 93.7186C37.4734 93.7898 37.5847 93.8559 37.7004 93.9167L37.0494 93.9812Z" fill="#DBDCDE"/>
<path d="M37.0494 94.4077V94.1752L38.0578 94.0833C38.1774 94.1337 38.2946 94.1781 38.403 94.2166C38.4502 94.2333 38.4974 94.2489 38.5447 94.2634L37.0494 94.4077" fill="#DBDCDE"/>
<path d="M37.0494 94.8354V94.6029L39.2033 94.4083C39.457 94.4448 39.7155 94.4641 39.9821 94.4785C40.169 94.4887 40.3577 94.4933 40.5465 94.4933C40.5727 94.4933 40.5988 94.4933 40.6249 94.4931L37.0494 94.8354ZM42.4308 94.3201C42.457 94.3098 42.481 94.3019 42.4949 94.3019C42.4965 94.3019 42.498 94.3021 42.4992 94.3022L42.4996 94.3135L42.4308 94.3201" fill="#DBDCDE"/>
<path d="M37.0494 95.2627V95.0303L42.5054 94.537L42.511 94.7398L37.0494 95.2627" fill="#DBDCDE"/>
<path d="M42.5144 94.8667L42.5109 94.7402H42.511L42.5144 94.8667ZM42.5052 94.5374L42.499 94.3154C42.4991 94.3154 42.4993 94.3154 42.4994 94.3153L42.5054 94.5374H42.5052Z" fill="#921E27"/>
<path d="M42.5122 94.7405L42.5054 94.5376H42.5056L42.5123 94.7405H42.5122" fill="#A22935"/>
<path d="M38.0856 88.3955C38.0534 88.3955 38.0225 88.383 38.0029 88.3609L35.5458 85.5885C35.5125 85.551 35.5224 85.4983 35.568 85.4706C35.6137 85.4432 35.6777 85.4516 35.7111 85.4891L38.0216 88.0958L38.3939 86.0693C38.4022 86.0233 38.4545 85.9913 38.5105 85.9985C38.5663 86.0055 38.6048 86.0485 38.5963 86.0946L38.1868 88.3237C38.1806 88.3577 38.1503 88.385 38.11 88.3933L38.0856 88.3955Z" fill="#12152A"/>
<path d="M38.2389 88.1728C38.2389 88.4133 38.163 88.6084 38.0694 88.6084C37.9757 88.6084 37.8999 88.4133 37.8999 88.1728C37.8999 87.9322 37.9757 87.7373 38.0694 87.7373C38.163 87.7373 38.2389 87.9322 38.2389 88.1728Z" fill="#12152A"/>
<path d="M39.3475 87.9726L38.0589 88.0877C38.0026 88.0926 37.9617 88.1341 37.9675 88.1805C37.9729 88.2239 38.0174 88.2561 38.0692 88.2561L38.0798 88.2558L39.3475 88.1432C39.3458 88.086 39.3475 88.0367 39.3475 87.9726" fill="#D03200"/>
<path d="M39.3629 87.0282V88.3564C39.3629 88.8489 39.8584 89.136 40.4642 89.136C41.07 89.136 41.5656 88.8489 41.5656 88.3564V87.0282C41.5656 87.0282 40.5235 87.4614 39.3629 87.0282Z" fill="#010930"/>
<path d="M40.3196 88.7893C40.9265 88.7893 41.423 88.502 41.423 88.0096V87.0771C41.5132 87.0494 41.5656 87.0282 41.5656 87.0282V88.3564C41.5656 88.8489 41.0689 89.136 40.4621 89.136C39.8836 89.136 39.4064 88.8746 39.3629 88.4237C39.5537 88.6588 39.9114 88.7893 40.3196 88.7893" fill="#040925"/>
<path d="M41.5656 86.9699V87.1164C41.5656 87.1972 41.0726 87.2627 40.4642 87.2627C39.856 87.2627 39.3629 87.1972 39.3629 87.1164V86.9699H41.5656Z" fill="#D03200"/>
<path d="M40.4642 87.2039C39.856 87.2039 39.3629 87.1281 39.3629 87.0347V86.9697H41.5656V87.0347C41.5656 87.1281 41.0726 87.2039 40.4642 87.2039Z" fill="#FF5D0D"/>
<path d="M41.5656 86.9697C41.5656 86.8729 41.0726 86.7942 40.4642 86.7942C39.856 86.7942 39.3629 86.8729 39.3629 86.9697C39.3629 87.0668 39.856 87.1455 40.4642 87.1455C41.0726 87.1455 41.5656 87.0668 41.5656 86.9697Z" fill="#12152A"/>
<path d="M41.5074 87.0286C41.3603 86.9585 40.9489 86.9081 40.4642 86.9081C39.9796 86.9081 39.5682 86.9585 39.4211 87.0286C39.3836 87.0108 39.3629 86.9917 39.3629 86.9716C39.3629 86.8738 39.856 86.7944 40.4642 86.7944C41.0726 86.7944 41.5656 86.8738 41.5656 86.9716C41.5656 86.9917 41.5449 87.0108 41.5074 87.0286Z" fill="#DD4901"/>
<path d="M41.2759 87.9854C41.224 87.9854 41.1795 87.9531 41.1741 87.9096C41.1684 87.8632 41.2093 87.8219 41.2656 87.817L43.1447 87.6584C43.1989 87.6543 43.2512 87.6872 43.257 87.7337C43.2628 87.78 43.2218 87.8214 43.1656 87.8262L41.2864 87.9849L41.2759 87.9854" fill="#D03200"/>
<path d="M43.2577 87.821L43.2323 87.8185C43.1896 87.8096 43.1587 87.7788 43.1556 87.7427L42.9423 85.2456C42.9384 85.1991 42.9808 85.1588 43.0371 85.1556C43.0941 85.1511 43.1425 85.1873 43.1465 85.2337L43.3381 87.4773L44.6784 85.7571C44.7089 85.7179 44.772 85.7063 44.8199 85.7317C44.8674 85.757 44.8812 85.8091 44.8507 85.8483L43.3438 87.7823C43.3246 87.8069 43.2919 87.821 43.2577 87.821Z" fill="#12152A"/>
<path d="M43.4273 87.6656C43.4273 87.9063 43.3513 88.1013 43.2578 88.1013C43.1641 88.1013 43.0883 87.9063 43.0883 87.6656C43.0883 87.4253 43.1641 87.23 43.2578 87.23C43.3513 87.23 43.4273 87.4253 43.4273 87.6656Z" fill="#12152A"/>
</svg>
