<svg width="750" height="107" viewBox="0 0 750 107" fill="none" xmlns="http://www.w3.org/2000/svg">
<path d="M40.9732 94.0542C40.9732 94.0542 39.1587 89.328 34.3535 85.2678C34.3535 85.2678 47.7494 79.6156 60.473 85.1238C60.473 85.1238 55.545 89.6894 53.9239 94.0542C53.9239 94.0542 53.2101 93.2111 47.4132 93.1616C47.4132 93.1616 42.5519 92.9136 40.9732 94.0542Z" fill="#010930"/>
<path d="M37.1733 86.6643C37.1733 86.6643 49.3411 83.2252 59.1364 86.6333C59.3593 86.4148 60.473 85.124 60.473 85.124C47.7494 79.6157 34.3535 85.268 34.3535 85.268C36.9382 87.4519 38.6565 89.8276 39.6937 91.5579C39.1237 89.8272 37.5928 88.185 37.1733 86.6643Z" fill="#02125E"/>
<path d="M58.8235 84.4731C58.1215 85.6238 57.1966 86.6655 56.0759 87.6205C54.26 89.1676 52.3577 90.5581 49.8229 91.2101C46.9384 91.952 44.0649 91.7443 41.1023 91.7141C40.6598 91.7094 40.2226 91.7126 39.7874 91.7156C40.6117 93.1149 40.9733 94.0542 40.9733 94.0542C42.5519 92.9136 47.4132 93.1616 47.4132 93.1616C53.2102 93.2111 53.9239 94.0542 53.9239 94.0542C55.5451 89.6894 60.473 85.1238 60.473 85.1238C59.9238 84.8861 59.3738 84.6707 58.8235 84.4731Z" fill="#040925"/>
<path d="M59.3226 86.2664C59.3226 86.2664 86.4595 59.482 90.5419 51.1493C90.5419 51.1493 98.467 39.0467 93.1837 28.7299C93.1837 28.7299 91.983 15.8339 82.617 12.6594C82.617 12.6594 76.3729 6.11216 67.0072 4.32658C67.0072 4.32658 62.204 0.557054 54.0388 1.54903C54.0388 1.54903 47.5548 -1.95789 41.5509 1.58134C41.5509 1.58134 33.6259 -0.831638 26.4213 4.52512C26.4213 4.52512 15.8547 5.51709 10.8114 13.2547C10.8114 13.2547 0.244766 17.421 1.20539 30.9124C1.20539 30.9124 -6.9598 41.8243 19.2168 69.4021L35.3069 86.2664C35.3069 86.2664 47.7949 81.5047 59.3226 86.2664Z" fill="#FEF8EA"/>
<path d="M59.3226 86.2664C59.3226 86.2664 86.4595 59.482 90.5419 51.1493C90.5419 51.1493 98.467 39.0467 93.1837 28.7299C93.1837 28.7299 91.983 15.8339 82.617 12.6594C82.617 12.6594 76.3729 6.11216 67.0072 4.32658C67.0072 4.32658 62.204 0.557054 54.0388 1.54903C54.0388 1.54903 47.5548 -1.95789 41.5509 1.58134C41.5509 1.58134 33.6259 -0.831638 26.4213 4.52512C26.4213 4.52512 15.8547 5.51709 10.8114 13.2547C10.8114 13.2547 0.244766 17.421 1.20539 30.9124C1.20539 30.9124 -6.9598 41.8243 19.2168 69.4021L35.3069 86.2664C35.3069 86.2664 47.7949 81.5047 59.3226 86.2664Z" fill="#FEF8EA"/>
<path d="M59.3226 86.2664C59.3226 86.2664 86.4595 59.482 90.5419 51.1493C90.5419 51.1493 98.467 39.0467 93.1837 28.7299C93.1837 28.7299 91.983 15.8339 82.617 12.6594C82.617 12.6594 76.3729 6.11216 67.0072 4.32658C67.0072 4.32658 62.204 0.557054 54.0388 1.54903C54.0388 1.54903 47.5548 -1.95789 41.5509 1.58134C41.5509 1.58134 33.6259 -0.831638 26.4213 4.52512C26.4213 4.52512 15.8547 5.51709 10.8114 13.2547C10.8114 13.2547 0.244766 17.421 1.20539 30.9124C1.20539 30.9124 -6.9598 41.8243 19.2168 69.4021L35.3069 86.2664C35.3069 86.2664 47.7949 81.5047 59.3226 86.2664Z" fill="#FEF8EA"/>
<path d="M59.3226 86.2664C59.3226 86.2664 86.4595 59.482 90.5419 51.1493C90.5419 51.1493 98.467 39.0467 93.1837 28.7299C93.1837 28.7299 91.983 15.8339 82.617 12.6594C82.617 12.6594 76.3729 6.11216 67.0072 4.32658C67.0072 4.32658 62.204 0.557054 54.0388 1.54903C54.0388 1.54903 47.5548 -1.95789 41.5509 1.58134C41.5509 1.58134 33.6259 -0.831638 26.4213 4.52512C26.4213 4.52512 15.8547 5.51709 10.8114 13.2547C10.8114 13.2547 0.244766 17.421 1.20539 30.9124C1.20539 30.9124 -6.9598 41.8243 19.2168 69.4021L35.3069 86.2664C35.3069 86.2664 47.7949 81.5047 59.3226 86.2664Z" fill="#FEF8EA"/>
<path d="M91.7912 35.6758C84.4363 52.2262 74.7023 64.5114 70.0504 63.1155C65.3979 61.7196 67.5887 47.1713 74.9436 30.6208C77.8305 24.1247 81.0837 18.2864 84.2525 13.6738C83.7372 13.4122 83.1935 13.1815 82.6186 12.9877C82.6186 12.9877 76.3742 6.47559 67.0083 4.69959C67.0083 4.69959 66.1942 4.06536 64.6699 3.38747C65.2166 8.87096 65.1192 15.7119 64.2465 23.0832C62.1694 40.6198 58.9334 54.4133 52.8791 53.898C47.5155 53.4415 48.2075 20.2905 47.4998 12.3958C46.2568 19.9167 44.1437 53.4194 37.5933 53.8363C32.6554 54.1504 29.7141 39.7106 29.0008 22.1012C28.7085 14.8845 29.1132 8.21035 30.0331 2.83553C28.8357 3.34065 27.6187 4.01166 26.4216 4.89706C26.4216 4.89706 15.8547 5.88371 10.8114 13.5798C10.8114 13.5798 10.0287 13.8874 8.90972 14.604C12.1569 18.9375 15.5173 24.3103 18.5926 30.2733C26.9591 46.496 30.0445 60.9345 25.4843 62.5224C20.9241 64.1102 10.445 52.2463 2.07871 36.0233C1.51801 34.9362 0.981963 33.8574 0.469422 32.7896C-0.726129 36.7389 -1.18554 48.0474 19.2169 69.4257L35.3073 86.1995C35.3073 86.1995 47.7957 81.4633 59.3236 86.1995C59.3236 86.1995 86.4611 59.5589 90.5436 51.2709C90.5436 51.2709 97.6556 40.4659 93.9103 30.6034C93.2605 32.2644 92.554 33.959 91.7912 35.6758" fill="#F2ECDE"/>
<path d="M46.9258 21.3302C46.8869 20.3653 46.8358 19.4114 46.7745 18.469C46.6374 19.4254 46.5102 20.3943 46.3945 21.3754C45.5529 28.5207 45.4324 35.1702 45.9145 40.5789C46.8197 35.1961 47.2159 28.5314 46.9258 21.3302" fill="#981269"/>
<path d="M26.0004 4.5779C23.9899 4.85675 15.2562 6.43633 10.8115 13.2557C10.8115 13.2557 10.6367 13.3248 10.3358 13.4728C10.8697 22.3417 16.2189 41.999 38.8511 85.2373C39.4897 85.0869 40.2008 84.9358 40.9733 84.796C27.4097 30.142 25.5267 11.1463 26.0004 4.5779" fill="#020D4A"/>
<path d="M93.1839 28.7311C93.1839 28.7311 93.1665 28.5447 93.1202 28.2141C91.924 37.1057 86.1774 59.1192 58.9634 86.1238C59.0832 86.1712 59.203 86.2181 59.3228 86.2676C59.3228 86.2676 86.4598 59.4832 90.5421 51.1505C90.5421 51.1505 98.4672 39.048 93.1839 28.7311Z" fill="#FAB1B5"/>
<path d="M19.2168 69.4021L35.307 86.2664C35.307 86.2664 36.1481 85.946 37.5928 85.5547C12.4785 56.0869 3.72675 39.9632 0.875172 31.4998C-0.353586 34.0908 -3.4993 45.47 19.2168 69.4021" fill="#90A3E8"/>
<path d="M82.8012 12.7266C82.7397 12.7046 82.6793 12.6814 82.6172 12.6603C82.6172 12.6603 76.373 6.11305 67.0073 4.32746C67.0073 4.32746 66.911 4.25275 66.7292 4.13004C67.0326 11.3279 65.1512 30.9721 51.6815 84.3516C53.0645 84.5044 54.4778 84.7536 55.8965 85.1238C81.4716 40.4432 83.6402 20.4747 82.8012 12.7266Z" fill="#FAC303"/>
<path d="M53.705 1.38625C52.3114 0.73739 46.7525 -1.48395 41.551 1.58237C41.551 1.58237 41.3708 1.52763 41.0422 1.45311C39.8355 8.585 39.2637 28.8462 43.108 84.467C44.5013 84.2894 46.025 84.1676 47.6343 84.1527C53.243 28.8563 53.7972 8.32968 53.705 1.38625" fill="#E23600"/>
<path d="M53.9242 95.0212V94.0539C53.9242 93.5199 51.0167 93.087 47.4301 93.087C43.8434 93.087 40.936 93.5199 40.936 94.0539V95.0212H53.9242" fill="#020D4A"/>
<path d="M47.4301 93.6824C43.8434 93.6824 40.936 94.1154 40.936 94.6497V95.0212H53.9242V94.6497C53.9242 94.1154 51.0167 93.6824 47.4301 93.6824Z" fill="#FF5D0D"/>
<path d="M53.9242 95.021C53.9242 95.5551 51.0167 95.9883 47.4301 95.9883C43.8434 95.9883 40.936 95.5551 40.936 95.021C40.936 94.4868 43.8434 94.0536 47.4301 94.0536C51.0167 94.0536 53.9242 94.4868 53.9242 95.021Z" fill="#010930"/>
<path d="M53.5813 94.7109C52.7136 95.0931 50.2884 95.3682 47.4301 95.3682C44.5719 95.3682 42.1466 95.0931 41.2787 94.7109C41.0576 94.8082 40.936 94.9124 40.936 95.021C40.936 95.5551 43.8434 95.9883 47.4301 95.9883C51.0167 95.9883 53.9242 95.5551 53.9242 95.021C53.9242 94.9124 53.8025 94.8082 53.5813 94.7109Z" fill="#DD4901"/>
<path d="M58.3056 89.1934C58.2242 89.1934 58.155 89.173 58.1033 89.1517L58.0537 89.1491C57.9947 89.1351 57.9127 89.0996 57.8586 89.0081C57.7133 88.763 57.8632 88.1779 58.063 87.6263C57.4666 88.4235 56.9195 88.8624 56.4307 88.9347C56.1639 88.9743 55.9179 88.9076 55.7002 88.7361C55.2248 88.3615 55.1843 87.5626 55.265 86.8514C54.8911 87.5533 54.3333 88.2776 53.6124 88.5437C53.1743 88.7059 52.7198 88.6835 52.2619 88.478C51.4856 88.1295 51.1655 86.9507 51.1583 85.9668C50.7971 86.8261 50.2328 87.803 49.3974 87.8136H49.3819C48.3761 87.8136 47.841 86.5611 47.581 85.6199C47.4779 86.2621 47.2117 86.9575 46.6833 87.3558C46.3265 87.6246 45.8942 87.7253 45.3979 87.6547C44.0676 87.4651 43.4689 86.1218 43.1472 85.3999C43.1353 85.3736 43.1232 85.3463 43.1112 85.3196C43.1169 85.3988 43.1237 85.4836 43.1304 85.5647C43.2066 86.4972 43.2443 87.2264 42.9877 87.4218C42.7797 87.5807 42.5402 87.6177 42.2947 87.529C41.9234 87.3947 41.5838 86.9855 41.3274 86.5441C41.3716 86.9287 41.3441 87.2823 41.1185 87.4763C40.9804 87.5951 40.7852 87.6403 40.5382 87.6112C39.9598 87.5422 39.4352 87.0043 39.0693 86.5258C39.2398 87.1336 39.2903 87.749 39.0577 88.0172C38.981 88.1056 38.8761 88.1521 38.7543 88.1521C38.5 88.1521 38.238 87.7873 38.0121 87.3392C38.0358 87.7948 37.97 88.2727 37.6933 88.6237C37.3884 89.0105 36.8411 89.2302 36.3297 89.1683C35.9176 89.1192 35.6092 88.8919 35.4837 88.5445C35.3596 88.2008 35.39 87.8435 35.4196 87.4984C35.4452 87.1991 35.4694 86.9165 35.4012 86.6435C35.3878 86.5897 35.4295 86.5372 35.4944 86.5264C35.56 86.5154 35.6231 86.5497 35.6364 86.6035C35.7112 86.9033 35.6847 87.213 35.6591 87.5124C35.6298 87.8551 35.6021 88.1788 35.7138 88.4877C35.8128 88.7617 36.0439 88.9339 36.364 88.972C36.7772 89.0213 37.2411 88.8338 37.4921 88.5155C37.985 87.8902 37.7167 86.7531 37.5626 86.2518C37.53 86.1584 37.5011 86.0729 37.4769 85.9984C37.4597 85.9464 37.4961 85.8928 37.5585 85.8773C37.6208 85.8624 37.6869 85.8908 37.707 85.9419C37.7135 85.9586 37.7533 86.0617 37.8023 86.2214C38.1448 87.1849 38.5617 87.9537 38.7543 87.9537C38.7836 87.9537 38.8224 87.9477 38.8625 87.9018C39.0484 87.6872 39.0162 86.919 38.6404 86.0045C38.5122 85.692 38.5015 85.6665 38.6111 85.628C38.7188 85.5904 38.7556 85.6496 38.8456 85.7933C39.4812 86.8084 40.0623 87.354 40.5724 87.4147C40.7411 87.4352 40.8626 87.41 40.9453 87.3389C41.2343 87.0904 41.0617 86.3243 40.9477 85.8174C40.8948 85.5824 40.853 85.3969 40.853 85.2757C40.853 85.221 40.9068 85.1765 40.9731 85.1765C41.0395 85.1765 41.0932 85.221 41.0932 85.2757C41.0932 85.2935 41.0944 85.3136 41.0968 85.3362C41.149 85.8198 41.7668 87.1216 42.3911 87.3473C42.5483 87.4042 42.6865 87.3818 42.8248 87.2761C43.0173 87.1293 42.932 86.0817 42.8909 85.5779C42.8394 84.9459 42.8313 84.8484 42.9851 84.8316C43.1425 84.8147 43.2046 84.955 43.3724 85.3314C43.6775 86.0155 44.245 87.2892 45.4388 87.4591C45.858 87.5187 46.2221 87.4349 46.5214 87.2094C47.2699 86.645 47.4454 85.3624 47.3803 84.6866C47.3751 84.633 47.4228 84.5856 47.4877 84.5802C47.5529 84.5755 47.6109 84.6128 47.619 84.6663C47.6653 84.969 48.1081 87.6155 49.3819 87.6155L49.3936 87.6153C50.3511 87.603 50.9746 85.8372 51.2407 85.0831C51.2658 85.0124 51.2879 84.9494 51.3073 84.8967C51.3266 84.8446 51.3935 84.8147 51.457 84.8306C51.5205 84.8465 51.5564 84.902 51.5372 84.9545C51.2206 85.8166 51.4044 87.8671 52.3766 88.3036C52.7707 88.4806 53.1432 88.5 53.5143 88.3628C54.6297 87.9507 55.3299 86.2697 55.5072 85.6524L55.5081 85.6495C55.5232 85.5958 55.5876 85.5633 55.6525 85.5757C55.717 85.5882 55.757 85.6416 55.7418 85.6948C55.4405 86.749 55.2921 88.1403 55.8662 88.5923C56.0274 88.7195 56.1976 88.7675 56.3884 88.7393C56.7981 88.6788 57.5057 88.2361 58.5511 86.4713L58.5726 86.4354C58.6009 86.3874 58.6696 86.3669 58.7293 86.3885C58.7883 86.4104 58.8159 86.467 58.7915 86.5165C58.4164 87.2811 57.8901 88.6101 58.0743 88.9209L58.0745 88.9212C58.0987 88.9229 58.1265 88.9308 58.1584 88.9483C58.2235 88.9847 58.2963 89.0133 58.3856 88.9789C58.5484 88.9164 58.954 88.5645 59.2027 86.6538C59.2097 86.5992 59.2674 86.5589 59.3347 86.5656C59.4007 86.5716 59.4484 86.6203 59.4414 86.6749C59.2463 88.1745 58.9341 88.9868 58.4871 89.1588C58.4223 89.1838 58.361 89.1934 58.3056 89.1934" fill="#FFFFFE"/>
<path d="M59.3221 86.6641C59.2602 86.6641 59.1971 86.654 59.1363 86.6331C46.5332 82.2623 35.6277 86.5791 35.5189 86.623C35.2815 86.7199 34.9931 86.639 34.8761 86.4422C34.759 86.2457 34.8567 86.0079 35.0947 85.9112C35.2069 85.8652 46.4877 81.3865 59.5082 85.9013C59.7528 85.9861 59.8679 86.2186 59.7652 86.4205C59.6879 86.5725 59.5098 86.6641 59.3221 86.6641" fill="#DD4901"/>
<path d="M35.0948 85.9111L35.0701 85.9238C35.2038 85.9819 35.3712 85.9899 35.519 85.9341C35.6278 85.8932 46.5333 81.8756 59.1364 85.9432C59.1972 85.9628 59.2603 85.9722 59.3222 85.9722C59.405 85.9722 59.4843 85.9529 59.5558 85.9223L59.5083 85.9012C46.4878 81.3864 35.207 85.8651 35.0948 85.9111" fill="#FF5D0D"/>
<path d="M47.921 104.522C48.0038 103.761 48.0867 103 48.1696 102.239C48.1858 102.089 48.2023 101.939 48.2481 101.793C48.2481 101.786 49.2347 101.747 49.3249 101.742C49.4195 101.738 49.44 101.731 49.4763 101.804C49.5081 101.868 49.5332 101.934 49.5536 102.001C49.5948 102.136 49.6163 102.274 49.6333 102.412C49.7306 103.201 49.6868 103.997 49.63 104.788C49.6201 104.926 49.6056 105.074 49.502 105.182C49.4341 105.253 49.315 105.302 49.2132 105.268C49.103 105.231 49.0629 105.121 49.0439 105.024C48.9799 104.698 48.9983 104.365 48.9881 104.035C48.975 103.613 48.9148 103.193 48.8546 102.774C48.7374 103.399 48.6386 104.027 48.5583 104.656C48.5359 104.832 48.5094 105.02 48.3732 105.156C48.3021 105.227 48.1828 105.281 48.0803 105.245C48.0118 105.22 47.9704 105.162 47.9451 105.104C47.8763 104.947 47.8935 104.774 47.9117 104.607C47.9148 104.579 47.9179 104.55 47.921 104.522" fill="#262628"/>
<path d="M49.1655 105.235C49.1648 105.236 49.1641 105.237 49.1633 105.238C49.1568 105.249 49.1683 105.266 49.1707 105.277C49.1745 105.296 49.1747 105.316 49.1729 105.334C49.1723 105.341 49.171 105.349 49.1809 105.35C49.2643 105.364 49.3528 105.361 49.4336 105.339C49.4507 105.335 49.4497 105.316 49.4493 105.305C49.4486 105.29 49.4476 105.275 49.449 105.26C49.4499 105.251 49.451 105.234 49.4364 105.23C49.429 105.228 49.4068 105.234 49.3983 105.234C49.3724 105.236 49.3464 105.236 49.3205 105.236C49.2893 105.235 49.2582 105.233 49.227 105.232C49.211 105.232 49.195 105.232 49.179 105.233C49.1723 105.233 49.1684 105.233 49.1655 105.235" fill="#565A5B"/>
<path d="M49.436 105.33C49.44 105.331 49.4439 105.333 49.4474 105.335C49.4556 105.341 49.4601 105.349 49.4644 105.358C49.4797 105.386 49.4901 105.414 49.5118 105.44C49.5442 105.48 49.5848 105.528 49.6337 105.555C49.6523 105.565 49.673 105.573 49.6906 105.584C49.7081 105.596 49.7227 105.613 49.7216 105.631C49.7213 105.637 49.7194 105.643 49.7149 105.647C49.7105 105.651 49.7042 105.653 49.6981 105.655C49.6426 105.673 49.5809 105.685 49.5235 105.672C49.4797 105.661 49.4386 105.639 49.4002 105.619C49.3359 105.586 49.2792 105.541 49.212 105.513C49.1948 105.506 49.1765 105.5 49.1623 105.489C49.1372 105.47 49.1295 105.439 49.1344 105.411C49.138 105.39 49.1478 105.359 49.1642 105.342C49.1765 105.33 49.2025 105.336 49.2184 105.339C49.2407 105.342 49.2617 105.341 49.2845 105.34C49.3172 105.338 49.35 105.337 49.3822 105.332C49.3999 105.329 49.4198 105.325 49.436 105.33" fill="#F8A018"/>
<path d="M48.1002 105.214C48.0716 105.211 48.0441 105.205 48.0159 105.201C48.0105 105.2 48.0045 105.2 48.0004 105.203C47.99 105.21 47.9924 105.223 47.9916 105.233C47.9885 105.273 47.9713 105.311 47.9703 105.351C47.9702 105.353 47.9703 105.355 47.9717 105.357C47.9733 105.358 47.9758 105.359 47.9782 105.36C48.0231 105.369 48.0686 105.377 48.1145 105.383C48.1478 105.388 48.1815 105.391 48.2151 105.389C48.2259 105.388 48.2378 105.387 48.2448 105.38C48.2513 105.374 48.2519 105.365 48.2523 105.357C48.2541 105.328 48.2645 105.301 48.2773 105.274C48.2826 105.263 48.3103 105.224 48.287 105.216C48.2729 105.211 48.2546 105.218 48.2402 105.219C48.2185 105.22 48.1959 105.219 48.1741 105.219C48.1494 105.218 48.1247 105.217 48.1002 105.214Z" fill="#565A5B"/>
<path d="M47.9803 105.332C47.9761 105.333 47.9722 105.334 47.9685 105.337C47.9597 105.342 47.9544 105.35 47.9493 105.358C47.9312 105.385 47.9182 105.412 47.8941 105.437C47.8579 105.475 47.8129 105.519 47.7614 105.543C47.742 105.552 47.7205 105.559 47.702 105.569C47.6834 105.579 47.6673 105.595 47.6665 105.613C47.6663 105.619 47.6676 105.625 47.6717 105.629C47.6757 105.634 47.6818 105.636 47.6877 105.639C47.7411 105.661 47.8015 105.676 47.86 105.667C47.9047 105.659 47.9479 105.64 47.9881 105.623C48.0554 105.594 48.1161 105.553 48.1859 105.529C48.2037 105.523 48.2226 105.518 48.2378 105.509C48.2646 105.491 48.2752 105.461 48.2731 105.433C48.2715 105.412 48.2647 105.38 48.25 105.362C48.239 105.349 48.2124 105.353 48.1963 105.355C48.1738 105.357 48.1531 105.354 48.1304 105.352C48.098 105.348 48.0653 105.345 48.0337 105.337C48.0164 105.333 47.9969 105.328 47.9803 105.332" fill="#F8A018"/>
<path d="M48.1773 102.2C48.1753 102.192 48.1722 102.184 48.1649 102.179C48.1567 102.173 48.1452 102.171 48.1343 102.17C48.1092 102.168 48.0842 102.165 48.0592 102.163C48.0513 102.162 48.043 102.161 48.0355 102.163C48.0189 102.168 48.0131 102.185 48.0096 102.199C47.9943 102.26 47.9791 102.322 47.964 102.383C47.9572 102.41 47.9483 102.437 47.9517 102.465C47.9551 102.494 47.9678 102.521 47.9836 102.546C48.0167 102.599 48.0639 102.646 48.121 102.683C48.1262 102.686 48.133 102.689 48.1387 102.687C48.1457 102.683 48.1437 102.675 48.1405 102.669C48.1235 102.637 48.0983 102.608 48.0812 102.577C48.0525 102.523 48.0484 102.463 48.0447 102.405C48.0445 102.401 48.0443 102.396 48.047 102.392C48.0497 102.389 48.0565 102.387 48.0599 102.39C48.0616 102.392 48.0621 102.394 48.0624 102.396C48.0719 102.452 48.0654 102.513 48.1022 102.56C48.107 102.567 48.1154 102.573 48.1237 102.571C48.1273 102.569 48.1298 102.567 48.1316 102.564C48.1385 102.553 48.1389 102.541 48.1397 102.529C48.1475 102.42 48.1991 102.312 48.1781 102.205C48.1779 102.203 48.1776 102.202 48.1773 102.2" fill="#7C4117"/>
<path d="M47.8968 100.945C47.8799 100.911 47.8686 100.874 47.8666 100.834C47.862 100.739 47.8891 100.645 47.9288 100.557C47.8902 100.458 47.8858 100.353 47.9439 100.254C47.9882 100.18 48.0771 100.109 48.1734 100.082C48.2372 100.064 48.319 100.083 48.3533 100.133C48.3812 100.174 48.3462 100.206 48.3338 100.245C48.3191 100.29 48.3571 100.333 48.3571 100.38C48.3871 100.492 48.4011 100.602 48.3863 100.713C48.4063 100.852 48.3849 100.987 48.3082 101.132C48.3625 101.298 48.3754 101.473 48.3008 101.636C48.3126 101.66 48.3251 101.684 48.3306 101.709C48.3483 101.789 48.3478 101.872 48.3269 101.951C48.304 102.039 48.2506 102.097 48.1995 102.172C48.1995 102.172 48.0309 102.173 48.0309 102.173C48.0293 102.173 47.9869 102.122 47.9804 102.115C47.9574 102.092 47.94 102.069 47.9266 102.041C47.893 101.97 47.8399 101.906 47.8192 101.832C47.7842 101.707 47.8162 101.58 47.8587 101.459C47.8316 101.41 47.8116 101.358 47.8043 101.299C47.7892 101.174 47.8227 101.052 47.8968 100.945" fill="#030C43"/>
<path d="M48.1205 102.095C48.0601 102.096 47.9993 102.091 47.9438 102.077C47.942 102.076 47.94 102.076 47.938 102.076C47.9306 102.076 47.93 102.084 47.9315 102.089C47.9366 102.106 47.9408 102.124 47.942 102.141C47.943 102.158 47.9389 102.18 47.9501 102.195C47.9685 102.219 48.0229 102.221 48.0572 102.223C48.1058 102.227 48.1554 102.224 48.2024 102.214C48.215 102.212 48.226 102.208 48.2303 102.198C48.2325 102.194 48.2329 102.189 48.2335 102.184C48.2356 102.166 48.2403 102.148 48.2476 102.131C48.2521 102.12 48.2604 102.11 48.2628 102.099C48.2671 102.078 48.2435 102.086 48.2233 102.088C48.1899 102.092 48.1553 102.094 48.1205 102.095" fill="#03279F"/>
<path d="M48.1751 101.513C48.0614 101.353 48.0476 101.133 48.1775 100.98C48.178 100.978 48.1783 100.977 48.1788 100.975C48.0431 100.86 48.0569 100.605 48.1077 100.476C48.1079 100.475 48.1083 100.474 48.1085 100.474C48.0594 100.405 48.0327 100.333 48.0351 100.242C48.0391 100.095 48.1696 100.049 48.3067 99.9876C48.3272 99.9783 48.5001 99.9001 48.504 99.9087C48.5334 99.9737 48.5645 100.032 48.6302 100.079C48.6923 100.122 48.7716 100.145 48.8533 100.14C48.9744 100.133 49.07 100.055 49.1328 99.9749C49.1675 99.9306 49.186 99.8889 49.1947 99.8464C49.1965 99.8379 49.3209 99.8534 49.3339 99.8549C49.421 99.8646 49.4994 99.8923 49.5786 99.9226C49.6322 99.9431 49.694 99.9618 49.7239 100.006C49.7562 100.054 49.7588 100.113 49.7544 100.166C49.7467 100.261 49.6711 100.32 49.6145 100.392C49.6543 100.501 49.6702 100.615 49.638 100.728C49.6213 100.786 49.5904 100.837 49.5521 100.886C49.6169 100.943 49.6561 101.017 49.662 101.1C49.669 101.2 49.6245 101.288 49.5605 101.368C49.5663 101.361 49.6279 101.492 49.63 101.498C49.6513 101.563 49.684 101.653 49.6478 101.717C49.6338 101.788 49.5404 101.833 49.4682 101.86C49.3144 101.92 49.1448 101.959 48.9828 102C48.7557 102.058 48.4773 102.123 48.2428 102.054C48.0628 102.001 48.0267 101.838 48.0686 101.699C48.0891 101.631 48.1276 101.57 48.1751 101.513" fill="#03279F"/>
<path d="M48.5398 98.9633C48.5416 98.9732 48.5411 98.9839 48.5348 98.9926C48.5278 98.9952 48.5212 98.9981 48.5159 99.0018C48.4868 99.0224 48.463 99.0422 48.4484 99.0713C48.4379 99.0924 48.4337 99.1124 48.4338 99.1326C48.4103 99.1044 48.3809 99.071 48.3806 99.0354C48.3801 98.9957 48.4003 98.9552 48.4324 98.924C48.4394 98.9172 48.4469 98.9109 48.4548 98.9052C48.4646 98.8981 48.4914 98.8776 48.5054 98.8857C48.5164 98.8921 48.5233 98.9135 48.5276 98.9233C48.5333 98.9363 48.5374 98.9497 48.5398 98.9633" fill="#1B1C1F"/>
<path d="M48.5557 99.8658C48.6084 99.7842 48.6342 99.6938 48.6404 99.6039C48.6409 99.5966 48.6402 99.5505 48.6405 99.5032C48.656 99.5084 48.674 99.5116 48.6945 99.5118C48.7847 99.5128 48.8775 99.4701 48.9594 99.4448C48.9848 99.437 49.0098 99.4286 49.0341 99.4196C49.033 99.4468 49.0325 99.4741 49.0336 99.5013C49.036 99.5583 49.0443 99.6161 49.0639 99.6714C49.1024 99.7798 49.2067 99.8913 49.3522 99.9342C49.3316 99.9282 49.2336 100.081 49.2213 100.096C49.1674 100.165 49.0605 100.216 48.9569 100.236C48.8888 100.249 48.8161 100.246 48.748 100.233C48.5869 100.202 48.4501 100.11 48.3934 99.9946C48.4616 99.9603 48.5186 99.9221 48.5557 99.8658" fill="#9C4824"/>
<path d="M48.4052 99.2159C48.3997 99.1996 48.3924 99.1827 48.3936 99.1652C48.3948 99.1461 48.4104 99.128 48.42 99.1111C48.4392 99.0776 48.4582 99.044 48.4817 99.0124C48.4988 98.9892 48.5173 98.9675 48.5318 98.9442C48.6386 98.8762 48.79 98.8194 48.9245 98.8598C49.0713 98.9043 49.1538 99.0214 49.147 99.1432C49.2046 99.1502 49.2542 99.1867 49.2695 99.2348C49.3005 99.3326 49.1987 99.407 49.1127 99.4561C49.1065 99.4596 49.0997 99.4625 49.0926 99.4646C49.0857 99.4767 49.0827 99.49 49.0788 99.5034C49.0617 99.5625 48.9781 99.5988 48.9171 99.6224C48.9143 99.6236 48.912 99.6243 48.9093 99.6255C48.8404 99.6518 48.7661 99.6743 48.6907 99.6835C48.5877 99.6961 48.5226 99.6564 48.4856 99.5789C48.4635 99.5327 48.4454 99.485 48.4292 99.4369C48.4288 99.4358 48.4283 99.4354 48.4283 99.435C48.4195 99.4102 48.4117 99.385 48.4093 99.3594C48.4066 99.3327 48.4186 99.3144 48.4224 99.2888C48.4246 99.2709 48.4233 99.2526 48.4145 99.2358C48.4108 99.2293 48.4075 99.2228 48.4052 99.2159" fill="#7C4117"/>
<path d="M48.4896 98.8056C48.4956 98.8001 48.503 98.7951 48.5117 98.7936C48.5246 98.7915 48.5375 98.7973 48.5471 98.8046C48.5567 98.812 48.5644 98.821 48.5746 98.8278C48.5998 98.8442 48.6256 98.8392 48.6529 98.8315C48.6894 98.8213 48.7264 98.8114 48.7641 98.8046C48.8321 98.7923 48.9032 98.792 48.9723 98.7968C49.0472 98.802 49.1518 98.8196 49.1995 98.8734C49.2082 98.8832 49.2155 98.8941 49.2193 98.9059C49.2228 98.9168 49.2183 98.9308 49.2234 98.9412C49.2287 98.9524 49.2532 98.9569 49.2671 98.9658C49.3045 98.9895 49.3296 99.0253 49.3418 99.0627C49.3581 99.1125 49.354 99.1652 49.3458 99.2163C49.3294 99.3198 49.269 99.4285 49.1778 99.5015C49.1471 99.5261 49.1125 99.5473 49.0753 99.5646C49.067 99.5683 49.0586 99.572 49.05 99.5753C49.0448 99.5775 49.0299 99.5878 49.0245 99.5824C49.0233 99.5812 49.0228 99.5796 49.0226 99.578C49.0196 99.5613 49.0326 99.5497 49.0441 99.5374C49.0581 99.5225 49.0721 99.5071 49.0775 99.4884C49.0848 99.4628 49.0889 99.4416 49.1173 99.4268C49.1491 99.4103 49.1716 99.388 49.1913 99.3616C49.2048 99.3434 49.2175 99.3232 49.224 99.3023C49.23 99.2829 49.2319 99.2569 49.224 99.2376C49.2123 99.209 49.1744 99.1973 49.1408 99.2036C49.0918 99.2127 49.0544 99.2517 49.0489 99.2922C49.0482 99.2976 49.0464 99.3044 49.04 99.3051C49.0375 99.3054 49.0351 99.3045 49.0329 99.3036C48.9985 99.2886 48.9871 99.2431 48.9845 99.2143C48.983 99.1981 48.9857 99.1812 48.9951 99.1668C49.0047 99.152 49.0212 99.1397 49.0275 99.1236C49.0373 99.0988 49.0243 99.0702 49.0009 99.0523C48.9781 99.0341 48.9468 99.0252 48.9155 99.0202C48.8446 99.0087 48.7722 99.0242 48.7019 99.035C48.6916 99.0366 48.6809 99.0383 48.67 99.0397C48.6118 99.0474 48.5464 99.05 48.5026 99.0142C48.4701 98.9876 48.4555 98.9492 48.4525 98.9121C48.4498 98.8781 48.4614 98.8315 48.4896 98.8056" fill="#1B1C1F"/>
<path d="M49.3812 101.54C49.3819 101.571 49.382 101.603 49.3633 101.63C49.3278 101.68 49.2446 101.685 49.1745 101.685C49.0862 101.685 48.9923 101.684 48.918 101.644C48.7835 101.573 48.7742 101.414 48.7979 101.284C48.8403 101.05 48.9403 100.824 48.9524 100.588C48.9597 100.444 48.9341 100.297 48.9727 100.157C48.9968 100.069 49.1194 99.8605 49.2644 99.8759C49.3946 99.8898 49.3445 100.252 49.348 100.355C49.3614 100.75 49.3725 101.145 49.3812 101.54" fill="#FE1010"/>
<path d="M48.7413 100.687C48.7367 100.761 48.7206 100.842 48.6504 100.888C48.5978 100.922 48.5267 100.928 48.4599 100.929C48.4148 100.93 48.3657 100.929 48.3312 100.905C48.2944 100.879 48.2855 100.836 48.2809 100.796C48.2539 100.565 48.2878 100.332 48.3515 100.106C48.3665 100.053 48.3927 99.9914 48.4563 99.9764C48.5208 99.9613 48.5854 100.005 48.6145 100.055C48.7266 100.247 48.7545 100.476 48.7413 100.687" fill="#FE1010"/>
<path d="M48.6084 99.7077C48.6105 99.7066 48.6128 99.7057 48.6154 99.7053C48.6229 99.7043 48.6299 99.7082 48.636 99.712C48.6572 99.7249 48.7099 99.7179 48.7356 99.7172C48.7719 99.7163 48.8081 99.7136 48.844 99.7089C48.9143 99.6996 48.9833 99.6824 49.0468 99.6556C49.051 99.6539 49.0553 99.6521 49.06 99.6521C49.0675 99.6521 49.0737 99.6566 49.0789 99.6611C49.1338 99.7076 49.1963 99.7906 49.1522 99.8563C49.1306 99.8885 49.0881 99.9038 49.0483 99.916C48.9622 99.9423 48.8723 99.9607 48.7811 99.9686C48.733 99.9727 48.6839 99.9739 48.637 99.9645C48.5892 99.955 48.5383 99.9327 48.5138 99.8952C48.4834 99.8485 48.5143 99.7941 48.5486 99.7551C48.5583 99.739 48.5857 99.7251 48.6012 99.7127C48.6035 99.711 48.6058 99.7092 48.6084 99.7077" fill="#FE1010"/>
<path d="M48.3213 99.973C48.3186 99.9636 48.3196 99.954 48.3266 99.9447C48.3344 99.9345 48.3484 99.9288 48.3617 99.9237C48.4037 99.9073 48.4223 99.8945 48.4438 99.8603C48.4532 99.8453 48.4595 99.8121 48.4864 99.811C48.4994 99.8104 48.5104 99.8213 48.5219 99.8248C48.6764 99.8723 48.8544 99.8555 49.0103 99.8218C49.062 99.8107 49.1274 99.7942 49.157 99.7561C49.1616 99.75 49.166 99.7429 49.1743 99.7401C49.1925 99.7338 49.2082 99.7506 49.2158 99.762C49.224 99.7744 49.2306 99.7812 49.2452 99.7899C49.2779 99.8092 49.3141 99.8244 49.3523 99.8347C49.368 99.8389 49.3854 99.8431 49.3943 99.8546C49.407 99.8708 49.3959 99.8925 49.3818 99.9079C49.3642 99.9272 49.3378 99.9409 49.317 99.9579C49.2641 100.001 49.2259 100.056 49.1629 100.091C49.0854 100.133 48.9892 100.154 48.8982 100.169C48.8002 100.185 48.6978 100.175 48.6045 100.147C48.548 100.131 48.4942 100.108 48.4451 100.079C48.4034 100.055 48.3338 100.017 48.3213 99.973" fill="#770808"/>
<path d="M49.242 101.965C49.2635 101.999 49.3146 102.045 49.3241 102.053C49.3627 102.087 49.4057 102.116 49.4533 102.139C49.4556 102.132 49.4574 102.124 49.4591 102.117C49.4623 102.104 49.4645 102.092 49.4658 102.085C49.4663 102.084 49.4663 102.082 49.4667 102.082C49.4676 102.079 49.4681 102.076 49.469 102.074C49.4757 102.05 49.4856 102.026 49.5013 102.005C49.5044 102.001 49.5076 101.997 49.5111 101.994C49.5152 101.991 49.5197 101.988 49.525 101.985C49.5304 101.982 49.5462 101.978 49.5466 101.972C49.5466 101.969 49.5448 101.966 49.5426 101.963C49.5103 101.919 49.4789 101.874 49.4309 101.841C49.4255 101.837 49.4197 101.833 49.4129 101.831C49.3757 101.823 49.3541 101.84 49.338 101.864C49.3268 101.88 49.3183 101.899 49.3084 101.915C49.3017 101.927 49.294 101.937 49.285 101.944C49.2829 101.946 49.2806 101.947 49.2779 101.949C49.2671 101.956 49.2546 101.961 49.242 101.965" fill="#7C4117"/>
<path d="M49.2363 101.956C49.2376 101.959 49.2394 101.962 49.2416 101.965C49.2631 101.998 49.3143 102.045 49.3237 102.053C49.3623 102.087 49.4054 102.116 49.4529 102.139C49.4601 102.143 49.4677 102.147 49.4753 102.15C49.4781 102.152 49.4812 102.153 49.4839 102.154C49.4893 102.157 49.4942 102.159 49.4996 102.162C49.5086 102.166 49.5341 102.183 49.539 102.168C49.5426 102.156 49.5462 102.144 49.5462 102.131C49.5462 102.12 49.5395 102.116 49.5279 102.11C49.5158 102.104 49.5045 102.098 49.4938 102.091C49.4857 102.085 49.4776 102.08 49.47 102.075C49.4695 102.074 49.4691 102.074 49.4686 102.074C49.4453 102.057 49.4242 102.038 49.4023 102.019C49.3686 101.99 49.3354 101.958 49.3125 101.922C49.3112 101.92 49.3094 101.917 49.308 101.915C49.3058 101.91 49.3036 101.906 49.3013 101.902C49.2784 101.91 49.2569 101.92 49.2363 101.932C49.2291 101.936 49.2299 101.945 49.2363 101.956" fill="#BDC4C2"/>
<path d="M49.4448 101.649C49.4522 101.632 49.4616 101.616 49.4706 101.6C49.4913 101.563 49.5171 101.529 49.5503 101.499C49.5796 101.473 49.6122 101.457 49.6477 101.439C49.6636 101.361 49.7053 101.297 49.7681 101.235C49.7983 101.205 49.8313 101.177 49.8683 101.152C50.0082 101.06 49.7989 101.008 49.7272 100.959C49.5938 100.869 49.5173 100.722 49.5455 100.58C49.4345 100.429 49.451 100.172 49.6013 100.057C49.7049 99.9784 49.8002 99.9988 49.8777 100.06C49.9549 100.107 50.0092 100.175 50.0436 100.251C50.0715 100.294 50.0907 100.341 50.1027 100.39C50.1658 100.429 50.2242 100.473 50.2641 100.53C50.3153 100.603 50.3221 100.695 50.318 100.778C50.3176 100.784 50.3173 100.79 50.319 100.797C50.3254 100.819 50.3629 100.837 50.3818 100.853C50.4087 100.877 50.4337 100.902 50.4549 100.929C50.4961 100.982 50.5224 101.043 50.5248 101.106C50.5281 101.196 50.4728 101.274 50.3886 101.318C50.3585 101.463 50.2304 101.567 50.0656 101.602C50.0583 101.667 50.0351 101.73 49.9875 101.784C49.9202 101.859 49.8154 101.894 49.7118 101.924C49.691 101.93 49.672 101.931 49.6552 101.928C49.6221 101.936 49.5849 101.93 49.5537 101.902C49.5193 101.871 49.489 101.838 49.4662 101.8C49.4502 101.774 49.4333 101.748 49.4308 101.718C49.4288 101.695 49.4352 101.672 49.4448 101.649" fill="#030C43"/>
<path d="M49.5814 101.84C49.5238 101.801 49.4713 101.755 49.4338 101.703C49.4326 101.702 49.4312 101.7 49.4293 101.699C49.4218 101.694 49.4138 101.701 49.4102 101.706C49.3979 101.726 49.384 101.746 49.3676 101.763C49.3523 101.779 49.3268 101.797 49.3224 101.819C49.3152 101.854 49.3647 101.893 49.3945 101.918C49.437 101.954 49.4867 101.985 49.5402 102.008C49.5545 102.014 49.5687 102.018 49.5819 102.012C49.5887 102.009 49.5941 102.005 49.5995 102C49.6193 101.985 49.6415 101.971 49.6655 101.96C49.6802 101.953 49.698 101.95 49.7112 101.941C49.7361 101.924 49.7058 101.916 49.6847 101.904C49.6497 101.885 49.6147 101.864 49.5814 101.84" fill="#03279F"/>
<path d="M46.0793 100.481C46.0811 100.477 46.0829 100.474 46.0849 100.47C46.1432 100.367 46.2643 100.288 46.3729 100.222C46.5773 100.098 46.675 99.9308 46.7681 99.7427C46.8467 99.584 46.9464 99.4203 47.1591 99.3655C47.1635 99.3644 47.168 99.3633 47.1724 99.3623C47.2887 99.3351 47.4275 99.3437 47.5323 99.3956C47.6277 99.4428 47.658 99.519 47.6611 99.607C47.6652 99.7215 47.6746 99.8365 47.7068 99.9481C47.7326 100.038 47.7716 100.126 47.8332 100.204C47.8991 100.286 47.9886 100.336 48.0911 100.384C48.1639 100.418 48.2357 100.458 48.2711 100.523C48.3104 100.595 48.3089 100.679 48.2895 100.755C48.2552 100.89 48.1313 101.027 48.0078 101.116C47.6196 101.397 46.9633 101.4 46.5416 101.17C46.5298 101.164 46.5182 101.157 46.5068 101.151C46.356 101.062 46.2099 100.935 46.124 100.798C46.066 100.707 46.0299 100.581 46.0793 100.481" fill="#320600"/>
<path d="M45.5003 102.211C45.5054 102.261 45.5691 102.328 45.6256 102.275C45.6384 102.263 45.6473 102.249 45.6605 102.238C45.7048 102.199 45.7765 102.202 45.8312 102.179C45.8792 102.159 45.9202 102.129 45.9579 102.097C45.964 102.092 45.9697 102.086 45.9758 102.081C45.9966 102.064 46.0164 102.045 46.0366 102.027C46.2294 101.858 46.4769 101.729 46.6333 101.536C46.7541 101.387 46.8111 101.21 46.8638 101.036C46.9025 100.908 46.9397 100.78 46.9628 100.65C46.9704 100.608 46.9765 100.564 46.9656 100.523C46.9557 100.486 46.9308 100.449 46.8921 100.43C46.8874 100.428 46.8827 100.425 46.877 100.423C46.7658 100.383 46.6838 100.496 46.6475 100.564C46.5952 100.661 46.5763 100.767 46.5584 100.87C46.5353 101.006 46.5117 101.142 46.4886 101.278C46.4825 101.313 46.4759 101.349 46.4528 101.379C46.4316 101.405 46.3991 101.424 46.3689 101.444C46.1823 101.566 46.0753 101.751 45.932 101.909C45.9094 101.934 45.8849 101.958 45.8571 101.979C45.8331 101.998 45.8061 102.014 45.776 102.026C45.726 102.044 45.6704 102.049 45.6204 102.067C45.5469 102.093 45.4932 102.142 45.5003 102.211" fill="#FA5A4C"/>
<path d="M45.8573 101.979C45.8898 102.017 45.9223 102.06 45.9582 102.097C45.9643 102.092 45.9699 102.086 45.9761 102.081C45.9968 102.063 46.0166 102.045 46.0369 102.027C46.2297 101.858 46.4771 101.729 46.6336 101.536C46.7543 101.387 46.8113 101.209 46.8641 101.035C46.9027 100.908 46.94 100.78 46.9631 100.65C46.9706 100.607 46.9767 100.564 46.9659 100.523C46.956 100.486 46.9311 100.449 46.8924 100.43C46.8876 100.428 46.8829 100.425 46.8773 100.423C46.7661 100.383 46.684 100.496 46.6477 100.564C46.5955 100.66 46.5766 100.767 46.5586 100.87C46.5356 101.006 46.512 101.142 46.4889 101.278C46.4828 101.313 46.4762 101.349 46.4531 101.378C46.4319 101.405 46.3993 101.424 46.3692 101.444C46.1825 101.566 46.0755 101.751 45.9322 101.909C45.9096 101.934 45.8851 101.958 45.8573 101.979" fill="#DBDCDE"/>
<path d="M47.5259 100.236C47.5214 100.231 47.5167 100.227 47.5108 100.223C47.4898 100.211 47.4615 100.219 47.4363 100.222C47.4102 100.227 47.3834 100.227 47.3568 100.227C47.3095 100.227 47.2623 100.227 47.2151 100.227C47.1688 100.227 47.1241 100.231 47.08 100.218C47.0721 100.216 47.064 100.213 47.0556 100.213C47.0431 100.214 47.0255 100.223 47.0147 100.229C46.9968 100.238 46.9808 100.253 46.9658 100.265C46.9572 100.272 46.9485 100.28 46.9464 100.29C46.9438 100.302 46.9514 100.313 46.9594 100.323C46.9751 100.343 46.9937 100.36 47.0142 100.376C47.0345 100.392 47.0567 100.407 47.0812 100.418C47.1105 100.431 47.1428 100.44 47.1754 100.445C47.229 100.455 47.2843 100.459 47.3391 100.456C47.3824 100.453 47.4268 100.446 47.4625 100.425C47.4846 100.412 47.5024 100.395 47.5196 100.378C47.5412 100.357 47.5702 100.33 47.5773 100.302C47.5832 100.278 47.5426 100.253 47.5259 100.236" fill="#453434"/>
<path d="M46.8995 105.774C46.9018 105.777 46.9051 105.781 46.9089 105.784H47.0437C47.0541 105.781 47.0644 105.776 47.0696 105.767C47.0767 105.756 47.072 105.741 47.0673 105.729C47.0484 105.681 47.0314 105.632 47.0234 105.582C47.0211 105.567 47.0197 105.552 47.0192 105.538C47.0173 105.504 47.0183 105.471 47.0197 105.438H46.9174C46.9179 105.47 46.9174 105.502 46.9155 105.534C46.9131 105.599 46.907 105.664 46.8966 105.728C46.8943 105.743 46.8919 105.759 46.8995 105.774" fill="#E56E98"/>
<path d="M47.4282 105.772C47.4324 105.777 47.4385 105.781 47.4456 105.784H47.5889C47.5927 105.781 47.596 105.777 47.5983 105.772C47.6054 105.758 47.6021 105.742 47.5988 105.726C47.5856 105.664 47.5766 105.601 47.571 105.538C47.5677 105.505 47.5653 105.472 47.5644 105.439H47.4621C47.4649 105.473 47.4678 105.506 47.4678 105.54C47.4678 105.555 47.4668 105.57 47.4654 105.585C47.4597 105.635 47.4451 105.684 47.4286 105.733C47.4244 105.746 47.4202 105.76 47.4282 105.772" fill="#E56E98"/>
<path d="M47.0741 100.264C47.1483 100.168 47.1138 100.052 47.098 99.9459C47.1019 99.9463 47.1053 99.9466 47.1075 99.9466L47.3668 99.9479C47.3723 99.9479 47.4226 99.9441 47.4254 99.9482C47.4412 99.9711 47.4359 99.9988 47.4349 100.028C47.4334 100.074 47.4285 100.118 47.4349 100.161C47.4414 100.204 47.4695 100.24 47.4978 100.276C47.5301 100.317 47.5622 100.356 47.598 100.394C47.6186 100.483 47.5194 100.599 47.454 100.66C47.3773 100.731 47.2645 100.768 47.1519 100.753C47.0265 100.737 46.9463 100.66 46.91 100.558C46.895 100.515 46.8865 100.472 46.8823 100.428C46.8803 100.408 46.8763 100.388 46.8752 100.369C46.9544 100.353 47.0286 100.322 47.0741 100.264" fill="#C5351D"/>
<path d="M47.6356 99.5843C47.6171 99.5477 47.5871 99.5107 47.5559 99.4806C47.493 99.4201 47.3924 99.4031 47.3009 99.4228C47.212 99.442 47.1337 99.4925 47.0844 99.556C47.0605 99.5867 47.0475 99.6239 47.041 99.6597C47.0386 99.6725 47.037 99.6864 47.0368 99.6997C47.0367 99.7111 47.0426 99.7282 47.0365 99.7388C47.0373 99.7375 47.0164 99.7322 47.0144 99.7319C47.0056 99.7306 46.9968 99.7311 46.9884 99.7334C46.9729 99.7376 46.9619 99.7476 46.9555 99.7597C46.9462 99.7777 46.9427 99.8008 46.9467 99.82C46.9564 99.8663 46.9926 99.9096 47.0367 99.9385C47.0625 99.9555 47.092 99.9685 47.1228 99.978C47.1234 99.9786 47.1239 99.9793 47.1244 99.98C47.1712 100.032 47.2383 100.07 47.3103 100.096C47.3662 100.115 47.4505 100.142 47.5102 100.12C47.5603 100.103 47.5891 100.046 47.6119 100.008C47.6383 99.9643 47.6582 99.9176 47.6698 99.8694C47.6928 99.7737 47.6809 99.6744 47.6356 99.5843Z" fill="#FA5A4C"/>
<path d="M46.8038 103.779C46.812 103.447 46.6794 103.129 46.6046 102.807C46.5677 102.648 46.5383 102.479 46.5606 102.318C46.5957 102.063 46.7385 101.835 46.803 101.587C46.8187 101.527 46.8472 101.415 46.9434 101.413C47.0889 101.409 47.2343 101.406 47.3798 101.403C47.4522 101.402 47.5389 101.383 47.5889 101.436C47.5895 101.437 47.5901 101.438 47.5907 101.439C47.6515 101.506 47.6593 101.602 47.6874 101.68C47.7476 101.85 47.8294 102.011 47.8682 102.186C47.9185 102.412 47.92 102.646 47.8659 102.872C47.7934 103.174 47.6718 103.466 47.6795 103.779C47.6828 103.914 47.7099 104.049 47.7241 104.184C47.771 104.63 47.6765 105.078 47.5823 105.52C47.54 105.521 47.4976 105.522 47.4553 105.523C47.4238 104.473 47.3522 103.423 47.2417 102.377C47.1311 103.423 47.0595 104.473 47.0281 105.523C46.9857 105.522 46.9433 105.521 46.901 105.52C46.8068 105.078 46.7123 104.63 46.7592 104.184C46.7734 104.049 46.8005 103.914 46.8038 103.779" fill="#1C1D1A"/>
<path d="M45.9327 102.001C45.9171 101.983 45.903 101.964 45.8865 101.946C45.886 101.946 45.8853 101.945 45.8845 101.945C45.8835 101.945 45.8826 101.945 45.8819 101.946C45.8749 101.952 45.8694 101.959 45.8626 101.964C45.8474 101.977 45.8268 101.985 45.8097 101.996C45.805 101.999 45.8001 102.003 45.801 102.008C45.8014 102.01 45.8027 102.012 45.804 102.013C45.8381 102.058 45.8795 102.099 45.9269 102.135C45.9281 102.136 45.9295 102.137 45.9311 102.137C45.9328 102.137 45.9344 102.136 45.9357 102.135C45.958 102.12 45.9782 102.103 45.9959 102.084C46.0091 102.07 45.9836 102.055 45.9731 102.045C45.9591 102.031 45.9454 102.016 45.9327 102.001" fill="#D6DAD7"/>
<path d="M46.9262 99.5341C46.9558 99.4647 47.0295 99.4135 47.11 99.3819C47.2074 99.3437 47.3221 99.33 47.4245 99.3581C47.4688 99.3702 47.5097 99.3897 47.547 99.4128C47.564 99.4234 47.5806 99.435 47.5924 99.4496C47.6121 99.4737 47.6178 99.5156 47.6048 99.5454C47.6047 99.5457 47.6047 99.5461 47.6046 99.5464C47.5886 99.5943 47.5338 99.641 47.4939 99.6774C47.4126 99.7518 47.2589 99.8149 47.1361 99.8042C47.1091 99.8018 47.0841 99.7937 47.0638 99.7812C47.0622 99.7806 47.0609 99.7798 47.0597 99.7786C47.0424 99.767 47.0295 99.7516 47.0231 99.7329C47.0221 99.7326 47.0214 99.732 47.0204 99.7318C46.9987 99.7256 46.9743 99.7369 46.962 99.7529C46.9498 99.769 46.9468 99.7885 46.9442 99.8074C46.9356 99.7617 46.9217 99.7168 46.9146 99.671C46.9076 99.6252 46.9076 99.5776 46.9262 99.5341Z" fill="#320600"/>
<path d="M46.495 102.143C46.5455 101.929 46.6481 101.725 46.7128 101.513C46.8152 101.178 46.8213 100.827 46.7932 100.482C46.7906 100.45 46.7882 100.417 46.8067 100.389C46.825 100.361 46.8727 100.344 46.9034 100.363C46.9203 100.374 46.9272 100.391 46.9333 100.408C46.9589 100.478 46.9878 100.549 47.04 100.609C47.0923 100.668 47.1721 100.715 47.2608 100.718C47.3451 100.721 47.4269 100.684 47.4812 100.631C47.5355 100.578 47.565 100.51 47.5799 100.441C47.5875 100.407 47.6126 100.354 47.6673 100.383C47.7082 100.404 47.6941 100.461 47.6878 100.494C47.6325 100.783 47.6777 101.079 47.7488 101.366C47.8199 101.653 47.917 101.936 47.9671 102.226C47.9766 102.281 47.9802 102.346 47.9296 102.382C47.8778 102.419 47.7989 102.405 47.7329 102.39C47.5633 102.349 47.3936 102.309 47.224 102.268C47.0413 102.224 46.8377 102.182 46.6682 102.253C46.6234 102.272 46.5718 102.298 46.5275 102.279C46.4807 102.258 46.4815 102.203 46.4911 102.16C46.4923 102.155 46.4936 102.149 46.495 102.143" fill="#DBDCDE"/>
<path d="M47.2157 100.883C47.2246 100.94 47.239 100.995 47.2575 101.051C47.2668 101.08 47.2648 101.103 47.228 101.114C47.1669 101.131 47.1081 101.154 47.0533 101.182C47.0292 101.194 47.0022 101.208 46.9744 101.203C46.9553 101.199 46.9401 101.187 46.9311 101.172C46.9221 101.158 46.9185 101.142 46.9154 101.126C46.8955 101.023 46.894 100.919 46.905 100.816C46.916 100.713 46.934 100.61 46.9545 100.508C46.9566 100.498 46.9589 100.487 46.9611 100.477C46.9611 100.477 47.1809 100.498 47.195 100.524C47.2021 100.537 47.1989 100.556 47.1996 100.57C47.2033 100.649 47.202 100.731 47.2076 100.812C47.2093 100.836 47.2121 100.859 47.2157 100.883" fill="#770808"/>
<path d="M46.8377 100.291C46.84 100.289 46.8424 100.286 46.8451 100.284C46.8894 100.248 46.943 100.227 47.0037 100.216C47.0179 100.214 47.0561 100.201 47.0675 100.211C47.0716 100.215 47.0721 100.221 47.0724 100.226C47.0735 100.245 47.0745 100.263 47.0908 100.279C47.1065 100.293 47.1276 100.306 47.1486 100.315C47.2032 100.339 47.2738 100.348 47.3343 100.337C47.375 100.329 47.4214 100.31 47.4476 100.282C47.4735 100.255 47.4913 100.189 47.5448 100.231C47.5863 100.263 47.6268 100.297 47.6583 100.337C47.6655 100.346 47.6723 100.356 47.6731 100.366C47.6748 100.389 47.6529 100.414 47.6381 100.432C47.5762 100.506 47.4733 100.552 47.3673 100.567C47.1995 100.592 46.9851 100.554 46.8744 100.438C46.8551 100.417 46.8393 100.393 46.8266 100.369C46.8106 100.339 46.8139 100.314 46.8377 100.291" fill="#FE1010"/>
<path d="M47.8052 101.941C47.8168 101.921 47.8282 101.901 47.8383 101.881C47.8035 101.868 47.7661 101.865 47.7251 101.875C47.693 101.883 47.6635 101.897 47.6359 101.912C47.6053 101.929 47.5762 101.947 47.5485 101.966C47.537 101.974 47.5257 101.982 47.5208 101.994C47.517 102.004 47.5188 102.016 47.529 102.021C47.537 102.025 47.547 102.024 47.5563 102.021C47.5765 102.016 47.5933 101.999 47.6141 101.998C47.6175 101.998 47.6214 101.999 47.6232 102.002C47.6253 102.004 47.6243 102.008 47.6226 102.011C47.6171 102.02 47.6067 102.026 47.5966 102.031C47.5702 102.045 47.5434 102.059 47.5149 102.071C47.4906 102.081 47.4663 102.091 47.4386 102.086C47.4244 102.083 47.4108 102.079 47.3968 102.075C47.3937 102.074 47.3904 102.074 47.3872 102.074C47.372 102.077 47.3769 102.091 47.3844 102.098C47.3895 102.102 47.3962 102.105 47.4029 102.108C47.4418 102.123 47.4852 102.127 47.5279 102.131C47.5451 102.133 47.5624 102.134 47.5797 102.136C47.59 102.136 47.6027 102.137 47.6126 102.133C47.6238 102.13 47.6349 102.122 47.6446 102.116C47.6704 102.101 47.6942 102.084 47.7191 102.068C47.7273 102.063 47.7351 102.057 47.7431 102.052L47.7428 102.053C47.7435 102.052 47.7441 102.052 47.7447 102.052C47.745 102.051 47.7454 102.05 47.7457 102.05C47.7551 102.043 47.7647 102.037 47.7739 102.03C47.7915 102.017 47.8065 102.003 47.8229 101.988C47.8266 101.985 47.8305 101.982 47.8322 101.977C47.8359 101.968 47.8289 101.959 47.821 101.952C47.8164 101.947 47.8105 101.945 47.8052 101.941Z" fill="#FA5A4C"/>
<path d="M48.3237 101.301C48.1667 101.083 48.0097 100.865 47.8528 100.647C47.8061 100.582 47.7566 100.515 47.6934 100.461C47.6921 100.474 47.6897 100.485 47.6878 100.495C47.6581 100.65 47.6577 100.808 47.6746 100.966C47.7359 101.041 47.8113 101.11 47.882 101.174C47.8966 101.188 48.0465 101.32 48.0465 101.326C47.932 101.449 47.9466 101.618 47.8523 101.748C47.8401 101.766 47.8255 101.783 47.808 101.799C47.8047 101.802 47.8019 101.805 47.7986 101.809C47.7858 101.823 47.7717 101.841 47.7552 101.852C47.7505 101.855 47.7458 101.857 47.7406 101.859C47.7403 101.859 47.74 101.859 47.7397 101.859C47.7559 101.887 47.7929 101.912 47.8174 101.93C47.8302 101.94 47.8418 101.951 47.8531 101.962C47.8623 101.958 47.8719 101.956 47.8797 101.952C47.8881 101.949 47.8966 101.945 47.9046 101.941C47.9098 101.938 47.915 101.935 47.9197 101.932C47.9287 101.927 47.9376 101.922 47.9461 101.916C47.9866 101.89 48.0229 101.86 48.0587 101.83C48.1361 101.765 48.2011 101.69 48.2487 101.607C48.2911 101.534 48.3802 101.38 48.3237 101.301" fill="#E56E98"/>
<path d="M47.882 101.174C47.8966 101.187 48.0465 101.32 48.0465 101.325C47.932 101.449 47.9466 101.617 47.8523 101.748C47.8401 101.765 47.8255 101.782 47.808 101.798C47.8047 101.801 47.8019 101.804 47.7986 101.808C47.7858 101.823 47.7717 101.841 47.7552 101.852C47.7906 101.882 47.8193 101.917 47.8443 101.954C47.8462 101.957 47.8481 101.96 47.8504 101.962C47.8603 101.958 47.8712 101.956 47.8797 101.952C47.8881 101.949 47.8966 101.945 47.9046 101.94C47.9098 101.938 47.915 101.935 47.9197 101.932C47.9287 101.927 47.9376 101.921 47.9461 101.916C47.9866 101.89 48.0229 101.86 48.0587 101.829C48.1361 101.764 48.2011 101.689 48.2487 101.607C48.2911 101.534 48.3802 101.38 48.3237 101.301C48.1667 101.083 48.0097 100.865 47.8528 100.647C47.8061 100.581 47.7566 100.515 47.6934 100.461C47.6921 100.473 47.6897 100.485 47.6878 100.494C47.6581 100.65 47.6577 100.808 47.6746 100.965C47.7359 101.041 47.8113 101.109 47.882 101.174" fill="#DBDCDE"/>
<path d="M47.7412 101.833C47.7484 101.827 47.7555 101.821 47.7627 101.815C47.7666 101.812 47.7705 101.809 47.7754 101.806C47.8001 101.796 47.8247 101.833 47.8363 101.846C47.8571 101.869 47.8811 101.89 47.9044 101.911C47.9094 101.916 47.9145 101.921 47.9175 101.927C47.9207 101.932 47.9214 101.939 47.9179 101.944C47.9125 101.953 47.8996 101.955 47.8899 101.96C47.8763 101.967 47.8687 101.981 47.8548 101.987C47.8521 101.989 47.849 101.99 47.8459 101.99C47.8415 101.99 47.8377 101.987 47.8344 101.985C47.7895 101.957 47.7524 101.92 47.7208 101.881C47.7156 101.875 47.7103 101.868 47.713 101.86C47.7144 101.856 47.7182 101.853 47.7218 101.85C47.7283 101.844 47.7347 101.839 47.7412 101.833" fill="#E8ECE9"/>
<path d="M47.4282 105.772C47.4324 105.777 47.4385 105.781 47.4456 105.784H47.5889C47.5927 105.781 47.596 105.777 47.5983 105.772C47.6054 105.758 47.6021 105.742 47.5988 105.726C47.5856 105.664 47.5766 105.601 47.571 105.538C47.5649 105.539 47.5587 105.539 47.5521 105.539C47.5248 105.54 47.4975 105.54 47.4701 105.54H47.4678C47.4678 105.555 47.4668 105.57 47.4654 105.585C47.4597 105.635 47.4451 105.684 47.4286 105.733C47.4244 105.746 47.4202 105.76 47.4282 105.772" fill="#F8A018"/>
<path d="M46.8995 105.774C46.9018 105.777 46.9051 105.781 46.9089 105.784H47.0437C47.0541 105.781 47.0644 105.776 47.0696 105.767C47.0767 105.756 47.072 105.741 47.0673 105.729C47.0484 105.681 47.0314 105.632 47.0234 105.582C47.0211 105.567 47.0197 105.552 47.0192 105.538C47.0173 105.538 47.0154 105.537 47.0135 105.537C46.9919 105.536 46.9706 105.536 46.949 105.535C46.9466 105.535 46.9311 105.535 46.9155 105.534C46.9131 105.599 46.907 105.664 46.8966 105.728C46.8943 105.743 46.8919 105.759 46.8995 105.774" fill="#F8A018"/>
<path d="M45.5455 102.709C45.4129 102.709 45.3054 102.62 45.3054 102.511V99.632C45.3054 99.57 45.3072 99.5056 45.309 99.4398C45.3181 99.1178 45.3275 98.7848 45.1325 98.5517C45.0381 98.4387 44.8998 98.3584 44.7712 98.342C44.6836 98.3304 44.6037 98.3483 44.5281 98.3965C44.2856 98.551 44.2658 98.8974 44.2485 99.2034C44.2438 99.2837 44.2394 99.3608 44.2316 99.432C44.1443 100.229 44.0472 101.05 43.943 101.874C43.9291 101.983 43.811 102.061 43.6792 102.051C43.5473 102.04 43.4515 101.942 43.4653 101.833C43.5693 101.011 43.6662 100.191 43.7532 99.3961C43.7605 99.3304 43.7644 99.259 43.7687 99.1847C43.7899 98.8123 43.816 98.3487 44.2353 98.082C44.4158 97.9673 44.6265 97.9217 44.8455 97.9497C45.1073 97.9835 45.3559 98.1208 45.5277 98.3263C45.8113 98.6651 45.7996 99.0816 45.7893 99.449C45.7875 99.5116 45.7857 99.573 45.7857 99.6322V102.511C45.7857 102.62 45.6783 102.709 45.5455 102.709" fill="#010930"/>
<path d="M43.7055 101.834C43.8095 101.011 43.9065 100.192 43.9935 99.3966C44.0008 99.3309 44.0048 99.2595 44.009 99.1852C44.0301 98.8128 44.0564 98.3492 44.4756 98.0825C44.5907 98.0094 44.7186 97.9676 44.8526 97.9519L44.8455 97.9502C44.6265 97.9222 44.4158 97.9678 44.2353 98.0825C43.816 98.3492 43.7899 98.8128 43.7687 99.1852C43.7644 99.2595 43.7605 99.3309 43.7532 99.3966C43.6662 100.192 43.5693 101.011 43.4653 101.834C43.4515 101.943 43.5473 102.04 43.6792 102.051C43.7311 102.056 43.7787 102.043 43.8208 102.023C43.7441 101.984 43.6956 101.913 43.7055 101.834" fill="#02125E"/>
<path d="M45.5456 102.511V99.632C45.5456 99.57 45.5473 99.5056 45.5493 99.4398C45.5583 99.1178 45.5676 98.7848 45.3726 98.5517C45.2783 98.4387 45.1398 98.3584 45.0113 98.342C44.9527 98.3343 44.8976 98.341 44.8448 98.3599C44.9504 98.392 45.0559 98.46 45.1323 98.5517C45.3273 98.7848 45.318 99.1178 45.3089 99.4398C45.307 99.5056 45.3052 99.57 45.3052 99.632V102.511C45.3052 102.62 45.4127 102.709 45.5454 102.709C45.5903 102.709 45.6297 102.696 45.6657 102.679C45.5952 102.644 45.5456 102.583 45.5456 102.511" fill="#040925"/>
<path d="M51.4586 102.114C51.3261 102.114 51.2184 102.025 51.2184 101.915V99.0368C51.2184 98.9746 51.2203 98.9104 51.2221 98.8444C51.2311 98.5224 51.2406 98.1892 51.0456 97.9563C50.9512 97.8435 50.8129 97.763 50.6844 97.7464C50.5967 97.7352 50.5168 97.7529 50.4412 97.8011C50.1985 97.9556 50.1789 98.3022 50.1615 98.608C50.1569 98.6883 50.1526 98.7654 50.1448 98.8366C50.0574 99.6332 49.9603 100.455 49.8559 101.279C49.8421 101.388 49.724 101.465 49.5921 101.456C49.4602 101.444 49.3646 101.347 49.3783 101.238C49.4823 100.415 49.5793 99.5956 49.6663 98.8007C49.6736 98.735 49.6776 98.6634 49.6818 98.5895C49.7029 98.2169 49.7291 97.7531 50.1484 97.4867C50.3288 97.3717 50.5395 97.3263 50.7586 97.3545C51.0204 97.3881 51.2689 97.5254 51.4406 97.7307C51.7243 98.0699 51.7126 98.4862 51.7023 98.8536C51.7005 98.9163 51.6988 98.9776 51.6988 99.0368V101.915C51.6988 102.025 51.5912 102.114 51.4586 102.114" fill="#010930"/>
<path d="M49.6186 101.238C49.7226 100.416 49.8196 99.5958 49.9066 98.8009C49.9139 98.7351 49.9179 98.6636 49.922 98.5896C49.9433 98.217 49.9694 97.7532 50.3886 97.4869C50.5037 97.4137 50.6317 97.3718 50.7657 97.3561L50.7586 97.3547C50.5395 97.3264 50.3288 97.3718 50.1484 97.4869C49.7291 97.7532 49.7029 98.217 49.6818 98.5896C49.6776 98.6636 49.6736 98.7351 49.6663 98.8009C49.5793 99.5958 49.4823 100.416 49.3783 101.238C49.3646 101.347 49.4602 101.445 49.5921 101.456C49.6441 101.46 49.6918 101.447 49.7339 101.427C49.657 101.388 49.6086 101.317 49.6186 101.238" fill="#02125E"/>
<path d="M51.4588 101.915V99.0368C51.4588 98.9746 51.4607 98.9104 51.4625 98.8444C51.4716 98.5224 51.481 98.1892 51.286 97.9563C51.1916 97.8435 51.0531 97.763 50.9248 97.7464C50.866 97.7389 50.811 97.7454 50.7581 97.7647C50.8638 97.7966 50.9692 97.8648 51.0457 97.9563C51.2407 98.1892 51.2312 98.5224 51.2222 98.8444C51.2204 98.9104 51.2185 98.9746 51.2185 99.0368V101.915C51.2185 102.025 51.3262 102.114 51.4587 102.114C51.5034 102.114 51.5432 102.101 51.5789 102.083C51.5084 102.049 51.4588 101.988 51.4588 101.915Z" fill="#040925"/>
<path d="M43.4532 101.543L49.7373 100.981L51.7386 101.874L51.9787 106.536L45.3744 106.999L43.4532 106.206V101.543Z" fill="#831B37"/>
<path d="M49.7373 100.981L43.4532 101.543V106.172L49.8628 105.666L49.7373 100.981" fill="#FF5D0D"/>
<path d="M49.8628 105.667L43.4532 106.173V106.206L45.3744 106.999L51.9787 106.536L49.8628 105.667" fill="#040925"/>
<path d="M51.9787 106.536L51.7386 101.874L49.7373 100.981L49.8628 105.667L51.9787 106.536Z" fill="#DD4901"/>
<path d="M49.7373 101.258L43.4532 101.839V102.113L49.7373 101.497V101.258Z" fill="#FFFFFE"/>
<path d="M49.8173 101.761L43.4532 102.342V102.615L49.8173 102V101.761Z" fill="#FFFFFE"/>
<path d="M49.8173 102.264L43.4532 102.845V103.118L49.8173 102.503V102.264" fill="#FFFFFE"/>
<path d="M49.8173 102.737L43.4532 103.347V103.62L49.8173 102.976V102.737" fill="#FFFFFE"/>
<path d="M49.8173 103.269L43.4532 103.85V104.123L49.8173 103.508V103.269" fill="#FFFFFE"/>
<path d="M49.8173 103.754L43.4532 104.352V104.625L49.8173 103.993V103.754Z" fill="#FFFFFE"/>
<path d="M49.8173 104.273L43.4532 104.854V105.127L49.8173 104.512V104.273" fill="#FFFFFE"/>
<path d="M49.8628 104.776L43.4532 105.357V105.631L49.8628 105.015V104.776" fill="#FFFFFE"/>
<path d="M49.8628 105.278L43.4532 105.859V106.133L49.8628 105.517V105.278Z" fill="#FFFFFE"/>
<path d="M51.7605 102.3V102.073L49.7373 101.259V101.498L51.7605 102.3" fill="#DBDCDE"/>
<path d="M51.7962 102.82V102.593L49.7731 101.779V102.018L51.7962 102.82Z" fill="#DBDCDE"/>
<path d="M51.8415 103.341V103.114L49.7378 102.275L49.7828 102.533L51.8415 103.341" fill="#DBDCDE"/>
<path d="M51.8696 103.784V103.556L49.7844 102.742V102.957L51.8696 103.784Z" fill="#DBDCDE"/>
<path d="M51.8693 104.337V104.11L49.785 103.271V103.511L51.8693 104.337" fill="#DBDCDE"/>
<path d="M51.9312 104.825V104.597L49.8169 103.754L49.785 103.974L51.9312 104.825" fill="#DBDCDE"/>
<path d="M51.9313 105.333V105.106L49.8171 104.273V104.512L51.9313 105.333" fill="#DBDCDE"/>
<path d="M51.9313 105.855V105.627L49.8171 104.773V105.012L51.9313 105.855" fill="#DBDCDE"/>
<path d="M51.9785 106.375V106.147L49.8171 105.274V105.513L51.9785 106.375" fill="#DBDCDE"/>
<path d="M43.4658 101.642L49.7128 101.083L51.6812 101.961C51.7396 101.988 51.8124 101.969 51.844 101.921C51.8755 101.873 51.8537 101.813 51.7953 101.787L49.794 100.894C49.7725 100.884 49.7484 100.881 49.7241 100.883L43.44 101.445C43.3741 101.451 43.3264 101.5 43.3335 101.554C43.3406 101.609 43.4 101.648 43.4658 101.642" fill="#12152A"/>
<path d="M49.863 105.667L49.8589 105.518L49.8592 105.53L49.863 105.667Z" fill="#B02C36"/>
<path d="M49.859 105.518L49.8522 105.28H49.8523L49.8526 105.289L49.859 105.518Z" fill="#C33C49"/>
<path d="M51.9784 106.536L49.8625 105.667L49.8589 105.53L51.9698 106.371L51.9784 106.536Z" fill="#AA3B04"/>
<path d="M49.8527 105.288L49.8524 105.279H49.8523L49.845 105.018H49.8451L49.8452 105.022L49.8527 105.288" fill="#B02C36"/>
<path d="M51.9575 106.138L49.8524 105.288L49.8453 105.022L51.9312 105.854V105.641L51.9575 106.138ZM51.9303 105.626L50.1989 104.926C50.302 104.886 50.3991 104.834 50.4896 104.773L51.2021 105.05L51.9146 105.327L51.9303 105.626ZM51.9024 105.094L50.6897 104.617C50.7613 104.552 50.8277 104.483 50.8883 104.411L51.8872 104.807L51.9024 105.094ZM51.8749 104.575L51.0231 104.235C51.0661 104.172 51.1051 104.11 51.14 104.048L51.8622 104.334L51.8749 104.575ZM51.85 104.102L51.2376 103.855C51.279 103.765 51.3152 103.671 51.3471 103.576L51.8324 103.769L51.85 104.102ZM51.8201 103.537L51.4074 103.376C51.424 103.314 51.439 103.251 51.4525 103.188L51.8091 103.328L51.8201 103.537ZM51.7969 103.096L51.4929 102.975C51.5071 102.888 51.519 102.801 51.529 102.714L51.7821 102.815L51.7969 103.096ZM51.7698 102.582L51.5505 102.494C51.5579 102.404 51.5635 102.313 51.5678 102.223L51.7547 102.297L51.7698 102.582ZM51.7424 102.065L51.5764 101.998C51.5771 101.97 51.5778 101.943 51.5784 101.915L51.6027 101.926L51.6812 101.961C51.6845 101.962 51.6878 101.964 51.6911 101.965L51.7383 101.986L51.7424 102.065Z" fill="#AA3B04"/>
<path d="M51.7546 102.298L51.5677 102.224C51.5714 102.148 51.5742 102.073 51.5763 101.999L51.7424 102.065L51.7546 102.298" fill="#9FA0A3"/>
<path d="M51.7821 102.814L51.5291 102.714C51.5375 102.641 51.5446 102.567 51.5506 102.494L51.7699 102.582L51.7821 102.814" fill="#9FA0A3"/>
<path d="M51.8094 103.329L51.4528 103.189C51.468 103.118 51.4814 103.047 51.4932 102.975L51.7973 103.096L51.8094 103.329" fill="#9FA0A3"/>
<path d="M51.8327 103.769L51.3474 103.577C51.3696 103.511 51.3896 103.444 51.4077 103.376L51.8204 103.537L51.8327 103.769" fill="#9FA0A3"/>
<path d="M51.8624 104.334L51.1402 104.048C51.1406 104.047 51.1411 104.046 51.1415 104.045C51.1763 103.983 51.2084 103.92 51.2378 103.855L51.8502 104.102L51.8624 104.334Z" fill="#9FA0A3"/>
<path d="M51.8875 104.808L50.8887 104.412C50.9373 104.354 50.9821 104.295 51.0234 104.235L51.8752 104.575L51.8875 104.808Z" fill="#9FA0A3"/>
<path d="M51.9148 105.327L50.4897 104.773C50.5604 104.726 50.6272 104.673 50.6899 104.617L51.9025 105.095L51.9148 105.327" fill="#9FA0A3"/>
<path d="M51.9313 105.855L49.8454 105.023L49.8453 105.019C49.9526 105.001 50.0581 104.977 50.1599 104.942C50.173 104.937 50.1861 104.932 50.199 104.927L51.9304 105.627L51.9313 105.642V105.855Z" fill="#9FA0A3"/>
<path d="M51.9698 106.371L49.8589 105.53L49.8586 105.518L49.8525 105.288L51.9575 106.139L51.9698 106.371" fill="#9FA0A3"/>
<path d="M51.6914 101.965C51.6881 101.964 51.6847 101.963 51.6815 101.961L51.603 101.926L51.6914 101.965" fill="#0B0F1B"/>
<path d="M43.4532 106.172V106.132L49.8587 105.517L49.8628 105.666L43.4532 106.172V106.172ZM43.4532 105.859V105.63L47.6467 105.227C48.0267 105.225 48.4065 105.207 48.7764 105.178C48.9679 105.164 49.159 105.146 49.3496 105.125C49.4465 105.115 49.5432 105.1 49.6366 105.075C49.6613 105.069 49.7162 105.043 49.7647 105.024L49.8454 105.016V105.018C49.8452 105.018 49.845 105.018 49.8449 105.018L49.8521 105.279L43.4532 105.859V105.859ZM43.4532 105.356V105.127L45.2069 104.958C45.4618 105.037 45.7184 105.09 45.9793 105.128L43.4532 105.356ZM43.4532 104.854V104.625L44.2166 104.549C44.3539 104.621 44.4962 104.687 44.6359 104.746L43.4532 104.854V104.854ZM43.4532 104.352V104.122L43.5823 104.11C43.6557 104.182 43.7401 104.251 43.832 104.316L43.4532 104.352Z" fill="#020D4A"/>
<path d="M43.4532 106.206V106.173L49.8628 105.667L43.4532 106.206" fill="#500E16"/>
<path d="M43.4532 104.123V103.965C43.4909 104.015 43.5342 104.064 43.5823 104.111L43.4532 104.123Z" fill="#DBDCDE"/>
<path d="M43.4532 104.625V104.352L43.832 104.316C43.9504 104.4 44.081 104.478 44.2166 104.549L43.4532 104.625Z" fill="#DBDCDE"/>
<path d="M43.4532 105.127V104.854L44.6359 104.746C44.7761 104.805 44.9136 104.857 45.0407 104.903C45.0961 104.922 45.1515 104.941 45.2069 104.958L43.4532 105.127" fill="#DBDCDE"/>
<path d="M43.4532 105.631V105.357L45.9793 105.128C46.2769 105.171 46.5801 105.194 46.8927 105.211C47.1119 105.223 47.3332 105.228 47.5546 105.228C47.5854 105.228 47.616 105.228 47.6467 105.228L43.4532 105.631ZM49.7647 105.025C49.7954 105.013 49.8236 105.003 49.8398 105.003C49.8418 105.003 49.8435 105.003 49.8449 105.004L49.8454 105.017L49.7647 105.025" fill="#DBDCDE"/>
<path d="M43.4532 106.133V105.859L49.8521 105.279L49.8587 105.518L43.4532 106.133" fill="#DBDCDE"/>
<path d="M49.8626 105.667L49.8586 105.518H49.8587L49.8626 105.667ZM49.8521 105.279L49.845 105.018C49.8451 105.018 49.8452 105.018 49.8454 105.018L49.8523 105.279H49.8521Z" fill="#921E27"/>
<path d="M49.8589 105.518L49.8519 105.28H49.8522L49.859 105.518H49.8589" fill="#A22935"/>
<path d="M44.6685 98.0586C44.6308 98.0586 44.5945 98.0438 44.5715 98.0179L41.6897 94.7581C41.6507 94.714 41.6623 94.652 41.7158 94.6195C41.7694 94.5872 41.8444 94.5971 41.8836 94.6411L44.5934 97.7061L45.0301 95.3234C45.0398 95.2693 45.1012 95.2317 45.1668 95.2401C45.2322 95.2484 45.2774 95.299 45.2675 95.3531L44.7872 97.9742C44.7799 98.0141 44.7443 98.0463 44.6971 98.056L44.6685 98.0586Z" fill="#12152A"/>
<path d="M44.8485 97.7967C44.8485 98.0795 44.7594 98.3088 44.6497 98.3088C44.5398 98.3088 44.4509 98.0795 44.4509 97.7967C44.4509 97.5137 44.5398 97.2846 44.6497 97.2846C44.7594 97.2846 44.8485 97.5137 44.8485 97.7967Z" fill="#12152A"/>
<path d="M46.1487 97.5624L44.6374 97.6978C44.5713 97.7036 44.5234 97.7523 44.5301 97.8068C44.5365 97.8578 44.5886 97.8958 44.6494 97.8958L44.6619 97.8954L46.1487 97.763C46.1467 97.6957 46.1487 97.6378 46.1487 97.5624" fill="#020D4A"/>
<path d="M46.1664 96.4517V98.0135C46.1664 98.5926 46.7475 98.9302 47.458 98.9302C48.1685 98.9302 48.7497 98.5926 48.7497 98.0135V96.4517C48.7497 96.4517 47.5275 96.9611 46.1664 96.4517Z" fill="#010930"/>
<path d="M47.2884 98.5226C48.0002 98.5226 48.5825 98.1848 48.5825 97.6057V96.5093C48.6883 96.4768 48.7497 96.4517 48.7497 96.4517V98.0135C48.7497 98.5926 48.1672 98.9302 47.4555 98.9302C46.7771 98.9302 46.2174 98.6228 46.1664 98.0927C46.3901 98.3691 46.8096 98.5226 47.2884 98.5226" fill="#040925"/>
<path d="M48.7497 96.3826V96.5548C48.7497 96.6498 48.1715 96.7268 47.458 96.7268C46.7447 96.7268 46.1664 96.6498 46.1664 96.5548V96.3826H48.7497Z" fill="#020D4A"/>
<path d="M47.458 96.6584C46.7447 96.6584 46.1664 96.5694 46.1664 96.4596V96.3831H48.7497V96.4596C48.7497 96.5694 48.1715 96.6584 47.458 96.6584Z" fill="#FF5D0D"/>
<path d="M48.7497 96.3833C48.7497 96.2695 48.1715 96.177 47.458 96.177C46.7447 96.177 46.1664 96.2695 46.1664 96.3833C46.1664 96.4976 46.7447 96.5901 47.458 96.5901C48.1715 96.5901 48.7497 96.4976 48.7497 96.3833Z" fill="#12152A"/>
<path d="M48.6815 96.4521C48.5089 96.3698 48.0265 96.3105 47.458 96.3105C46.8896 96.3105 46.4071 96.3698 46.2346 96.4521C46.1906 96.4312 46.1664 96.4088 46.1664 96.3852C46.1664 96.2702 46.7447 96.1768 47.458 96.1768C48.1715 96.1768 48.7497 96.2702 48.7497 96.3852C48.7497 96.4088 48.7255 96.4312 48.6815 96.4521Z" fill="#DD4901"/>
<path d="M48.4104 97.5764C48.3496 97.5764 48.2973 97.5385 48.291 97.4873C48.2843 97.4328 48.3323 97.3842 48.3983 97.3784L50.6022 97.192C50.6658 97.1872 50.7272 97.2258 50.734 97.2806C50.7407 97.3349 50.6926 97.3837 50.6267 97.3893L48.4227 97.5759L48.4104 97.5764" fill="#020D4A"/>
<path d="M50.7344 97.3831L50.7046 97.3801C50.6545 97.3696 50.6183 97.3334 50.6146 97.291L50.3644 94.3548C50.3598 94.3001 50.4096 94.2527 50.4757 94.2489C50.5425 94.2437 50.5993 94.2863 50.6039 94.3408L50.8286 96.9789L52.4006 94.9563C52.4365 94.9101 52.5105 94.8965 52.5665 94.9264C52.6223 94.9561 52.6385 95.0173 52.6027 95.0635L50.8354 97.3375C50.8129 97.3664 50.7745 97.3831 50.7344 97.3831Z" fill="#12152A"/>
<path d="M50.9334 97.1998C50.9334 97.4828 50.8443 97.7122 50.7346 97.7122C50.6247 97.7122 50.5358 97.4828 50.5358 97.1998C50.5358 96.9172 50.6247 96.6877 50.7346 96.6877C50.8443 96.6877 50.9334 96.9172 50.9334 97.1998Z" fill="#12152A"/>
<path d="M140.104 84.8641C135.048 84.8641 130.344 84.2881 125.992 83.1361C121.64 81.9201 118.088 80.2241 115.336 78.0481C114.376 77.3441 113.672 76.6081 113.224 75.8401C112.84 75.0081 112.648 73.9841 112.648 72.7681C112.648 71.1681 113.128 69.7601 114.088 68.5441C115.112 67.3281 116.264 66.7201 117.544 66.7201C118.248 66.7201 118.92 66.8481 119.56 67.1041C120.264 67.2961 121.096 67.6801 122.056 68.2561C124.808 69.9841 127.592 71.2641 130.408 72.0961C133.224 72.8641 136.328 73.2481 139.72 73.2481C143.944 73.2481 147.176 72.5441 149.416 71.1361C151.656 69.7281 152.776 67.7121 152.776 65.0881C152.776 63.1041 151.72 61.5041 149.608 60.2881C147.56 59.0721 143.88 57.9201 138.568 56.8321C132.616 55.6161 127.848 54.1441 124.264 52.4161C120.744 50.6881 118.152 48.5441 116.488 45.9841C114.888 43.4241 114.088 40.3201 114.088 36.6721C114.088 32.6401 115.24 29.0241 117.544 25.8241C119.912 22.5601 123.144 20.0321 127.24 18.2401C131.4 16.3841 136.072 15.4561 141.256 15.4561C150.344 15.4561 157.832 17.7281 163.72 22.2721C164.68 23.0401 165.352 23.8401 165.736 24.6721C166.184 25.4401 166.408 26.4001 166.408 27.5521C166.408 29.1521 165.896 30.5601 164.872 31.7761C163.912 32.9921 162.792 33.6001 161.512 33.6001C160.808 33.6001 160.136 33.5041 159.496 33.3121C158.92 33.1201 158.088 32.7041 157 32.0641C154.376 30.4001 151.944 29.1521 149.704 28.3201C147.528 27.4881 144.744 27.0721 141.352 27.0721C137.448 27.0721 134.376 27.8401 132.136 29.3761C129.896 30.8481 128.776 32.8961 128.776 35.5201C128.776 37.0561 129.192 38.3361 130.024 39.3601C130.92 40.3201 132.36 41.1841 134.344 41.9521C136.392 42.7201 139.272 43.5201 142.984 44.3521C151.688 46.2721 157.928 48.7361 161.704 51.7441C165.544 54.7521 167.464 58.8801 167.464 64.1281C167.464 68.2241 166.312 71.8401 164.008 74.9761C161.768 78.1121 158.568 80.5441 154.408 82.2721C150.312 84.0001 145.544 84.8641 140.104 84.8641Z" fill="black"/>
<path d="M213.003 69.9841C214.283 69.9841 215.307 70.4961 216.075 71.5201C216.907 72.5441 217.323 73.8561 217.323 75.4561C217.323 76.5441 217.003 77.5681 216.363 78.5281C215.723 79.4241 214.827 80.1921 213.675 80.8321C211.499 81.9841 208.971 82.9441 206.091 83.7121C203.211 84.4161 200.555 84.7681 198.123 84.7681C193.003 84.7681 188.523 83.7761 184.683 81.7921C180.907 79.8081 177.995 76.9921 175.947 73.3441C173.899 69.6321 172.875 65.2801 172.875 60.2881C172.875 55.4881 173.867 51.2321 175.851 47.5201C177.835 43.8081 180.587 40.9281 184.107 38.8801C187.627 36.7681 191.627 35.7121 196.107 35.7121C200.395 35.7121 204.139 36.6721 207.339 38.5921C210.603 40.4481 213.131 43.1361 214.923 46.6561C216.715 50.1121 217.611 54.1761 217.611 58.8481C217.611 60.2561 217.259 61.3441 216.555 62.1121C215.915 62.8161 214.987 63.1681 213.771 63.1681H186.891C187.339 66.9441 188.491 69.6961 190.347 71.4241C192.203 73.0881 194.859 73.9201 198.315 73.9201C200.171 73.9201 201.835 73.6961 203.307 73.2481C204.779 72.8001 206.411 72.1921 208.203 71.4241C209.099 71.0401 209.963 70.7201 210.795 70.4641C211.627 70.1441 212.363 69.9841 213.003 69.9841ZM196.491 45.6961C193.739 45.6961 191.531 46.5921 189.867 48.3841C188.203 50.1121 187.211 52.6401 186.891 55.9681H205.419C205.227 52.5761 204.363 50.0161 202.827 48.2881C201.355 46.5601 199.243 45.6961 196.491 45.6961Z" fill="black"/>
<path d="M262.271 69.9841C263.551 69.9841 264.575 70.4961 265.343 71.5201C266.175 72.5441 266.591 73.8561 266.591 75.4561C266.591 76.5441 266.271 77.5681 265.631 78.5281C264.991 79.4241 264.095 80.1921 262.943 80.8321C260.767 81.9841 258.239 82.9441 255.359 83.7121C252.479 84.4161 249.823 84.7681 247.391 84.7681C242.271 84.7681 237.791 83.7761 233.951 81.7921C230.175 79.8081 227.263 76.9921 225.215 73.3441C223.167 69.6321 222.143 65.2801 222.143 60.2881C222.143 55.4881 223.135 51.2321 225.119 47.5201C227.103 43.8081 229.855 40.9281 233.375 38.8801C236.895 36.7681 240.895 35.7121 245.375 35.7121C249.663 35.7121 253.407 36.6721 256.607 38.5921C259.871 40.4481 262.399 43.1361 264.191 46.6561C265.983 50.1121 266.879 54.1761 266.879 58.8481C266.879 60.2561 266.527 61.3441 265.823 62.1121C265.183 62.8161 264.255 63.1681 263.039 63.1681H236.159C236.607 66.9441 237.759 69.6961 239.615 71.4241C241.471 73.0881 244.127 73.9201 247.583 73.9201C249.439 73.9201 251.103 73.6961 252.575 73.2481C254.047 72.8001 255.679 72.1921 257.471 71.4241C258.367 71.0401 259.231 70.7201 260.063 70.4641C260.895 70.1441 261.631 69.9841 262.271 69.9841ZM245.759 45.6961C243.007 45.6961 240.799 46.5921 239.135 48.3841C237.471 50.1121 236.479 52.6401 236.159 55.9681H254.687C254.495 52.5761 253.631 50.0161 252.095 48.2881C250.623 46.5601 248.511 45.6961 245.759 45.6961Z" fill="black"/>
<path d="M332.466 91.6801C333.362 93.0881 333.81 94.4641 333.81 95.8081C333.81 97.5361 333.074 98.9761 331.602 100.128C330.194 101.28 328.53 101.856 326.61 101.856C325.266 101.856 323.986 101.536 322.77 100.896C321.618 100.256 320.69 99.3281 319.986 98.1121L314.226 88.5121C313.458 87.2321 312.434 86.3041 311.154 85.7281C309.874 85.1521 308.146 84.8641 305.97 84.8641C299.25 84.8641 293.394 83.4561 288.402 80.6401C283.474 77.7601 279.666 73.7281 276.978 68.5441C274.29 63.2961 272.946 57.1521 272.946 50.1121C272.946 43.0721 274.29 36.9601 276.978 31.7761C279.666 26.5281 283.474 22.4961 288.402 19.6801C293.394 16.8641 299.25 15.4561 305.97 15.4561C312.69 15.4561 318.514 16.8641 323.442 19.6801C328.434 22.4961 332.274 26.5281 334.962 31.7761C337.65 36.9601 338.994 43.0721 338.994 50.1121C338.994 57.4721 337.522 63.8401 334.578 69.2161C331.698 74.5281 327.57 78.4961 322.194 81.1201C325.33 82.0801 327.858 84.1281 329.778 87.2641L332.466 91.6801ZM305.97 73.2481C311.602 73.2481 316.018 71.2641 319.218 67.2961C322.482 63.3281 324.114 57.6001 324.114 50.1121C324.114 42.6241 322.514 36.9281 319.314 33.0241C316.114 29.0561 311.666 27.0721 305.97 27.0721C300.274 27.0721 295.826 29.0561 292.626 33.0241C289.49 36.9281 287.922 42.6241 287.922 50.1121C287.922 57.6001 289.522 63.3281 292.722 67.2961C295.922 71.2641 300.338 73.2481 305.97 73.2481Z" fill="black"/>
<path d="M370.013 84.7681C365.021 84.7681 360.637 83.7761 356.861 81.7921C353.085 79.7441 350.173 76.8961 348.125 73.2481C346.077 69.5361 345.053 65.1841 345.053 60.1921C345.053 55.2001 346.077 50.8801 348.125 47.2321C350.173 43.5201 353.085 40.6721 356.861 38.6881C360.637 36.7041 365.021 35.7121 370.013 35.7121C375.005 35.7121 379.389 36.7041 383.165 38.6881C386.941 40.6721 389.853 43.5201 391.901 47.2321C393.949 50.8801 394.973 55.2001 394.973 60.1921C394.973 65.1841 393.949 69.5361 391.901 73.2481C389.853 76.8961 386.941 79.7441 383.165 81.7921C379.389 83.7761 375.005 84.7681 370.013 84.7681ZM370.013 73.7281C377.053 73.7281 380.573 69.2161 380.573 60.1921C380.573 55.6481 379.645 52.2561 377.789 50.0161C375.997 47.7761 373.405 46.6561 370.013 46.6561C362.973 46.6561 359.453 51.1681 359.453 60.1921C359.453 69.2161 362.973 73.7281 370.013 73.7281Z" fill="black"/>
<path d="M424.53 84.7681C419.538 84.7681 415.154 83.7761 411.378 81.7921C407.602 79.7441 404.69 76.8961 402.642 73.2481C400.594 69.5361 399.57 65.1841 399.57 60.1921C399.57 55.2001 400.594 50.8801 402.642 47.2321C404.69 43.5201 407.602 40.6721 411.378 38.6881C415.154 36.7041 419.538 35.7121 424.53 35.7121C429.522 35.7121 433.906 36.7041 437.682 38.6881C441.458 40.6721 444.37 43.5201 446.418 47.2321C448.466 50.8801 449.49 55.2001 449.49 60.1921C449.49 65.1841 448.466 69.5361 446.418 73.2481C444.37 76.8961 441.458 79.7441 437.682 81.7921C433.906 83.7761 429.522 84.7681 424.53 84.7681ZM424.53 73.7281C431.57 73.7281 435.09 69.2161 435.09 60.1921C435.09 55.6481 434.162 52.2561 432.306 50.0161C430.514 47.7761 427.922 46.6561 424.53 46.6561C417.49 46.6561 413.97 51.1681 413.97 60.1921C413.97 69.2161 417.49 73.7281 424.53 73.7281Z" fill="black"/>
<path d="M463.688 84.5761C461.576 84.5761 459.816 84.0001 458.408 82.8481C457.064 81.6961 456.392 80.0001 456.392 77.7601V22.6561C456.392 20.4161 457.064 18.7201 458.408 17.5681C459.816 16.4161 461.576 15.8401 463.688 15.8401C465.736 15.8401 467.432 16.4161 468.776 17.5681C470.184 18.7201 470.888 20.4161 470.888 22.6561V77.7601C470.888 80.0001 470.184 81.6961 468.776 82.8481C467.432 84.0001 465.736 84.5761 463.688 84.5761Z" fill="black"/>
<path d="M488.706 84.5761C486.402 84.5761 484.577 83.9041 483.233 82.5601C481.889 81.2161 481.217 79.3921 481.217 77.0881V23.3281C481.217 21.0881 481.826 19.3601 483.042 18.1441C484.258 16.9281 485.985 16.3201 488.225 16.3201H512.322C519.682 16.3201 525.409 18.1761 529.505 21.8881C533.601 25.6001 535.65 30.7841 535.65 37.4401C535.65 44.0961 533.601 49.2801 529.505 52.9921C525.409 56.7041 519.682 58.5601 512.322 58.5601H496.194V77.0881C496.194 79.3921 495.521 81.2161 494.177 82.5601C492.833 83.9041 491.01 84.5761 488.706 84.5761ZM510.401 47.2321C517.889 47.2321 521.634 44.0001 521.634 37.5361C521.634 31.0081 517.889 27.7441 510.401 27.7441H496.194V47.2321H510.401Z" fill="black"/>
<path d="M549.567 84.5761C547.455 84.5761 545.695 84.0001 544.287 82.8481C542.943 81.6961 542.271 80.0001 542.271 77.7601V22.6561C542.271 20.4161 542.943 18.7201 544.287 17.5681C545.695 16.4161 547.455 15.8401 549.567 15.8401C551.615 15.8401 553.311 16.4161 554.655 17.5681C556.063 18.7201 556.767 20.4161 556.767 22.6561V77.7601C556.767 80.0001 556.063 81.6961 554.655 82.8481C553.311 84.0001 551.615 84.5761 549.567 84.5761Z" fill="black"/>
<path d="M587.16 35.7121C594.072 35.7121 599.192 37.4081 602.52 40.8001C605.848 44.1281 607.512 49.2481 607.512 56.1601V77.8561C607.512 79.9681 606.904 81.6321 605.688 82.8481C604.472 84.0001 602.776 84.5761 600.6 84.5761C598.552 84.5761 596.888 83.9681 595.608 82.7521C594.392 81.4721 593.784 79.8401 593.784 77.8561V77.1841C592.824 79.5521 591.224 81.4081 588.984 82.7521C586.744 84.0961 584.12 84.7681 581.112 84.7681C577.912 84.7681 575 84.1281 572.376 82.8481C569.816 81.5681 567.768 79.7761 566.232 77.4721C564.76 75.1681 564.024 72.6081 564.024 69.7921C564.024 66.3361 564.888 63.6161 566.616 61.6321C568.408 59.6481 571.256 58.2081 575.16 57.3121C579.064 56.4161 584.408 55.9681 591.192 55.9681H593.688V54.2401C593.688 51.5521 593.08 49.6001 591.864 48.3841C590.712 47.1681 588.76 46.5601 586.008 46.5601C583.256 46.5601 579.288 47.5201 574.104 49.4401C572.632 50.1441 571.384 50.4961 570.36 50.4961C568.952 50.4961 567.832 50.0161 567 49.0561C566.168 48.0321 565.752 46.7201 565.752 45.1201C565.752 43.8401 566.04 42.7841 566.616 41.9521C567.192 41.1201 568.12 40.3521 569.4 39.6481C571.64 38.4321 574.36 37.4721 577.56 36.7681C580.824 36.0641 584.024 35.7121 587.16 35.7121ZM584.28 74.7841C587.096 74.7841 589.368 73.8561 591.096 72.0001C592.824 70.0801 593.688 67.6161 593.688 64.6081V62.9761H592.056C586.872 62.9761 583.224 63.3921 581.112 64.2241C579.064 65.0561 578.04 66.5601 578.04 68.7361C578.04 70.5281 578.616 72.0001 579.768 73.1521C580.984 74.2401 582.488 74.7841 584.28 74.7841Z" fill="black"/>
<path d="M638.222 84.7681C633.358 84.7681 629.102 83.7761 625.454 81.7921C621.806 79.8081 618.991 76.9921 617.007 73.3441C615.087 69.6961 614.126 65.4081 614.126 60.4801C614.126 55.5521 615.15 51.2321 617.198 47.5201C619.31 43.7441 622.255 40.8321 626.031 38.7841C629.807 36.7361 634.158 35.7121 639.086 35.7121C641.646 35.7121 644.206 36.0641 646.766 36.7681C649.39 37.4721 651.726 38.4641 653.774 39.7441C655.758 40.9601 656.75 42.7521 656.75 45.1201C656.75 46.7841 656.367 48.1601 655.599 49.2481C654.831 50.2721 653.806 50.7841 652.526 50.7841C651.694 50.7841 650.894 50.6561 650.126 50.4001C649.422 50.0801 648.462 49.6321 647.246 49.0561C645.902 48.3521 644.687 47.8081 643.599 47.4241C642.575 47.0401 641.391 46.8481 640.047 46.8481C636.463 46.8481 633.71 48.0001 631.79 50.3041C629.934 52.5441 629.006 55.8401 629.006 60.1921C629.006 64.5441 629.934 67.8721 631.79 70.1761C633.71 72.4801 636.463 73.6321 640.047 73.6321C641.391 73.6321 642.575 73.4721 643.599 73.1521C644.623 72.7681 645.87 72.1921 647.342 71.4241C648.558 70.8481 649.518 70.4321 650.222 70.1761C650.926 69.8561 651.694 69.6961 652.526 69.6961C653.742 69.6961 654.735 70.2401 655.503 71.3281C656.335 72.4161 656.75 73.7921 656.75 75.4561C656.75 77.8241 655.758 79.5841 653.774 80.7361C651.726 82.0161 649.358 83.0081 646.67 83.7121C643.982 84.4161 641.166 84.7681 638.222 84.7681Z" fill="black"/>
<path d="M699.772 69.9841C701.052 69.9841 702.076 70.4961 702.844 71.5201C703.676 72.5441 704.092 73.8561 704.092 75.4561C704.092 76.5441 703.772 77.5681 703.132 78.5281C702.492 79.4241 701.596 80.1921 700.444 80.8321C698.268 81.9841 695.74 82.9441 692.86 83.7121C689.98 84.4161 687.324 84.7681 684.892 84.7681C679.772 84.7681 675.292 83.7761 671.452 81.7921C667.676 79.8081 664.764 76.9921 662.716 73.3441C660.668 69.6321 659.644 65.2801 659.644 60.2881C659.644 55.4881 660.636 51.2321 662.62 47.5201C664.604 43.8081 667.356 40.9281 670.876 38.8801C674.396 36.7681 678.396 35.7121 682.876 35.7121C687.164 35.7121 690.908 36.6721 694.108 38.5921C697.372 40.4481 699.9 43.1361 701.692 46.6561C703.484 50.1121 704.38 54.1761 704.38 58.8481C704.38 60.2561 704.028 61.3441 703.324 62.1121C702.684 62.8161 701.756 63.1681 700.54 63.1681H673.66C674.108 66.9441 675.26 69.6961 677.116 71.4241C678.972 73.0881 681.628 73.9201 685.084 73.9201C686.94 73.9201 688.604 73.6961 690.076 73.2481C691.548 72.8001 693.18 72.1921 694.972 71.4241C695.868 71.0401 696.732 70.7201 697.564 70.4641C698.396 70.1441 699.132 69.9841 699.772 69.9841ZM683.26 45.6961C680.508 45.6961 678.3 46.5921 676.636 48.3841C674.972 50.1121 673.98 52.6401 673.66 55.9681H692.188C691.996 52.5761 691.132 50.0161 689.596 48.2881C688.124 46.5601 686.012 45.6961 683.26 45.6961Z" fill="black"/>
<path d="M729.072 84.7681C725.168 84.7681 721.776 84.4481 718.896 83.8081C716.016 83.1681 713.488 82.1441 711.312 80.7361C710.352 80.1601 709.616 79.3921 709.104 78.4321C708.592 77.4721 708.336 76.3841 708.336 75.1681C708.336 73.6961 708.751 72.4801 709.583 71.5201C710.415 70.4961 711.44 69.9841 712.656 69.9841C713.488 69.9841 714.32 70.1441 715.152 70.4641C715.984 70.7201 716.848 71.0401 717.744 71.4241C719.536 72.2561 721.295 72.9281 723.023 73.4401C724.751 73.8881 726.896 74.1121 729.456 74.1121C731.696 74.1121 733.424 73.7601 734.64 73.0561C735.92 72.3521 736.56 71.3921 736.56 70.1761C736.56 69.2801 736.271 68.5761 735.695 68.0641C735.183 67.4881 734.192 66.9761 732.72 66.5281C731.248 66.0801 728.912 65.5361 725.712 64.8961C720.016 63.8081 715.92 62.1761 713.424 60.0001C710.928 57.8241 709.68 54.7841 709.68 50.8801C709.68 48.0001 710.544 45.4081 712.272 43.1041C714.064 40.8001 716.496 39.0081 719.568 37.7281C722.64 36.3841 726.096 35.7121 729.936 35.7121C732.688 35.7121 735.376 36.0641 738 36.7681C740.624 37.4721 742.96 38.4641 745.008 39.7441C746.992 40.9601 747.984 42.7521 747.984 45.1201C747.984 46.6561 747.568 47.9361 746.736 48.9601C745.904 49.9841 744.88 50.4961 743.664 50.4961C742.192 50.4961 740.432 49.9201 738.384 48.7681C736.784 47.9361 735.312 47.3281 733.968 46.9441C732.688 46.4961 731.151 46.2721 729.359 46.2721C727.375 46.2721 725.808 46.6561 724.656 47.4241C723.504 48.1281 722.928 49.1201 722.928 50.4001C722.928 51.7441 723.6 52.7681 724.944 53.4721C726.288 54.1761 728.88 54.8801 732.72 55.5841C737.008 56.4161 740.367 57.4401 742.799 58.6561C745.231 59.8081 746.992 61.2801 748.08 63.0721C749.168 64.8641 749.712 67.1361 749.712 69.8881C749.712 74.4321 747.824 78.0481 744.048 80.7361C740.336 83.4241 735.344 84.7681 729.072 84.7681Z" fill="black"/>
</svg>
