<svg width="460" height="248" viewBox="0 0 460 248" fill="none" xmlns="http://www.w3.org/2000/svg">
<path d="M222.736 72.576C219.365 72.576 216.229 72.192 213.328 71.424C210.427 70.6133 208.059 69.4827 206.224 68.032C205.584 67.5627 205.115 67.072 204.816 66.56C204.56 66.0053 204.432 65.3227 204.432 64.512C204.432 63.4453 204.752 62.5067 205.392 61.696C206.075 60.8853 206.843 60.48 207.696 60.48C208.165 60.48 208.613 60.5653 209.04 60.736C209.509 60.864 210.064 61.12 210.704 61.504C212.539 62.656 214.395 63.5093 216.272 64.064C218.149 64.576 220.219 64.832 222.48 64.832C225.296 64.832 227.451 64.3627 228.944 63.424C230.437 62.4853 231.184 61.1413 231.184 59.392C231.184 58.0693 230.48 57.0027 229.072 56.192C227.707 55.3813 225.253 54.6133 221.712 53.888C217.744 53.0773 214.565 52.096 212.176 50.944C209.829 49.792 208.101 48.3627 206.992 46.656C205.925 44.9493 205.392 42.88 205.392 40.448C205.392 37.76 206.16 35.3493 207.696 33.216C209.275 31.04 211.429 29.3547 214.16 28.16C216.933 26.9227 220.048 26.304 223.504 26.304C229.563 26.304 234.555 27.8187 238.48 30.848C239.12 31.36 239.568 31.8933 239.824 32.448C240.123 32.96 240.272 33.6 240.272 34.368C240.272 35.4347 239.931 36.3733 239.248 37.184C238.608 37.9947 237.861 38.4 237.008 38.4C236.539 38.4 236.091 38.336 235.664 38.208C235.28 38.08 234.725 37.8027 234 37.376C232.251 36.2667 230.629 35.4347 229.136 34.88C227.685 34.3253 225.829 34.048 223.568 34.048C220.965 34.048 218.917 34.56 217.424 35.584C215.931 36.5653 215.184 37.9307 215.184 39.68C215.184 40.704 215.461 41.5573 216.016 42.24C216.613 42.88 217.573 43.456 218.896 43.968C220.261 44.48 222.181 45.0133 224.656 45.568C230.459 46.848 234.619 48.4907 237.136 50.496C239.696 52.5013 240.976 55.2533 240.976 58.752C240.976 61.4827 240.208 63.8933 238.672 65.984C237.179 68.0747 235.045 69.696 232.272 70.848C229.541 72 226.363 72.576 222.736 72.576ZM271.336 62.656C272.189 62.656 272.872 62.9973 273.384 63.68C273.938 64.3627 274.216 65.2373 274.216 66.304C274.216 67.0293 274.002 67.712 273.576 68.352C273.149 68.9493 272.552 69.4613 271.784 69.888C270.333 70.656 268.648 71.296 266.728 71.808C264.808 72.2773 263.037 72.512 261.416 72.512C258.002 72.512 255.016 71.8507 252.456 70.528C249.938 69.2053 247.997 67.328 246.632 64.896C245.266 62.4213 244.584 59.52 244.584 56.192C244.584 52.992 245.245 50.1547 246.568 47.68C247.89 45.2053 249.725 43.2853 252.072 41.92C254.418 40.512 257.085 39.808 260.072 39.808C262.93 39.808 265.426 40.448 267.56 41.728C269.736 42.9653 271.421 44.7573 272.616 47.104C273.81 49.408 274.408 52.1173 274.408 55.232C274.408 56.1707 274.173 56.896 273.704 57.408C273.277 57.8773 272.658 58.112 271.848 58.112H253.928C254.226 60.6293 254.994 62.464 256.232 63.616C257.469 64.7253 259.24 65.28 261.544 65.28C262.781 65.28 263.89 65.1307 264.872 64.832C265.853 64.5333 266.941 64.128 268.136 63.616C268.733 63.36 269.309 63.1467 269.864 62.976C270.418 62.7627 270.909 62.656 271.336 62.656ZM260.328 46.464C258.493 46.464 257.021 47.0613 255.912 48.256C254.802 49.408 254.141 51.0933 253.928 53.312H266.28C266.152 51.0507 265.576 49.344 264.552 48.192C263.57 47.04 262.162 46.464 260.328 46.464ZM304.181 62.656C305.034 62.656 305.717 62.9973 306.229 63.68C306.783 64.3627 307.061 65.2373 307.061 66.304C307.061 67.0293 306.847 67.712 306.421 68.352C305.994 68.9493 305.397 69.4613 304.629 69.888C303.178 70.656 301.493 71.296 299.573 71.808C297.653 72.2773 295.882 72.512 294.261 72.512C290.847 72.512 287.861 71.8507 285.301 70.528C282.783 69.2053 280.842 67.328 279.477 64.896C278.111 62.4213 277.429 59.52 277.429 56.192C277.429 52.992 278.09 50.1547 279.413 47.68C280.735 45.2053 282.57 43.2853 284.917 41.92C287.263 40.512 289.93 39.808 292.917 39.808C295.775 39.808 298.271 40.448 300.405 41.728C302.581 42.9653 304.266 44.7573 305.461 47.104C306.655 49.408 307.253 52.1173 307.253 55.232C307.253 56.1707 307.018 56.896 306.549 57.408C306.122 57.8773 305.503 58.112 304.693 58.112H286.773C287.071 60.6293 287.839 62.464 289.077 63.616C290.314 64.7253 292.085 65.28 294.389 65.28C295.626 65.28 296.735 65.1307 297.717 64.832C298.698 64.5333 299.786 64.128 300.981 63.616C301.578 63.36 302.154 63.1467 302.709 62.976C303.263 62.7627 303.754 62.656 304.181 62.656ZM293.173 46.464C291.338 46.464 289.866 47.0613 288.757 48.256C287.647 49.408 286.986 51.0933 286.773 53.312H299.125C298.997 51.0507 298.421 49.344 297.397 48.192C296.415 47.04 295.007 46.464 293.173 46.464ZM244.88 150.12C245.477 151.059 245.776 151.976 245.776 152.872C245.776 154.024 245.285 154.984 244.304 155.752C243.365 156.52 242.256 156.904 240.976 156.904C240.08 156.904 239.227 156.691 238.416 156.264C237.648 155.837 237.029 155.219 236.56 154.408L232.72 148.008C232.208 147.155 231.525 146.536 230.672 146.152C229.819 145.768 228.667 145.576 227.216 145.576C222.736 145.576 218.832 144.637 215.504 142.76C212.219 140.84 209.68 138.152 207.888 134.696C206.096 131.197 205.2 127.101 205.2 122.408C205.2 117.715 206.096 113.64 207.888 110.184C209.68 106.685 212.219 103.997 215.504 102.12C218.832 100.243 222.736 99.304 227.216 99.304C231.696 99.304 235.579 100.243 238.864 102.12C242.192 103.997 244.752 106.685 246.544 110.184C248.336 113.64 249.232 117.715 249.232 122.408C249.232 127.315 248.251 131.56 246.288 135.144C244.368 138.685 241.616 141.331 238.032 143.08C240.123 143.72 241.808 145.085 243.088 147.176L244.88 150.12ZM227.216 137.832C230.971 137.832 233.915 136.509 236.048 133.864C238.224 131.219 239.312 127.4 239.312 122.408C239.312 117.416 238.245 113.619 236.112 111.016C233.979 108.371 231.013 107.048 227.216 107.048C223.419 107.048 220.453 108.371 218.32 111.016C216.229 113.619 215.184 117.416 215.184 122.408C215.184 127.4 216.251 131.219 218.384 133.864C220.517 136.509 223.461 137.832 227.216 137.832ZM269.911 145.512C266.583 145.512 263.66 144.851 261.143 143.528C258.626 142.163 256.684 140.264 255.319 137.832C253.954 135.357 253.271 132.456 253.271 129.128C253.271 125.8 253.954 122.92 255.319 120.488C256.684 118.013 258.626 116.115 261.143 114.792C263.66 113.469 266.583 112.808 269.911 112.808C273.239 112.808 276.162 113.469 278.679 114.792C281.196 116.115 283.138 118.013 284.503 120.488C285.868 122.92 286.551 125.8 286.551 129.128C286.551 132.456 285.868 135.357 284.503 137.832C283.138 140.264 281.196 142.163 278.679 143.528C276.162 144.851 273.239 145.512 269.911 145.512ZM269.911 138.152C274.604 138.152 276.951 135.144 276.951 129.128C276.951 126.099 276.332 123.837 275.095 122.344C273.9 120.851 272.172 120.104 269.911 120.104C265.218 120.104 262.871 123.112 262.871 129.128C262.871 135.144 265.218 138.152 269.911 138.152ZM306.256 145.512C302.928 145.512 300.005 144.851 297.488 143.528C294.971 142.163 293.029 140.264 291.664 137.832C290.299 135.357 289.616 132.456 289.616 129.128C289.616 125.8 290.299 122.92 291.664 120.488C293.029 118.013 294.971 116.115 297.488 114.792C300.005 113.469 302.928 112.808 306.256 112.808C309.584 112.808 312.507 113.469 315.024 114.792C317.541 116.115 319.483 118.013 320.848 120.488C322.213 122.92 322.896 125.8 322.896 129.128C322.896 132.456 322.213 135.357 320.848 137.832C319.483 140.264 317.541 142.163 315.024 143.528C312.507 144.851 309.584 145.512 306.256 145.512ZM306.256 138.152C310.949 138.152 313.296 135.144 313.296 129.128C313.296 126.099 312.677 123.837 311.44 122.344C310.245 120.851 308.517 120.104 306.256 120.104C301.563 120.104 299.216 123.112 299.216 129.128C299.216 135.144 301.563 138.152 306.256 138.152ZM332.361 145.384C330.953 145.384 329.78 145 328.841 144.232C327.945 143.464 327.497 142.333 327.497 140.84V104.104C327.497 102.611 327.945 101.48 328.841 100.712C329.78 99.944 330.953 99.56 332.361 99.56C333.726 99.56 334.857 99.944 335.753 100.712C336.692 101.48 337.161 102.611 337.161 104.104V140.84C337.161 142.333 336.692 143.464 335.753 144.232C334.857 145 333.726 145.384 332.361 145.384ZM211.472 218.384C209.936 218.384 208.72 217.936 207.824 217.04C206.928 216.144 206.48 214.928 206.48 213.392V177.552C206.48 176.059 206.885 174.907 207.696 174.096C208.507 173.285 209.659 172.88 211.152 172.88H227.216C232.123 172.88 235.941 174.117 238.672 176.592C241.403 179.067 242.768 182.523 242.768 186.96C242.768 191.397 241.403 194.853 238.672 197.328C235.941 199.803 232.123 201.04 227.216 201.04H216.464V213.392C216.464 214.928 216.016 216.144 215.12 217.04C214.224 217.936 213.008 218.384 211.472 218.384ZM225.936 193.488C230.928 193.488 233.424 191.333 233.424 187.024C233.424 182.672 230.928 180.496 225.936 180.496H216.464V193.488H225.936ZM252.046 218.384C250.638 218.384 249.465 218 248.526 217.232C247.63 216.464 247.182 215.333 247.182 213.84V177.104C247.182 175.611 247.63 174.48 248.526 173.712C249.465 172.944 250.638 172.56 252.046 172.56C253.411 172.56 254.542 172.944 255.438 173.712C256.377 174.48 256.846 175.611 256.846 177.104V213.84C256.846 215.333 256.377 216.464 255.438 217.232C254.542 218 253.411 218.384 252.046 218.384ZM277.108 185.808C281.716 185.808 285.13 186.939 287.348 189.2C289.567 191.419 290.677 194.832 290.677 199.44V213.904C290.677 215.312 290.271 216.421 289.461 217.232C288.65 218 287.519 218.384 286.069 218.384C284.703 218.384 283.594 217.979 282.74 217.168C281.93 216.315 281.524 215.227 281.524 213.904V213.456C280.884 215.035 279.818 216.272 278.324 217.168C276.831 218.064 275.082 218.512 273.076 218.512C270.943 218.512 269.002 218.085 267.252 217.232C265.546 216.379 264.18 215.184 263.156 213.648C262.175 212.112 261.684 210.405 261.684 208.528C261.684 206.224 262.26 204.411 263.412 203.088C264.607 201.765 266.506 200.805 269.108 200.208C271.711 199.611 275.274 199.312 279.796 199.312H281.46V198.16C281.46 196.368 281.055 195.067 280.244 194.256C279.476 193.445 278.175 193.04 276.34 193.04C274.506 193.04 271.86 193.68 268.404 194.96C267.423 195.429 266.591 195.664 265.908 195.664C264.97 195.664 264.223 195.344 263.668 194.704C263.114 194.021 262.836 193.147 262.836 192.08C262.836 191.227 263.028 190.523 263.412 189.968C263.796 189.413 264.415 188.901 265.268 188.432C266.762 187.621 268.575 186.981 270.708 186.512C272.884 186.043 275.018 185.808 277.108 185.808ZM275.188 211.856C277.066 211.856 278.58 211.237 279.733 210C280.884 208.72 281.46 207.077 281.46 205.072V203.984H280.372C276.916 203.984 274.484 204.261 273.076 204.816C271.711 205.371 271.028 206.373 271.028 207.824C271.028 209.019 271.412 210 272.18 210.768C272.991 211.493 273.994 211.856 275.188 211.856ZM311.15 218.512C307.907 218.512 305.07 217.851 302.638 216.528C300.206 215.205 298.329 213.328 297.006 210.896C295.726 208.464 295.086 205.605 295.086 202.32C295.086 199.035 295.769 196.155 297.134 193.68C298.542 191.163 300.505 189.221 303.022 187.856C305.539 186.491 308.441 185.808 311.726 185.808C313.433 185.808 315.139 186.043 316.846 186.512C318.595 186.981 320.153 187.643 321.518 188.496C322.841 189.307 323.502 190.501 323.502 192.08C323.502 193.189 323.246 194.107 322.734 194.832C322.222 195.515 321.539 195.856 320.686 195.856C320.131 195.856 319.598 195.771 319.086 195.6C318.617 195.387 317.977 195.088 317.166 194.704C316.27 194.235 315.459 193.872 314.734 193.616C314.051 193.36 313.262 193.232 312.366 193.232C309.977 193.232 308.142 194 306.862 195.536C305.625 197.029 305.006 199.227 305.006 202.128C305.006 205.029 305.625 207.248 306.862 208.784C308.142 210.32 309.977 211.088 312.366 211.088C313.262 211.088 314.051 210.981 314.734 210.768C315.417 210.512 316.249 210.128 317.23 209.616C318.041 209.232 318.681 208.955 319.15 208.784C319.619 208.571 320.131 208.464 320.686 208.464C321.497 208.464 322.158 208.827 322.67 209.552C323.225 210.277 323.502 211.195 323.502 212.304C323.502 213.883 322.841 215.056 321.518 215.824C320.153 216.677 318.574 217.339 316.782 217.808C314.99 218.277 313.113 218.512 311.15 218.512ZM352.183 208.656C353.036 208.656 353.719 208.997 354.231 209.68C354.786 210.363 355.063 211.237 355.063 212.304C355.063 213.029 354.85 213.712 354.423 214.352C353.996 214.949 353.399 215.461 352.631 215.888C351.18 216.656 349.495 217.296 347.575 217.808C345.655 218.277 343.884 218.512 342.263 218.512C338.85 218.512 335.863 217.851 333.303 216.528C330.786 215.205 328.844 213.328 327.479 210.896C326.114 208.421 325.431 205.52 325.431 202.192C325.431 198.992 326.092 196.155 327.415 193.68C328.738 191.205 330.572 189.285 332.919 187.92C335.266 186.512 337.932 185.808 340.919 185.808C343.778 185.808 346.274 186.448 348.407 187.728C350.583 188.965 352.268 190.757 353.463 193.104C354.658 195.408 355.255 198.117 355.255 201.232C355.255 202.171 355.02 202.896 354.551 203.408C354.124 203.877 353.506 204.112 352.695 204.112H334.775C335.074 206.629 335.842 208.464 337.079 209.616C338.316 210.725 340.087 211.28 342.391 211.28C343.628 211.28 344.738 211.131 345.719 210.832C346.7 210.533 347.788 210.128 348.983 209.616C349.58 209.36 350.156 209.147 350.711 208.976C351.266 208.763 351.756 208.656 352.183 208.656ZM341.175 192.464C339.34 192.464 337.868 193.061 336.759 194.256C335.65 195.408 334.988 197.093 334.775 199.312H347.127C346.999 197.051 346.423 195.344 345.399 194.192C344.418 193.04 343.01 192.464 341.175 192.464ZM371.716 218.512C369.113 218.512 366.852 218.299 364.932 217.872C363.012 217.445 361.327 216.763 359.876 215.824C359.236 215.44 358.745 214.928 358.404 214.288C358.063 213.648 357.892 212.923 357.892 212.112C357.892 211.131 358.169 210.32 358.724 209.68C359.279 208.997 359.961 208.656 360.772 208.656C361.327 208.656 361.881 208.763 362.436 208.976C362.991 209.147 363.567 209.36 364.164 209.616C365.359 210.171 366.532 210.619 367.684 210.96C368.836 211.259 370.265 211.408 371.972 211.408C373.465 211.408 374.617 211.173 375.428 210.704C376.281 210.235 376.708 209.595 376.708 208.784C376.708 208.187 376.516 207.717 376.132 207.376C375.791 206.992 375.129 206.651 374.148 206.352C373.167 206.053 371.609 205.691 369.476 205.264C365.679 204.539 362.948 203.451 361.284 202C359.62 200.549 358.788 198.523 358.788 195.92C358.788 194 359.364 192.272 360.516 190.736C361.711 189.2 363.332 188.005 365.38 187.152C367.428 186.256 369.732 185.808 372.292 185.808C374.127 185.808 375.919 186.043 377.668 186.512C379.417 186.981 380.975 187.643 382.34 188.496C383.663 189.307 384.324 190.501 384.324 192.08C384.324 193.104 384.047 193.957 383.492 194.64C382.937 195.323 382.255 195.664 381.444 195.664C380.463 195.664 379.289 195.28 377.924 194.512C376.857 193.957 375.876 193.552 374.98 193.296C374.127 192.997 373.103 192.848 371.908 192.848C370.585 192.848 369.54 193.104 368.772 193.616C368.004 194.085 367.62 194.747 367.62 195.6C367.62 196.496 368.068 197.179 368.964 197.648C369.86 198.117 371.588 198.587 374.148 199.056C377.007 199.611 379.247 200.293 380.868 201.104C382.489 201.872 383.663 202.853 384.388 204.048C385.113 205.243 385.476 206.757 385.476 208.592C385.476 211.621 384.217 214.032 381.7 215.824C379.225 217.616 375.897 218.512 371.716 218.512ZM394.015 218.384C392.436 218.384 391.135 217.872 390.111 216.848C389.087 215.781 388.575 214.459 388.575 212.88C388.575 211.301 389.087 210 390.111 208.976C391.135 207.909 392.436 207.376 394.015 207.376C395.594 207.376 396.895 207.909 397.919 208.976C398.943 210 399.455 211.301 399.455 212.88C399.455 214.459 398.943 215.781 397.919 216.848C396.895 217.872 395.594 218.384 394.015 218.384Z" fill="black"/>
<path d="M72.136 194.113C72.136 194.113 68.9414 185.113 60.4814 177.381C60.4814 177.381 84.0658 166.617 106.466 177.106C106.466 177.106 97.7906 185.801 94.9365 194.113C94.9365 194.113 93.6798 192.508 83.4739 192.413C83.4739 192.413 74.9153 191.941 72.136 194.113Z" fill="#010930"/>
<path d="M65.446 180.04C65.446 180.04 86.8681 173.491 104.113 179.981C104.506 179.565 106.466 177.107 106.466 177.107C84.0658 166.617 60.4814 177.381 60.4814 177.381C65.0321 181.54 68.0573 186.064 69.8833 189.359C68.8798 186.063 66.1845 182.936 65.446 180.04Z" fill="#02125E"/>
<path d="M103.562 175.867C102.326 178.059 100.698 180.042 98.725 181.861C95.528 184.807 92.1789 187.455 87.7162 188.697C82.6379 190.11 77.5789 189.714 72.3631 189.657C71.5839 189.648 70.8143 189.654 70.0481 189.659C71.4994 192.324 72.1359 194.113 72.1359 194.113C74.9152 191.941 83.4738 192.413 83.4738 192.413C93.6797 192.508 94.9364 194.113 94.9364 194.113C97.7905 185.801 106.466 177.106 106.466 177.106C105.5 176.654 104.531 176.244 103.562 175.867Z" fill="#040925"/>
<path d="M104.441 179.282C104.441 179.282 152.217 128.275 159.405 112.407C159.405 112.407 173.357 89.3591 164.056 69.7122C164.056 69.7122 161.942 45.1536 145.452 39.1082C145.452 39.1082 134.459 26.6399 117.97 23.2395C117.97 23.2395 109.514 16.061 95.1386 17.95C95.1386 17.95 83.723 11.2716 73.1528 18.0116C73.1528 18.0116 59.2003 13.4164 46.5161 23.6176C46.5161 23.6176 27.9129 25.5067 19.034 40.2418C19.034 40.2418 0.43074 48.1759 2.12198 73.8685C2.12198 73.8685 -12.2534 94.6486 33.8321 147.167L62.1598 179.282C62.1598 179.282 84.1458 170.214 104.441 179.282Z" fill="#FEF8EA"/>
<path d="M104.441 179.282C104.441 179.282 152.217 128.275 159.405 112.407C159.405 112.407 173.357 89.3591 164.056 69.7122C164.056 69.7122 161.942 45.1536 145.452 39.1082C145.452 39.1082 134.459 26.6399 117.97 23.2395C117.97 23.2395 109.514 16.061 95.1386 17.95C95.1386 17.95 83.723 11.2716 73.1528 18.0116C73.1528 18.0116 59.2003 13.4164 46.5161 23.6176C46.5161 23.6176 27.9129 25.5067 19.034 40.2418C19.034 40.2418 0.43074 48.1759 2.12198 73.8685C2.12198 73.8685 -12.2534 94.6486 33.8321 147.167L62.1598 179.282C62.1598 179.282 84.1458 170.214 104.441 179.282Z" fill="#FEF8EA"/>
<path d="M104.441 179.282C104.441 179.282 152.217 128.275 159.405 112.407C159.405 112.407 173.357 89.3591 164.056 69.7122C164.056 69.7122 161.942 45.1536 145.452 39.1082C145.452 39.1082 134.459 26.6399 117.97 23.2395C117.97 23.2395 109.514 16.061 95.1386 17.95C95.1386 17.95 83.723 11.2716 73.1528 18.0116C73.1528 18.0116 59.2003 13.4164 46.5161 23.6176C46.5161 23.6176 27.9129 25.5067 19.034 40.2418C19.034 40.2418 0.43074 48.1759 2.12198 73.8685C2.12198 73.8685 -12.2534 94.6486 33.8321 147.167L62.1598 179.282C62.1598 179.282 84.1458 170.214 104.441 179.282Z" fill="#FEF8EA"/>
<path d="M104.441 179.282C104.441 179.282 152.217 128.275 159.405 112.407C159.405 112.407 173.357 89.3591 164.056 69.7122C164.056 69.7122 161.942 45.1536 145.452 39.1082C145.452 39.1082 134.459 26.6399 117.97 23.2395C117.97 23.2395 109.514 16.061 95.1386 17.95C95.1386 17.95 83.723 11.2716 73.1528 18.0116C73.1528 18.0116 59.2003 13.4164 46.5161 23.6176C46.5161 23.6176 27.9129 25.5067 19.034 40.2418C19.034 40.2418 0.43074 48.1759 2.12198 73.8685C2.12198 73.8685 -12.2534 94.6486 33.8321 147.167L62.1598 179.282C62.1598 179.282 84.1458 170.214 104.441 179.282Z" fill="#FEF8EA"/>
<path d="M161.604 82.9397C148.655 114.458 131.518 137.853 123.328 135.195C115.137 132.537 118.994 104.831 131.943 73.3133C137.025 60.9423 142.753 49.8241 148.332 41.0401C147.425 40.5419 146.467 40.1025 145.455 39.7335C145.455 39.7335 134.462 27.3321 117.972 23.95C117.972 23.95 116.539 22.7422 113.856 21.4512C114.818 31.8938 114.646 44.9214 113.11 58.959C109.453 92.3549 103.756 118.623 93.097 117.641C83.6541 116.772 84.8723 53.6407 83.6264 38.6064C81.438 52.9288 77.7178 116.73 66.1854 117.524C57.4919 118.122 52.3135 90.6235 51.0578 57.089C50.5431 43.3456 51.2557 30.6357 52.8752 20.4001C50.7672 21.3621 48.6244 22.6399 46.5168 24.326C46.5168 24.326 27.9132 26.205 19.0341 40.861C19.0341 40.861 17.6562 41.4469 15.6861 42.8114C21.4029 51.0641 27.3193 61.2958 32.7334 72.6514C47.4631 103.545 52.8953 131.042 44.8667 134.065C36.8382 137.089 18.3891 114.496 3.6597 83.6016C2.67256 81.5313 1.72881 79.4769 0.826447 77.4434C-1.2784 84.9644 -2.08722 106.5 33.8325 147.212L62.1608 179.155C62.1608 179.155 84.1473 170.136 104.443 179.155C104.443 179.155 152.22 128.422 159.408 112.639C159.408 112.639 171.929 92.0619 165.335 73.2801C164.191 76.4432 162.947 79.6704 161.604 82.9397" fill="#F2ECDE"/>
<path d="M82.6157 55.6201C82.5473 53.7826 82.4572 51.9661 82.3493 50.1713C82.108 51.9928 81.884 53.8378 81.6804 55.7062C80.1987 69.3135 79.9865 81.9764 80.8353 92.2765C82.4289 82.0259 83.1264 69.3338 82.6157 55.6201" fill="#981269"/>
<path d="M45.7751 23.7178C42.2355 24.2488 26.8594 27.2569 19.0341 40.2435C19.0341 40.2435 18.7264 40.3751 18.1965 40.6568C19.1366 57.5464 28.5541 94.981 68.3996 177.322C69.5239 177.036 70.7758 176.748 72.1358 176.482C48.2562 72.4011 44.9412 36.2263 45.7751 23.7178" fill="#020D4A"/>
<path d="M164.056 69.7142C164.056 69.7142 164.026 69.3592 163.944 68.7296C161.838 85.6622 151.721 127.584 103.809 179.01C104.02 179.101 104.231 179.19 104.442 179.284C104.442 179.284 152.218 128.277 159.405 112.409C159.405 112.409 173.358 89.3611 164.056 69.7142Z" fill="#FAB1B5"/>
<path d="M33.8325 147.167L62.1601 179.282C62.1601 179.282 63.6411 178.672 66.1846 177.927C21.9692 121.81 6.56118 91.1045 1.5408 74.9871C-0.622511 79.9212 -6.16074 101.591 33.8325 147.167" fill="#90A3E8"/>
<path d="M145.777 39.2361C145.668 39.1942 145.562 39.15 145.453 39.1098C145.453 39.1098 134.459 26.6415 117.97 23.2411C117.97 23.2411 117.801 23.0988 117.481 22.8651C118.015 36.5723 114.703 73.9821 90.9883 175.636C93.4233 175.927 95.9115 176.401 98.4091 177.106C143.436 92.0184 147.254 53.9912 145.777 39.2361Z" fill="#FAC303"/>
<path d="M94.5514 17.64C92.0978 16.4043 82.3111 12.1741 73.1534 18.0134C73.1534 18.0134 72.8362 17.9092 72.2576 17.7673C70.1331 31.349 69.1265 69.9335 75.8947 175.856C78.3475 175.517 81.0302 175.285 83.8634 175.257C93.7379 69.9527 94.7137 30.8628 94.5514 17.64" fill="#E23600"/>
<path d="M94.9371 195.955V194.113C94.9371 193.096 89.8183 192.271 83.5039 192.271C77.1893 192.271 72.0706 193.096 72.0706 194.113V195.955H94.9371" fill="#020D4A"/>
<path d="M83.5039 193.405C77.1893 193.405 72.0706 194.23 72.0706 195.247V195.955H94.9371V195.247C94.9371 194.23 89.8183 193.405 83.5039 193.405Z" fill="#FF5D0D"/>
<path d="M94.9371 195.954C94.9371 196.972 89.8183 197.796 83.5039 197.796C77.1893 197.796 72.0706 196.972 72.0706 195.954C72.0706 194.937 77.1893 194.112 83.5039 194.112C89.8183 194.112 94.9371 194.937 94.9371 195.954Z" fill="#010930"/>
<path d="M94.3335 195.364C92.8057 196.092 88.5361 196.615 83.5039 196.615C78.4718 196.615 74.2019 196.092 72.674 195.364C72.2847 195.549 72.0706 195.748 72.0706 195.954C72.0706 196.972 77.1893 197.796 83.5039 197.796C89.8183 197.796 94.9371 196.972 94.9371 195.954C94.9371 195.748 94.7228 195.549 94.3335 195.364Z" fill="#DD4901"/>
<path d="M102.651 184.856C102.507 184.856 102.385 184.817 102.294 184.777L102.207 184.772C102.103 184.745 101.959 184.677 101.864 184.503C101.608 184.036 101.872 182.922 102.223 181.872C101.173 183.39 100.21 184.226 99.3497 184.363C98.88 184.439 98.4469 184.312 98.0636 183.985C97.2266 183.272 97.1553 181.75 97.2974 180.396C96.6391 181.733 95.657 183.112 94.3878 183.619C93.6165 183.928 92.8164 183.885 92.0102 183.494C90.6435 182.83 90.0799 180.585 90.0673 178.711C89.4314 180.348 88.4379 182.208 86.967 182.228H86.9398C85.169 182.228 84.227 179.843 83.7692 178.051C83.5878 179.274 83.119 180.598 82.1888 181.357C81.5606 181.869 80.7995 182.06 79.9257 181.926C77.5837 181.565 76.5295 179.007 75.9631 177.632C75.9423 177.582 75.921 177.53 75.8999 177.479C75.91 177.63 75.9219 177.791 75.9337 177.946C76.0677 179.722 76.1341 181.11 75.6825 181.482C75.3162 181.785 74.8945 181.855 74.4624 181.686C73.8086 181.431 73.2108 180.651 72.7594 179.811C72.8372 180.543 72.7888 181.217 72.3916 181.586C72.1484 181.812 71.8048 181.898 71.3699 181.843C70.3516 181.712 69.4279 180.687 68.7839 179.776C69.084 180.933 69.1729 182.105 68.7634 182.616C68.6284 182.784 68.4438 182.873 68.2292 182.873C67.7815 182.873 67.3202 182.178 66.9225 181.325C66.9643 182.193 66.8485 183.103 66.3612 183.771C65.8245 184.508 64.861 184.926 63.9606 184.808C63.2351 184.715 62.6922 184.282 62.4712 183.62C62.2526 182.966 62.3062 182.285 62.3583 181.628C62.4034 181.058 62.446 180.52 62.3258 180C62.3024 179.898 62.3757 179.798 62.49 179.777C62.6054 179.756 62.7166 179.822 62.7401 179.924C62.8717 180.495 62.8251 181.085 62.78 181.655C62.7284 182.307 62.6796 182.924 62.8763 183.512C63.0505 184.034 63.4574 184.362 64.0211 184.434C64.7484 184.528 65.5651 184.171 66.007 183.565C66.8749 182.374 66.4024 180.209 66.1311 179.254C66.0737 179.076 66.0229 178.913 65.9803 178.772C65.95 178.673 66.014 178.571 66.1239 178.541C66.2337 178.513 66.35 178.567 66.3853 178.664C66.3968 178.696 66.4669 178.892 66.5532 179.196C67.1562 181.031 67.8902 182.495 68.2292 182.495C68.2808 182.495 68.3492 182.484 68.4198 182.396C68.7471 181.988 68.6903 180.525 68.0288 178.783C67.803 178.188 67.7842 178.139 67.9771 178.066C68.1667 177.995 68.2315 178.107 68.3899 178.381C69.5089 180.314 70.532 181.353 71.4301 181.469C71.7272 181.508 71.941 181.46 72.0867 181.324C72.5954 180.851 72.2916 179.392 72.0908 178.427C71.9977 177.979 71.9242 177.626 71.9242 177.395C71.9242 177.291 72.0189 177.206 72.1356 177.206C72.2526 177.206 72.3471 177.291 72.3471 177.395C72.3471 177.429 72.3491 177.468 72.3533 177.511C72.4452 178.431 73.533 180.911 74.632 181.34C74.9088 181.449 75.1522 181.406 75.3956 181.205C75.7346 180.925 75.5844 178.93 75.5119 177.971C75.4213 176.767 75.4071 176.582 75.6778 176.55C75.955 176.518 76.0644 176.785 76.3596 177.501C76.8968 178.804 77.8959 181.23 79.9977 181.553C80.7358 181.667 81.3768 181.507 81.9038 181.078C83.2215 180.003 83.5304 177.56 83.4158 176.274C83.4066 176.171 83.4906 176.081 83.6049 176.071C83.7198 176.062 83.8219 176.133 83.8361 176.235C83.9177 176.811 84.6971 181.851 86.9398 181.851L86.9603 181.851C88.6462 181.827 89.7439 178.465 90.2124 177.029C90.2565 176.894 90.2954 176.774 90.3296 176.674C90.3635 176.574 90.4814 176.518 90.5931 176.548C90.705 176.578 90.7681 176.684 90.7343 176.784C90.1769 178.425 90.5005 182.33 92.2122 183.161C92.906 183.499 93.5618 183.536 94.2152 183.274C96.179 182.49 97.4116 179.288 97.7237 178.113L97.7253 178.107C97.752 178.005 97.8654 177.943 97.9796 177.967C98.0931 177.99 98.1635 178.092 98.1369 178.194C97.6063 180.201 97.3452 182.851 98.3558 183.711C98.6396 183.954 98.9393 184.045 99.2752 183.991C99.9965 183.876 101.242 183.033 103.083 179.672L103.121 179.604C103.17 179.512 103.291 179.473 103.396 179.515C103.5 179.556 103.549 179.664 103.506 179.758C102.846 181.214 101.919 183.745 102.243 184.337L102.244 184.338C102.286 184.341 102.335 184.356 102.391 184.389C102.506 184.459 102.634 184.513 102.791 184.448C103.078 184.328 103.792 183.658 104.23 180.02C104.242 179.916 104.344 179.839 104.462 179.852C104.579 179.863 104.663 179.956 104.65 180.06C104.307 182.916 103.757 184.463 102.97 184.79C102.856 184.838 102.748 184.856 102.651 184.856" fill="#FFFFFE"/>
<path d="M104.44 180.039C104.331 180.039 104.22 180.02 104.113 179.98C81.9247 171.657 62.7249 179.878 62.5333 179.961C62.1154 180.146 61.6076 179.992 61.4016 179.617C61.1954 179.243 61.3675 178.79 61.7864 178.606C61.984 178.518 81.8446 169.989 104.768 178.587C105.199 178.748 105.401 179.191 105.22 179.576C105.084 179.865 104.771 180.039 104.44 180.039" fill="#DD4901"/>
<path d="M61.7865 178.606L61.7432 178.63C61.9786 178.741 62.2732 178.756 62.5335 178.65C62.725 178.572 81.9248 170.921 104.113 178.667C104.22 178.704 104.331 178.722 104.44 178.722C104.586 178.722 104.726 178.686 104.852 178.627L104.768 178.587C81.8447 169.989 61.9842 178.518 61.7865 178.606" fill="#FF5D0D"/>
<path d="M84.3678 214.047C84.5137 212.598 84.6596 211.149 84.8055 209.699C84.8341 209.414 84.8632 209.128 84.9437 208.851C84.9437 208.837 86.6808 208.762 86.8394 208.754C87.0062 208.745 87.0421 208.733 87.1062 208.872C87.162 208.994 87.2063 209.119 87.2422 209.247C87.3147 209.503 87.3526 209.767 87.3826 210.03C87.5538 211.532 87.4768 213.047 87.3768 214.554C87.3593 214.817 87.3338 215.098 87.1514 215.305C87.0317 215.44 86.8221 215.532 86.6429 215.468C86.4489 215.398 86.3783 215.188 86.3448 215.003C86.2321 214.383 86.2646 213.749 86.2466 213.121C86.2236 212.317 86.1176 211.517 86.0116 210.718C85.8052 211.909 85.6313 213.105 85.4899 214.303C85.4505 214.638 85.4039 214.995 85.164 215.255C85.0389 215.39 84.8289 215.494 84.6484 215.424C84.5278 215.377 84.4548 215.266 84.4102 215.156C84.2893 214.856 84.3195 214.527 84.3515 214.21C84.3569 214.156 84.3624 214.101 84.3678 214.047" fill="#262628"/>
<path d="M86.559 215.406C86.5577 215.407 86.5565 215.408 86.5552 215.411C86.5438 215.433 86.564 215.464 86.5682 215.486C86.5748 215.522 86.5751 215.559 86.572 215.595C86.571 215.607 86.5688 215.622 86.5861 215.625C86.733 215.652 86.8888 215.645 87.031 215.604C87.0612 215.595 87.0593 215.56 87.0586 215.538C87.0575 215.51 87.0557 215.482 87.0582 215.454C87.0597 215.435 87.0617 215.404 87.036 215.396C87.023 215.392 86.9838 215.403 86.9688 215.405C86.9233 215.408 86.8775 215.408 86.8319 215.407C86.777 215.405 86.7223 215.401 86.6673 215.401C86.6392 215.4 86.611 215.4 86.5829 215.402C86.5711 215.402 86.5641 215.401 86.559 215.406" fill="#565A5B"/>
<path d="M87.0354 215.586C87.0425 215.589 87.0493 215.592 87.0554 215.596C87.07 215.607 87.0779 215.623 87.0855 215.639C87.1124 215.694 87.1307 215.745 87.1689 215.796C87.2259 215.873 87.2973 215.963 87.3835 216.015C87.4162 216.034 87.4527 216.049 87.4836 216.071C87.5145 216.093 87.5401 216.125 87.5382 216.16C87.5376 216.17 87.5343 216.181 87.5264 216.189C87.5186 216.197 87.5075 216.201 87.4968 216.205C87.3992 216.24 87.2905 216.263 87.1895 216.237C87.1124 216.217 87.0399 216.174 86.9724 216.137C86.8591 216.074 86.7594 215.989 86.641 215.935C86.6108 215.921 86.5785 215.909 86.5535 215.889C86.5093 215.853 86.4959 215.794 86.5043 215.741C86.5107 215.701 86.528 215.642 86.5569 215.61C86.5785 215.586 86.6243 215.598 86.6524 215.602C86.6916 215.609 86.7285 215.606 86.7686 215.605C86.8262 215.602 86.8841 215.599 86.9407 215.589C86.9719 215.584 87.007 215.577 87.0354 215.586" fill="#F8A018"/>
<path d="M84.6834 215.365C84.633 215.359 84.5845 215.348 84.5349 215.34C84.5255 215.338 84.5148 215.338 84.5076 215.344C84.4893 215.358 84.4935 215.382 84.4921 215.401C84.4866 215.477 84.4564 215.55 84.4546 215.626C84.4545 215.63 84.4546 215.634 84.4572 215.637C84.4598 215.64 84.4643 215.641 84.4685 215.642C84.5475 215.661 84.6277 215.676 84.7085 215.688C84.7671 215.696 84.8265 215.702 84.8856 215.699C84.9047 215.697 84.9255 215.694 84.9379 215.682C84.9494 215.67 84.9503 215.653 84.9512 215.637C84.9542 215.583 84.9727 215.53 84.9952 215.48C85.0045 215.459 85.0532 215.385 85.0122 215.369C84.9874 215.36 84.9552 215.372 84.9298 215.374C84.8916 215.376 84.8518 215.376 84.8135 215.375C84.77 215.373 84.7265 215.37 84.6834 215.365Z" fill="#565A5B"/>
<path d="M84.4725 215.59C84.4651 215.592 84.4582 215.595 84.4517 215.599C84.4362 215.608 84.4268 215.624 84.4178 215.639C84.3861 215.692 84.3632 215.742 84.3208 215.79C84.257 215.862 84.1777 215.947 84.0872 215.993C84.0529 216.01 84.0151 216.021 83.9824 216.041C83.9497 216.061 83.9214 216.091 83.92 216.126C83.9196 216.137 83.922 216.148 83.9292 216.156C83.9362 216.165 83.9469 216.17 83.9573 216.174C84.0513 216.216 84.1578 216.246 84.2608 216.228C84.3393 216.214 84.4154 216.176 84.4862 216.143C84.6046 216.089 84.7115 216.011 84.8345 215.965C84.8659 215.954 84.8991 215.945 84.9259 215.926C84.9731 215.893 84.9917 215.836 84.988 215.782C84.9851 215.742 84.9732 215.682 84.9474 215.648C84.9279 215.622 84.8811 215.631 84.8528 215.634C84.8131 215.637 84.7767 215.632 84.7368 215.627C84.6797 215.621 84.6221 215.614 84.5665 215.6C84.536 215.592 84.5017 215.583 84.4725 215.59" fill="#F8A018"/>
<path d="M84.8191 209.626C84.8157 209.611 84.8102 209.595 84.7973 209.585C84.7829 209.574 84.7626 209.571 84.7434 209.569C84.6994 209.564 84.6553 209.559 84.6112 209.554C84.5973 209.553 84.5828 209.551 84.5696 209.556C84.5404 209.565 84.5301 209.596 84.5239 209.623C84.4971 209.74 84.4703 209.857 84.4436 209.974C84.4318 210.026 84.416 210.077 84.422 210.13C84.428 210.185 84.4503 210.236 84.4781 210.285C84.5364 210.386 84.6196 210.475 84.7201 210.545C84.7292 210.551 84.7413 210.557 84.7512 210.552C84.7635 210.546 84.76 210.529 84.7544 210.518C84.7245 210.457 84.6801 210.403 84.65 210.343C84.5995 210.241 84.5923 210.127 84.5858 210.016C84.5854 210.008 84.585 209.999 84.5898 209.992C84.5946 209.985 84.6065 209.982 84.6126 209.988C84.6156 209.991 84.6163 209.995 84.617 209.999C84.6336 210.105 84.6222 210.221 84.6869 210.312C84.6954 210.324 84.7102 210.337 84.7248 210.331C84.7312 210.329 84.7355 210.324 84.7388 210.318C84.7508 210.298 84.7516 210.275 84.7531 210.253C84.7668 210.045 84.8576 209.84 84.8207 209.634C84.8202 209.632 84.8197 209.629 84.8191 209.626" fill="#7C4117"/>
<path d="M84.3247 207.236C84.2949 207.17 84.275 207.1 84.2715 207.023C84.2634 206.844 84.311 206.665 84.3811 206.497C84.313 206.308 84.3052 206.107 84.4076 205.92C84.4856 205.778 84.6421 205.644 84.8116 205.592C84.9239 205.557 85.068 205.593 85.1284 205.689C85.1775 205.767 85.1159 205.828 85.0941 205.902C85.0682 205.989 85.135 206.071 85.135 206.16C85.1879 206.373 85.2125 206.582 85.1865 206.795C85.2217 207.059 85.1841 207.315 85.049 207.591C85.1446 207.907 85.1673 208.241 85.0359 208.551C85.0567 208.596 85.0787 208.642 85.0884 208.69C85.1196 208.842 85.1187 209 85.0819 209.152C85.0415 209.319 84.9475 209.429 84.8576 209.573C84.8576 209.573 84.5608 209.574 84.5607 209.574C84.558 209.574 84.4833 209.477 84.4718 209.464C84.4314 209.42 84.4007 209.376 84.3771 209.323C84.3179 209.188 84.2246 209.066 84.1881 208.924C84.1264 208.686 84.1827 208.445 84.2575 208.214C84.2099 208.121 84.1746 208.023 84.1618 207.909C84.1352 207.671 84.1942 207.44 84.3247 207.236" fill="#030C43"/>
<path d="M84.7192 209.426C84.6129 209.427 84.5058 209.418 84.4081 209.39C84.4048 209.389 84.4014 209.389 84.3979 209.389C84.3848 209.39 84.3837 209.404 84.3865 209.414C84.3954 209.446 84.4028 209.481 84.4048 209.514C84.4067 209.545 84.3994 209.587 84.4192 209.615C84.4515 209.662 84.5473 209.665 84.6076 209.67C84.6933 209.676 84.7806 209.67 84.8634 209.652C84.8854 209.647 84.9049 209.64 84.9124 209.622C84.9163 209.613 84.9171 209.604 84.9181 209.594C84.9218 209.56 84.9301 209.526 84.943 209.493C84.9508 209.473 84.9655 209.454 84.9696 209.433C84.9772 209.393 84.9357 209.409 84.9001 209.413C84.8413 209.42 84.7804 209.424 84.7192 209.426" fill="#03279F"/>
<path d="M84.8153 208.317C84.6151 208.012 84.5909 207.593 84.8196 207.302C84.8205 207.299 84.821 207.296 84.8219 207.293C84.5829 207.074 84.6072 206.588 84.6966 206.341C84.697 206.34 84.6978 206.34 84.6981 206.338C84.6115 206.206 84.5646 206.071 84.5689 205.896C84.5758 205.616 84.8057 205.53 85.047 205.412C85.0831 205.395 85.3874 205.246 85.3943 205.262C85.4461 205.386 85.5008 205.497 85.6166 205.586C85.7258 205.669 85.8655 205.713 86.0093 205.703C86.2225 205.688 86.3907 205.541 86.5014 205.388C86.5624 205.304 86.595 205.224 86.6103 205.143C86.6136 205.127 86.8325 205.157 86.8555 205.16C87.0087 205.178 87.1468 205.231 87.2862 205.289C87.3806 205.328 87.4895 205.363 87.5421 205.448C87.599 205.539 87.6034 205.651 87.5957 205.753C87.5822 205.934 87.4492 206.045 87.3494 206.183C87.4195 206.39 87.4476 206.608 87.3908 206.822C87.3615 206.932 87.307 207.031 87.2397 207.123C87.3538 207.232 87.4227 207.373 87.433 207.53C87.4454 207.721 87.367 207.889 87.2543 208.041C87.2646 208.027 87.373 208.277 87.3767 208.289C87.4142 208.412 87.4718 208.585 87.4081 208.706C87.3835 208.84 87.2191 208.926 87.0919 208.979C86.8212 209.092 86.5226 209.166 86.2373 209.245C85.8374 209.356 85.3473 209.478 84.9345 209.347C84.6176 209.246 84.5541 208.936 84.6278 208.672C84.6639 208.542 84.7317 208.425 84.8153 208.317" fill="#03279F"/>
<path d="M85.4577 203.462C85.4608 203.481 85.4598 203.501 85.4489 203.518C85.4365 203.522 85.4248 203.528 85.4155 203.535C85.3642 203.574 85.3223 203.612 85.2968 203.668C85.2782 203.708 85.2708 203.746 85.2709 203.784C85.2295 203.73 85.1778 203.667 85.1773 203.599C85.1765 203.524 85.212 203.446 85.2685 203.387C85.2808 203.374 85.294 203.362 85.308 203.351C85.3253 203.338 85.3724 203.299 85.3971 203.314C85.4163 203.326 85.4285 203.367 85.4362 203.386C85.4462 203.41 85.4534 203.436 85.4577 203.462" fill="#1B1C1F"/>
<path d="M85.4852 205.181C85.5779 205.025 85.6233 204.853 85.6343 204.682C85.6351 204.668 85.6339 204.58 85.6345 204.49C85.6618 204.5 85.6934 204.506 85.7295 204.506C85.8884 204.508 86.0518 204.427 86.1958 204.379C86.2406 204.364 86.2847 204.348 86.3274 204.331C86.3255 204.383 86.3246 204.435 86.3265 204.486C86.3307 204.595 86.3454 204.705 86.3799 204.81C86.4476 205.017 86.6313 205.229 86.8874 205.311C86.8511 205.299 86.6787 205.59 86.657 205.62C86.5621 205.75 86.3739 205.847 86.1915 205.885C86.0716 205.91 85.9436 205.905 85.8237 205.88C85.54 205.82 85.2992 205.645 85.1995 205.426C85.3195 205.36 85.4199 205.288 85.4852 205.181" fill="#9C4824"/>
<path d="M85.2202 203.943C85.2106 203.912 85.1976 203.88 85.1997 203.846C85.2019 203.81 85.2293 203.776 85.2463 203.743C85.2801 203.68 85.3135 203.616 85.3548 203.555C85.385 203.511 85.4176 203.47 85.4431 203.426C85.631 203.296 85.8977 203.188 86.1345 203.265C86.393 203.349 86.5382 203.573 86.5262 203.804C86.6276 203.818 86.7149 203.887 86.7418 203.979C86.7964 204.165 86.6172 204.307 86.4658 204.4C86.4548 204.407 86.4429 204.412 86.4304 204.416C86.4183 204.44 86.4129 204.465 86.4061 204.49C86.376 204.603 86.2288 204.672 86.1214 204.717C86.1166 204.719 86.1125 204.721 86.1077 204.723C85.9864 204.773 85.8555 204.816 85.7229 204.833C85.5415 204.857 85.4269 204.782 85.3617 204.634C85.3227 204.546 85.291 204.455 85.2625 204.364C85.2617 204.362 85.2609 204.361 85.2609 204.36C85.2454 204.313 85.2316 204.265 85.2275 204.216C85.2227 204.165 85.2438 204.13 85.2504 204.082C85.2544 204.048 85.252 204.013 85.2365 203.981C85.2301 203.968 85.2242 203.956 85.2202 203.943" fill="#7C4117"/>
<path d="M85.3691 203.162C85.3797 203.151 85.3927 203.142 85.4081 203.139C85.4308 203.135 85.4534 203.146 85.4704 203.16C85.4873 203.174 85.5008 203.191 85.5189 203.204C85.5631 203.235 85.6085 203.226 85.6566 203.211C85.721 203.191 85.7861 203.172 85.8525 203.16C85.9721 203.136 86.0974 203.136 86.2189 203.145C86.3508 203.155 86.5349 203.188 86.619 203.291C86.6343 203.309 86.6471 203.33 86.6538 203.352C86.66 203.373 86.6521 203.4 86.661 203.42C86.6704 203.441 86.7135 203.45 86.7381 203.467C86.8038 203.512 86.848 203.58 86.8694 203.651C86.8981 203.746 86.8909 203.846 86.8766 203.944C86.8477 204.141 86.7413 204.348 86.5808 204.487C86.5268 204.534 86.4659 204.574 86.4002 204.607C86.3856 204.614 86.371 204.621 86.3559 204.627C86.3466 204.631 86.3203 204.651 86.3109 204.641C86.3088 204.638 86.308 204.635 86.3075 204.632C86.3023 204.601 86.3252 204.578 86.3454 204.555C86.37 204.527 86.3947 204.497 86.4041 204.462C86.417 204.413 86.4243 204.373 86.4743 204.345C86.5303 204.313 86.5699 204.271 86.6045 204.22C86.6284 204.186 86.6506 204.147 86.6621 204.107C86.6727 204.07 86.676 204.021 86.6621 203.984C86.6415 203.93 86.5748 203.907 86.5157 203.919C86.4294 203.937 86.3635 204.011 86.3539 204.088C86.3525 204.098 86.3495 204.111 86.3381 204.113C86.3337 204.113 86.3295 204.112 86.3256 204.11C86.2651 204.081 86.2451 203.995 86.2404 203.94C86.2378 203.909 86.2426 203.877 86.2592 203.849C86.2761 203.821 86.3051 203.798 86.3162 203.767C86.3334 203.72 86.3105 203.665 86.2694 203.631C86.2291 203.597 86.1741 203.58 86.119 203.57C85.9942 203.548 85.8668 203.578 85.7429 203.598C85.7249 203.601 85.706 203.605 85.6867 203.607C85.5843 203.622 85.4691 203.627 85.3921 203.559C85.3348 203.508 85.3091 203.435 85.3039 203.364C85.2992 203.3 85.3195 203.211 85.3691 203.162" fill="#1B1C1F"/>
<path d="M86.9384 208.37C86.9396 208.428 86.9398 208.489 86.9068 208.539C86.8443 208.635 86.698 208.646 86.5746 208.645C86.4191 208.645 86.2538 208.643 86.123 208.568C85.8862 208.432 85.8697 208.13 85.9115 207.881C85.9861 207.436 86.1622 207.005 86.1834 206.556C86.1963 206.281 86.1513 206.002 86.2192 205.735C86.2616 205.568 86.4775 205.17 86.7328 205.2C86.9619 205.226 86.8739 205.916 86.88 206.111C86.9036 206.864 86.9231 207.617 86.9384 208.37" fill="#FE1010"/>
<path d="M85.8119 206.745C85.8038 206.885 85.7755 207.04 85.6519 207.127C85.5592 207.192 85.4341 207.203 85.3165 207.206C85.2371 207.207 85.1506 207.204 85.0899 207.159C85.0251 207.11 85.0095 207.027 85.0014 206.952C84.9537 206.513 85.0136 206.068 85.1256 205.638C85.152 205.537 85.1981 205.42 85.3102 205.391C85.4237 205.362 85.5375 205.446 85.5887 205.541C85.786 205.907 85.8352 206.343 85.8119 206.745" fill="#FE1010"/>
<path d="M85.5782 204.88C85.582 204.877 85.5861 204.876 85.5906 204.875C85.6038 204.873 85.6162 204.88 85.6269 204.888C85.6642 204.912 85.757 204.899 85.8022 204.898C85.8661 204.896 85.9299 204.891 85.993 204.882C86.1168 204.864 86.2382 204.831 86.3502 204.78C86.3576 204.777 86.3651 204.774 86.3734 204.774C86.3865 204.773 86.3974 204.782 86.4066 204.791C86.5034 204.879 86.6134 205.037 86.5356 205.162C86.4976 205.224 86.4228 205.253 86.3527 205.276C86.2011 205.326 86.0429 205.361 85.8822 205.376C85.7977 205.384 85.7112 205.386 85.6286 205.369C85.5444 205.35 85.4548 205.308 85.4117 205.236C85.3582 205.148 85.4126 205.044 85.473 204.97C85.4901 204.939 85.5383 204.913 85.5657 204.889C85.5696 204.886 85.5736 204.882 85.5782 204.88" fill="#FE1010"/>
<path d="M85.073 205.384C85.0682 205.367 85.07 205.348 85.0824 205.331C85.096 205.311 85.1206 205.3 85.144 205.291C85.218 205.259 85.2508 205.235 85.2886 205.17C85.3052 205.141 85.3163 205.078 85.3636 205.076C85.3866 205.075 85.4059 205.096 85.4261 205.102C85.6982 205.193 86.0114 205.161 86.2859 205.097C86.377 205.075 86.4922 205.044 86.5442 204.971C86.5524 204.96 86.5601 204.946 86.5746 204.941C86.6067 204.929 86.6344 204.961 86.6477 204.983C86.6622 205.006 86.6738 205.019 86.6995 205.036C86.757 205.073 86.8209 205.101 86.8881 205.121C86.9158 205.129 86.9464 205.137 86.9621 205.159C86.9843 205.19 86.9648 205.231 86.9401 205.26C86.909 205.297 86.8626 205.323 86.826 205.356C86.7328 205.438 86.6655 205.543 86.5546 205.609C86.4181 205.689 86.2488 205.729 86.0886 205.758C85.9162 205.788 85.7358 205.769 85.5716 205.717C85.472 205.685 85.3774 205.641 85.291 205.587C85.2174 205.541 85.0949 205.468 85.073 205.384" fill="#770808"/>
<path d="M86.6938 209.178C86.7317 209.242 86.8217 209.33 86.8384 209.346C86.9063 209.411 86.9821 209.466 87.0659 209.51C87.0698 209.495 87.073 209.481 87.0761 209.468C87.0816 209.442 87.0856 209.421 87.0879 209.407C87.0888 209.404 87.0888 209.401 87.0895 209.4C87.0911 209.395 87.0919 209.39 87.0935 209.385C87.1053 209.339 87.1227 209.294 87.1503 209.255C87.1559 209.246 87.1614 209.24 87.1677 209.233C87.1748 209.227 87.1828 209.222 87.1922 209.217C87.2016 209.211 87.2293 209.203 87.2301 209.191C87.2301 209.185 87.2269 209.179 87.223 209.174C87.1662 209.091 87.1109 209.006 87.0264 208.941C87.0169 208.934 87.0066 208.926 86.9947 208.924C86.9292 208.908 86.8913 208.94 86.8628 208.985C86.8431 209.015 86.8281 209.051 86.8108 209.082C86.7989 209.105 86.7855 209.125 86.7696 209.138C86.7658 209.142 86.7618 209.145 86.757 209.147C86.7381 209.161 86.716 209.17 86.6938 209.178" fill="#7C4117"/>
<path d="M86.6835 209.16C86.6858 209.166 86.6889 209.172 86.6929 209.178C86.7308 209.242 86.8208 209.33 86.8375 209.346C86.9054 209.41 86.9812 209.465 87.0649 209.51C87.0776 209.517 87.091 209.524 87.1044 209.531C87.1092 209.534 87.1146 209.537 87.1195 209.539C87.1289 209.543 87.1376 209.549 87.1471 209.553C87.1629 209.561 87.2078 209.593 87.2165 209.564C87.2229 209.542 87.2292 209.518 87.2292 209.495C87.2292 209.474 87.2174 209.465 87.1969 209.455C87.1756 209.443 87.1557 209.431 87.1368 209.417C87.1226 209.407 87.1083 209.397 87.0949 209.387C87.0941 209.386 87.0934 209.385 87.0926 209.385C87.0515 209.353 87.0143 209.318 86.9757 209.281C86.9165 209.225 86.8581 209.165 86.8177 209.097C86.8153 209.092 86.8122 209.087 86.8099 209.082C86.8059 209.074 86.802 209.066 86.798 209.058C86.7577 209.073 86.7198 209.092 86.6835 209.114C86.6709 209.122 86.6723 209.139 86.6835 209.16" fill="#BDC4C2"/>
<path d="M87.0508 208.577C87.0638 208.544 87.0802 208.513 87.0961 208.483C87.1326 208.413 87.178 208.347 87.2365 208.291C87.2881 208.241 87.3453 208.211 87.4079 208.176C87.436 208.028 87.5094 207.906 87.6198 207.787C87.6731 207.73 87.7312 207.677 87.7963 207.63C88.0426 207.455 87.6741 207.355 87.5478 207.263C87.3131 207.091 87.1783 206.811 87.228 206.54C87.0326 206.253 87.0617 205.763 87.3262 205.545C87.5086 205.395 87.6764 205.434 87.8129 205.55C87.9488 205.64 88.0443 205.77 88.105 205.914C88.154 205.997 88.1878 206.086 88.209 206.179C88.3201 206.253 88.4229 206.336 88.4931 206.445C88.5833 206.585 88.5952 206.76 88.588 206.918C88.5874 206.929 88.5867 206.941 88.5898 206.953C88.6011 206.996 88.6671 207.029 88.7004 207.061C88.7477 207.106 88.7917 207.153 88.8291 207.205C88.9016 207.307 88.9479 207.422 88.952 207.542C88.9579 207.713 88.8605 207.862 88.7124 207.945C88.6594 208.223 88.4338 208.421 88.1436 208.487C88.1308 208.611 88.09 208.731 88.0061 208.833C87.8876 208.975 87.7032 209.042 87.5208 209.099C87.4842 209.111 87.4507 209.113 87.4212 209.107C87.3628 209.122 87.2974 209.111 87.2424 209.058C87.1819 209 87.1286 208.936 87.0883 208.865C87.0601 208.815 87.0304 208.764 87.026 208.708C87.0225 208.664 87.0338 208.619 87.0508 208.577" fill="#030C43"/>
<path d="M87.2916 208.941C87.19 208.865 87.0978 208.778 87.0317 208.68C87.0295 208.677 87.0271 208.674 87.0237 208.671C87.0106 208.662 86.9965 208.675 86.9901 208.686C86.9684 208.723 86.9439 208.761 86.9151 208.794C86.8882 208.824 86.8433 208.858 86.8355 208.9C86.8228 208.967 86.91 209.041 86.9625 209.089C87.0373 209.158 87.1247 209.216 87.219 209.26C87.2441 209.272 87.2691 209.279 87.2924 209.268C87.3044 209.262 87.3139 209.254 87.3234 209.246C87.3583 209.216 87.3973 209.191 87.4396 209.169C87.4655 209.156 87.4967 209.149 87.52 209.132C87.564 209.1 87.5105 209.084 87.4733 209.062C87.4119 209.025 87.3501 208.985 87.2916 208.941" fill="#03279F"/>
<path d="M81.1251 206.352C81.1283 206.345 81.1316 206.338 81.1351 206.331C81.2377 206.134 81.4508 205.984 81.6421 205.858C82.002 205.622 82.1739 205.304 82.3379 204.946C82.4762 204.644 82.6518 204.332 83.0262 204.228C83.034 204.225 83.0418 204.223 83.0497 204.221C83.2544 204.17 83.4988 204.186 83.6833 204.285C83.8512 204.375 83.9045 204.52 83.91 204.688C83.9172 204.906 83.9339 205.124 83.9905 205.337C84.0359 205.508 84.1046 205.676 84.2131 205.824C84.3291 205.981 84.4866 206.077 84.667 206.168C84.7953 206.233 84.9216 206.308 84.984 206.432C85.0532 206.57 85.0505 206.729 85.0164 206.874C84.956 207.131 84.7378 207.392 84.5205 207.562C83.837 208.097 82.6815 208.101 81.939 207.665C81.9184 207.653 81.8979 207.64 81.8778 207.627C81.6123 207.458 81.3552 207.216 81.204 206.956C81.1017 206.781 81.0382 206.543 81.1251 206.352" fill="#320600"/>
<path d="M80.1058 209.647C80.115 209.741 80.227 209.87 80.3266 209.768C80.349 209.745 80.3647 209.719 80.388 209.697C80.466 209.623 80.5921 209.63 80.6884 209.586C80.773 209.547 80.8452 209.489 80.9116 209.429C80.9224 209.42 80.9323 209.409 80.9431 209.4C80.9796 209.366 81.0145 209.331 81.0502 209.297C81.3896 208.974 81.8252 208.729 82.1007 208.361C82.3132 208.077 82.4136 207.739 82.5065 207.408C82.5745 207.165 82.6401 206.921 82.6808 206.673C82.6941 206.593 82.7048 206.511 82.6857 206.431C82.6683 206.361 82.6244 206.292 82.5563 206.255C82.548 206.25 82.5397 206.246 82.5297 206.242C82.334 206.166 82.1895 206.381 82.1256 206.509C82.0336 206.694 82.0003 206.896 81.9688 207.093C81.9281 207.352 81.8866 207.611 81.846 207.87C81.8352 207.936 81.8236 208.005 81.7829 208.061C81.7455 208.112 81.6883 208.147 81.6352 208.185C81.3066 208.419 81.1182 208.771 80.8659 209.071C80.8261 209.119 80.783 209.165 80.734 209.205C80.6918 209.242 80.6444 209.272 80.5913 209.294C80.5033 209.329 80.4054 209.337 80.3174 209.372C80.188 209.421 80.0935 209.515 80.1058 209.647" fill="#FA5A4C"/>
<path d="M80.7344 209.205C80.7916 209.278 80.8489 209.358 80.912 209.429C80.9227 209.42 80.9327 209.409 80.9435 209.4C80.98 209.366 81.0149 209.331 81.0505 209.296C81.3899 208.974 81.8256 208.729 82.1011 208.361C82.3136 208.077 82.414 207.739 82.5069 207.408C82.5749 207.165 82.6405 206.921 82.6811 206.673C82.6945 206.593 82.7052 206.511 82.6861 206.431C82.6687 206.361 82.6248 206.292 82.5567 206.255C82.5484 206.25 82.5401 206.246 82.5301 206.242C82.3343 206.166 82.1899 206.381 82.126 206.509C82.034 206.694 82.0007 206.896 81.9691 207.093C81.9285 207.352 81.887 207.611 81.8463 207.87C81.8355 207.936 81.8239 208.005 81.7833 208.061C81.7459 208.112 81.6887 208.147 81.6356 208.185C81.3069 208.419 81.1186 208.771 80.8663 209.071C80.8265 209.119 80.7833 209.165 80.7344 209.205" fill="#DBDCDE"/>
<path d="M83.6721 205.886C83.6641 205.877 83.6559 205.868 83.6455 205.862C83.6085 205.839 83.5586 205.852 83.5143 205.86C83.4683 205.868 83.4211 205.868 83.3743 205.868C83.2912 205.868 83.208 205.868 83.1249 205.868C83.0434 205.868 82.9647 205.875 82.887 205.851C82.8731 205.847 82.8588 205.842 82.8441 205.843C82.8221 205.844 82.791 205.861 82.7721 205.872C82.7406 205.89 82.7125 205.917 82.686 205.941C82.6709 205.954 82.6555 205.969 82.6518 205.988C82.6472 206.01 82.6606 206.032 82.6748 206.051C82.7024 206.088 82.7352 206.122 82.7712 206.153C82.8069 206.183 82.846 206.211 82.8891 206.232C82.9408 206.257 82.9977 206.273 83.0551 206.285C83.1494 206.303 83.2468 206.31 83.3431 206.304C83.4195 206.299 83.4976 206.285 83.5604 206.246C83.5994 206.221 83.6306 206.189 83.6609 206.156C83.6989 206.115 83.7501 206.065 83.7626 206.011C83.773 205.966 83.7014 205.917 83.6721 205.886" fill="#453434"/>
<path d="M82.5693 216.431C82.5735 216.438 82.5793 216.445 82.5859 216.452H82.8233C82.8415 216.444 82.8598 216.435 82.8689 216.419C82.8813 216.397 82.873 216.369 82.8647 216.346C82.8316 216.254 82.8017 216.161 82.7876 216.065C82.7834 216.038 82.7809 216.01 82.7801 215.982C82.7768 215.918 82.7784 215.855 82.7809 215.792H82.6009C82.6017 215.853 82.6009 215.914 82.5975 215.976C82.5934 216.099 82.5826 216.222 82.5644 216.344C82.5602 216.373 82.5561 216.403 82.5693 216.431" fill="#E56E98"/>
<path d="M83.5001 216.427C83.5076 216.438 83.5184 216.446 83.5308 216.452H83.7831C83.7898 216.445 83.7956 216.437 83.7997 216.428C83.8122 216.401 83.8063 216.37 83.8005 216.341C83.7773 216.223 83.7615 216.102 83.7516 215.982C83.7458 215.919 83.7416 215.856 83.74 215.793H83.5599C83.5649 215.858 83.5699 215.922 83.5699 215.987C83.5699 216.015 83.5682 216.043 83.5657 216.071C83.5557 216.167 83.53 216.261 83.501 216.354C83.4935 216.378 83.486 216.405 83.5001 216.427" fill="#E56E98"/>
<path d="M82.8769 205.938C83.0077 205.756 82.9468 205.535 82.9191 205.333C82.9259 205.334 82.9319 205.334 82.9358 205.334L83.3922 205.337C83.4019 205.337 83.4904 205.329 83.4954 205.337C83.5232 205.381 83.5138 205.434 83.5121 205.489C83.5094 205.576 83.501 205.661 83.5121 205.742C83.5236 205.824 83.573 205.893 83.623 205.961C83.6797 206.039 83.7362 206.113 83.7993 206.187C83.8356 206.356 83.661 206.577 83.5459 206.693C83.4108 206.828 83.2122 206.898 83.0139 206.87C82.7932 206.839 82.652 206.693 82.5881 206.498C82.5617 206.417 82.5467 206.334 82.5392 206.25C82.5358 206.213 82.5287 206.175 82.5269 206.138C82.6662 206.107 82.7969 206.049 82.8769 205.938" fill="#C5351D"/>
<path d="M83.8654 204.644C83.8328 204.575 83.7801 204.504 83.7251 204.447C83.6144 204.332 83.4372 204.299 83.2762 204.337C83.1196 204.373 82.9818 204.47 82.8949 204.591C82.8529 204.649 82.8299 204.72 82.8185 204.788C82.8143 204.812 82.8114 204.839 82.8112 204.864C82.811 204.886 82.8214 204.919 82.8107 204.939C82.812 204.936 82.7752 204.926 82.7717 204.926C82.7562 204.923 82.7407 204.924 82.7259 204.928C82.6987 204.936 82.6792 204.955 82.668 204.978C82.6516 205.013 82.6455 205.057 82.6526 205.093C82.6696 205.181 82.7333 205.264 82.811 205.319C82.8565 205.351 82.9083 205.376 82.9626 205.394C82.9636 205.395 82.9644 205.397 82.9654 205.398C83.0478 205.497 83.1659 205.57 83.2926 205.618C83.3911 205.655 83.5395 205.706 83.6446 205.665C83.7329 205.631 83.7836 205.525 83.8237 205.452C83.8702 205.368 83.9052 205.279 83.9256 205.187C83.9661 205.005 83.9451 204.816 83.8654 204.644Z" fill="#FA5A4C"/>
<path d="M82.4009 212.632C82.4152 212 82.1817 211.394 82.05 210.781C81.9852 210.478 81.9333 210.158 81.9726 209.849C82.0344 209.365 82.2858 208.93 82.3994 208.458C82.427 208.344 82.4773 208.13 82.6466 208.126C82.9026 208.12 83.1587 208.114 83.4148 208.108C83.5423 208.105 83.695 208.07 83.783 208.171C83.7841 208.173 83.7851 208.174 83.7862 208.176C83.8933 208.304 83.907 208.486 83.9563 208.636C84.0624 208.959 84.2064 209.266 84.2747 209.599C84.3632 210.029 84.3659 210.475 84.2706 210.905C84.1431 211.48 83.929 212.037 83.9425 212.632C83.9483 212.89 83.996 213.146 84.021 213.403C84.1036 214.254 83.9373 215.105 83.7715 215.948C83.6969 215.949 83.6223 215.951 83.5477 215.953C83.4923 213.954 83.3663 211.955 83.1717 209.962C82.9771 211.955 82.851 213.954 82.7956 215.953C82.721 215.951 82.6464 215.949 82.5719 215.948C82.4061 215.105 82.2398 214.254 82.3223 213.403C82.3473 213.146 82.395 212.89 82.4009 212.632" fill="#1C1D1A"/>
<path d="M80.867 209.247C80.8396 209.212 80.8148 209.176 80.7857 209.142C80.7848 209.141 80.7837 209.14 80.7822 209.139C80.7804 209.139 80.7788 209.14 80.7777 209.142C80.7652 209.152 80.7556 209.165 80.7436 209.177C80.7169 209.201 80.6807 209.216 80.6505 209.237C80.6422 209.242 80.6336 209.25 80.6352 209.26C80.6359 209.264 80.6381 209.267 80.6404 209.27C80.7004 209.356 80.7734 209.434 80.8568 209.502C80.8589 209.504 80.8614 209.506 80.8642 209.506C80.8673 209.506 80.87 209.504 80.8723 209.502C80.9115 209.474 80.9472 209.441 80.9783 209.405C81.0015 209.378 80.9566 209.35 80.9382 209.33C80.9135 209.303 80.8894 209.275 80.867 209.247" fill="#D6DAD7"/>
<path d="M82.6161 204.549C82.6682 204.417 82.7981 204.319 82.9397 204.259C83.1112 204.186 83.3132 204.16 83.4935 204.214C83.5715 204.237 83.6435 204.274 83.709 204.318C83.739 204.338 83.7682 204.36 83.7891 204.388C83.8237 204.434 83.8337 204.514 83.8109 204.57C83.8107 204.571 83.8107 204.572 83.8105 204.572C83.7823 204.664 83.6858 204.752 83.6157 204.822C83.4725 204.963 83.2019 205.084 82.9857 205.063C82.9382 205.059 82.8941 205.043 82.8584 205.02C82.8557 205.018 82.8533 205.017 82.8513 205.015C82.8207 204.992 82.798 204.963 82.7867 204.928C82.785 204.927 82.7838 204.926 82.7821 204.925C82.7439 204.914 82.7009 204.935 82.6792 204.966C82.6577 204.996 82.6525 205.033 82.6478 205.069C82.6327 204.982 82.6082 204.897 82.5958 204.81C82.5834 204.722 82.5834 204.632 82.6161 204.549Z" fill="#320600"/>
<path d="M81.8575 209.517C81.9463 209.108 82.1269 208.72 82.2408 208.317C82.4211 207.679 82.432 207.011 82.3825 206.354C82.3779 206.294 82.3737 206.229 82.4061 206.176C82.4385 206.123 82.5225 206.09 82.5765 206.127C82.6061 206.147 82.6183 206.181 82.6291 206.213C82.6742 206.347 82.725 206.482 82.817 206.595C82.9091 206.708 83.0495 206.797 83.2058 206.804C83.3541 206.81 83.4981 206.739 83.5938 206.638C83.6894 206.536 83.7412 206.406 83.7675 206.276C83.7808 206.21 83.825 206.111 83.9213 206.164C83.9934 206.205 83.9684 206.315 83.9575 206.376C83.8602 206.927 83.9396 207.491 84.0648 208.038C84.1899 208.584 84.361 209.123 84.4492 209.675C84.4659 209.78 84.4722 209.903 84.3832 209.972C84.292 210.043 84.153 210.017 84.0369 209.987C83.7383 209.91 83.4395 209.832 83.1409 209.755C82.8193 209.672 82.4608 209.591 82.1623 209.727C82.0834 209.762 81.9927 209.813 81.9146 209.776C81.8322 209.737 81.8337 209.632 81.8505 209.55C81.8527 209.539 81.855 209.528 81.8575 209.517" fill="#DBDCDE"/>
<path d="M83.1256 207.117C83.1412 207.225 83.1666 207.331 83.1992 207.438C83.2156 207.492 83.212 207.537 83.1473 207.557C83.0397 207.589 82.9363 207.633 82.8398 207.686C82.7973 207.71 82.7497 207.737 82.7008 207.727C82.6672 207.72 82.6404 207.696 82.6246 207.669C82.6087 207.641 82.6024 207.61 82.597 207.58C82.5619 207.385 82.5593 207.186 82.5787 206.989C82.598 206.794 82.6296 206.597 82.6658 206.404C82.6696 206.384 82.6735 206.364 82.6774 206.344C82.6774 206.344 83.0644 206.385 83.0891 206.433C83.1017 206.458 83.0961 206.494 83.0973 206.52C83.1037 206.672 83.1015 206.828 83.1114 206.981C83.1143 207.027 83.1192 207.072 83.1256 207.117" fill="#770808"/>
<path d="M82.4603 205.99C82.4644 205.986 82.4687 205.982 82.4734 205.977C82.5515 205.908 82.6459 205.869 82.7527 205.848C82.7778 205.843 82.845 205.818 82.8651 205.839C82.8722 205.846 82.8731 205.856 82.8736 205.866C82.8755 205.902 82.8774 205.937 82.906 205.966C82.9337 205.995 82.9708 206.018 83.0078 206.035C83.104 206.081 83.2282 206.098 83.3347 206.077C83.4064 206.063 83.4881 206.026 83.5342 205.974C83.5799 205.922 83.6111 205.795 83.7053 205.875C83.7783 205.938 83.8496 206.002 83.9051 206.077C83.9178 206.094 83.9299 206.113 83.9313 206.133C83.9343 206.176 83.8956 206.224 83.8696 206.258C83.7607 206.4 83.5794 206.487 83.3928 206.516C83.0975 206.563 82.7199 206.491 82.5251 206.269C82.4911 206.231 82.4632 206.184 82.4409 206.139C82.4128 206.082 82.4186 206.034 82.4603 205.99" fill="#FE1010"/>
<path d="M84.1637 209.133C84.1842 209.095 84.2043 209.057 84.2221 209.019C84.1608 208.994 84.095 208.987 84.0228 209.008C83.9663 209.023 83.9143 209.049 83.8657 209.078C83.8118 209.109 83.7607 209.143 83.7119 209.18C83.6916 209.195 83.6717 209.212 83.6631 209.234C83.6564 209.252 83.6595 209.275 83.6775 209.284C83.6916 209.292 83.7092 209.29 83.7256 209.286C83.7611 209.276 83.7907 209.243 83.8273 209.242C83.8334 209.242 83.8402 209.243 83.8434 209.248C83.8471 209.253 83.8453 209.26 83.8423 209.265C83.8327 209.282 83.8143 209.293 83.7966 209.304C83.7502 209.331 83.7029 209.358 83.6527 209.38C83.61 209.399 83.5671 209.418 83.5185 209.409C83.4933 209.404 83.4695 209.394 83.4449 209.388C83.4394 209.386 83.4336 209.385 83.4279 209.386C83.4011 209.391 83.4097 209.418 83.423 209.431C83.432 209.439 83.4438 209.445 83.4556 209.45C83.524 209.478 83.6005 209.487 83.6756 209.494C83.7059 209.498 83.7363 209.501 83.7668 209.503C83.785 209.504 83.8073 209.505 83.8247 209.499C83.8444 209.492 83.8639 209.477 83.8811 209.466C83.9264 209.437 83.9684 209.405 84.0122 209.374C84.0267 209.364 84.0403 209.354 84.0545 209.343L84.054 209.345C84.0551 209.345 84.0563 209.344 84.0574 209.343C84.0579 209.342 84.0585 209.341 84.059 209.34C84.0755 209.327 84.0925 209.316 84.1086 209.303C84.1398 209.278 84.1661 209.25 84.1949 209.223C84.2016 209.217 84.2084 209.21 84.2114 209.202C84.2179 209.185 84.2055 209.166 84.1916 209.153C84.1835 209.145 84.1731 209.139 84.1637 209.133Z" fill="#FA5A4C"/>
<path d="M85.0764 207.914C84.8 207.499 84.5236 207.084 84.2474 206.668C84.1652 206.544 84.0781 206.417 83.9668 206.315C83.9644 206.338 83.9603 206.36 83.9569 206.378C83.9046 206.674 83.9038 206.975 83.9337 207.275C84.0416 207.418 84.1743 207.549 84.2987 207.672C84.3245 207.698 84.5884 207.95 84.5884 207.96C84.3868 208.196 84.4125 208.516 84.2465 208.765C84.225 208.798 84.1992 208.831 84.1685 208.861C84.1627 208.867 84.1578 208.873 84.1519 208.88C84.1295 208.908 84.1046 208.942 84.0756 208.963C84.0672 208.969 84.059 208.973 84.0498 208.976C84.0493 208.976 84.0489 208.976 84.0483 208.977C84.0768 209.03 84.1419 209.076 84.1851 209.112C84.2076 209.131 84.228 209.151 84.248 209.172C84.2641 209.165 84.2811 209.16 84.2947 209.154C84.3096 209.147 84.3245 209.14 84.3387 209.132C84.3478 209.126 84.3569 209.121 84.3652 209.115C84.381 209.106 84.3967 209.095 84.4117 209.085C84.483 209.035 84.5469 208.978 84.6099 208.92C84.7461 208.797 84.8606 208.653 84.9444 208.496C85.0191 208.358 85.1759 208.064 85.0764 207.914" fill="#E56E98"/>
<path d="M84.2987 207.672C84.3245 207.697 84.5884 207.949 84.5884 207.959C84.3868 208.195 84.4125 208.516 84.2465 208.764C84.225 208.797 84.1992 208.83 84.1685 208.86C84.1627 208.866 84.1578 208.872 84.1519 208.88C84.1295 208.907 84.1046 208.941 84.0756 208.962C84.1378 209.021 84.1884 209.087 84.2324 209.158C84.2358 209.163 84.2391 209.168 84.2432 209.173C84.2607 209.165 84.2797 209.16 84.2947 209.153C84.3096 209.147 84.3245 209.139 84.3387 209.131C84.3478 209.126 84.3569 209.121 84.3652 209.115C84.381 209.105 84.3967 209.095 84.4117 209.084C84.483 209.035 84.5469 208.978 84.6099 208.92C84.7461 208.796 84.8606 208.653 84.9444 208.496C85.0191 208.357 85.1759 208.063 85.0764 207.913C84.8 207.498 84.5236 207.083 84.2474 206.668C84.1652 206.543 84.0781 206.416 83.9668 206.314C83.9644 206.337 83.9602 206.359 83.9569 206.377C83.9046 206.674 83.9038 206.974 83.9337 207.274C84.0416 207.417 84.1743 207.549 84.2987 207.672" fill="#DBDCDE"/>
<path d="M84.0512 208.927C84.0639 208.916 84.0764 208.904 84.089 208.893C84.0958 208.886 84.1027 208.88 84.1114 208.876C84.1548 208.856 84.1982 208.926 84.2187 208.951C84.2552 208.995 84.2974 209.035 84.3385 209.076C84.3474 209.085 84.3562 209.094 84.3616 209.105C84.3671 209.116 84.3684 209.129 84.3622 209.139C84.3527 209.155 84.33 209.159 84.313 209.169C84.289 209.182 84.2756 209.208 84.2512 209.221C84.2464 209.223 84.241 209.225 84.2354 209.225C84.2278 209.225 84.2211 209.221 84.2152 209.217C84.1363 209.162 84.0709 209.093 84.0153 209.019C84.0061 209.007 83.9968 208.993 84.0015 208.979C84.0041 208.971 84.0107 208.965 84.017 208.959C84.0285 208.948 84.0397 208.938 84.0512 208.927" fill="#E8ECE9"/>
<path d="M83.5001 216.427C83.5076 216.438 83.5184 216.446 83.5308 216.452H83.7831C83.7898 216.445 83.7956 216.437 83.7997 216.428C83.8122 216.401 83.8063 216.37 83.8005 216.341C83.7773 216.223 83.7615 216.102 83.7516 215.982C83.7408 215.984 83.73 215.985 83.7184 215.985C83.6703 215.985 83.6221 215.986 83.574 215.987H83.5699C83.5699 216.015 83.5682 216.043 83.5657 216.071C83.5557 216.167 83.53 216.261 83.501 216.354C83.4935 216.378 83.486 216.405 83.5001 216.427" fill="#F8A018"/>
<path d="M82.5693 216.431C82.5735 216.438 82.5793 216.445 82.5859 216.452H82.8233C82.8415 216.444 82.8598 216.435 82.8689 216.419C82.8813 216.397 82.873 216.369 82.8647 216.346C82.8316 216.254 82.8017 216.161 82.7876 216.065C82.7834 216.038 82.7809 216.01 82.7801 215.982C82.7768 215.982 82.7735 215.981 82.7701 215.981C82.732 215.979 82.6946 215.979 82.6565 215.977C82.6523 215.977 82.6249 215.976 82.5975 215.976C82.5934 216.099 82.5826 216.222 82.5644 216.344C82.5602 216.373 82.5561 216.403 82.5693 216.431" fill="#F8A018"/>
<path d="M80.1847 210.595C79.9512 210.595 79.7619 210.426 79.7619 210.217V204.735C79.7619 204.617 79.765 204.494 79.7683 204.369C79.7843 203.756 79.8008 203.122 79.4575 202.678C79.2913 202.463 79.0478 202.31 78.8214 202.278C78.6672 202.256 78.5265 202.291 78.3935 202.382C77.9664 202.676 77.9316 203.336 77.9011 203.919C77.8929 204.072 77.8851 204.219 77.8714 204.354C77.7178 205.871 77.5468 207.436 77.3633 209.006C77.3389 209.213 77.1309 209.361 76.8989 209.342C76.6666 209.32 76.4981 209.134 76.5223 208.927C76.7055 207.361 76.876 205.8 77.0292 204.286C77.0421 204.161 77.0489 204.025 77.0564 203.883C77.0937 203.174 77.1397 202.291 77.878 201.783C78.1958 201.565 78.5668 201.478 78.9523 201.531C79.4132 201.596 79.8509 201.857 80.1533 202.249C80.6527 202.894 80.632 203.687 80.6138 204.387C80.6107 204.506 80.6076 204.623 80.6076 204.736V210.217C80.6076 210.426 80.4184 210.595 80.1847 210.595" fill="#010930"/>
<path d="M76.9453 208.928C77.1282 207.362 77.2991 205.801 77.4523 204.287C77.4652 204.162 77.4722 204.026 77.4796 203.884C77.5166 203.175 77.563 202.292 78.301 201.784C78.5036 201.645 78.7289 201.566 78.9648 201.536L78.9523 201.532C78.5668 201.479 78.1958 201.566 77.878 201.784C77.1397 202.292 77.0937 203.175 77.0564 203.884C77.0489 204.026 77.0421 204.162 77.0292 204.287C76.876 205.801 76.7055 207.362 76.5223 208.928C76.4981 209.135 76.6666 209.321 76.8989 209.343C76.9903 209.351 77.0741 209.326 77.1483 209.288C77.0132 209.215 76.9278 209.078 76.9453 208.928" fill="#02125E"/>
<path d="M80.186 210.217V204.735C80.186 204.617 80.189 204.494 80.1924 204.369C80.2083 203.756 80.2246 203.122 79.8815 202.678C79.7154 202.463 79.4716 202.31 79.2454 202.278C79.1421 202.264 79.0451 202.277 78.9521 202.313C79.1381 202.374 79.3238 202.503 79.4584 202.678C79.8017 203.122 79.7852 203.756 79.7692 204.369C79.7659 204.494 79.7628 204.617 79.7628 204.735V210.217C79.7628 210.426 79.952 210.595 80.1856 210.595C80.2646 210.595 80.3341 210.571 80.3974 210.537C80.2733 210.471 80.186 210.356 80.186 210.217" fill="#040925"/>
<path d="M90.5962 209.461C90.3628 209.461 90.1733 209.292 90.1733 209.084V203.602C90.1733 203.483 90.1765 203.361 90.1798 203.235C90.1957 202.622 90.2123 201.988 89.869 201.544C89.7028 201.329 89.4593 201.176 89.2331 201.144C89.0787 201.123 88.938 201.157 88.805 201.249C88.3776 201.543 88.3431 202.203 88.3125 202.785C88.3044 202.938 88.2968 203.085 88.2831 203.221C88.1292 204.738 87.9583 206.302 87.7745 207.872C87.7503 208.079 87.5422 208.227 87.3101 208.208C87.0778 208.187 86.9096 208.001 86.9337 207.793C87.1167 206.227 87.2875 204.666 87.4407 203.152C87.4536 203.027 87.4606 202.891 87.4679 202.75C87.5051 202.04 87.5512 201.157 88.2895 200.65C88.6071 200.431 88.9781 200.344 89.3637 200.398C89.8247 200.462 90.2622 200.724 90.5645 201.115C91.0639 201.76 91.0434 202.553 91.0252 203.253C91.0221 203.372 91.0191 203.489 91.0191 203.602V209.084C91.0191 209.292 90.8296 209.461 90.5962 209.461" fill="#010930"/>
<path d="M87.3568 207.794C87.5397 206.228 87.7106 204.666 87.8638 203.153C87.8767 203.027 87.8837 202.891 87.891 202.75C87.9283 202.041 87.9743 201.157 88.7124 200.65C88.915 200.511 89.1404 200.431 89.3763 200.401L89.3637 200.398C88.9781 200.345 88.6071 200.431 88.2895 200.65C87.5512 201.157 87.5051 202.041 87.4679 202.75C87.4606 202.891 87.4536 203.027 87.4407 203.153C87.2875 204.666 87.1167 206.228 86.9337 207.794C86.9096 208.001 87.0778 208.187 87.3101 208.209C87.4017 208.216 87.4856 208.192 87.5596 208.154C87.4244 208.08 87.3392 207.943 87.3568 207.794" fill="#02125E"/>
<path d="M90.5968 209.084V203.602C90.5968 203.483 90.6 203.361 90.6033 203.235C90.6192 202.622 90.6358 201.988 90.2925 201.544C90.1263 201.329 89.8825 201.176 89.6566 201.144C89.5531 201.13 89.4562 201.143 89.363 201.179C89.5492 201.24 89.7348 201.37 89.8695 201.544C90.2128 201.988 90.1961 202.622 90.1802 203.235C90.177 203.361 90.1737 203.483 90.1737 203.602V209.084C90.1737 209.292 90.3633 209.461 90.5966 209.461C90.6753 209.461 90.7453 209.437 90.8081 209.404C90.684 209.338 90.5968 209.222 90.5968 209.084Z" fill="#040925"/>
<path d="M76.5012 208.375L87.5648 207.305L91.0882 209.005L91.5109 217.884L79.8837 218.765L76.5012 217.254V208.375Z" fill="#831B37"/>
<path d="M87.5648 207.303L76.5012 208.374V217.189L87.7857 216.226L87.5648 207.303" fill="#FF5D0D"/>
<path d="M87.7857 216.228L76.5012 217.191V217.254L79.8837 218.765L91.5109 217.884L87.7857 216.228" fill="#040925"/>
<path d="M91.5118 217.884L91.089 209.005L87.5657 207.305L87.7866 216.228L91.5118 217.884Z" fill="#DD4901"/>
<path d="M87.5648 207.832L76.5012 208.939V209.46L87.5648 208.288V207.832Z" fill="#FFFFFE"/>
<path d="M87.7057 208.79L76.5012 209.896V210.417L87.7057 209.245V208.79Z" fill="#FFFFFE"/>
<path d="M87.7056 209.747L76.5012 210.853V211.374L87.7056 210.202V209.747" fill="#FFFFFE"/>
<path d="M87.7056 210.648L76.5012 211.81V212.33L87.7056 211.103V210.648" fill="#FFFFFE"/>
<path d="M87.7057 211.661L76.5012 212.768V213.288L87.7057 212.116V211.661" fill="#FFFFFE"/>
<path d="M87.7057 212.584L76.5012 213.724V214.244L87.7057 213.04V212.584Z" fill="#FFFFFE"/>
<path d="M87.7057 213.573L76.5012 214.68V215.2L87.7057 214.028V213.573" fill="#FFFFFE"/>
<path d="M87.7857 214.532L76.5012 215.638V216.159L87.7857 214.987V214.532" fill="#FFFFFE"/>
<path d="M87.7857 215.488L76.5012 216.594V217.115L87.7857 215.943V215.488Z" fill="#FFFFFE"/>
<path d="M91.1276 209.816V209.383L87.5657 207.833V208.288L91.1276 209.816" fill="#DBDCDE"/>
<path d="M91.1902 210.807V210.373L87.6284 208.824V209.279L91.1902 210.807Z" fill="#DBDCDE"/>
<path d="M91.2704 211.799V211.366L87.5667 209.769L87.6459 210.259L91.2704 211.799" fill="#DBDCDE"/>
<path d="M91.32 212.641V212.208L87.6489 210.658V211.067L91.32 212.641Z" fill="#DBDCDE"/>
<path d="M91.3192 213.696V213.263L87.6497 211.666V212.122L91.3192 213.696" fill="#DBDCDE"/>
<path d="M91.4281 214.624V214.191L87.7059 212.584L87.6497 213.003L91.4281 214.624" fill="#DBDCDE"/>
<path d="M91.4287 215.592V215.159L87.7065 213.574V214.029L91.4287 215.592" fill="#DBDCDE"/>
<path d="M91.4287 216.585V216.152L87.7065 214.525V214.98L91.4287 216.585" fill="#DBDCDE"/>
<path d="M91.5118 217.575V217.143L87.7065 215.48V215.935L91.5118 217.575" fill="#DBDCDE"/>
<path d="M76.5245 208.563L87.5226 207.499L90.9881 209.171C91.0909 209.221 91.2191 209.186 91.2747 209.094C91.3302 209.003 91.2918 208.888 91.189 208.839L87.6656 207.138C87.6277 207.12 87.5854 207.113 87.5425 207.117L76.479 208.187C76.3629 208.199 76.279 208.292 76.2915 208.396C76.304 208.499 76.4085 208.574 76.5245 208.563" fill="#12152A"/>
<path d="M87.7873 216.227L87.78 215.944L87.7807 215.967L87.7873 216.227Z" fill="#B02C36"/>
<path d="M87.78 215.945L87.7678 215.49H87.768L87.7685 215.508L87.78 215.945Z" fill="#C33C49"/>
<path d="M91.5116 217.884L87.7864 216.228L87.78 215.967L91.4963 217.57L91.5116 217.884Z" fill="#AA3B04"/>
<path d="M87.7698 215.507L87.7693 215.49H87.7691L87.7554 214.993H87.7556L87.7557 215L87.7698 215.507" fill="#B02C36"/>
<path d="M91.4742 217.126L87.7682 215.506L87.7556 214.999L91.4281 216.584V216.179L91.4742 217.126ZM91.4265 216.15L88.3781 214.817C88.5598 214.74 88.7306 214.642 88.89 214.526L90.1444 215.053L91.3988 215.58L91.4265 216.15ZM91.3772 215.137L89.2423 214.228C89.3684 214.105 89.4852 213.973 89.592 213.836L91.3505 214.59L91.3772 215.137ZM91.3289 214.148L89.8292 213.5C89.905 213.382 89.9737 213.262 90.0351 213.144L91.3066 213.69L91.3289 214.148ZM91.285 213.247L90.2069 212.778C90.2797 212.605 90.3436 212.428 90.3997 212.246L91.2541 212.613L91.285 213.247ZM91.2325 212.171L90.5059 211.864C90.535 211.746 90.5614 211.627 90.5852 211.507L91.213 211.774L91.2325 212.171ZM91.1916 211.331L90.6563 211.101C90.6813 210.936 90.7023 210.771 90.72 210.605L91.1655 210.796L91.1916 211.331ZM91.1439 210.353L90.7578 210.185C90.7707 210.013 90.7807 209.841 90.7883 209.67L91.1173 209.811L91.1439 210.353ZM91.0957 209.368L90.8034 209.241C90.8046 209.188 90.8058 209.135 90.8069 209.083L90.8497 209.103L90.9879 209.17C90.9937 209.173 90.9996 209.175 91.0053 209.178L91.0883 209.217L91.0957 209.368Z" fill="#AA3B04"/>
<path d="M91.1173 209.812L90.7883 209.671C90.7947 209.527 90.7997 209.384 90.8034 209.242L91.0957 209.369L91.1173 209.812" fill="#9FA0A3"/>
<path d="M91.1659 210.796L90.7205 210.605C90.7352 210.465 90.7477 210.325 90.7582 210.185L91.1443 210.353L91.1659 210.796" fill="#9FA0A3"/>
<path d="M91.2136 211.775L90.5857 211.508C90.6124 211.373 90.6359 211.238 90.6568 211.101L91.1921 211.332L91.2136 211.775" fill="#9FA0A3"/>
<path d="M91.2548 212.614L90.4004 212.247C90.4394 212.122 90.4747 211.994 90.5066 211.865L91.2332 212.172L91.2548 212.614" fill="#9FA0A3"/>
<path d="M91.3072 213.69L90.0356 213.145C90.0364 213.143 90.0372 213.142 90.038 213.14C90.0993 213.022 90.1557 212.901 90.2075 212.778L91.2856 213.247L91.3072 213.69Z" fill="#9FA0A3"/>
<path d="M91.3513 214.591L89.5928 213.837C89.6783 213.727 89.7573 213.615 89.83 213.501L91.3297 214.149L91.3513 214.591Z" fill="#9FA0A3"/>
<path d="M91.3995 215.581L88.8906 214.526C89.015 214.436 89.1327 214.336 89.2429 214.228L91.3779 215.138L91.3995 215.581" fill="#9FA0A3"/>
<path d="M91.4282 216.585L87.7558 215.001L87.7556 214.994C87.9445 214.96 88.1303 214.915 88.3096 214.846C88.3326 214.838 88.3556 214.828 88.3783 214.819L91.4267 216.152L91.4282 216.181V216.585Z" fill="#9FA0A3"/>
<path d="M91.496 217.569L87.7797 215.967L87.7791 215.944L87.7683 215.507L91.4744 217.127L91.496 217.569" fill="#9FA0A3"/>
<path d="M91.0055 209.179C90.9998 209.176 90.9939 209.174 90.9882 209.171L90.8506 209.104L91.0055 209.179" fill="#0B0F1B"/>
<path d="M76.5012 217.189V217.114L87.7786 215.943L87.7857 216.226L76.5012 217.189V217.189ZM76.5012 216.594V216.157L83.8841 215.391C84.5533 215.386 85.2218 215.351 85.873 215.297C86.2102 215.27 86.5467 215.236 86.8822 215.196C87.0528 215.176 87.2231 215.148 87.3875 215.101C87.4311 215.089 87.5276 215.04 87.613 215.003L87.7551 214.988V214.992C87.7548 214.992 87.7545 214.992 87.7543 214.992L87.7669 215.489L76.5012 216.594V216.594ZM76.5012 215.636V215.2L79.5888 214.877C80.0375 215.027 80.4893 215.129 80.9486 215.201L76.5012 215.636ZM76.5012 214.68V214.243L77.8453 214.099C78.0869 214.236 78.3376 214.362 78.5834 214.474L76.5012 214.68V214.68ZM76.5012 213.723V213.286L76.7285 213.263C76.8577 213.4 77.0064 213.531 77.1682 213.655L76.5012 213.723Z" fill="#020D4A"/>
<path d="M76.5012 217.254V217.191L87.7857 216.228L76.5012 217.254" fill="#500E16"/>
<path d="M76.5012 213.288V212.986C76.5673 213.082 76.6433 213.174 76.7276 213.264L76.5012 213.288Z" fill="#DBDCDE"/>
<path d="M76.5012 214.244V213.724L77.1682 213.656C77.3766 213.816 77.6065 213.964 77.8453 214.1L76.5012 214.244Z" fill="#DBDCDE"/>
<path d="M76.5012 215.2V214.68L78.5834 214.474C78.8303 214.587 79.0724 214.686 79.2961 214.772C79.3936 214.81 79.4911 214.845 79.5888 214.877L76.5012 215.2" fill="#DBDCDE"/>
<path d="M76.5012 216.159V215.638L80.9486 215.202C81.4726 215.284 82.0063 215.327 82.5567 215.359C82.9427 215.382 83.3323 215.392 83.7221 215.392C83.7762 215.392 83.8301 215.392 83.8841 215.392L76.5012 216.159ZM87.613 215.005C87.6671 214.982 87.7167 214.964 87.7453 214.964C87.7487 214.964 87.7517 214.964 87.7543 214.964L87.7551 214.99L87.613 215.005" fill="#DBDCDE"/>
<path d="M76.5012 217.115V216.594L87.7669 215.49L87.7786 215.944L76.5012 217.115" fill="#DBDCDE"/>
<path d="M87.787 216.227L87.7799 215.944H87.78L87.787 216.227ZM87.7681 215.49L87.7554 214.993C87.7555 214.993 87.7559 214.993 87.7562 214.993L87.7685 215.49H87.7681Z" fill="#921E27"/>
<path d="M87.7798 215.945L87.7673 215.49H87.7678L87.78 215.945H87.7798" fill="#A22935"/>
<path d="M78.6414 201.739C78.575 201.739 78.5112 201.711 78.4707 201.661L73.3971 195.454C73.3284 195.37 73.3488 195.252 73.443 195.19C73.5374 195.128 73.6694 195.147 73.7384 195.231L78.5092 201.068L79.2781 196.53C79.2952 196.427 79.4032 196.356 79.5188 196.372C79.6339 196.387 79.7134 196.484 79.696 196.587L78.8503 201.578C78.8376 201.654 78.7749 201.716 78.6917 201.734L78.6414 201.739Z" fill="#12152A"/>
<path d="M78.9583 201.24C78.9583 201.779 78.8015 202.216 78.6083 202.216C78.4148 202.216 78.2583 201.779 78.2583 201.24C78.2583 200.701 78.4148 200.265 78.6083 200.265C78.8015 200.265 78.9583 200.701 78.9583 201.24Z" fill="#12152A"/>
<path d="M81.2475 200.794L78.5867 201.051C78.4704 201.063 78.386 201.155 78.3978 201.259C78.409 201.356 78.5009 201.429 78.6079 201.429L78.6298 201.428L81.2475 201.176C81.2439 201.048 81.2475 200.937 81.2475 200.794" fill="#020D4A"/>
<path d="M81.2785 198.679V201.653C81.2785 202.756 82.3017 203.399 83.5526 203.399C84.8035 203.399 85.8267 202.756 85.8267 201.653V198.679C85.8267 198.679 83.6749 199.649 81.2785 198.679Z" fill="#010930"/>
<path d="M83.2539 202.622C84.5072 202.622 85.5324 201.979 85.5324 200.876V198.788C85.7185 198.726 85.8267 198.679 85.8267 198.679V201.653C85.8267 202.756 84.8012 203.399 83.5482 203.399C82.3537 203.399 81.3684 202.813 81.2785 201.804C81.6725 202.33 82.4111 202.622 83.2539 202.622" fill="#040925"/>
<path d="M85.8267 198.547V198.875C85.8267 199.056 84.8087 199.203 83.5526 199.203C82.2967 199.203 81.2785 199.056 81.2785 198.875V198.547H85.8267Z" fill="#020D4A"/>
<path d="M83.5526 199.073C82.2967 199.073 81.2785 198.903 81.2785 198.694V198.548H85.8267V198.694C85.8267 198.903 84.8087 199.073 83.5526 199.073Z" fill="#FF5D0D"/>
<path d="M85.8267 198.549C85.8267 198.332 84.8087 198.156 83.5526 198.156C82.2967 198.156 81.2785 198.332 81.2785 198.549C81.2785 198.766 82.2967 198.942 83.5526 198.942C84.8087 198.942 85.8267 198.766 85.8267 198.549Z" fill="#12152A"/>
<path d="M85.7066 198.68C85.4028 198.523 84.5534 198.41 83.5526 198.41C82.5518 198.41 81.7024 198.523 81.3986 198.68C81.3213 198.64 81.2785 198.597 81.2785 198.552C81.2785 198.333 82.2967 198.155 83.5526 198.155C84.8087 198.155 85.8267 198.333 85.8267 198.552C85.8267 198.597 85.784 198.64 85.7066 198.68Z" fill="#DD4901"/>
<path d="M85.2293 200.821C85.1223 200.821 85.0302 200.748 85.0192 200.651C85.0073 200.547 85.0918 200.455 85.2081 200.444L89.0881 200.089C89.2001 200.079 89.3081 200.153 89.3201 200.257C89.3319 200.361 89.2474 200.454 89.1312 200.464L85.251 200.82L85.2293 200.821" fill="#020D4A"/>
<path d="M89.3208 200.453L89.2684 200.447C89.1801 200.427 89.1163 200.358 89.11 200.277L88.6695 194.686C88.6614 194.582 88.7489 194.491 88.8654 194.484C88.9829 194.474 89.0829 194.555 89.0911 194.659L89.4867 199.683L92.2543 195.831C92.3174 195.743 92.4477 195.717 92.5464 195.774C92.6445 195.831 92.6731 195.947 92.6101 196.035L89.4986 200.366C89.459 200.421 89.3914 200.453 89.3208 200.453Z" fill="#12152A"/>
<path d="M89.6712 200.104C89.6712 200.643 89.5144 201.079 89.3212 201.079C89.1277 201.079 88.9712 200.643 88.9712 200.104C88.9712 199.566 89.1277 199.128 89.3212 199.128C89.5144 199.128 89.6712 199.566 89.6712 200.104Z" fill="#12152A"/>
</svg>
