<svg width="912" height="507" viewBox="0 0 912 507" fill="none" xmlns="http://www.w3.org/2000/svg">
<path d="M423.656 155.296C416.072 155.296 409.016 154.432 402.488 152.704C395.96 150.88 390.632 148.336 386.504 145.072C385.064 144.016 384.008 142.912 383.336 141.76C382.76 140.512 382.472 138.976 382.472 137.152C382.472 134.752 383.192 132.64 384.632 130.816C386.168 128.992 387.896 128.08 389.816 128.08C390.872 128.08 391.88 128.272 392.84 128.656C393.896 128.944 395.144 129.52 396.584 130.384C400.712 132.976 404.888 134.896 409.112 136.144C413.336 137.296 417.992 137.872 423.08 137.872C429.416 137.872 434.264 136.816 437.624 134.704C440.984 132.592 442.664 129.568 442.664 125.632C442.664 122.656 441.08 120.256 437.912 118.432C434.84 116.608 429.32 114.88 421.352 113.248C412.424 111.424 405.272 109.216 399.896 106.624C394.616 104.032 390.728 100.816 388.232 96.976C385.832 93.136 384.632 88.48 384.632 83.008C384.632 76.96 386.36 71.536 389.816 66.736C393.368 61.84 398.216 58.048 404.36 55.36C410.6 52.576 417.608 51.184 425.384 51.184C439.016 51.184 450.248 54.592 459.08 61.408C460.52 62.56 461.528 63.76 462.104 65.008C462.776 66.16 463.112 67.6 463.112 69.328C463.112 71.728 462.344 73.84 460.808 75.664C459.368 77.488 457.688 78.4 455.768 78.4C454.712 78.4 453.704 78.256 452.744 77.968C451.88 77.68 450.632 77.056 449 76.096C445.064 73.6 441.416 71.728 438.056 70.48C434.792 69.232 430.616 68.608 425.528 68.608C419.672 68.608 415.064 69.76 411.704 72.064C408.344 74.272 406.664 77.344 406.664 81.28C406.664 83.584 407.288 85.504 408.536 87.04C409.88 88.48 412.04 89.776 415.016 90.928C418.088 92.08 422.408 93.28 427.976 94.528C441.032 97.408 450.392 101.104 456.056 105.616C461.816 110.128 464.696 116.32 464.696 124.192C464.696 130.336 462.968 135.76 459.512 140.464C456.152 145.168 451.352 148.816 445.112 151.408C438.968 154 431.816 155.296 423.656 155.296ZM533.005 132.976C534.925 132.976 536.461 133.744 537.613 135.28C538.861 136.816 539.485 138.784 539.485 141.184C539.485 142.816 539.005 144.352 538.045 145.792C537.085 147.136 535.741 148.288 534.013 149.248C530.749 150.976 526.957 152.416 522.637 153.568C518.317 154.624 514.333 155.152 510.685 155.152C503.005 155.152 496.285 153.664 490.525 150.688C484.861 147.712 480.493 143.488 477.421 138.016C474.349 132.448 472.813 125.92 472.813 118.432C472.813 111.232 474.301 104.848 477.277 99.28C480.253 93.712 484.381 89.392 489.661 86.32C494.941 83.152 500.941 81.568 507.661 81.568C514.093 81.568 519.709 83.008 524.509 85.888C529.405 88.672 533.197 92.704 535.885 97.984C538.573 103.168 539.917 109.264 539.917 116.272C539.917 118.384 539.389 120.016 538.333 121.168C537.373 122.224 535.981 122.752 534.157 122.752H493.837C494.509 128.416 496.237 132.544 499.021 135.136C501.805 137.632 505.789 138.88 510.973 138.88C513.757 138.88 516.253 138.544 518.461 137.872C520.669 137.2 523.117 136.288 525.805 135.136C527.149 134.56 528.445 134.08 529.693 133.696C530.941 133.216 532.045 132.976 533.005 132.976ZM508.237 96.544C504.109 96.544 500.797 97.888 498.301 100.576C495.805 103.168 494.317 106.96 493.837 111.952H521.629C521.341 106.864 520.045 103.024 517.741 100.432C515.533 97.84 512.365 96.544 508.237 96.544ZM606.906 132.976C608.826 132.976 610.362 133.744 611.514 135.28C612.762 136.816 613.386 138.784 613.386 141.184C613.386 142.816 612.906 144.352 611.946 145.792C610.986 147.136 609.642 148.288 607.914 149.248C604.65 150.976 600.858 152.416 596.538 153.568C592.218 154.624 588.234 155.152 584.586 155.152C576.906 155.152 570.186 153.664 564.426 150.688C558.762 147.712 554.394 143.488 551.322 138.016C548.25 132.448 546.714 125.92 546.714 118.432C546.714 111.232 548.202 104.848 551.178 99.28C554.154 93.712 558.282 89.392 563.562 86.32C568.842 83.152 574.842 81.568 581.562 81.568C587.994 81.568 593.61 83.008 598.41 85.888C603.306 88.672 607.098 92.704 609.786 97.984C612.474 103.168 613.818 109.264 613.818 116.272C613.818 118.384 613.29 120.016 612.234 121.168C611.274 122.224 609.882 122.752 608.058 122.752H567.738C568.41 128.416 570.138 132.544 572.922 135.136C575.706 137.632 579.69 138.88 584.874 138.88C587.658 138.88 590.154 138.544 592.362 137.872C594.57 137.2 597.018 136.288 599.706 135.136C601.05 134.56 602.346 134.08 603.594 133.696C604.842 133.216 605.946 132.976 606.906 132.976ZM582.138 96.544C578.01 96.544 574.698 97.888 572.202 100.576C569.706 103.168 568.218 106.96 567.738 111.952H595.53C595.242 106.864 593.946 103.024 591.642 100.432C589.434 97.84 586.266 96.544 582.138 96.544ZM529.8 302.152C522.312 302.152 515.736 300.664 510.072 297.688C504.408 294.616 500.04 290.344 496.968 284.872C493.896 279.304 492.36 272.776 492.36 265.288C492.36 257.8 493.896 251.32 496.968 245.848C500.04 240.28 504.408 236.008 510.072 233.032C515.736 230.056 522.312 228.568 529.8 228.568C537.288 228.568 543.864 230.056 549.528 233.032C555.192 236.008 559.56 240.28 562.632 245.848C565.704 251.32 567.24 257.8 567.24 265.288C567.24 272.776 565.704 279.304 562.632 284.872C559.56 290.344 555.192 294.616 549.528 297.688C543.864 300.664 537.288 302.152 529.8 302.152ZM529.8 285.592C540.36 285.592 545.64 278.824 545.64 265.288C545.64 258.472 544.248 253.384 541.464 250.024C538.776 246.664 534.888 244.984 529.8 244.984C519.24 244.984 513.96 251.752 513.96 265.288C513.96 278.824 519.24 285.592 529.8 285.592ZM611.576 302.152C604.088 302.152 597.512 300.664 591.848 297.688C586.184 294.616 581.816 290.344 578.744 284.872C575.672 279.304 574.136 272.776 574.136 265.288C574.136 257.8 575.672 251.32 578.744 245.848C581.816 240.28 586.184 236.008 591.848 233.032C597.512 230.056 604.088 228.568 611.576 228.568C619.064 228.568 625.64 230.056 631.304 233.032C636.968 236.008 641.336 240.28 644.408 245.848C647.48 251.32 649.016 257.8 649.016 265.288C649.016 272.776 647.48 279.304 644.408 284.872C641.336 290.344 636.968 294.616 631.304 297.688C625.64 300.664 619.064 302.152 611.576 302.152ZM611.576 285.592C622.136 285.592 627.416 278.824 627.416 265.288C627.416 258.472 626.024 253.384 623.24 250.024C620.552 246.664 616.664 244.984 611.576 244.984C601.016 244.984 595.736 251.752 595.736 265.288C595.736 278.824 601.016 285.592 611.576 285.592ZM670.312 301.864C667.144 301.864 664.504 301 662.392 299.272C660.376 297.544 659.368 295 659.368 291.64V208.984C659.368 205.624 660.376 203.08 662.392 201.352C664.504 199.624 667.144 198.76 670.312 198.76C673.384 198.76 675.928 199.624 677.944 201.352C680.056 203.08 681.112 205.624 681.112 208.984V291.64C681.112 295 680.056 297.544 677.944 299.272C675.928 301 673.384 301.864 670.312 301.864ZM398.312 448.864C394.856 448.864 392.12 447.856 390.104 445.84C388.088 443.824 387.08 441.088 387.08 437.632V356.992C387.08 353.632 387.992 351.04 389.816 349.216C391.64 347.392 394.232 346.48 397.592 346.48H433.736C444.776 346.48 453.368 349.264 459.512 354.832C465.656 360.4 468.728 368.176 468.728 378.16C468.728 388.144 465.656 395.92 459.512 401.488C453.368 407.056 444.776 409.84 433.736 409.84H409.544V437.632C409.544 441.088 408.536 443.824 406.52 445.84C404.504 447.856 401.768 448.864 398.312 448.864ZM430.856 392.848C442.088 392.848 447.704 388 447.704 378.304C447.704 368.512 442.088 363.616 430.856 363.616H409.544V392.848H430.856ZM489.604 448.864C486.436 448.864 483.796 448 481.684 446.272C479.668 444.544 478.66 442 478.66 438.64V355.984C478.66 352.624 479.668 350.08 481.684 348.352C483.796 346.624 486.436 345.76 489.604 345.76C492.676 345.76 495.22 346.624 497.236 348.352C499.348 350.08 500.404 352.624 500.404 355.984V438.64C500.404 442 499.348 444.544 497.236 446.272C495.22 448 492.676 448.864 489.604 448.864ZM545.994 375.568C556.362 375.568 564.042 378.112 569.034 383.2C574.026 388.192 576.522 395.872 576.522 406.24V438.784C576.522 441.952 575.61 444.448 573.786 446.272C571.962 448 569.418 448.864 566.154 448.864C563.082 448.864 560.586 447.952 558.666 446.128C556.842 444.208 555.93 441.76 555.93 438.784V437.776C554.49 441.328 552.09 444.112 548.73 446.128C545.37 448.144 541.434 449.152 536.922 449.152C532.122 449.152 527.754 448.192 523.818 446.272C519.978 444.352 516.906 441.664 514.602 438.208C512.394 434.752 511.29 430.912 511.29 426.688C511.29 421.504 512.586 417.424 515.178 414.448C517.866 411.472 522.138 409.312 527.994 407.968C533.85 406.624 541.866 405.952 552.042 405.952H555.786V403.36C555.786 399.328 554.874 396.4 553.05 394.576C551.322 392.752 548.394 391.84 544.266 391.84C540.138 391.84 534.186 393.28 526.41 396.16C524.202 397.216 522.33 397.744 520.794 397.744C518.682 397.744 517.002 397.024 515.754 395.584C514.506 394.048 513.882 392.08 513.882 389.68C513.882 387.76 514.314 386.176 515.178 384.928C516.042 383.68 517.434 382.528 519.354 381.472C522.714 379.648 526.794 378.208 531.594 377.152C536.49 376.096 541.29 375.568 545.994 375.568ZM541.674 434.176C545.898 434.176 549.306 432.784 551.898 430C554.49 427.12 555.786 423.424 555.786 418.912V416.464H553.338C545.562 416.464 540.09 417.088 536.922 418.336C533.85 419.584 532.314 421.84 532.314 425.104C532.314 427.792 533.178 430 534.906 431.728C536.73 433.36 538.986 434.176 541.674 434.176ZM622.588 449.152C615.292 449.152 608.908 447.664 603.436 444.688C597.964 441.712 593.74 437.488 590.764 432.016C587.884 426.544 586.444 420.112 586.444 412.72C586.444 405.328 587.98 398.848 591.052 393.28C594.22 387.616 598.636 383.248 604.3 380.176C609.964 377.104 616.492 375.568 623.884 375.568C627.724 375.568 631.564 376.096 635.404 377.152C639.34 378.208 642.844 379.696 645.916 381.616C648.892 383.44 650.38 386.128 650.38 389.68C650.38 392.176 649.804 394.24 648.652 395.872C647.5 397.408 645.964 398.176 644.044 398.176C642.796 398.176 641.596 397.984 640.444 397.6C639.388 397.12 637.948 396.448 636.124 395.584C634.108 394.528 632.284 393.712 630.652 393.136C629.116 392.56 627.34 392.272 625.324 392.272C619.948 392.272 615.82 394 612.94 397.456C610.156 400.816 608.764 405.76 608.764 412.288C608.764 418.816 610.156 423.808 612.94 427.264C615.82 430.72 619.948 432.448 625.324 432.448C627.34 432.448 629.116 432.208 630.652 431.728C632.188 431.152 634.06 430.288 636.268 429.136C638.092 428.272 639.532 427.648 640.588 427.264C641.644 426.784 642.796 426.544 644.044 426.544C645.868 426.544 647.356 427.36 648.508 428.992C649.756 430.624 650.38 432.688 650.38 435.184C650.38 438.736 648.892 441.376 645.916 443.104C642.844 445.024 639.292 446.512 635.26 447.568C631.228 448.624 627.004 449.152 622.588 449.152ZM714.912 426.976C716.832 426.976 718.368 427.744 719.52 429.28C720.768 430.816 721.392 432.784 721.392 435.184C721.392 436.816 720.912 438.352 719.952 439.792C718.992 441.136 717.648 442.288 715.92 443.248C712.656 444.976 708.864 446.416 704.544 447.568C700.224 448.624 696.24 449.152 692.592 449.152C684.912 449.152 678.192 447.664 672.432 444.688C666.768 441.712 662.4 437.488 659.328 432.016C656.256 426.448 654.72 419.92 654.72 412.432C654.72 405.232 656.208 398.848 659.184 393.28C662.16 387.712 666.288 383.392 671.568 380.32C676.848 377.152 682.848 375.568 689.568 375.568C696 375.568 701.616 377.008 706.416 379.888C711.312 382.672 715.104 386.704 717.792 391.984C720.48 397.168 721.824 403.264 721.824 410.272C721.824 412.384 721.296 414.016 720.24 415.168C719.28 416.224 717.888 416.752 716.064 416.752H675.744C676.416 422.416 678.144 426.544 680.928 429.136C683.712 431.632 687.696 432.88 692.88 432.88C695.664 432.88 698.16 432.544 700.368 431.872C702.576 431.2 705.024 430.288 707.712 429.136C709.056 428.56 710.352 428.08 711.6 427.696C712.848 427.216 713.952 426.976 714.912 426.976ZM690.144 390.544C686.016 390.544 682.704 391.888 680.208 394.576C677.712 397.168 676.224 400.96 675.744 405.952H703.536C703.248 400.864 701.952 397.024 699.648 394.432C697.44 391.84 694.272 390.544 690.144 390.544ZM758.861 449.152C753.005 449.152 747.917 448.672 743.597 447.712C739.277 446.752 735.485 445.216 732.221 443.104C730.781 442.24 729.677 441.088 728.909 439.648C728.141 438.208 727.757 436.576 727.757 434.752C727.757 432.544 728.381 430.72 729.629 429.28C730.877 427.744 732.413 426.976 734.237 426.976C735.485 426.976 736.733 427.216 737.981 427.696C739.229 428.08 740.525 428.56 741.869 429.136C744.557 430.384 747.197 431.392 749.789 432.16C752.381 432.832 755.597 433.168 759.437 433.168C762.797 433.168 765.389 432.64 767.213 431.584C769.133 430.528 770.093 429.088 770.093 427.264C770.093 425.92 769.661 424.864 768.797 424.096C768.029 423.232 766.541 422.464 764.333 421.792C762.125 421.12 758.621 420.304 753.821 419.344C745.277 417.712 739.133 415.264 735.389 412C731.645 408.736 729.773 404.176 729.773 398.32C729.773 394 731.069 390.112 733.661 386.656C736.349 383.2 739.997 380.512 744.605 378.592C749.213 376.576 754.397 375.568 760.157 375.568C764.285 375.568 768.317 376.096 772.253 377.152C776.189 378.208 779.693 379.696 782.765 381.616C785.741 383.44 787.229 386.128 787.229 389.68C787.229 391.984 786.605 393.904 785.357 395.44C784.109 396.976 782.573 397.744 780.749 397.744C778.541 397.744 775.901 396.88 772.829 395.152C770.429 393.904 768.221 392.992 766.205 392.416C764.285 391.744 761.981 391.408 759.293 391.408C756.317 391.408 753.965 391.984 752.237 393.136C750.509 394.192 749.645 395.68 749.645 397.6C749.645 399.616 750.653 401.152 752.669 402.208C754.685 403.264 758.573 404.32 764.333 405.376C770.765 406.624 775.805 408.16 779.453 409.984C783.101 411.712 785.741 413.92 787.373 416.608C789.005 419.296 789.821 422.704 789.821 426.832C789.821 433.648 786.989 439.072 781.325 443.104C775.757 447.136 768.269 449.152 758.861 449.152ZM809.034 448.864C805.482 448.864 802.554 447.712 800.25 445.408C797.946 443.008 796.794 440.032 796.794 436.48C796.794 432.928 797.946 430 800.25 427.696C802.554 425.296 805.482 424.096 809.034 424.096C812.586 424.096 815.514 425.296 817.818 427.696C820.122 430 821.274 432.928 821.274 436.48C821.274 440.032 820.122 443.008 817.818 445.408C815.514 447.712 812.586 448.864 809.034 448.864Z" fill="black"/>
<path d="M473.48 312.52C474.824 314.632 475.496 316.696 475.496 318.712C475.496 321.304 474.392 323.464 472.184 325.192C470.072 326.92 467.576 327.784 464.696 327.784C462.68 327.784 460.76 327.304 458.936 326.344C457.208 325.384 455.816 323.992 454.76 322.168L446.12 307.768C444.968 305.848 443.432 304.456 441.512 303.592C439.592 302.728 437 302.296 433.736 302.296C423.656 302.296 414.872 300.184 407.384 295.96C399.992 291.64 394.28 285.592 390.248 277.816C386.216 269.944 384.2 260.728 384.2 250.168C384.2 239.608 386.216 230.44 390.248 222.664C394.28 214.792 399.992 208.744 407.384 204.52C414.872 200.296 423.656 198.184 433.736 198.184C443.816 198.184 452.552 200.296 459.944 204.52C467.432 208.744 473.192 214.792 477.224 222.664C481.256 230.44 483.272 239.608 483.272 250.168C483.272 261.208 481.064 270.76 476.648 278.824C472.328 286.792 466.136 292.744 458.072 296.68C462.776 298.12 466.568 301.192 469.448 305.896L473.48 312.52ZM433.736 284.872C442.184 284.872 448.808 281.896 453.608 275.944C458.504 269.992 460.952 261.4 460.952 250.168C460.952 238.936 458.552 230.392 453.752 224.536C448.952 218.584 442.28 215.608 433.736 215.608C425.192 215.608 418.52 218.584 413.72 224.536C409.016 230.392 406.664 238.936 406.664 250.168C406.664 261.4 409.064 269.992 413.864 275.944C418.664 281.896 425.288 284.872 433.736 284.872Z" fill="#1923D9"/>
<path d="M141.346 402.003C141.346 402.003 135.086 384.516 118.51 369.493C118.51 369.493 164.722 348.58 208.614 368.96C208.614 368.96 191.614 385.853 186.022 402.003C186.022 402.003 183.56 398.883 163.562 398.7C163.562 398.7 146.792 397.782 141.346 402.003Z" fill="#010930"/>
<path d="M128.237 374.66C128.237 374.66 170.213 361.935 204.003 374.545C204.772 373.737 208.614 368.961 208.614 368.961C164.722 348.58 118.51 369.493 118.51 369.493C127.426 377.574 133.354 386.364 136.932 392.766C134.966 386.363 129.685 380.287 128.237 374.66Z" fill="#02125E"/>
<path d="M202.924 366.552C200.502 370.81 197.311 374.664 193.445 378.198C187.181 383.922 180.619 389.067 171.874 391.48C161.924 394.225 152.011 393.456 141.791 393.344C140.264 393.327 138.756 393.339 137.255 393.35C140.099 398.527 141.346 402.003 141.346 402.003C146.792 397.782 163.562 398.7 163.562 398.7C183.559 398.883 186.022 402.003 186.022 402.003C191.614 385.853 208.614 368.96 208.614 368.96C206.72 368.08 204.822 367.284 202.924 366.552Z" fill="#040925"/>
<path d="M204.646 373.187C204.646 373.187 298.26 274.085 312.343 243.254C312.343 243.254 339.682 198.474 321.456 160.301C321.456 160.301 317.314 112.586 285.005 100.84C285.005 100.84 263.464 76.6152 231.155 70.0085C231.155 70.0085 214.586 56.0612 186.418 59.7315C186.418 59.7315 164.05 46.7559 143.338 59.8511C143.338 59.8511 116 50.923 91.1458 70.7431C91.1458 70.7431 54.694 74.4134 37.2964 103.043C37.2964 103.043 0.844505 118.458 4.15838 168.377C4.15838 168.377 -24.0091 208.751 66.2923 310.789L121.798 373.187C121.798 373.187 164.879 355.569 204.646 373.187Z" fill="#FEF8EA"/>
<path d="M204.646 373.187C204.646 373.187 298.26 274.085 312.343 243.254C312.343 243.254 339.682 198.474 321.456 160.301C321.456 160.301 317.314 112.586 285.005 100.84C285.005 100.84 263.464 76.6152 231.155 70.0085C231.155 70.0085 214.586 56.0612 186.418 59.7315C186.418 59.7315 164.05 46.7559 143.338 59.8511C143.338 59.8511 116 50.923 91.1458 70.7431C91.1458 70.7431 54.694 74.4134 37.2964 103.043C37.2964 103.043 0.844505 118.458 4.15838 168.377C4.15838 168.377 -24.0091 208.751 66.2923 310.789L121.798 373.187C121.798 373.187 164.879 355.569 204.646 373.187Z" fill="#FEF8EA"/>
<path d="M204.646 373.187C204.646 373.187 298.26 274.085 312.343 243.254C312.343 243.254 339.682 198.474 321.456 160.301C321.456 160.301 317.314 112.586 285.005 100.84C285.005 100.84 263.464 76.6152 231.155 70.0085C231.155 70.0085 214.586 56.0612 186.418 59.7315C186.418 59.7315 164.05 46.7559 143.338 59.8511C143.338 59.8511 116 50.923 91.1458 70.7431C91.1458 70.7431 54.694 74.4134 37.2964 103.043C37.2964 103.043 0.844505 118.458 4.15838 168.377C4.15838 168.377 -24.0091 208.751 66.2923 310.789L121.798 373.187C121.798 373.187 164.879 355.569 204.646 373.187Z" fill="#FEF8EA"/>
<path d="M204.646 373.187C204.646 373.187 298.26 274.085 312.343 243.254C312.343 243.254 339.682 198.474 321.456 160.301C321.456 160.301 317.314 112.586 285.005 100.84C285.005 100.84 263.464 76.6152 231.155 70.0085C231.155 70.0085 214.586 56.0612 186.418 59.7315C186.418 59.7315 164.05 46.7559 143.338 59.8511C143.338 59.8511 116 50.923 91.1458 70.7431C91.1458 70.7431 54.694 74.4134 37.2964 103.043C37.2964 103.043 0.844505 118.458 4.15838 168.377C4.15838 168.377 -24.0091 208.751 66.2923 310.789L121.798 373.187C121.798 373.187 164.879 355.569 204.646 373.187Z" fill="#FEF8EA"/>
<path d="M316.652 186.001C291.28 247.238 257.701 292.694 241.653 287.529C225.604 282.364 233.161 228.535 258.533 167.298C268.492 143.262 279.715 121.66 290.646 104.594C288.869 103.626 286.993 102.772 285.01 102.055C285.01 102.055 263.469 77.9601 231.159 71.3888C231.159 71.3888 228.351 69.0422 223.092 66.5339C224.978 86.823 224.642 112.135 221.631 139.409C214.466 204.294 203.303 255.331 182.417 253.424C163.915 251.735 166.302 129.075 163.86 99.8651C159.572 127.693 152.283 251.653 129.686 253.196C112.652 254.358 102.505 200.93 100.044 135.775C99.0358 109.073 100.432 84.3787 103.605 64.4918C99.4748 66.3607 95.2763 68.8435 91.1466 72.1195C91.1466 72.1195 54.6941 75.7701 37.296 104.246C37.296 104.246 34.5961 105.384 30.7359 108.035C41.9376 124.069 53.5302 143.949 64.1389 166.012C93.0008 226.036 103.645 279.459 87.9132 285.334C72.182 291.209 36.0323 247.312 7.17094 187.287C5.2367 183.265 3.38748 179.273 1.61937 175.322C-2.50493 189.935 -4.08976 231.777 66.2926 310.877L121.8 372.94C121.8 372.94 164.881 355.416 204.649 372.94C204.649 372.94 298.266 274.369 312.349 243.704C312.349 243.704 336.883 203.725 323.963 167.233C321.721 173.379 319.284 179.649 316.652 186.001" fill="#F2ECDE"/>
<path d="M161.88 132.923C161.746 129.353 161.569 125.823 161.358 122.336C160.885 125.875 160.446 129.46 160.047 133.09C157.144 159.528 156.728 184.131 158.391 204.143C161.514 184.227 162.881 159.567 161.88 132.923" fill="#981269"/>
<path d="M89.6935 70.9388C82.758 71.9705 52.6295 77.815 37.2965 103.047C37.2965 103.047 36.6935 103.303 35.6553 103.85C37.4972 136.665 55.9502 209.398 134.025 369.38C136.228 368.824 138.681 368.265 141.346 367.747C94.5552 165.527 88.0597 95.2419 89.6935 70.9388" fill="#D03200"/>
<path d="M321.457 160.306C321.457 160.306 321.397 159.616 321.237 158.393C317.111 191.292 297.287 272.742 203.406 372.66C203.82 372.835 204.233 373.009 204.647 373.192C204.647 373.192 298.261 274.089 312.344 243.258C312.344 243.258 339.683 198.478 321.457 160.306Z" fill="#CE5C23"/>
<path d="M66.2924 310.789L121.799 373.187C121.799 373.187 124.7 372.002 129.684 370.554C43.0472 261.523 12.8562 201.865 3.01909 170.55C-1.21977 180.137 -12.0715 222.24 66.2924 310.789" fill="#90A3E8"/>
<path d="M285.639 101.089C285.427 101.008 285.219 100.922 285.005 100.844C285.005 100.844 263.464 76.6187 231.155 70.012C231.155 70.012 230.823 69.7356 230.196 69.2815C231.242 95.9136 224.752 168.598 178.285 366.103C183.057 366.668 187.932 367.59 192.826 368.96C281.053 203.641 288.534 129.757 285.639 101.089Z" fill="#FAC303"/>
<path d="M185.267 59.1298C180.459 56.729 161.283 48.51 143.339 59.8554C143.339 59.8554 142.717 59.6529 141.584 59.3772C137.421 85.7653 135.449 160.732 148.71 366.53C153.516 365.873 158.773 365.422 164.324 365.367C183.673 160.769 185.585 84.8206 185.267 59.1298" fill="#1923D9"/>
<path d="M186.023 405.581V402.001C186.023 400.026 175.993 398.424 163.62 398.424C151.247 398.424 141.217 400.026 141.217 402.001V405.581H186.023" fill="#D03200"/>
<path d="M163.62 400.627C151.247 400.627 141.217 402.229 141.217 404.206V405.581H186.023V404.206C186.023 402.229 175.993 400.627 163.62 400.627Z" fill="#FF5D0D"/>
<path d="M186.023 405.58C186.023 407.556 175.993 409.159 163.62 409.159C151.247 409.159 141.217 407.556 141.217 405.58C141.217 403.603 151.247 402.001 163.62 402.001C175.993 402.001 186.023 403.603 186.023 405.58Z" fill="#010930"/>
<path d="M184.84 404.432C181.846 405.846 173.48 406.864 163.62 406.864C153.76 406.864 145.394 405.846 142.4 404.432C141.637 404.792 141.217 405.178 141.217 405.58C141.217 407.556 151.247 409.159 163.62 409.159C175.993 409.159 186.023 407.556 186.023 405.58C186.023 405.178 185.603 404.792 184.84 404.432Z" fill="#DD4901"/>
<path d="M201.137 384.018C200.856 384.018 200.618 383.942 200.439 383.863L200.268 383.854C200.065 383.802 199.782 383.671 199.595 383.332C199.094 382.425 199.611 380.26 200.3 378.219C198.243 381.169 196.355 382.793 194.669 383.06C193.749 383.207 192.9 382.96 192.149 382.326C190.509 380.94 190.37 377.984 190.648 375.352C189.358 377.949 187.434 380.629 184.947 381.614C183.435 382.214 181.868 382.131 180.288 381.371C177.61 380.081 176.506 375.72 176.481 372.079C175.235 375.259 173.288 378.873 170.406 378.913H170.353C166.883 378.913 165.037 374.278 164.14 370.796C163.785 373.172 162.866 375.745 161.044 377.219C159.813 378.213 158.321 378.586 156.609 378.324C152.02 377.623 149.955 372.653 148.845 369.982C148.804 369.884 148.762 369.783 148.721 369.685C148.741 369.978 148.764 370.291 148.787 370.591C149.05 374.042 149.18 376.74 148.295 377.463C147.577 378.051 146.751 378.188 145.904 377.859C144.623 377.362 143.452 375.848 142.567 374.215C142.72 375.638 142.625 376.946 141.847 377.664C141.37 378.104 140.697 378.271 139.845 378.163C137.85 377.908 136.04 375.918 134.778 374.148C135.366 376.396 135.54 378.673 134.738 379.666C134.473 379.993 134.111 380.165 133.691 380.165C132.814 380.165 131.91 378.815 131.13 377.157C131.212 378.843 130.985 380.611 130.031 381.91C128.979 383.341 127.091 384.154 125.327 383.925C123.905 383.743 122.841 382.902 122.408 381.617C121.98 380.345 122.085 379.023 122.187 377.746C122.276 376.639 122.359 375.593 122.124 374.583C122.078 374.384 122.221 374.19 122.445 374.15C122.671 374.109 122.889 374.236 122.935 374.435C123.193 375.544 123.102 376.69 123.013 377.798C122.912 379.066 122.817 380.264 123.202 381.407C123.544 382.42 124.341 383.058 125.445 383.199C126.87 383.381 128.471 382.687 129.337 381.51C131.037 379.196 130.111 374.989 129.58 373.134C129.467 372.788 129.368 372.472 129.284 372.196C129.225 372.004 129.35 371.806 129.566 371.748C129.781 371.693 130.009 371.798 130.078 371.987C130.1 372.049 130.238 372.43 130.407 373.021C131.588 376.586 133.027 379.431 133.691 379.431C133.792 379.431 133.926 379.409 134.064 379.239C134.706 378.445 134.594 375.602 133.298 372.219C132.856 371.063 132.819 370.968 133.197 370.826C133.568 370.687 133.695 370.906 134.006 371.437C136.198 375.193 138.203 377.212 139.963 377.436C140.545 377.512 140.964 377.419 141.249 377.156C142.246 376.237 141.651 373.402 141.257 371.526C141.075 370.657 140.931 369.971 140.931 369.522C140.931 369.32 141.116 369.155 141.345 369.155C141.574 369.155 141.76 369.32 141.76 369.522C141.76 369.588 141.763 369.663 141.772 369.746C141.952 371.535 144.083 376.352 146.237 377.187C146.779 377.398 147.256 377.315 147.733 376.924C148.397 376.38 148.103 372.504 147.961 370.64C147.783 368.302 147.755 367.941 148.286 367.879C148.829 367.817 149.043 368.336 149.622 369.728C150.674 372.26 152.632 376.972 156.75 377.601C158.197 377.821 159.453 377.511 160.485 376.677C163.067 374.589 163.672 369.843 163.448 367.343C163.43 367.144 163.594 366.969 163.818 366.949C164.044 366.931 164.244 367.07 164.271 367.267C164.431 368.387 165.959 378.179 170.353 378.179L170.393 378.179C173.697 378.133 175.847 371.6 176.765 368.81C176.852 368.548 176.928 368.315 176.995 368.12C177.061 367.927 177.292 367.817 177.511 367.875C177.73 367.934 177.854 368.139 177.788 368.334C176.696 371.524 177.33 379.11 180.684 380.725C182.043 381.38 183.328 381.452 184.609 380.944C188.456 379.42 190.872 373.2 191.483 370.916L191.486 370.905C191.539 370.707 191.761 370.586 191.985 370.632C192.207 370.678 192.345 370.876 192.293 371.073C191.253 374.973 190.742 380.121 192.722 381.794C193.278 382.264 193.865 382.442 194.523 382.338C195.937 382.114 198.378 380.476 201.984 373.946L202.058 373.813C202.156 373.636 202.393 373.559 202.599 373.64C202.802 373.721 202.897 373.93 202.813 374.113C201.519 376.942 199.704 381.859 200.339 383.009L200.34 383.011C200.423 383.017 200.519 383.046 200.629 383.111C200.854 383.246 201.105 383.351 201.413 383.224C201.975 382.993 203.374 381.691 204.232 374.621C204.256 374.419 204.455 374.27 204.687 374.295C204.915 374.317 205.08 374.497 205.055 374.699C204.382 380.248 203.305 383.253 201.763 383.89C201.54 383.982 201.328 384.018 201.137 384.018" fill="#FFFFFE"/>
<path d="M204.644 374.659C204.43 374.659 204.213 374.622 204.003 374.544C160.526 358.372 122.905 374.344 122.53 374.507C121.711 374.866 120.716 374.566 120.312 373.838C119.908 373.111 120.246 372.231 121.066 371.873C121.454 371.703 160.369 355.132 205.286 371.837C206.13 372.15 206.527 373.011 206.173 373.758C205.906 374.32 205.291 374.659 204.644 374.659" fill="#DD4901"/>
<path d="M121.066 371.873L120.981 371.92C121.443 372.135 122.02 372.165 122.53 371.958C122.905 371.807 160.526 356.941 204.003 371.992C204.213 372.064 204.43 372.099 204.644 372.099C204.929 372.099 205.203 372.028 205.45 371.914L205.286 371.836C160.369 355.132 121.454 371.703 121.066 371.873" fill="#FF5D0D"/>
<path d="M165.313 440.732C165.599 437.916 165.884 435.1 166.17 432.284C166.226 431.731 166.283 431.175 166.441 430.637C166.441 430.609 169.845 430.464 170.156 430.448C170.482 430.431 170.553 430.406 170.678 430.677C170.788 430.914 170.875 431.158 170.945 431.405C171.087 431.904 171.161 432.416 171.22 432.926C171.555 435.845 171.404 438.789 171.208 441.717C171.174 442.228 171.124 442.774 170.767 443.176C170.532 443.439 170.122 443.618 169.771 443.492C169.39 443.356 169.252 442.948 169.186 442.59C168.966 441.384 169.029 440.154 168.994 438.932C168.949 437.371 168.741 435.816 168.534 434.265C168.129 436.579 167.788 438.901 167.511 441.23C167.434 441.881 167.343 442.574 166.873 443.079C166.628 443.342 166.216 443.542 165.862 443.407C165.626 443.316 165.483 443.101 165.396 442.886C165.159 442.304 165.218 441.664 165.281 441.048C165.291 440.943 165.302 440.838 165.313 440.732" fill="#262628"/>
<path d="M169.606 443.371C169.603 443.374 169.601 443.377 169.599 443.381C169.576 443.424 169.616 443.485 169.624 443.528C169.637 443.597 169.638 443.669 169.631 443.739C169.629 443.763 169.625 443.791 169.659 443.798C169.947 443.85 170.252 443.836 170.531 443.757C170.59 443.74 170.586 443.671 170.585 443.629C170.583 443.574 170.579 443.52 170.584 443.465C170.587 443.429 170.591 443.368 170.541 443.352C170.515 443.344 170.438 443.367 170.409 443.369C170.32 443.377 170.23 443.376 170.141 443.373C170.033 443.37 169.926 443.363 169.818 443.362C169.763 443.36 169.708 443.361 169.653 443.364C169.63 443.365 169.616 443.363 169.606 443.371" fill="#565A5B"/>
<path d="M170.539 443.723C170.553 443.727 170.567 443.734 170.579 443.742C170.607 443.763 170.623 443.794 170.637 443.824C170.69 443.931 170.726 444.032 170.801 444.131C170.913 444.279 171.053 444.455 171.222 444.555C171.285 444.593 171.357 444.622 171.418 444.664C171.478 444.706 171.528 444.769 171.525 444.837C171.523 444.858 171.517 444.879 171.501 444.895C171.486 444.91 171.464 444.918 171.443 444.925C171.252 444.993 171.039 445.037 170.841 444.987C170.69 444.949 170.548 444.865 170.416 444.792C170.194 444.671 169.999 444.504 169.767 444.399C169.707 444.373 169.644 444.35 169.595 444.311C169.509 444.241 169.482 444.126 169.499 444.024C169.511 443.946 169.545 443.831 169.602 443.769C169.644 443.722 169.734 443.745 169.789 443.754C169.866 443.767 169.938 443.762 170.017 443.758C170.13 443.753 170.243 443.748 170.354 443.729C170.415 443.719 170.484 443.705 170.539 443.723" fill="#F8A018"/>
<path d="M165.931 443.294C165.832 443.282 165.737 443.261 165.64 443.244C165.622 443.241 165.601 443.241 165.586 443.252C165.551 443.279 165.559 443.325 165.556 443.362C165.545 443.511 165.486 443.653 165.483 443.801C165.483 443.808 165.483 443.816 165.488 443.822C165.493 443.828 165.502 443.83 165.51 443.832C165.665 443.868 165.822 443.898 165.98 443.92C166.095 443.936 166.211 443.949 166.327 443.942C166.365 443.939 166.405 443.933 166.43 443.908C166.452 443.885 166.454 443.852 166.456 443.822C166.462 443.717 166.498 443.614 166.542 443.517C166.56 443.476 166.656 443.332 166.575 443.301C166.527 443.283 166.463 443.307 166.414 443.31C166.339 443.315 166.261 443.314 166.186 443.312C166.101 443.309 166.016 443.303 165.931 443.294Z" fill="#565A5B"/>
<path d="M165.518 443.731C165.503 443.734 165.49 443.739 165.477 443.748C165.447 443.766 165.428 443.796 165.411 443.825C165.348 443.928 165.304 444.025 165.22 444.119C165.096 444.259 164.94 444.424 164.763 444.512C164.696 444.546 164.622 444.569 164.558 444.607C164.493 444.645 164.438 444.703 164.435 444.771C164.434 444.792 164.439 444.814 164.453 444.831C164.467 444.847 164.488 444.857 164.508 444.865C164.693 444.946 164.901 445.005 165.103 444.969C165.257 444.942 165.406 444.868 165.545 444.806C165.777 444.7 165.986 444.548 166.227 444.46C166.289 444.437 166.354 444.42 166.406 444.384C166.499 444.32 166.535 444.208 166.528 444.104C166.522 444.026 166.499 443.909 166.448 443.843C166.41 443.793 166.318 443.81 166.263 443.815C166.185 443.822 166.114 443.812 166.036 443.803C165.924 443.79 165.811 443.777 165.702 443.75C165.642 443.735 165.575 443.717 165.518 443.731" fill="#F8A018"/>
<path d="M166.197 432.143C166.19 432.113 166.179 432.083 166.154 432.063C166.126 432.041 166.086 432.036 166.048 432.032C165.962 432.023 165.876 432.013 165.789 432.004C165.762 432.001 165.734 431.998 165.708 432.006C165.651 432.024 165.63 432.085 165.618 432.138C165.566 432.365 165.513 432.591 165.461 432.818C165.438 432.919 165.407 433.019 165.419 433.122C165.43 433.228 165.474 433.329 165.529 433.422C165.643 433.618 165.806 433.792 166.003 433.927C166.021 433.94 166.044 433.952 166.064 433.942C166.088 433.93 166.081 433.898 166.07 433.875C166.011 433.757 165.924 433.652 165.865 433.535C165.767 433.337 165.752 433.116 165.74 432.9C165.739 432.884 165.738 432.867 165.748 432.854C165.757 432.841 165.78 432.835 165.792 432.846C165.798 432.852 165.799 432.86 165.801 432.867C165.833 433.074 165.811 433.299 165.938 433.475C165.954 433.499 165.983 433.523 166.012 433.513C166.024 433.509 166.033 433.498 166.039 433.488C166.063 433.449 166.065 433.404 166.067 433.36C166.094 432.957 166.272 432.558 166.2 432.159C166.199 432.154 166.198 432.148 166.197 432.143" fill="#7C4117"/>
<path d="M165.23 427.498C165.171 427.371 165.132 427.235 165.125 427.086C165.109 426.737 165.203 426.39 165.34 426.063C165.207 425.697 165.191 425.306 165.392 424.943C165.545 424.666 165.851 424.405 166.183 424.304C166.404 424.237 166.686 424.307 166.804 424.493C166.901 424.644 166.78 424.764 166.737 424.907C166.686 425.076 166.817 425.235 166.817 425.408C166.921 425.822 166.969 426.229 166.918 426.641C166.987 427.154 166.913 427.652 166.649 428.189C166.836 428.803 166.881 429.452 166.623 430.053C166.664 430.142 166.707 430.231 166.726 430.323C166.787 430.619 166.785 430.927 166.713 431.221C166.634 431.546 166.45 431.759 166.274 432.039C166.274 432.039 165.692 432.041 165.692 432.041C165.687 432.041 165.54 431.852 165.518 431.828C165.438 431.741 165.378 431.657 165.332 431.553C165.216 431.292 165.033 431.054 164.962 430.779C164.841 430.316 164.951 429.847 165.098 429.398C165.004 429.219 164.935 429.028 164.91 428.806C164.858 428.345 164.974 427.895 165.23 427.498" fill="#030C43"/>
<path d="M166.001 431.753C165.793 431.757 165.583 431.739 165.392 431.685C165.385 431.683 165.379 431.681 165.372 431.682C165.346 431.683 165.344 431.711 165.349 431.73C165.367 431.794 165.381 431.86 165.385 431.925C165.389 431.986 165.375 432.066 165.413 432.122C165.477 432.213 165.664 432.219 165.783 432.228C165.95 432.24 166.121 432.229 166.284 432.194C166.327 432.184 166.365 432.17 166.38 432.136C166.388 432.118 166.389 432.1 166.391 432.082C166.398 432.015 166.414 431.949 166.44 431.885C166.455 431.846 166.484 431.809 166.492 431.768C166.507 431.69 166.426 431.721 166.356 431.729C166.241 431.742 166.121 431.751 166.001 431.753" fill="#03279F"/>
<path d="M166.189 429.598C165.797 429.006 165.749 428.193 166.198 427.627C166.199 427.621 166.2 427.616 166.202 427.61C165.734 427.184 165.781 426.24 165.957 425.761C165.957 425.759 165.959 425.757 165.96 425.755C165.79 425.498 165.698 425.235 165.706 424.896C165.72 424.351 166.17 424.185 166.643 423.956C166.714 423.921 167.31 423.632 167.324 423.664C167.425 423.904 167.532 424.12 167.759 424.292C167.973 424.455 168.247 424.539 168.529 424.52C168.946 424.492 169.276 424.205 169.493 423.909C169.613 423.745 169.676 423.59 169.706 423.433C169.713 423.402 170.142 423.459 170.187 423.464C170.487 423.5 170.758 423.603 171.031 423.715C171.216 423.791 171.429 423.86 171.532 424.024C171.644 424.202 171.652 424.419 171.637 424.617C171.611 424.968 171.35 425.185 171.155 425.453C171.292 425.856 171.347 426.278 171.236 426.694C171.178 426.908 171.072 427.1 170.94 427.279C171.163 427.491 171.298 427.765 171.318 428.07C171.343 428.442 171.189 428.767 170.968 429.064C170.988 429.037 171.201 429.521 171.208 429.544C171.281 429.783 171.395 430.119 171.27 430.356C171.221 430.616 170.899 430.783 170.65 430.885C170.12 431.104 169.535 431.249 168.976 431.402C168.192 431.618 167.232 431.855 166.423 431.6C165.802 431.404 165.677 430.801 165.822 430.289C165.893 430.037 166.025 429.809 166.189 429.598" fill="#03279F"/>
<path d="M167.448 420.166C167.454 420.203 167.452 420.242 167.43 420.274C167.406 420.284 167.383 420.295 167.365 420.309C167.265 420.384 167.182 420.458 167.132 420.566C167.096 420.644 167.081 420.717 167.082 420.792C167.001 420.688 166.899 420.564 166.898 420.433C166.897 420.286 166.966 420.136 167.077 420.02C167.101 419.995 167.127 419.972 167.154 419.951C167.188 419.925 167.281 419.849 167.329 419.879C167.367 419.902 167.391 419.982 167.406 420.018C167.425 420.066 167.439 420.116 167.448 420.166" fill="#1B1C1F"/>
<path d="M167.502 423.505C167.684 423.203 167.772 422.868 167.794 422.536C167.796 422.509 167.793 422.338 167.794 422.163C167.848 422.183 167.91 422.194 167.98 422.195C168.292 422.199 168.612 422.041 168.894 421.947C168.982 421.918 169.068 421.887 169.152 421.854C169.148 421.955 169.147 422.056 169.15 422.156C169.158 422.367 169.187 422.581 169.255 422.786C169.388 423.187 169.748 423.599 170.249 423.758C170.178 423.736 169.84 424.3 169.798 424.358C169.612 424.611 169.243 424.8 168.886 424.874C168.651 424.923 168.4 424.912 168.165 424.863C167.609 424.747 167.137 424.407 166.942 423.982C167.177 423.854 167.374 423.713 167.502 423.505" fill="#9C4824"/>
<path d="M166.982 421.101C166.964 421.04 166.938 420.978 166.942 420.913C166.947 420.843 167 420.776 167.034 420.713C167.1 420.589 167.165 420.465 167.246 420.348C167.305 420.262 167.369 420.182 167.419 420.095C167.788 419.844 168.31 419.634 168.774 419.783C169.28 419.948 169.565 420.381 169.541 420.832C169.74 420.858 169.911 420.993 169.964 421.171C170.071 421.532 169.72 421.808 169.423 421.989C169.402 422.003 169.378 422.013 169.354 422.021C169.33 422.066 169.32 422.115 169.306 422.164C169.247 422.383 168.959 422.517 168.748 422.605C168.739 422.609 168.731 422.612 168.721 422.616C168.484 422.714 168.227 422.797 167.968 422.831C167.612 422.877 167.388 422.731 167.26 422.444C167.183 422.273 167.121 422.097 167.065 421.918C167.064 421.914 167.062 421.913 167.062 421.912C167.032 421.82 167.005 421.727 166.997 421.632C166.987 421.533 167.029 421.465 167.042 421.371C167.049 421.304 167.045 421.236 167.015 421.174C167.002 421.15 166.99 421.126 166.982 421.101" fill="#7C4117"/>
<path d="M167.274 419.582C167.295 419.562 167.32 419.543 167.351 419.538C167.395 419.53 167.439 419.551 167.472 419.579C167.506 419.606 167.532 419.639 167.568 419.664C167.654 419.725 167.743 419.707 167.838 419.678C167.964 419.64 168.091 419.603 168.221 419.578C168.456 419.533 168.701 419.532 168.939 419.55C169.198 419.569 169.558 419.634 169.723 419.833C169.753 419.869 169.778 419.91 169.791 419.953C169.803 419.994 169.788 420.045 169.805 420.084C169.824 420.125 169.908 420.142 169.957 420.175C170.085 420.263 170.172 420.395 170.214 420.533C170.27 420.718 170.256 420.913 170.228 421.102C170.171 421.484 169.963 421.887 169.648 422.157C169.543 422.248 169.423 422.326 169.295 422.39C169.266 422.404 169.237 422.418 169.208 422.43C169.19 422.438 169.138 422.476 169.119 422.456C169.115 422.452 169.114 422.446 169.113 422.44C169.103 422.378 169.148 422.335 169.187 422.29C169.235 422.235 169.284 422.178 169.302 422.108C169.327 422.014 169.342 421.935 169.44 421.881C169.549 421.82 169.627 421.737 169.695 421.639C169.742 421.572 169.785 421.497 169.808 421.42C169.828 421.348 169.835 421.252 169.808 421.18C169.767 421.075 169.637 421.031 169.521 421.055C169.352 421.088 169.223 421.233 169.204 421.383C169.201 421.402 169.195 421.428 169.173 421.43C169.164 421.431 169.156 421.428 169.148 421.425C169.03 421.369 168.991 421.201 168.981 421.094C168.976 421.034 168.986 420.972 169.018 420.919C169.051 420.864 169.108 420.818 169.13 420.759C169.164 420.667 169.119 420.561 169.038 420.495C168.959 420.428 168.851 420.395 168.744 420.376C168.499 420.334 168.249 420.391 168.007 420.431C167.971 420.437 167.934 420.443 167.896 420.448C167.696 420.477 167.47 420.486 167.319 420.354C167.207 420.255 167.157 420.113 167.146 419.976C167.137 419.851 167.177 419.678 167.274 419.582" fill="#1B1C1F"/>
<path d="M170.349 429.701C170.352 429.814 170.352 429.934 170.287 430.031C170.165 430.216 169.878 430.237 169.636 430.237C169.332 430.237 169.008 430.232 168.752 430.086C168.288 429.822 168.255 429.235 168.337 428.751C168.483 427.888 168.828 427.05 168.87 426.177C168.895 425.644 168.807 425.102 168.94 424.582C169.023 424.257 169.446 423.485 169.946 423.543C170.395 423.594 170.223 424.933 170.235 425.314C170.281 426.776 170.319 428.239 170.349 429.701" fill="#FE1010"/>
<path d="M168.143 426.544C168.127 426.817 168.071 427.119 167.829 427.287C167.647 427.413 167.402 427.435 167.172 427.44C167.016 427.443 166.847 427.437 166.728 427.349C166.601 427.254 166.57 427.093 166.554 426.947C166.461 426.093 166.578 425.23 166.798 424.395C166.849 424.197 166.94 423.97 167.159 423.914C167.382 423.858 167.605 424.022 167.705 424.206C168.092 424.917 168.188 425.764 168.143 426.544" fill="#FE1010"/>
<path d="M167.684 422.92C167.692 422.916 167.7 422.912 167.708 422.911C167.734 422.907 167.759 422.922 167.78 422.936C167.853 422.983 168.035 422.958 168.123 422.955C168.248 422.952 168.373 422.942 168.497 422.924C168.74 422.89 168.977 422.826 169.197 422.727C169.211 422.721 169.226 422.714 169.242 422.714C169.268 422.714 169.289 422.731 169.307 422.747C169.497 422.919 169.713 423.226 169.56 423.47C169.486 423.589 169.339 423.645 169.202 423.691C168.905 423.788 168.595 423.856 168.28 423.885C168.114 423.9 167.945 423.905 167.783 423.87C167.618 423.835 167.442 423.752 167.358 423.613C167.253 423.441 167.36 423.239 167.478 423.095C167.512 423.035 167.606 422.984 167.66 422.938C167.667 422.932 167.675 422.925 167.684 422.92" fill="#FE1010"/>
<path d="M166.694 423.901C166.685 423.867 166.688 423.831 166.713 423.797C166.739 423.759 166.788 423.738 166.833 423.719C166.978 423.658 167.043 423.611 167.117 423.485C167.149 423.429 167.171 423.306 167.264 423.302C167.309 423.3 167.347 423.34 167.386 423.353C167.919 423.529 168.533 423.467 169.071 423.342C169.249 423.301 169.475 423.24 169.577 423.099C169.593 423.076 169.608 423.05 169.637 423.04C169.699 423.016 169.754 423.079 169.78 423.121C169.808 423.167 169.831 423.192 169.881 423.224C169.994 423.295 170.119 423.352 170.251 423.39C170.305 423.405 170.365 423.421 170.396 423.463C170.439 423.524 170.401 423.604 170.353 423.661C170.292 423.732 170.201 423.783 170.129 423.846C169.946 424.005 169.815 424.21 169.597 424.337C169.33 424.494 168.998 424.572 168.684 424.626C168.346 424.685 167.993 424.648 167.671 424.547C167.476 424.486 167.291 424.401 167.121 424.295C166.977 424.205 166.737 424.064 166.694 423.901" fill="#770808"/>
<path d="M169.87 431.273C169.944 431.397 170.12 431.568 170.153 431.599C170.286 431.724 170.435 431.831 170.599 431.917C170.607 431.889 170.613 431.861 170.619 431.835C170.63 431.786 170.637 431.743 170.642 431.717C170.644 431.712 170.644 431.706 170.645 431.704C170.648 431.694 170.65 431.684 170.653 431.675C170.676 431.586 170.71 431.498 170.764 431.421C170.775 431.405 170.786 431.392 170.798 431.38C170.812 431.368 170.828 431.357 170.846 431.347C170.865 431.336 170.919 431.321 170.921 431.298C170.921 431.285 170.914 431.274 170.907 431.265C170.795 431.103 170.687 430.937 170.521 430.812C170.503 430.797 170.483 430.783 170.459 430.778C170.331 430.748 170.257 430.81 170.201 430.897C170.162 430.956 170.133 431.026 170.099 431.087C170.076 431.131 170.049 431.169 170.018 431.195C170.011 431.202 170.003 431.207 169.994 431.213C169.957 431.239 169.913 431.257 169.87 431.273" fill="#7C4117"/>
<path d="M169.85 431.238C169.855 431.249 169.861 431.26 169.869 431.272C169.943 431.395 170.12 431.567 170.152 431.598C170.285 431.723 170.434 431.83 170.598 431.916C170.623 431.932 170.649 431.945 170.675 431.958C170.685 431.963 170.695 431.969 170.705 431.973C170.723 431.981 170.74 431.992 170.759 432C170.79 432.015 170.878 432.078 170.895 432.022C170.907 431.98 170.92 431.933 170.92 431.888C170.92 431.847 170.897 431.83 170.856 431.81C170.815 431.786 170.776 431.763 170.739 431.737C170.711 431.718 170.683 431.698 170.657 431.678C170.655 431.677 170.654 431.675 170.652 431.674C170.572 431.612 170.499 431.543 170.423 431.472C170.307 431.364 170.193 431.247 170.114 431.114C170.109 431.105 170.103 431.095 170.098 431.086C170.09 431.07 170.083 431.055 170.075 431.039C169.996 431.069 169.922 431.105 169.85 431.148C169.826 431.164 169.829 431.197 169.85 431.238" fill="#BDC4C2"/>
<path d="M170.569 430.104C170.595 430.04 170.627 429.979 170.658 429.92C170.73 429.786 170.819 429.658 170.933 429.548C171.034 429.451 171.147 429.393 171.269 429.325C171.324 429.038 171.468 428.8 171.685 428.57C171.789 428.459 171.903 428.355 172.03 428.265C172.513 427.924 171.791 427.731 171.543 427.551C171.083 427.217 170.819 426.673 170.917 426.147C170.534 425.588 170.591 424.636 171.109 424.213C171.467 423.922 171.795 423.997 172.063 424.222C172.329 424.397 172.516 424.649 172.635 424.93C172.731 425.09 172.798 425.264 172.839 425.446C173.057 425.589 173.258 425.751 173.396 425.962C173.572 426.234 173.596 426.573 173.582 426.88C173.58 426.903 173.579 426.926 173.585 426.948C173.607 427.032 173.737 427.097 173.802 427.158C173.895 427.245 173.981 427.338 174.054 427.439C174.196 427.636 174.287 427.859 174.295 428.094C174.306 428.425 174.116 428.715 173.825 428.877C173.721 429.416 173.279 429.8 172.711 429.929C172.686 430.17 172.606 430.404 172.441 430.601C172.209 430.878 171.848 431.008 171.491 431.119C171.419 431.141 171.353 431.144 171.295 431.134C171.181 431.163 171.053 431.142 170.945 431.039C170.826 430.926 170.722 430.801 170.643 430.663C170.588 430.567 170.53 430.468 170.521 430.358C170.514 430.272 170.536 430.186 170.569 430.104" fill="#030C43"/>
<path d="M171.041 430.811C170.842 430.664 170.662 430.494 170.532 430.304C170.528 430.298 170.523 430.291 170.516 430.287C170.491 430.27 170.463 430.294 170.451 430.315C170.408 430.388 170.36 430.461 170.304 430.525C170.251 430.585 170.163 430.65 170.148 430.731C170.123 430.862 170.294 431.004 170.397 431.098C170.543 431.232 170.714 431.346 170.899 431.431C170.948 431.454 170.997 431.468 171.043 431.446C171.067 431.436 171.085 431.419 171.104 431.403C171.172 431.346 171.249 431.296 171.331 431.254C171.382 431.228 171.443 431.215 171.489 431.182C171.575 431.12 171.47 431.089 171.398 431.046C171.277 430.975 171.156 430.897 171.041 430.811" fill="#03279F"/>
<path d="M158.959 425.782C158.965 425.768 158.972 425.755 158.979 425.742C159.18 425.359 159.597 425.067 159.972 424.823C160.677 424.365 161.014 423.746 161.335 423.05C161.606 422.463 161.951 421.857 162.684 421.655C162.699 421.65 162.715 421.647 162.73 421.643C163.131 421.542 163.61 421.574 163.972 421.766C164.301 421.941 164.405 422.223 164.416 422.548C164.43 422.972 164.463 423.397 164.574 423.81C164.662 424.142 164.797 424.47 165.01 424.755C165.237 425.06 165.546 425.247 165.899 425.424C166.15 425.55 166.398 425.698 166.52 425.938C166.656 426.205 166.651 426.515 166.584 426.797C166.465 427.295 166.038 427.803 165.612 428.133C164.273 429.172 162.009 429.181 160.554 428.333C160.513 428.309 160.473 428.285 160.434 428.26C159.914 427.932 159.41 427.46 159.114 426.957C158.913 426.616 158.789 426.153 158.959 425.782" fill="#320600"/>
<path d="M156.962 432.183C156.98 432.366 157.199 432.617 157.394 432.42C157.438 432.375 157.469 432.323 157.515 432.281C157.668 432.137 157.915 432.15 158.103 432.065C158.269 431.989 158.411 431.878 158.541 431.761C158.562 431.743 158.581 431.722 158.602 431.703C158.674 431.637 158.742 431.569 158.812 431.503C159.477 430.876 160.331 430.401 160.871 429.686C161.287 429.135 161.484 428.478 161.666 427.834C161.799 427.361 161.928 426.889 162.007 426.406C162.033 426.25 162.054 426.09 162.017 425.936C161.983 425.799 161.897 425.665 161.763 425.593C161.747 425.585 161.731 425.576 161.711 425.569C161.328 425.42 161.045 425.838 160.919 426.088C160.739 426.446 160.674 426.839 160.612 427.223C160.532 427.726 160.451 428.228 160.372 428.731C160.35 428.859 160.328 428.993 160.248 429.103C160.175 429.201 160.063 429.27 159.959 429.344C159.315 429.797 158.946 430.482 158.451 431.065C158.373 431.158 158.289 431.248 158.193 431.326C158.11 431.397 158.017 431.456 157.913 431.497C157.741 431.567 157.549 431.582 157.376 431.649C157.123 431.745 156.938 431.927 156.962 432.183" fill="#FA5A4C"/>
<path d="M158.194 431.326C158.306 431.467 158.418 431.623 158.542 431.761C158.563 431.742 158.582 431.722 158.603 431.703C158.675 431.637 158.743 431.569 158.813 431.503C159.478 430.876 160.332 430.401 160.872 429.686C161.288 429.134 161.485 428.477 161.667 427.834C161.8 427.361 161.928 426.888 162.008 426.406C162.034 426.25 162.055 426.09 162.018 425.936C161.984 425.799 161.898 425.665 161.764 425.593C161.748 425.585 161.732 425.576 161.712 425.569C161.329 425.42 161.046 425.838 160.92 426.087C160.74 426.446 160.675 426.839 160.613 427.223C160.533 427.726 160.452 428.228 160.372 428.731C160.351 428.859 160.329 428.993 160.249 429.103C160.176 429.201 160.063 429.27 159.959 429.344C159.316 429.797 158.946 430.482 158.452 431.065C158.374 431.157 158.29 431.248 158.194 431.326" fill="#DBDCDE"/>
<path d="M163.95 424.875C163.934 424.858 163.918 424.841 163.898 424.829C163.825 424.784 163.728 424.811 163.641 424.825C163.551 424.841 163.458 424.841 163.366 424.841C163.204 424.841 163.041 424.841 162.878 424.841C162.718 424.842 162.564 424.856 162.412 424.808C162.384 424.8 162.356 424.79 162.328 424.792C162.285 424.795 162.224 424.828 162.187 424.849C162.125 424.885 162.07 424.937 162.018 424.983C161.988 425.009 161.958 425.038 161.951 425.074C161.942 425.118 161.968 425.161 161.996 425.198C162.05 425.27 162.114 425.336 162.185 425.395C162.255 425.454 162.331 425.507 162.416 425.548C162.517 425.597 162.628 425.629 162.741 425.651C162.926 425.687 163.117 425.7 163.305 425.688C163.455 425.678 163.608 425.651 163.731 425.575C163.808 425.528 163.869 425.465 163.928 425.401C164.003 425.322 164.103 425.224 164.127 425.12C164.148 425.033 164.007 424.937 163.95 424.875" fill="#EF3434"/>
<path d="M161.789 445.364C161.797 445.379 161.808 445.392 161.821 445.405H162.286C162.322 445.39 162.358 445.372 162.376 445.341C162.4 445.298 162.384 445.245 162.368 445.199C162.303 445.02 162.244 444.84 162.217 444.654C162.208 444.601 162.204 444.546 162.202 444.493C162.195 444.369 162.199 444.245 162.204 444.122H161.851C161.852 444.242 161.851 444.36 161.844 444.48C161.836 444.719 161.815 444.958 161.779 445.196C161.771 445.252 161.763 445.311 161.789 445.364" fill="#E56E98"/>
<path d="M163.613 445.357C163.627 445.379 163.649 445.393 163.673 445.405H164.167C164.18 445.392 164.192 445.376 164.2 445.358C164.224 445.307 164.213 445.246 164.201 445.19C164.156 444.96 164.125 444.726 164.105 444.493C164.094 444.37 164.086 444.248 164.083 444.125H163.73C163.74 444.251 163.749 444.376 163.749 444.501C163.749 444.556 163.746 444.611 163.741 444.666C163.722 444.851 163.671 445.034 163.614 445.214C163.6 445.262 163.585 445.314 163.613 445.357" fill="#E56E98"/>
<path d="M162.391 424.977C162.648 424.624 162.528 424.195 162.474 423.802C162.487 423.804 162.499 423.805 162.507 423.805L163.401 423.809C163.42 423.81 163.594 423.795 163.603 423.811C163.658 423.895 163.64 423.998 163.636 424.105C163.631 424.275 163.614 424.44 163.636 424.597C163.659 424.757 163.755 424.891 163.853 425.023C163.965 425.173 164.075 425.319 164.199 425.461C164.27 425.789 163.928 426.22 163.702 426.444C163.438 426.707 163.048 426.843 162.66 426.789C162.228 426.729 161.951 426.445 161.826 426.066C161.774 425.91 161.744 425.747 161.73 425.584C161.723 425.512 161.709 425.439 161.706 425.367C161.979 425.307 162.235 425.194 162.391 424.977" fill="#C5351D"/>
<path d="M164.329 422.464C164.265 422.329 164.161 422.192 164.054 422.081C163.837 421.857 163.49 421.794 163.174 421.867C162.867 421.938 162.597 422.124 162.427 422.359C162.345 422.473 162.3 422.611 162.277 422.743C162.269 422.791 162.263 422.842 162.263 422.891C162.263 422.933 162.283 422.997 162.262 423.036C162.265 423.031 162.192 423.012 162.186 423.011C162.155 423.006 162.125 423.007 162.096 423.016C162.043 423.032 162.004 423.068 161.983 423.113C161.95 423.18 161.938 423.265 161.952 423.336C161.986 423.508 162.11 423.668 162.263 423.775C162.352 423.838 162.453 423.886 162.56 423.921C162.562 423.923 162.563 423.926 162.565 423.928C162.727 424.122 162.958 424.263 163.206 424.356C163.399 424.428 163.69 424.526 163.896 424.448C164.069 424.382 164.168 424.174 164.247 424.033C164.338 423.87 164.407 423.697 164.447 423.519C164.526 423.165 164.485 422.798 164.329 422.464Z" fill="#FA5A4C"/>
<path d="M161.459 437.983C161.487 436.755 161.029 435.578 160.771 434.386C160.644 433.799 160.543 433.176 160.62 432.577C160.741 431.637 161.233 430.79 161.456 429.874C161.51 429.652 161.609 429.236 161.94 429.228C162.442 429.217 162.944 429.205 163.446 429.194C163.696 429.188 163.995 429.119 164.167 429.317C164.169 429.319 164.171 429.323 164.173 429.325C164.383 429.575 164.41 429.928 164.507 430.22C164.715 430.846 164.997 431.444 165.13 432.09C165.304 432.927 165.309 433.792 165.122 434.627C164.873 435.745 164.453 436.828 164.48 437.983C164.491 438.484 164.584 438.982 164.633 439.482C164.795 441.134 164.469 442.789 164.144 444.425C163.998 444.429 163.852 444.432 163.706 444.436C163.597 440.551 163.35 436.669 162.969 432.795C162.588 436.669 162.341 440.551 162.232 444.436C162.086 444.432 161.94 444.429 161.794 444.425C161.469 442.789 161.143 441.134 161.305 439.482C161.354 438.982 161.447 438.484 161.459 437.983" fill="#1C1D1A"/>
<path d="M158.454 431.406C158.4 431.339 158.351 431.268 158.294 431.203C158.293 431.201 158.29 431.199 158.287 431.198C158.284 431.198 158.281 431.2 158.279 431.202C158.254 431.223 158.235 431.249 158.212 431.27C158.16 431.318 158.089 431.346 158.029 431.387C158.013 431.398 157.996 431.414 157.999 431.432C158.001 431.439 158.005 431.446 158.01 431.452C158.127 431.618 158.27 431.77 158.434 431.903C158.438 431.906 158.443 431.91 158.448 431.91C158.454 431.91 158.459 431.907 158.464 431.903C158.541 431.847 158.611 431.784 158.672 431.714C158.717 431.663 158.629 431.607 158.593 431.568C158.545 431.515 158.497 431.462 158.454 431.406" fill="#D6DAD7"/>
<path d="M161.881 422.278C161.983 422.022 162.238 421.832 162.515 421.715C162.851 421.574 163.247 421.523 163.6 421.627C163.753 421.672 163.894 421.744 164.023 421.83C164.081 421.869 164.138 421.912 164.179 421.966C164.247 422.055 164.267 422.21 164.222 422.32C164.222 422.322 164.222 422.323 164.221 422.324C164.166 422.501 163.977 422.674 163.84 422.809C163.559 423.084 163.029 423.318 162.605 423.278C162.512 423.269 162.426 423.239 162.356 423.193C162.35 423.19 162.346 423.187 162.342 423.183C162.282 423.14 162.237 423.083 162.215 423.014C162.212 423.013 162.21 423.011 162.206 423.01C162.131 422.987 162.047 423.029 162.005 423.088C161.962 423.147 161.952 423.22 161.943 423.29C161.913 423.121 161.865 422.955 161.841 422.785C161.817 422.616 161.817 422.44 161.881 422.278Z" fill="#320600"/>
<path d="M160.394 431.931C160.568 431.138 160.922 430.384 161.145 429.6C161.498 428.36 161.519 427.063 161.422 425.786C161.414 425.669 161.405 425.544 161.469 425.441C161.532 425.337 161.697 425.274 161.803 425.345C161.861 425.384 161.885 425.45 161.906 425.512C161.994 425.772 162.094 426.035 162.274 426.254C162.454 426.474 162.729 426.647 163.036 426.66C163.326 426.672 163.608 426.535 163.796 426.337C163.983 426.14 164.085 425.888 164.136 425.634C164.162 425.507 164.249 425.313 164.438 425.418C164.579 425.496 164.53 425.71 164.509 425.83C164.318 426.9 164.473 427.996 164.719 429.058C164.964 430.12 165.299 431.166 165.472 432.239C165.505 432.442 165.517 432.681 165.343 432.816C165.164 432.953 164.892 432.903 164.664 432.844C164.079 432.694 163.494 432.544 162.908 432.394C162.278 432.233 161.576 432.076 160.991 432.339C160.836 432.408 160.659 432.507 160.506 432.435C160.344 432.359 160.347 432.155 160.38 431.996C160.384 431.974 160.389 431.952 160.394 431.931" fill="#DBDCDE"/>
<path d="M162.879 427.268C162.91 427.478 162.96 427.684 163.023 427.892C163.055 427.998 163.048 428.085 162.922 428.123C162.711 428.186 162.508 428.27 162.319 428.375C162.236 428.421 162.143 428.473 162.047 428.453C161.981 428.44 161.929 428.393 161.897 428.34C161.866 428.287 161.854 428.227 161.843 428.168C161.775 427.789 161.769 427.402 161.808 427.02C161.845 426.64 161.907 426.258 161.978 425.882C161.986 425.844 161.993 425.805 162.001 425.766C162.001 425.766 162.759 425.846 162.808 425.94C162.832 425.988 162.821 426.058 162.824 426.109C162.836 426.404 162.832 426.707 162.851 427.005C162.857 427.094 162.867 427.181 162.879 427.268" fill="#770808"/>
<path d="M161.575 425.078C161.583 425.07 161.592 425.062 161.601 425.054C161.754 424.919 161.939 424.843 162.148 424.803C162.197 424.793 162.329 424.745 162.368 424.784C162.382 424.798 162.384 424.818 162.385 424.837C162.389 424.908 162.393 424.975 162.449 425.032C162.503 425.088 162.576 425.133 162.648 425.167C162.837 425.255 163.08 425.288 163.289 425.248C163.429 425.22 163.589 425.149 163.68 425.047C163.769 424.946 163.83 424.7 164.015 424.856C164.158 424.977 164.298 425.102 164.406 425.248C164.431 425.281 164.455 425.317 164.458 425.357C164.464 425.441 164.388 425.534 164.337 425.599C164.123 425.874 163.768 426.043 163.403 426.101C162.824 426.192 162.084 426.051 161.702 425.621C161.636 425.546 161.581 425.455 161.537 425.368C161.482 425.257 161.494 425.164 161.575 425.078" fill="#FE1010"/>
<path d="M164.913 431.184C164.953 431.111 164.993 431.037 165.028 430.962C164.908 430.914 164.779 430.901 164.637 430.941C164.527 430.971 164.425 431.022 164.329 431.077C164.224 431.138 164.124 431.205 164.028 431.276C163.988 431.306 163.949 431.337 163.932 431.381C163.919 431.415 163.925 431.46 163.961 431.479C163.988 431.494 164.023 431.489 164.055 431.481C164.124 431.463 164.183 431.398 164.254 431.396C164.266 431.396 164.279 431.399 164.286 431.408C164.293 431.418 164.289 431.431 164.283 431.441C164.265 431.474 164.229 431.496 164.194 431.517C164.103 431.57 164.01 431.622 163.912 431.664C163.828 431.701 163.744 431.739 163.649 431.72C163.6 431.711 163.553 431.692 163.505 431.68C163.494 431.677 163.483 431.674 163.472 431.676C163.419 431.686 163.436 431.739 163.462 431.763C163.48 431.779 163.503 431.79 163.526 431.8C163.66 431.855 163.81 431.871 163.957 431.887C164.016 431.893 164.076 431.899 164.136 431.903C164.171 431.906 164.215 431.907 164.249 431.896C164.288 431.883 164.326 431.852 164.36 431.831C164.448 431.775 164.531 431.713 164.616 431.654C164.645 431.634 164.672 431.613 164.699 431.593L164.698 431.597C164.701 431.596 164.703 431.595 164.705 431.593C164.706 431.591 164.707 431.588 164.708 431.586C164.741 431.562 164.774 431.539 164.805 431.514C164.866 431.466 164.918 431.412 164.975 431.359C164.988 431.347 165.001 431.334 165.007 431.319C165.02 431.285 164.995 431.249 164.968 431.223C164.952 431.207 164.932 431.197 164.913 431.184Z" fill="#FA5A4C"/>
<path d="M166.702 428.817C166.16 428.01 165.618 427.204 165.077 426.397C164.916 426.155 164.745 425.908 164.527 425.709C164.523 425.754 164.515 425.797 164.508 425.832C164.405 426.408 164.404 426.992 164.463 427.575C164.674 427.853 164.934 428.108 165.178 428.348C165.228 428.396 165.745 428.886 165.745 428.906C165.35 429.365 165.401 429.987 165.076 430.47C165.033 430.535 164.983 430.598 164.923 430.657C164.911 430.669 164.902 430.68 164.89 430.694C164.846 430.748 164.797 430.814 164.741 430.854C164.724 430.866 164.708 430.875 164.69 430.88C164.689 430.881 164.688 430.881 164.687 430.882C164.743 430.985 164.871 431.075 164.955 431.145C164.999 431.181 165.039 431.22 165.078 431.26C165.11 431.248 165.143 431.238 165.17 431.226C165.199 431.213 165.228 431.199 165.256 431.183C165.274 431.173 165.292 431.163 165.308 431.151C165.339 431.133 165.37 431.112 165.399 431.092C165.539 430.996 165.664 430.885 165.788 430.772C166.054 430.532 166.279 430.254 166.443 429.948C166.589 429.679 166.897 429.108 166.702 428.817" fill="#E56E98"/>
<path d="M165.178 428.346C165.228 428.395 165.745 428.885 165.745 428.905C165.35 429.363 165.401 429.986 165.076 430.468C165.033 430.533 164.983 430.597 164.923 430.656C164.911 430.667 164.902 430.679 164.89 430.693C164.846 430.747 164.797 430.813 164.741 430.853C164.863 430.967 164.962 431.095 165.048 431.233C165.054 431.243 165.061 431.254 165.069 431.262C165.103 431.248 165.141 431.238 165.17 431.225C165.199 431.212 165.228 431.197 165.256 431.182C165.274 431.171 165.292 431.161 165.308 431.15C165.339 431.131 165.37 431.111 165.399 431.091C165.539 430.994 165.664 430.883 165.788 430.771C166.054 430.53 166.279 430.252 166.443 429.947C166.589 429.677 166.897 429.107 166.702 428.816C166.16 428.009 165.618 427.202 165.077 426.395C164.916 426.153 164.745 425.907 164.527 425.708C164.523 425.753 164.514 425.796 164.508 425.831C164.405 426.407 164.404 426.99 164.463 427.574C164.674 427.852 164.934 428.107 165.178 428.346" fill="#DBDCDE"/>
<path d="M164.692 430.786C164.717 430.763 164.742 430.741 164.767 430.718C164.78 430.706 164.793 430.694 164.81 430.686C164.895 430.648 164.98 430.783 165.02 430.831C165.092 430.917 165.175 430.995 165.255 431.075C165.273 431.092 165.29 431.109 165.301 431.131C165.311 431.151 165.314 431.177 165.302 431.197C165.283 431.228 165.239 431.236 165.205 431.255C165.158 431.281 165.132 431.331 165.084 431.356C165.075 431.361 165.064 431.365 165.053 431.364C165.038 431.364 165.025 431.356 165.014 431.348C164.859 431.242 164.731 431.108 164.622 430.964C164.604 430.941 164.586 430.913 164.595 430.885C164.6 430.87 164.613 430.858 164.625 430.847C164.648 430.827 164.67 430.806 164.692 430.786" fill="#E8ECE9"/>
<path d="M163.613 445.357C163.627 445.379 163.649 445.393 163.673 445.405H164.167C164.18 445.392 164.192 445.376 164.2 445.358C164.224 445.307 164.213 445.246 164.201 445.19C164.156 444.96 164.125 444.726 164.105 444.493C164.084 444.496 164.063 444.497 164.04 444.497C163.946 444.498 163.852 444.5 163.757 444.501H163.749C163.749 444.556 163.746 444.611 163.741 444.666C163.722 444.851 163.671 445.034 163.614 445.214C163.6 445.262 163.585 445.314 163.613 445.357" fill="#F8A018"/>
<path d="M161.789 445.364C161.797 445.379 161.808 445.392 161.821 445.405H162.286C162.322 445.39 162.358 445.372 162.376 445.341C162.4 445.298 162.384 445.245 162.368 445.199C162.303 445.02 162.244 444.84 162.217 444.654C162.208 444.601 162.204 444.546 162.202 444.493C162.195 444.491 162.189 444.49 162.182 444.49C162.108 444.487 162.034 444.485 161.96 444.482C161.952 444.482 161.898 444.481 161.844 444.48C161.836 444.719 161.815 444.958 161.779 445.196C161.771 445.252 161.763 445.311 161.789 445.364" fill="#F8A018"/>
<path d="M157.117 434.025C156.66 434.025 156.289 433.697 156.289 433.292V422.641C156.289 422.411 156.295 422.173 156.302 421.93C156.333 420.738 156.365 419.506 155.693 418.643C155.367 418.225 154.89 417.928 154.446 417.867C154.144 417.825 153.868 417.891 153.608 418.069C152.771 418.641 152.703 419.923 152.643 421.055C152.627 421.352 152.612 421.637 152.585 421.9C152.284 424.848 151.949 427.888 151.589 430.938C151.541 431.34 151.134 431.627 150.679 431.591C150.224 431.549 149.894 431.188 149.941 430.784C150.3 427.742 150.634 424.709 150.934 421.768C150.96 421.525 150.973 421.261 150.988 420.986C151.061 419.608 151.151 417.892 152.598 416.905C153.22 416.481 153.947 416.312 154.703 416.416C155.606 416.541 156.463 417.049 157.056 417.809C158.034 419.063 157.994 420.604 157.958 421.963C157.952 422.195 157.946 422.422 157.946 422.641V433.292C157.946 433.697 157.575 434.025 157.117 434.025" fill="#010930"/>
<path d="M150.77 430.786C151.129 427.744 151.463 424.711 151.763 421.77C151.789 421.526 151.802 421.262 151.817 420.987C151.89 419.609 151.98 417.894 153.427 416.907C153.824 416.637 154.265 416.482 154.727 416.424L154.703 416.418C153.947 416.314 153.22 416.483 152.598 416.907C151.151 417.894 151.061 419.609 150.988 420.987C150.973 421.262 150.96 421.526 150.934 421.77C150.634 424.711 150.3 427.744 149.941 430.786C149.894 431.19 150.224 431.55 150.679 431.593C150.858 431.608 151.023 431.56 151.168 431.487C150.903 431.344 150.736 431.079 150.77 430.786" fill="#02125E"/>
<path d="M157.118 433.292V422.641C157.118 422.411 157.124 422.173 157.131 421.93C157.162 420.738 157.194 419.506 156.521 418.643C156.196 418.225 155.718 417.928 155.275 417.867C155.073 417.839 154.883 417.864 154.7 417.934C155.065 418.053 155.429 418.304 155.692 418.643C156.365 419.506 156.333 420.738 156.301 421.93C156.295 422.173 156.289 422.411 156.289 422.641V433.292C156.289 433.697 156.66 434.025 157.117 434.025C157.272 434.025 157.408 433.978 157.532 433.913C157.289 433.786 157.118 433.561 157.118 433.292" fill="#040925"/>
<path d="M177.516 431.823C177.059 431.823 176.688 431.494 176.688 431.089V420.438C176.688 420.208 176.694 419.97 176.7 419.726C176.732 418.535 176.764 417.302 176.092 416.44C175.766 416.023 175.289 415.725 174.845 415.664C174.543 415.622 174.267 415.688 174.007 415.866C173.169 416.438 173.102 417.72 173.042 418.851C173.026 419.149 173.011 419.434 172.984 419.697C172.682 422.645 172.348 425.685 171.988 428.735C171.94 429.137 171.532 429.424 171.078 429.388C170.622 429.346 170.293 428.985 170.34 428.582C170.698 425.539 171.033 422.506 171.333 419.565C171.359 419.321 171.372 419.057 171.387 418.783C171.46 417.404 171.55 415.688 172.997 414.703C173.619 414.277 174.346 414.109 175.101 414.214C176.005 414.338 176.862 414.846 177.454 415.605C178.433 416.86 178.393 418.401 178.357 419.76C178.351 419.992 178.345 420.219 178.345 420.438V431.089C178.345 431.494 177.974 431.823 177.516 431.823" fill="#010930"/>
<path d="M171.169 428.583C171.527 425.54 171.862 422.507 172.162 419.566C172.188 419.322 172.201 419.058 172.216 418.784C172.289 417.405 172.379 415.689 173.825 414.704C174.222 414.433 174.664 414.278 175.126 414.22L175.101 414.215C174.346 414.11 173.619 414.278 172.997 414.704C171.55 415.689 171.46 417.405 171.387 418.784C171.372 419.058 171.359 419.322 171.333 419.566C171.033 422.507 170.698 425.54 170.34 428.583C170.293 428.986 170.622 429.347 171.078 429.389C171.257 429.403 171.421 429.356 171.566 429.283C171.301 429.14 171.134 428.874 171.169 428.583" fill="#02125E"/>
<path d="M177.517 431.089V420.438C177.517 420.208 177.523 419.97 177.53 419.726C177.561 418.535 177.594 417.302 176.921 416.44C176.595 416.023 176.117 415.725 175.675 415.664C175.472 415.636 175.282 415.66 175.1 415.731C175.464 415.849 175.828 416.102 176.092 416.44C176.765 417.302 176.732 418.535 176.701 419.726C176.694 419.97 176.688 420.208 176.688 420.438V431.089C176.688 431.494 177.059 431.823 177.517 431.823C177.671 431.823 177.808 431.776 177.931 431.71C177.688 431.583 177.517 431.357 177.517 431.089Z" fill="#040925"/>
<path d="M149.9 429.712L171.578 427.633L178.482 430.936L179.31 448.187L156.527 449.899L149.9 446.963V429.712Z" fill="#D43F49"/>
<path d="M171.578 427.63L149.9 429.71V446.838L172.011 444.967L171.578 427.63" fill="#FF5D0D"/>
<path d="M172.011 444.969L149.9 446.841V446.963L156.527 449.899L179.31 448.187L172.011 444.969" fill="#040925"/>
<path d="M179.31 448.187L178.482 430.936L171.578 427.632L172.011 444.969L179.31 448.187Z" fill="#DD4901"/>
<path d="M171.578 428.658L149.9 430.808V431.82L171.578 429.542V428.658Z" fill="#FFFFFE"/>
<path d="M171.854 430.519L149.9 432.668V433.679L171.854 431.402V430.519Z" fill="#FFFFFE"/>
<path d="M171.854 432.377L149.9 434.527V435.538L171.854 433.261V432.377" fill="#FFFFFE"/>
<path d="M171.854 434.129L149.9 436.387V437.397L171.854 435.013V434.129" fill="#FFFFFE"/>
<path d="M171.854 436.097L149.9 438.247V439.258L171.854 436.981V436.097" fill="#FFFFFE"/>
<path d="M171.854 437.89L149.9 440.104V441.115L171.854 438.775V437.89Z" fill="#FFFFFE"/>
<path d="M171.854 439.812L149.9 441.962V442.973L171.854 440.696V439.812" fill="#FFFFFE"/>
<path d="M172.011 441.675L149.9 443.824V444.835L172.011 442.558V441.675" fill="#FFFFFE"/>
<path d="M172.011 443.532L149.9 445.682V446.693L172.011 444.416V443.532Z" fill="#FFFFFE"/>
<path d="M178.558 432.512V431.671L171.578 428.659V429.544L178.558 432.512" fill="#DBDCDE"/>
<path d="M178.681 434.437V433.596L171.701 430.584V431.469L178.681 434.437Z" fill="#DBDCDE"/>
<path d="M178.838 436.364V435.523L171.58 432.422L171.736 433.373L178.838 436.364" fill="#DBDCDE"/>
<path d="M178.934 438.002V437.16L171.741 434.148V434.942L178.934 438.002Z" fill="#DBDCDE"/>
<path d="M178.933 440.051V439.209L171.743 436.107V436.993L178.933 440.051" fill="#DBDCDE"/>
<path d="M179.146 441.854V441.013L171.853 437.89L171.743 438.705L179.146 441.854" fill="#DBDCDE"/>
<path d="M179.147 443.735V442.894L171.854 439.814V440.698L179.147 443.735" fill="#DBDCDE"/>
<path d="M179.147 445.665V444.823L171.854 441.661V442.545L179.147 445.665" fill="#DBDCDE"/>
<path d="M179.31 447.588V446.747L171.854 443.516V444.401L179.31 447.588" fill="#DBDCDE"/>
<path d="M149.943 430.077L171.494 428.01L178.284 431.259C178.485 431.356 178.737 431.289 178.846 431.11C178.954 430.932 178.879 430.71 178.678 430.614L171.774 427.31C171.7 427.274 171.617 427.26 171.533 427.268L149.854 429.348C149.627 429.37 149.462 429.551 149.487 429.753C149.511 429.954 149.716 430.099 149.943 430.077" fill="#12152A"/>
<path d="M172.012 444.968L171.998 444.418L171.999 444.462L172.012 444.968Z" fill="#B02C36"/>
<path d="M171.998 444.419L171.974 443.537H171.974L171.975 443.57L171.998 444.419Z" fill="#C33C49"/>
<path d="M179.309 448.187L172.01 444.969L171.998 444.463L179.279 447.576L179.309 448.187Z" fill="#AA3B04"/>
<path d="M171.978 443.569L171.977 443.536H171.976L171.95 442.569H171.951L171.951 442.584L171.978 443.569" fill="#B02C36"/>
<path d="M179.237 446.714L171.975 443.568L171.95 442.583L179.146 445.661V444.875L179.237 446.714ZM179.143 444.818L173.17 442.228C173.526 442.08 173.861 441.888 174.173 441.663L176.631 442.687L179.089 443.711L179.143 444.818ZM179.047 442.851L174.864 441.084C175.111 440.846 175.339 440.589 175.549 440.323L178.994 441.788L179.047 442.851ZM178.952 440.929L176.014 439.67C176.162 439.44 176.297 439.208 176.417 438.979L178.908 440.039L178.952 440.929ZM178.866 439.178L176.754 438.267C176.896 437.931 177.021 437.587 177.131 437.234L178.805 437.946L178.866 439.178ZM178.763 437.088L177.339 436.492C177.396 436.263 177.448 436.032 177.495 435.798L178.725 436.317L178.763 437.088ZM178.683 435.456L177.634 435.008C177.683 434.689 177.724 434.367 177.759 434.045L178.632 434.416L178.683 435.456ZM178.589 433.556L177.833 433.229C177.858 432.896 177.878 432.561 177.893 432.228L178.537 432.502L178.589 433.556ZM178.495 431.642L177.922 431.395C177.925 431.292 177.927 431.19 177.929 431.088L178.013 431.128L178.284 431.257C178.295 431.263 178.307 431.267 178.318 431.272L178.481 431.349L178.495 431.642Z" fill="#AA3B04"/>
<path d="M178.537 432.504L177.892 432.23C177.905 431.952 177.915 431.674 177.922 431.397L178.495 431.644L178.537 432.504" fill="#9FA0A3"/>
<path d="M178.632 434.416L177.759 434.044C177.788 433.773 177.813 433.501 177.833 433.229L178.59 433.556L178.632 434.416" fill="#9FA0A3"/>
<path d="M178.726 436.318L177.496 435.8C177.548 435.538 177.594 435.275 177.635 435.01L178.684 435.457L178.726 436.318" fill="#9FA0A3"/>
<path d="M178.807 437.948L177.133 437.236C177.21 436.992 177.279 436.744 177.341 436.494L178.765 437.089L178.807 437.948" fill="#9FA0A3"/>
<path d="M178.909 440.039L176.418 438.98C176.419 438.976 176.421 438.973 176.422 438.971C176.542 438.741 176.653 438.507 176.754 438.267L178.867 439.178L178.909 440.039Z" fill="#9FA0A3"/>
<path d="M178.996 441.79L175.55 440.325C175.718 440.111 175.873 439.893 176.015 439.672L178.954 440.931L178.996 441.79Z" fill="#9FA0A3"/>
<path d="M179.09 443.712L174.174 441.664C174.418 441.488 174.648 441.293 174.864 441.085L179.047 442.852L179.09 443.712" fill="#9FA0A3"/>
<path d="M179.147 445.665L171.951 442.587L171.95 442.572C172.321 442.506 172.685 442.419 173.036 442.286C173.081 442.269 173.126 442.25 173.171 442.232L179.144 444.822L179.147 444.879V445.665Z" fill="#9FA0A3"/>
<path d="M179.279 447.576L171.997 444.463L171.996 444.418L171.975 443.569L179.237 446.716L179.279 447.576" fill="#9FA0A3"/>
<path d="M178.319 431.274C178.308 431.269 178.297 431.264 178.285 431.259L178.015 431.127L178.319 431.274" fill="#0B0F1B"/>
<path d="M149.9 446.838V446.692L171.997 444.417L172.011 444.967L149.9 446.838V446.838ZM149.9 445.681V444.833L164.366 443.344C165.677 443.334 166.987 443.267 168.263 443.162C168.924 443.109 169.583 443.042 170.241 442.966C170.575 442.926 170.908 442.872 171.231 442.781C171.316 442.757 171.505 442.661 171.672 442.591L171.951 442.562V442.568C171.95 442.569 171.95 442.569 171.949 442.569L171.974 443.534L149.9 445.681V445.681ZM149.9 443.821V442.974L155.949 442.346C156.829 442.638 157.714 442.835 158.614 442.975L149.9 443.821ZM149.9 441.962V441.114L152.533 440.834C153.007 441.101 153.498 441.344 153.98 441.563L149.9 441.962V441.962ZM149.9 440.103V439.255L150.345 439.209C150.598 439.476 150.889 439.731 151.207 439.972L149.9 440.103Z" fill="#D03200"/>
<path d="M149.9 446.964V446.841L172.011 444.97L149.9 446.964" fill="#500E16"/>
<path d="M149.9 439.258V438.671C150.03 438.857 150.179 439.037 150.345 439.212L149.9 439.258Z" fill="#DBDCDE"/>
<path d="M149.9 441.115V440.104L151.207 439.973C151.615 440.283 152.065 440.57 152.533 440.835L149.9 441.115Z" fill="#DBDCDE"/>
<path d="M149.9 442.973V441.962L153.98 441.562C154.463 441.781 154.938 441.975 155.376 442.142C155.567 442.215 155.758 442.282 155.949 442.346L149.9 442.973" fill="#DBDCDE"/>
<path d="M149.9 444.835V443.824L158.614 442.977C159.641 443.136 160.687 443.22 161.765 443.283C162.521 443.327 163.285 443.347 164.048 443.347C164.154 443.347 164.26 443.347 164.366 443.346L149.9 444.835ZM171.672 442.593C171.778 442.549 171.876 442.514 171.932 442.514C171.938 442.514 171.944 442.515 171.949 442.515L171.951 442.565L171.672 442.593" fill="#DBDCDE"/>
<path d="M149.9 446.693V445.682L171.974 443.535L171.997 444.418L149.9 446.693" fill="#DBDCDE"/>
<path d="M172.011 444.968L171.997 444.418H171.998L172.011 444.968ZM171.975 443.536L171.95 442.57C171.951 442.57 171.951 442.57 171.952 442.569L171.975 443.536H171.975Z" fill="#921E27"/>
<path d="M171.998 444.419L171.973 443.537H171.974L171.998 444.419H171.998" fill="#A22935"/>
<path d="M154.092 416.819C153.962 416.819 153.837 416.764 153.758 416.668L143.817 404.607C143.682 404.444 143.722 404.214 143.906 404.094C144.091 403.974 144.35 404.011 144.485 404.174L153.833 415.515L155.34 406.699C155.373 406.498 155.585 406.359 155.811 406.39C156.037 406.421 156.193 406.608 156.159 406.809L154.502 416.506C154.477 416.654 154.354 416.773 154.191 416.809L154.092 416.819Z" fill="#12152A"/>
<path d="M154.713 415.85C154.713 416.896 154.406 417.745 154.027 417.745C153.648 417.745 153.342 416.896 153.342 415.85C153.342 414.803 153.648 413.955 154.027 413.955C154.406 413.955 154.713 414.803 154.713 415.85Z" fill="#12152A"/>
<path d="M159.198 414.982L153.985 415.484C153.757 415.505 153.592 415.685 153.615 415.887C153.637 416.076 153.817 416.216 154.026 416.216L154.069 416.215L159.198 415.725C159.191 415.476 159.198 415.262 159.198 414.982" fill="#D03200"/>
<path d="M159.259 410.874V416.653C159.259 418.795 161.264 420.044 163.715 420.044C166.166 420.044 168.171 418.795 168.171 416.653V410.874C168.171 410.874 163.955 412.759 159.259 410.874Z" fill="#010930"/>
<path d="M163.13 418.536C165.586 418.536 167.594 417.286 167.594 415.144V411.087C167.959 410.967 168.171 410.874 168.171 410.874V416.653C168.171 418.795 166.162 420.044 163.706 420.044C161.366 420.044 159.435 418.907 159.259 416.946C160.031 417.968 161.478 418.536 163.13 418.536" fill="#040925"/>
<path d="M168.171 410.618V411.255C168.171 411.607 166.176 411.892 163.715 411.892C161.254 411.892 159.259 411.607 159.259 411.255V410.618H168.171Z" fill="#D03200"/>
<path d="M163.715 411.639C161.254 411.639 159.259 411.309 159.259 410.903V410.62H168.171V410.903C168.171 411.309 166.176 411.639 163.715 411.639Z" fill="#FF5D0D"/>
<path d="M168.171 410.621C168.171 410.199 166.176 409.857 163.715 409.857C161.254 409.857 159.259 410.199 159.259 410.621C159.259 411.043 161.254 411.385 163.715 411.385C166.176 411.385 168.171 411.043 168.171 410.621Z" fill="#12152A"/>
<path d="M167.936 410.875C167.34 410.571 165.676 410.351 163.715 410.351C161.754 410.351 160.09 410.571 159.494 410.875C159.343 410.798 159.259 410.715 159.259 410.628C159.259 410.202 161.254 409.856 163.715 409.856C166.176 409.856 168.171 410.202 168.171 410.628C168.171 410.715 168.087 410.798 167.936 410.875Z" fill="#DD4901"/>
<path d="M167 415.035C166.791 415.035 166.611 414.894 166.589 414.705C166.566 414.503 166.731 414.324 166.959 414.302L174.562 413.612C174.781 413.594 174.993 413.738 175.016 413.94C175.039 414.141 174.874 414.321 174.646 414.342L167.043 415.033L167 415.035" fill="#D03200"/>
<path d="M175.018 414.319L174.915 414.308C174.742 414.269 174.617 414.135 174.604 413.978L173.741 403.115C173.725 402.912 173.897 402.737 174.125 402.723C174.355 402.703 174.551 402.861 174.567 403.063L175.343 412.824L180.765 405.34C180.889 405.169 181.144 405.119 181.338 405.229C181.53 405.339 181.586 405.566 181.463 405.737L175.366 414.15C175.288 414.258 175.156 414.319 175.018 414.319Z" fill="#12152A"/>
<path d="M175.704 413.641C175.704 414.688 175.397 415.537 175.019 415.537C174.64 415.537 174.333 414.688 174.333 413.641C174.333 412.596 174.64 411.747 175.019 411.747C175.397 411.747 175.704 412.596 175.704 413.641Z" fill="#12152A"/>
</svg>
